<?xml version="1.0" encoding="utf-8"?>
<!-- Generator: Adobe Illustrator 27.0.0, SVG Export Plug-In . SVG Version: 6.00 Build 0)  -->
<svg version="1.2" baseProfile="tiny" xmlns="http://www.w3.org/2000/svg" x="0px"
     y="0px" viewBox="0 0 70.69443 70.69443" overflow="visible" xml:space="preserve">
<g id="Layer_4">
	<circle fill="#FFF2D7" cx="35.24539" cy="35.03849" r="31.15756"/>
	<path fill="none" stroke="#FFFFFF" stroke-width="6" stroke-miterlimit="10" d="M3,35.34722C3,17.48234,17.48234,3,35.34722,3
		s32.34722,14.48234,32.34722,32.34722"/>
</g>
<g id="Layer_3">
	<path fill="none" stroke="#ECD564" stroke-width="0.25" stroke-miterlimit="10" d="M50.70238,57.04255
		c-2.15069,0.25006-3.12589,0.83872-1.63855,2.62766c-0.66142-0.31982-1.26625-0.49653-1.84043-0.59575"/>
	<path fill="#FDF6AD" d="M48.43392,62.1144c1.81337,0.31552,4.18701,0.4671,4.83571-3.19693
		c1.01559,3.17596,2.66257,0.80927-0.17388-1.91594l-2.44681,0.04103c-2.60828,0.38469-2.66649,1.27007-1.63871,2.56214
		l-1.66957-0.50895C47.00455,60.01051,47.60345,61.04734,48.43392,62.1144z"/>
	<path fill="none" stroke="#ECD564" stroke-width="0.25" stroke-miterlimit="10" d="M53.15957,57.12766
		c1.70377,1.05973,1.73404,3.26596,1.1383,3.42553c-0.12501-0.02392-0.37234-0.03191-1.02824-1.63573
		c-0.23408,3.20997-3.00462,3.82813-4.83571,3.19693c0.10093-0.33945,0.45851-0.60616,0.96809-0.82979
		c-1.11688-0.17401-1.5628-0.55563-1.84881-0.98673c1.32633,0.70061,2.62635,0.35521,3.91489-0.44681
		c-1.27091-0.3029-1.64067-0.87391-1.07447-1.7234l0.67022-0.68085"/>
	<path fill="#FBBA63" d="M16.84575,25.32477c0.3686,1.97318,0.9291,3.69877,1.70745,5.14331
		c-2.88298,0.83739,2.74468,5.06383,2.95707,0.48411c1.1126,1.63345,1.02071,2.69789,0.36208,3.49461
		c0.89655,0.07021,1.79063,0.09109,2.67911,0c-1.87345,5.6623-1.20042,10.05511,2.87234,12.75307
		c1.06129,4.38868,1.8802,9.21729,2.34216,14.69374c-0.29942,1.12237-0.51161,2.18245-0.24181,2.89836
		c2.60626,1.12246,6.58442,0.88887,6.90137-0.25117c0.43708-5.601,0.14634-11.13847-1.79924-15.75482l1.07318-0.12907
		c0.77718,2.49883,0.92523,5.0768,0.79602,7.60725l0.08677,7.15582c1.31141,0.20392,2.47229,0.06842,3.3427-0.72206
		c0.932-2.08221,1.45182-4.7619,1.69206-7.84686c0.71859,2.75528,0.5815,5.58565-0.14893,8.46809
		c-0.07979,1.82978,6.38298,2.02127,6.87234,0c0.09548-5.13548-1.32175-9.683-3.98643-13.74564
		c-0.55539-0.32702-1.09479-0.47062-1.52953-0.40596c1.4063-8.54008-0.61604-13.35546-7.57457-12.99116
		c-2.69415,0.23883-3.63467-1.24109-4.84072-4.74448c0.11071-1.88026,0.75314-3.3659,1.9509-4.43938
		c1.26496-1.92711,1.61576-3.57796,1.54779-5.10226c0.93582-3.25197,0.79045-7.30967-2.93119-10.49881
		c-1.71908,1.01127-2.59604,2.89808-2.51665,5.77918C21.48936,19.89362,20.87447,21.16969,16.84575,25.32477z"/>
	<path fill="#FFFFFF" d="M27.37766,20.40425c4.2766,0.60638,2.71277,9.72547-1.542,9.38298
		c-1.78798-0.26429-3.07072-1.11514-3.24776-3.50831c-0.11313-1.52924,0.30463-3.05845,1.23353-4.27849
		C24.82968,20.67618,26.00947,20.119,27.37766,20.40425z"/>
	<path fill="#FFFFFF" d="M16.84575,25.32477c0.85813-0.21598,1.63875-0.49436,2.21809-0.93476
		c0.98976,1.69708,0.84806,3.98045,0.53967,5.12188c-0.17567,0.36563-0.54927,0.60222-0.93861,0.82854
		C17.77561,29.1848,17.19072,27.47369,16.84575,25.32477z"/>
	<path fill="#5DB84A" d="M24.99465,21.44741c0.98339,0.33079,1.56714,1.53498,1.48623,4.19171
		c-0.09015,1.70554-1.03073,3.08841-2.20908,3.09192c-1.03187-0.01986-1.78847-0.83033-1.53215-3.86083
		C23.16136,22.3579,23.92523,21.2677,24.99465,21.44741z"/>
	<path d="M23.70259,27.8251c0.79456-0.08149,1.39127-0.70914,1.43772-2.85576c0.02164-1.6347-0.4066-2.78931-1.30045-2.61965
		C22.14229,22.58495,22.37233,27.91681,23.70259,27.8251z"/>
	<path fill="#FFFFFF" d="M24.91489,22.3617c-0.44731,0-0.93641,0.716-0.71277,1.70213
		c0.18135,0.61402,0.50513,1.08803,1.1005,0.95044C26.1572,24.69262,25.93342,22.3617,24.91489,22.3617z"/>
	<path fill="#FFFFFF" d="M24.38981,25.95513c-0.18196,0-0.38091,0.22208-0.28994,0.52795
		c0.07377,0.19045,0.20548,0.33747,0.44767,0.2948C24.89516,26.67811,24.80413,25.95513,24.38981,25.95513z"/>
	<path fill="#5DB84A" d="M18.32838,24.35188c0.67288,0.06752,1.21852,0.74802,1.55256,2.44795
		c0.19017,1.09684-0.20689,2.11204-0.95514,2.28523c-0.65857,0.13709-1.25693-0.26814-1.53374-2.23103
		C17.29553,25.19643,17.62275,24.39285,18.32838,24.35188z"/>
	<path d="M18.44378,28.4712c0.5095-0.10693,0.85356-0.55442,0.73749-1.94909c-0.0973-1.06113-0.45352-1.78041-1.02138-1.60956
		C17.0755,25.18066,17.58771,28.62124,18.44378,28.4712z"/>
	<path fill="#FFFFFF" d="M18.85756,24.84713c-0.28996,0.03046-0.55824,0.5279-0.34612,1.1519
		c0.15937,0.38567,0.40154,0.67089,0.7781,0.54115C19.82159,26.27349,19.5178,24.77777,18.85756,24.84713z"/>
	<path fill="#FDF6AD" d="M42.32098,39.66966c6.02913-2.51934,9.25348,2.22395,6.03512,8.05374
		c-2.00504,4.05319-1.65414,8.4709,3.59602,8.80851c5.44722,0.71766,7.77117-9.24155,6.46072-17.14024
		c-0.69407-4.1835-2.98373-7.93975-10.24264-7.79007c-2.13941,0.21733-3.94804,1.37531-5.54053,2.8204
		c-0.87671,0.79556-1.69958,1.73012-2.45492,2.83899"/>
	<path fill="#BF1C7A" d="M20.89019,32.75421c0.57743,0.49231,0.88486,1.02176,1.10932,1.56262
		c0.63706-0.88574,0.52696-1.99167-0.48925-3.36464C21.47783,31.64441,21.29062,32.25532,20.89019,32.75421z"/>
	<path fill="#F55161" d="M22.2691,32.53717c-0.49546,0.46126-0.50976,1.06759-0.2496,1.75669
		c0.20617-0.30042,0.40809-0.60046,0.35735-0.87834C22.47172,33.05486,22.44603,32.75677,22.2691,32.53717z"/>
	<path fill="#CB9B59" d="M37.04395,27.302l0.75392,0.12454c1.81779-3.37654,1.44862-7.11081-0.27219-10.60418
		c0.19199-1.13553,0.94871-2.39004,0.57903-4.22617c-0.55972-1.31958-3.49341-4.53054-4.48679-5.07542
		c-2.41976-0.67933-3.28537,0.01779-4.58226,0.0705c-2.81276-1.87262-5.93576-3.2288-8.97025-3.78277
		c4.40799,3.95745-4.5335,8.48936-3.87659,0.92553c-4.15697,3.79815-4.69808,9.15599-1.10732,10.55029
		c2.29545-4.93819,10.45152-6.20222,14.34309-2.50676c0.53167-1.01564,1.05161-1.57763,1.55207-1.38611
		c2.15179,1.43238,3.53649,3.96616,3.51594,8.27875C35.82891,20.59562,36.48703,23.78023,37.04395,27.302z"/>
	<path fill="#FDF6AD" d="M28.46002,17.17064c-1.99771,1.01131-3.42455,2.35104-4.05576,4.14851
		c-0.33457-0.67019-0.34067-1.14831-0.29787-2.85106c-0.39096,1.65957-0.96957,3.14392-2,4.19149
		c0.13963-0.36971,0.20115-0.81429,0-1.51064c-5.08651,7.57215-10.02128,3.19149-12.21277,0.89362
		c4.80829,1.09624,5.44681-0.93617,5.6383-4.55851c-0.50743,0.72845-1.1727,1.11698-1.61702,1.19681
		c0.68085-4.18085,3.67553-6.9734,5.67553-7.51596c5.31643-1.33176,7.68447-0.12653,9.83417,1.61268
		C28.65662,14.06605,28.26077,15.50113,28.46002,17.17064z"/>
	<path fill="#FDF6AD" d="M33.90786,21.89027c0.25097,2.13517-0.55214,4.26417-2.52489,6.38633
		c-0.79232,1.29189-1.10942,2.78558-0.46808,4.68623c2.10191,0.25619,3.43922,1.29035,4.01862,3.09568
		c4.6223-0.94387,5.29785-3.22799,2.59309-6.81383c-1.19984-2.7608-0.68885-6.24146-3.03399-9.57447
		C34.36861,20.58802,34.17913,21.34166,33.90786,21.89027z"/>
	<path fill="#FDF6AD" d="M26.08511,37.81383c0.16956-0.8254,0.50297-1.42957,1.16489-1.59021
		c-0.29313,2.64243,1.56716,3.71401,3.67021,4.86149c-0.61439-0.7366-0.97608-1.24726-0.95745-1.93085
		c2.40072,1.92886,5.64511,1.63078,6.57447-1.46809c-0.35201,0.3643-0.89175,0.61188-1.78724,0.6383
		c0.73568-3.1064-0.53905-4.5614-2.82447-5.18617c-2.04585-0.5655-3.72908,0.19475-5.20213,1.7234
		C25.98782,35.65957,25.88066,36.63903,26.08511,37.81383z"/>
	<path fill="#EB403F" d="M50.35509,56.36889c0.18045,0.86582,0.68188,1.40441,1.74704,1.36828
		c0.97971-0.09393,1.42818-0.65119,1.57333-1.47301C52.48272,56.60336,51.38214,56.61632,50.35509,56.36889z"/>
	<path fill="none" stroke="#B08750" stroke-width="0.25" stroke-miterlimit="10" d="M37.04395,27.302
		c0.28321,0.13156,0.54945,0.21523,0.75392,0.12454c4.94681-9.42581-6.15957-21.09676-17.73245-23.61803
		c4.14735,4.53192-4.76754,7.97873-3.87659,0.92553C12.40425,8,11.12766,13.7234,15.08151,15.28433"/>
	<path fill="none" stroke="#ECD564" stroke-width="0.25" stroke-miterlimit="10" d="M34.49261,19.67021
		c1.86909,1.64894,2.48611,8.71277,3.08186,9.51064c2.87535,3.92311,1.61326,6.01707-2.64096,6.87766"/>
	<path fill="none" stroke="#F1702E" stroke-width="0.25" stroke-miterlimit="10" d="M30.58511,31.29521
		c-2.54555,1.99961-5.47099,3.54086-8.71276,3.15159c0.75277-0.69382,0.7063-1.79259-0.36208-3.49462
		c-0.05491,1.56729-0.79352,2.42233-2.05446,2.08843c-0.69802-0.18484-1.32084-0.65118-1.6625-1.28732
		c-0.31644-0.58919-0.20267-1.08911,0.75989-1.41287c-0.81286-1.34055-1.30586-2.95982-1.70745-5.01565"/>
	<path fill="none" stroke="#ECD564" stroke-width="0.25" stroke-miterlimit="10" d="M33.90786,21.89027
		c0.24802,2.17558-0.76296,4.2832-2.52489,6.38633c-0.45073,0.53802-0.6818,1.18023-0.7963,1.8727
		c-0.15737,0.95171-0.03112,1.88868,0.32821,2.81353"/>
	<path fill="none" stroke="#ECD564" stroke-width="0.25" stroke-miterlimit="10" d="M41.67805,38.67012
		c3.32747-2.02155,6.51021-3.40396,8.97871-1.63195c1.4071,1.01008,2.04249,2.76434,1.93503,4.49311
		c-0.13181,2.12042-0.94406,4.01823-1.98541,5.84107c-2.29717,4.4698-1.45291,7.118,0.49475,9.1264"/>
	<path fill="none" stroke="#ECD564" stroke-width="0.25" stroke-miterlimit="10" d="M40.69003,37.63987
		c3.60937-5.03189,9.48301-6.0191,13.30066-2.77583c1.30356,1.10743,2.136,2.67823,2.53705,4.34101
		c1.51126,6.26579,0.42715,11.92077-2.85229,17.05911"/>
	<path fill="none" stroke="#ECD564" stroke-width="0.25" stroke-miterlimit="10" d="M42.32098,39.66966
		c4.03008-2.4569,10.04659,0.8942,6.03512,8.05374c-2.75969,4.8037-0.79716,8.93053,3.59602,8.80851
		c3.32896-0.01678,5.2881-2.53642,6.17553-7.01419c2.13802-13.25226-1.7854-18.3243-9.78844-17.89067
		c-1.08815,0.05896-2.15949,0.36465-3.11194,0.89415c-2.05836,1.14433-3.63639,2.75636-5.01401,4.69432"/>
	<path fill="none" stroke="#F1702E" stroke-width="0.25" stroke-miterlimit="10" d="M37.86433,47.07384
		c3.75302,5.06084,5.02749,10.46987,3.60376,16.24531c-0.7234,1.87234,6.53191,2.23404,6.87234,0
		c0.1483-4.05779-0.72351-8.47753-3.98643-13.74564c-0.13785-0.22256-0.38485-0.36343-0.6466-0.36787l-0.83506-0.01415
		c-0.19149-0.74468,1.23404-5.2766-0.10638-8.57447C41.52403,37.56149,39.2095,35.89819,35,36.19149"/>
	<path fill="#F1702E" d="M34.60624,48.6626c2.49589-0.19341,4.30375-2.26851,4.45745-4.72655
		c-0.07769,2.52723-1.85809,4.67272-4.4175,4.97319C34.64632,48.90936,34.60624,48.6626,34.60624,48.6626L34.60624,48.6626z"/>
	<path fill="none" stroke="#F1702E" stroke-width="0.25" stroke-miterlimit="10" d="M35.61869,48.5841
		c0.63429,2.26167,1.06301,4.79323,0.96609,8.39079"/>
	<path fill="none" stroke="#F1702E" stroke-width="0.25" stroke-miterlimit="10" d="M41.53371,54.48891
		c-0.08865,2.43599-0.3292,4.95012-1.45278,7.9185c-0.1835,0.48479-0.62932,0.8378-1.13929,0.93063
		c-1.13695,0.20696-1.97843,0.20238-2.35938,0.08194"/>
	<path fill="#F1702E" d="M30.26596,46.34042c1.13565,5.76683,0.36616,11.75512-0.76758,17.46803
		c-0.12323,0.48197-0.17491,0.81737,0.34967,1.0241c1.86664,0.67504,4.20569,0.88708,6.06825,0.15995
		c0.45048-0.15311,0.40793-0.7522,0.47549-1.11756c0.07303-0.46046,0.10445-0.92594,0.1538-1.38921
		c0.54531-5.64845-1.06796-11.14378-3.05643-16.35802c2.57845,4.98019,3.72949,10.78308,3.31244,16.37934
		c-0.05128,0.46766-0.08459,0.93737-0.15961,1.40205c-0.07292,0.48107-0.06274,1.08845-0.60363,1.30137
		c-2.00521,0.78094-4.31375,0.5539-6.29877-0.15243c-0.23059-0.11316-0.49645-0.27505-0.55279-0.55051
		c-0.07536-0.29163,0.03683-0.53024,0.0658-0.74962C30.49872,58.03238,30.86686,52.16812,30.26596,46.34042L30.26596,46.34042z"/>
	<path fill="none" stroke="#F1702E" stroke-width="0.25" stroke-miterlimit="10" d="M27.38953,47.01941
		c0,0,1.87253,9.79562,2.37642,14.74731"/>
	<path fill="none" stroke="#F1702E" stroke-width="0.25" stroke-miterlimit="10" d="M30.52026,48.45161
		c-6.56869-2.04775-8.54707-6.74794-5.93516-14.10055"/>
	<path fill="#F1702E" d="M42.95621,49.95099c-0.10582-0.279-0.22119-0.55678-0.2227-0.84914l0.24797-0.03176
		C43.03376,49.33843,43.04998,49.70905,42.95621,49.95099L42.95621,49.95099z"/>
	<path fill="#F1702E" d="M19.58211,29.59064c-0.20641,0.37899-0.54955,0.72573-0.99093,0.86888l-0.07597-0.23817
		C18.9104,30.12899,19.27949,29.85057,19.58211,29.59064L19.58211,29.59064z"/>
	<path fill="#F1702E" d="M31.7766,14.74468c0.85223,1.66794,0.96395,3.77887,0.13829,5.47872
		C32.4007,18.39398,32.29774,16.55396,31.7766,14.74468L31.7766,14.74468z"/>
	<path fill="#F1702E" d="M19.66759,31.55645c0.0799-0.04108,0.27407-0.06827,0.2724-0.11966
		c0.01828-0.06907-0.05843-0.22738-0.05614-0.403C20.39364,31.22854,20.1808,31.96008,19.66759,31.55645L19.66759,31.55645z"/>
	<path fill="none" stroke="#ECD564" stroke-width="0.25" stroke-miterlimit="10" d="M34.79482,39.9624
		c-1.63178-0.1847-2.96605-0.78505-3.6512-2.29219c1.2633,0.26944,2.52659-0.21276,3.78989-1.44659"/>
	<path fill="none" stroke="#ECD564" stroke-width="0.25" stroke-miterlimit="10" d="M36.23651,23.59104
		c-0.43769,2.08261-0.33507,4.89056,0,8.01056c0,1.38702-1.04134,1.90888-1.97321,2.25478"/>
	<path fill="none" stroke="#ECD564" stroke-width="0.25" stroke-miterlimit="10" d="M38.21101,30.12973
		c0.28868,4.16808-1.51317,4.78143-3.68466,4.76625"/>
	<path fill="none" stroke="#ECD564" stroke-width="0.25" stroke-miterlimit="10" d="M28.46002,17.17064
		c-1.99771,1.01131-3.42455,2.35104-4.05576,4.14851c-0.33457-0.67019-0.34067-1.14831-0.29787-2.85106
		c-0.39096,1.65957-0.96957,3.14392-2,4.19149c0.13963-0.36971,0.20115-0.81429,0-1.51064
		c-5.08651,7.57215-10.02128,3.19149-12.21277,0.89362c4.80829,1.09624,5.44681-0.93617,5.6383-4.55851
		c-0.50743,0.72845-1.1727,1.11698-1.61702,1.19681c0.68085-4.18085,3.67553-6.9734,5.67553-7.51596
		c5.31643-1.33176,7.68447-0.12653,9.83417,1.61268"/>
	<path fill="#F1702E" d="M32.92872,23.15205c2.65107-3.0184,1.4233-8.97512-1.57027-11.36939
		c-0.14838-0.11407-0.38275-0.2547-0.49207-0.29573c-1.26711,0.55918-1.79876,2.26329-2.11149,3.54748
		c-0.20278,0.83507-0.13345,1.66579-0.25549,2.51775c-0.32843-0.7797-0.12873-1.74335-0.00691-2.57029
		c0.25169-1.26463,0.76069-2.55878,1.75009-3.4371c0.27452-0.2528,0.62097-0.4542,0.98741-0.14803
		C34.43264,13.31325,36.16725,20.74142,32.92872,23.15205L32.92872,23.15205z"/>
	<path fill="none" stroke="#ECD564" stroke-width="0.25" stroke-miterlimit="10" d="M29.01728,12.45766
		c-4.53808,0.12848-7.32101,2.47399-8.67686,6.62213c-0.72919,2.57132-2.1412,4.7145-4.40428,6.32404"/>
	<path fill="none" stroke="#ECD564" stroke-width="0.25" stroke-miterlimit="10" d="M12.91906,24.52331
		c2.33565-0.60773,4.33733-2.16414,5.28803-6.70588c0.21596-1.03169,0.64686-2.02278,1.29029-2.85766
		c1.91821-2.48897,4.58308-3.44274,7.60134-3.66991"/>
	<polygon fill="#ECD564" points="15.4294,17.41252 16.84575,15.60106 15.63443,17.55557 15.4294,17.41252 	"/>
	<path fill="none" stroke="#B08750" stroke-width="0.25" stroke-miterlimit="10" d="M37.52033,16.68929
		c0.64246-1.89628,1.12005-3.73051,0.13393-5.01376c-1.24445-1.75779-2.50539-3.24502-3.80849-4.04006
		c-0.1619-0.09878-0.34044-0.16854-0.52533-0.2108c-1.47644-0.33745-2.90102-0.17896-4.30315,0.1942"/>
	<path fill="#EB403F" d="M32.10922,33.19101c0.51351-0.32607,1.07032-0.46733,1.7312-0.16441
		c0.53125,0.3078,0.59447,0.84552,0.42334,1.48068C33.70881,33.87749,33.00001,33.42775,32.10922,33.19101z"/>
	<path fill="none" stroke="#ECD564" stroke-width="0.25" stroke-miterlimit="10" d="M26.08511,37.81383
		c0.16956-0.8254,0.50297-1.42957,1.16489-1.59021c-0.29313,2.64243,1.56716,3.71401,3.67021,4.86149
		c-0.61439-0.7366-0.97608-1.24726-0.95745-1.93085c2.40072,1.92886,5.64511,1.63078,6.57447-1.46809
		c-0.35201,0.3643-0.89175,0.61188-1.78724,0.6383c0.73568-3.1064-0.53905-4.5614-2.82447-5.18617
		c-2.04585-0.5655-3.72908,0.19475-5.20213,1.7234C25.98782,35.65957,25.88066,36.63903,26.08511,37.81383z"/>
	<path fill="#EE4135" d="M40.62234,39.41755c-0.65091-0.61807-0.86178-0.42721-0.56649,0.69415
		c0.23608,0.55415,0.46232,0.74424,0.67819,0.55053c0.31914,0.18042,0.62065-0.08551,0.5266-0.70213
		C41.11281,39.19042,40.92418,38.79066,40.62234,39.41755z"/>
	<path fill="#EE4135" d="M40.17476,42.05157c-0.4896-0.25444-0.59158,0.07263-0.2819,1.01727
		c0.20826,0.50463,0.53861,0.52888,0.70867,0.26433c0.26959-0.01958,0.3867-0.45257,0.29259-0.98523
		C40.68423,41.06872,40.43502,41.34184,40.17476,42.05157z"/>
	<path fill="#EE4135" d="M42.12365,42.28586c-0.32069-0.70964-0.44893-0.53862-0.39049,0.48661
		c0.05466,0.56269,0.19142,0.77713,0.39049,0.72729c0.29451,0.29093,0.49862,0.04167,0.52266-0.52905
		C42.65207,42.10667,42.52107,41.7257,42.12365,42.28586z"/>
	<path fill="#7AC142" d="M42.18298,42.05157c-0.01565-0.2715,0.02551-0.48246,0.10288-0.65482
		c0.01615,0.15859,0.03473,0.32684,0.00801,0.43655L42.18298,42.05157z"/>
	<path fill="#7AC142" d="M42.12165,42.02353c0.02351-0.39125,0.02991-0.75572,0-1.06333l-0.13817,0.0801
		C42.06573,41.26046,42.10046,41.62188,42.12165,42.02353z"/>
	<path fill="#7AC142" d="M40.15319,41.9174c-0.05016-0.32204-0.07201-0.61479-0.01001-0.85106l0.12616,0.09011
		C40.20166,41.36273,40.17739,41.63074,40.15319,41.9174z"/>
	<path fill="#7AC142" d="M40.10529,41.85524c-0.0518-0.27235-0.21902-0.37803-0.38845-0.48052
		c0.02891,0.16166,0.06174,0.31788,0.14198,0.40851C39.91441,41.83126,40.00671,41.84609,40.10529,41.85524z"/>
	<path fill="#7AC142" d="M40.57972,39.21151c0.01772-0.20627,0.04868-0.4015,0.13066-0.55419
		c-0.02308-0.08293-0.06845-0.12487-0.11715-0.1607C40.52385,38.65045,40.52945,38.9019,40.57972,39.21151z"/>
	<path fill="#7AC142" d="M40.53016,39.1229c-0.00584-0.3068-0.13966-0.49366-0.3554-0.60375
		c0.01836,0.1623,0.04902,0.31539,0.12711,0.43705C40.35246,39.01477,40.43171,39.05989,40.53016,39.1229z"/>
	<path fill="#FFFFFF" d="M31.12766,25.32477c0.17513,0.00238,0.26733,0.17072,0.2766,0.50502
		c-0.02301,0.30898-0.10012,0.38298-0.2766,0.38298C30.81752,26.08961,30.80528,25.38177,31.12766,25.32477z"/>
	<path fill="#FFFFFF" d="M30.85959,26.58438c0.19154-0.02438,0.31811,0.14517,0.37972,0.50865
		c0.02248,0.34081-0.0503,0.43347-0.24293,0.46065C30.63888,27.46702,30.51648,26.69625,30.85959,26.58438z"/>
	<path fill="#FFFFFF" d="M31.91733,26.25195c0.19755,0.03535,0.27039,0.24286,0.21852,0.62251
		c-0.08363,0.34502-0.18461,0.41429-0.38411,0.38138C31.42409,27.05878,31.54225,26.25627,31.91733,26.25195z"/>
	<path d="M22.75532,27.26319c-0.2786-3.55574,0.67643-4.51765,1.75-5.72595c1.40838-1.58512,4.58842-1.487,5.14362,1.62124
		c1.08572,0.00154,1.48022-0.49717,1.49841-1.2682c-0.28905,0.56809-0.67036,0.92446-1.22495,0.8832l-0.22828-0.66083
		c0.97965-0.46124,1.23456-1.07736,1.26158-1.74218c-0.37181,0.78366-0.83954,1.28059-1.47184,1.28561l-0.49261-0.6428
		c0.73569-0.37769,0.93802-1.00281,0.49261-1.92841c0.22317,0.77724,0.04453,1.39585-0.70889,1.75419
		c-1.38507-1.25995-3.66599-0.64013-4.95582,0.8418C22.31915,23.40425,22.35374,25.33606,22.75532,27.26319z"/>
	<path d="M19.65911,29.41489c0.33134-1.40683,0.46706-2.91207-0.33996-4.89158l-0.20213,0.11499
		C19.79239,26.27179,19.82971,27.85202,19.65911,29.41489z"/>
	<path fill="#FFFFFF" d="M18.7619,27.21224c-0.11795,0.01239-0.23179,0.1699-0.15199,0.36197
		c0.06079,0.11843,0.15618,0.20477,0.31026,0.16061C19.13872,27.64648,19.03048,27.18403,18.7619,27.21224z"/>
</g>
<g id="Layer_1">
	<path fill="none" stroke="#FFFFFF" stroke-width="6" stroke-miterlimit="10" d="M67.69444,34.95745
		c0,17.86487-14.48235,32.43699-32.34724,32.43699S3,52.93083,3,34.76596"/>
</g>
</svg>
