<?xml version="1.0" encoding="utf-8"?>
<!-- Generator: Adobe Illustrator 27.0.0, SVG Export Plug-In . SVG Version: 6.00 Build 0)  -->
<svg version="1.1" xmlns="http://www.w3.org/2000/svg" x="0px" y="0px"
	 viewBox="0 0 307.2 172.8" style="enable-background:new 0 0 307.2 172.8;" xml:space="preserve">
<style type="text/css">
	.st0{fill:url(#SVGID_1_);}
	.st1{fill:#FFFFFF;}
	.st2{fill:#351858;}
	.st3{fill:#822B99;}
	.st4{fill:#F140A9;}
	.st5{fill:#EC058E;}
	.st6{fill:#1AB4CF;}
</style>
<g id="Layer_2">
	<linearGradient id="SVGID_1_" gradientUnits="userSpaceOnUse" x1="0" y1="86.4" x2="307.2" y2="86.4">
		<stop  offset="0" style="stop-color:#FFFFFF"/>
		<stop  offset="0.4106" style="stop-color:#F7BE86"/>
		<stop  offset="0.4469" style="stop-color:#EBB88E"/>
		<stop  offset="0.5122" style="stop-color:#CCA9A4"/>
		<stop  offset="0.5992" style="stop-color:#988FC8"/>
		<stop  offset="0.7034" style="stop-color:#526DF9"/>
		<stop  offset="0.7151" style="stop-color:#4A69FF"/>
		<stop  offset="1" style="stop-color:#D34DFF"/>
	</linearGradient>
	<rect class="st0" width="307.2" height="172.8"/>
</g>
<g id="Layer_1">
	<g id="Layer_2_00000109000074365666786880000001743507733779269507_">
		<path class="st1" d="M202.3,65c-1.9-2.6-5-4.2-8.3-4.2c-0.3,0-0.6,0-0.9,0l0,0c-2.3-5.6-5.8-10.7-10.5-14.7
			c-7-6.1-16-9.4-25.2-9.4c-1.7,0-3.5,0.1-5.2,0.3c-10.4,1.4-19.5,6.7-25.8,15c-0.2,0.2-0.3,0.5-0.5,0.7c-3.2,0.5-6,1.9-8.2,4
			c-2.9,0.4-5.5,1.5-7.6,3.4c-0.8,0.7-1.5,1.5-2.1,2.3c-1.5,1.9-2,3.7-2.3,4.4c-0.1,0.5-0.3,1-0.4,1.5c-0.6,3.1-0.2,6.4,1.2,9.2
			c0.2,0.3,0.3,0.6,0.5,0.9c-0.8,0.5-1.7,1.1-2.6,1.8c-5,3.7-6,10.2-2.4,15.6c0.5,0.8,7.3,11.5,10.9,17.2l0,0
			c0.2,0.4,0.8,1.3,1.7,2.1c1.7,2.2,4.2,3.5,6.9,3.7l0.1,0.3c2.8,6.2,8.8,10.4,15.9,11c0.5,0,1,0.1,1.6,0.1h0.4
			c6.7,0,11.8-3.3,14.2-6.1c1.7-2,2.9-4.5,3.5-7.2c3,0.7,6.7,1.5,9.7,1.7c1.1,0.1,2.2,0.1,3.2,0.1c7.8,0,14.5-2.8,20.4-8.4
			c4.6-4.4,8.2-11.9,11-22.7c1.8-7.1,2.7-13.3,2.8-14.7C204.6,70.2,203.9,67.3,202.3,65"/>
		<path class="st2" d="M199.1,67.3c-1.1-1.5-2.7-2.4-4.5-2.6c-0.2,0-0.4,0-0.6,0c-0.2,0-0.4,0-0.5,0l-1,0.1c-0.2,0-0.3,0-0.5,0
			l-1.5,0.1c-1.9-6.1-5.5-11.6-10.3-15.8c-6.3-5.4-14.3-8.4-22.7-8.4c-1.6,0-3.1,0.1-4.7,0.3c-9.3,1.2-17.6,6-23.3,13.5
			c-0.5,0.7-1,1.3-1.4,2c-0.2,0-0.4,0-0.6,0h-0.3c-3.1,0.4-5.8,1.8-7.7,4c-0.2,0-0.4,0-0.6,0h-0.2c-2.3,0.2-4.3,1.1-6,2.6
			c-0.6,0.5-1.1,1.1-1.6,1.7c-1.1,1.3-1.5,2.6-1.6,3.2c-0.1,0.4-0.2,0.7-0.3,1.1c-0.5,2.3-0.1,4.7,0.9,6.8c0.7,1.3,1.7,2.6,2.9,3.6
			c-0.8,0.4-1.6,0.9-2.4,1.3l-0.8,0.5c-1,0.6-2.1,1.3-3.1,2.1c-3.3,2.4-3.9,6.6-1.4,10.3c0.4,0.6,7.3,11.4,11,17.3v0.1
			c0.2,0.3,0.6,0.9,1.2,1.5c1.2,1.6,3,2.5,4.9,2.5c0.3,0,0.6,0,1-0.1c0.2,0,0.5-0.1,0.7-0.1c0.1,0.4,0.3,0.9,0.5,1.3l0.1,0.2l0,0
			c0.1,0.4,0.3,0.8,0.5,1.2c2.2,4.9,7,8.2,12.7,8.7c0.4,0,0.8,0.1,1.3,0.1h0.3c5.4,0,9.4-2.5,11.2-4.7c1.9-2.2,2.9-5.1,2.9-8.1
			c0-0.5,0-0.9-0.1-1.4c0.8,0.2,1.5,0.3,2.3,0.5l0.5,0.1c3.2,0.7,7.6,1.7,10.9,2.1c1,0.1,1.9,0.1,2.9,0.1c6.9,0,12.5-2.3,17.7-7.3
			c4-3.9,7.3-10.9,9.9-20.9c1.8-7,2.6-13.1,2.8-14.3C200.6,70.7,200.2,68.7,199.1,67.3"/>
		<path class="st3" d="M135.7,62c4-7.5,11.2-13.1,20-14.4c13.3-2,25.2,6.6,28.5,19.6c0.4,0.2,0.7,0.4,1,0.6c0.4-0.5,0.9-0.8,1.6-1.1
			c-4.1-14.4-18.2-24-33.7-22c-9.3,1.2-17.1,6.4-21.9,13.6C133.1,59.1,134.7,60.3,135.7,62"/>
		<path class="st4" d="M146,63.6l0.3,0.3c0.2,0,0.3-0.1,0.5-0.1l4.4-0.4c2.1-2,4.8-3.3,7.9-3.6c3.1-0.3,5.9,0.6,8.3,2.1l2.8-0.1h0.1
			h0.2c-3.6-3.5-8.5-5.5-13.9-5c-4.7,0.4-8.8,2.6-11.8,5.9C145.3,63,145.7,63.3,146,63.6"/>
		<path class="st5" d="M156.4,50.3c-8.5,1.1-15.6,6.6-19.2,13.9h0.8l0,0h0.2c0.8,0,1.6,0.4,2.2,0.9c3.2-5.9,9.2-10.1,16.2-10.8
			c9.1-0.8,17.1,4.6,20.5,12.7l2.7-0.2c0.2,0,0.4,0,0.6,0h0.3h0.1h0.5h0.2C178,55.9,167.9,48.8,156.4,50.3"/>
		<g>
			<path class="st6" d="M156.8,100.8L156.8,100.8C156.7,100.9,156.9,100.9,156.8,100.8 M171.3,73.9h0.2c0.2,0,0.4,0,0.5,0
				c1,0.1,1.5,0.7,1.6,1.9l3.1,19.1c0.1,0.9-0.6,1.8-1.6,1.9l-1.6,0.3c-0.3,0.1-0.6,0.1-0.9,0c-0.9-0.1-1.7-0.4-2.3-0.9l-8.1-6l0,0
				c-0.2-0.1-0.3-0.2-0.3-0.2c0,0.1,0,0.2,0,0.4l1,5.8l0,0c0.1,1.1-0.7,2.1-1.8,2.3l-4.7,1.1l0,0H156c-0.8-0.1-1.5-0.6-1.8-1.3v0.1
				c0.2,1.2,1.2,2.2,2.4,2.3l0,0l0,0l5.2-1.1c1.4-0.2,2.4-1.5,2.3-3l0,0l-0.8-4.8l7.3,5.4c0.7,0.6,1.6,0.9,2.6,1c0.4,0,0.7,0,1-0.1
				l1.6-0.3c1.3-0.3,2.3-1.4,2.1-2.6L175,76.3c-0.1-0.6-0.3-2.3-2.2-2.4c-0.2,0-0.4,0-0.6,0H172l-3,0.2c-0.2,0-0.4,0-0.6,0.1
				 M180.7,69.4h0.3l-4,0.3l0,0 M181.2,69.3c0.9,0.1,1.8,0.8,2,1.7l2.9,11.6c0.1-0.5,0.1-1.1,0.2-1.5c0-0.3,0-0.5,0.1-0.7
				c0.1-0.6,0.1-1.3,0.2-1.9l-1.8-7c-0.3-1.2-1.4-2.1-2.6-2.2c-0.2,0-0.5,0-0.7,0H181H181.2z"/>
			<path class="st6" d="M157.1,75.1h0.4c1,0.1,2.1,0.6,2.6,1.4l7.5,9.7l0.2,0.2v-0.2l-0.2-1.4l-6.3-8.1c-0.6-0.9-1.9-1.5-3-1.6
				c-0.1,0-0.3,0-0.4,0l0,0l-3.7,0.5l0,0 M135.8,77.2c1.6-0.5,3-1,5.2-1.3c0.3,0,0.7-0.1,1.2,0c1.9,0.1,4.4,1.1,5.4,3
				c1.2,2.1,2.1,4.1,3,7.5c1.2,4.4-0.8,7.5-5.8,8.9c-1,0.3-3.5,0.9-6,0.7c-2.7-0.2-4.5-1.3-5.3-3.1c-0.5-1.2-1-2.8-1.3-4.5
				c0.3,1.9,0.9,3.7,1.4,5.1c0.9,2.1,2.9,3.2,5.8,3.5c2.7,0.2,5.3-0.5,6.3-0.8c5.3-1.5,7.5-5,6.2-9.6c-0.9-3.5-1.9-5.6-3.1-7.7
				c-1.2-2.1-3.8-3.1-5.9-3.3c-0.5,0-0.9,0-1.3,0c-2.2,0.3-3.8,0.7-5.4,1.3c-0.2,0.1-0.4,0.2-0.7,0.3H135.8 M145.1,108.5
				c-0.4,0-0.8,0-1.2,0c-0.2,0-0.4,0-0.5,0.1c0.2,0,0.5,0,0.7,0c3.4,0.3,3.8,3.6,3.8,4.6c0,1.9-0.6,3.7-1.8,5
				c-0.7,0.9-3.5,3.1-7.9,3.1c-0.3,0-0.6,0-1-0.1c-4-0.4-7.4-2.6-8.9-6v-0.1c0.1,0.3,0.2,0.6,0.3,0.9c1.6,3.6,5.1,6,9.4,6.4
				c0.3,0,0.7,0.1,1,0.1c4.5,0.1,7.5-2.1,8.4-3.3c1.3-1.4,2-3.4,1.9-5.4C149.4,111.4,148.3,108.8,145.1,108.5"/>
			<path class="st6" d="M195.9,69.6c-0.4-0.5-1-0.9-1.7-1c-0.2,0-0.3,0-0.5,0l-3.4,0.2c-0.2,0-0.6,0-0.9,0.1l0,0l3.4-0.2h0.3
				c0.5,0,0.9,0.3,1.2,0.7c0.4,0.5,0.5,1.2,0.4,1.8c-0.2,1.3-3.1,24.7-11.3,32.6c-4.6,4.5-9.8,6.6-16.9,5.9
				c-3.2-0.3-7.8-1.4-10.8-2.1c-2.7-0.6-5.2-1.2-7.5-1.4c-3.9-0.4-6.6,0.4-8.5,2.6c-0.6,0.7-1.4,1.8-1.5,3.2
				c-0.1,1.8,0.6,3.3,2.1,4.1c0.3,0.2,0.6,0.3,0.9,0.4c0.2,0.1,0.4,0.1,0.7,0.1c0.9,0.1,1.5-0.2,1.8-0.4c-0.2,0-0.5,0-0.7,0
				c-0.8-0.1-2.8-0.5-3.6-2.8c-0.3-0.9-0.1-2.1,0.5-3.1c0.6-0.9,1.5-1.5,2.6-1.7c1.6-1.1,3.7-1.4,6.6-1.2c2.3,0.2,4.8,0.8,7.5,1.4
				c3,0.7,7.6,1.8,10.9,2.1c7.3,0.7,12.7-1.5,17.4-6.1c8.3-8,11.3-31.6,11.5-32.9C196.5,71.1,196.4,70.3,195.9,69.6 M124.8,90
				L124.8,90c-0.2,0.1-0.3,0.1-0.5,0.2c-0.7,0.4-0.9,1-0.9,1.5V92h-0.3c-0.3,0-0.6,0.1-0.8,0.2l-0.4,0.2c-0.2,0.1-0.4,0.3-0.5,0.5
				c-0.3,0.4-0.3,0.8-0.3,0.9c0,0.4,0.1,0.8,0.4,1.2c1,1.1,3.9,0.8,4.7,0.7h0.4l0.1-0.3c-1.5,0.2-3.3,0.1-3.9-0.6
				c-0.2-0.2-0.3-0.5-0.3-0.8c0-0.1,0-0.4,0.2-0.6L123,93l0.3-0.1c0.2-0.1,0.4-0.1,0.7-0.1l0.8-0.1l0.1-0.8c0.1-0.5,0.3-0.8,0.7-1.1
				l0.3-0.2l0,0c0.3-0.1,0.6-0.1,0.9,0.1l-0.2-0.3C126,90,125.4,89.8,124.8,90 M145,84.2h-0.4l0,0c-1,0.2-1.4,0.9-1.6,1.4l-0.1,0.3
				h-0.4c-0.3,0-0.5,0-0.7,0c-0.4,0.1-0.7,0.2-0.9,0.5c-0.3,0.3-0.4,0.7-0.4,0.9c-0.1,0.4,0,0.8,0.2,1.2c0.5,0.8,1.9,1.3,3.9,1.4
				c0.2,0,0.4,0,0.5,0h0.4l0.1-0.2h-0.3c-2.1-0.2-3.2-0.7-3.5-1.2c-0.1-0.2-0.2-0.5-0.1-0.8c0-0.1,0.1-0.4,0.3-0.6s0.4-0.3,0.7-0.3
				c0.2,0,0.4,0,0.6,0l0.8,0.1l0.2-0.7c0.2-0.5,0.6-0.9,1.2-1l0,0h0.2c0.3,0,0.6,0.2,0.8,0.5l0.1,0.2c0-0.3-0.1-0.6-0.3-0.9
				C145.9,84.5,145.4,84.3,145,84.2"/>
			<path class="st6" d="M125.9,101.8L125.9,101.8c-0.3-0.3-0.3-0.6-0.1-0.8c0.2-0.2,1.1-0.4,2.6-1.4c1.5-1,2.6-1.9,3.2-2.8
				c1-1.6,2.8-6-2.9-12.3c-3.8-4.1-8.1-4.7-13.9-1.4c5.2-2.8,9.4-2.3,12.8,1.4c5.5,6,3.8,10.1,2.9,11.6c-0.5,0.8-1.5,1.7-3,2.6
				s-2.8,1.5-2.9,1.6l-0.2,0.1c-0.2,0.1-0.3,0.3-0.3,0.4c-0.1,0.3,0.1,0.7,0.3,1.2l0,0c1.5,2.3,2,3,1.2,4l-2.8,3.5
				c-0.1,0.1-0.3,0.4-0.7,0.6c-0.2,0.1-0.3,0.2-0.5,0.2c-0.5,0.1-0.8,0-1.1-0.2c0.3,0.5,0.9,1.2,2.1,1c0.3,0,0.5-0.1,0.8-0.3
				c0.4-0.3,0.7-0.7,0.8-0.8l2.8-3.5C128.2,105.1,127.5,104.2,125.9,101.8"/>
		</g>
		<path class="st1" d="M139.5,86.8c0-0.2,0.1-0.6,0.5-1c0.3-0.3,0.7-0.5,1.2-0.6c0.3-0.1,0.6-0.1,0.9,0c0.2-0.7,0.8-1.4,1.9-1.6l0,0
			c0.7-0.1,1.5,0.2,2,0.9c0.9,1.4-0.2,4.1-0.6,4.9l-0.3,0.6h-0.6c-1.1,0-3.9-0.3-4.7-1.6C139.5,87.8,139.4,87.2,139.5,86.8
			 M144.1,94.5c3.4-1,6.9-3.2,5.5-8.4c-0.9-3.4-1.8-5.3-3-7.4c-1.5-2.9-4.5-3-6.2-2.7c-2.2,0.3-3.7,0.8-5.2,1.3
			c-1.6,0.6-3.6,2.2-3.8,5.4c-0.2,3.2,0.7,7.4,1.7,9.9C134.8,96.1,140.7,95.5,144.1,94.5 M154,97.4c0.1,0.9,0.9,1.5,1.8,1.4l0,0
			l4.7-1.1c0.9-0.1,1.5-1,1.5-1.8l-1-5.8c-0.1-0.9,0.4-1.1,1.1-0.5l8.1,6c0.7,0.6,1.9,0.9,2.8,0.8l1.6-0.3c0.9-0.2,1.4-0.8,1.3-1.4
			l-3.1-19.1c-0.2-1.7-1-1.6-1.9-1.6l-3.1,0.2c-0.9,0-1.5,0.7-1.4,1.6l1.4,9.9c0.1,0.9-0.4,1-1,0.3l-7.5-9.7
			c-0.5-0.7-1.7-1.3-2.6-1.2l-3.7,0.5c-0.9,0.1-1.5,0.8-1.4,1.7"/>
		<path class="st1" d="M192.2,68.8l-3.4,0.2c-0.9,0-1.7,0-1.9,1.5c0,0-0.3,5.2-0.8,9.5c-0.2,1.6-0.3,5-1,2.8l-3-12.1
			c-0.2-0.9-1.1-1.6-2.1-1.4l-4.5,0.4c-1.5,0.2-1,1.9-0.8,2.3c2.5,6.9,4.1,11,5.9,16c1.9,5.3,1.4,5.3-0.3,8.3
			c-5,8.6-15.2,10.4-29.2,4.4c-7.2-3.1-14.1-5.4-20.2,0.4c-4,3.8-4.3,9.9-2.8,13.3s5,5.7,9.4,5.8c4.2,0.1,6.9-2,7.5-2.9
			c1-1.1,1.7-2.8,1.7-4.7c0-1.5-0.6-4.5-4.4-4.2c-2.8,0.2-3.7,2.9-3.2,4.2c1,3,4.6,2.6,5,2.1c0,0-0.6,2.3-3.7,1.6
			c-0.4-0.1-0.7-0.2-1-0.4c-1.6-0.9-2.5-2.5-2.4-4.5c0.1-1.5,0.8-2.6,1.6-3.5c8.7-9.4,29,9.2,43.8-5c8.2-7.9,11.2-32.3,11.2-32.3
			C193.9,69.7,193.3,68.7,192.2,68.8 M126.4,95.2l-0.2,0.6l-0.6,0.1c-1.2,0.2-4,0.4-5.1-0.8c-0.4-0.4-0.5-0.9-0.5-1.4
			c0-0.2,0-0.7,0.3-1.1c0.2-0.4,0.6-0.7,1.1-0.8c0.3-0.1,0.6-0.2,0.9-0.2c0.1-0.8,0.5-1.6,1.6-2l0,0c0.7-0.3,1.6-0.1,2.2,0.6
			C127.3,91.4,126.7,94.3,126.4,95.2 M126.5,84.6c-4.2-4.6-9.1-3.4-13.9-0.4c-1.3,0.8-2.5,1.5-3.7,2.4c-1.8,1.3-1.5,3.3-0.5,4.8
			c0.3,0.4,7.3,11.4,11,17.4c0.3,0.5,0.5,1,1.3,0.9c0.5-0.1,0.9-0.7,0.9-0.7l2.8-3.5c0.7-0.9,0.3-1.3-1.5-3.9l0.2,0.4
			c-0.6-0.9-0.6-1.9,0.3-2.3c0,0,4.3-1.9,5.7-4C130.7,93.6,131.2,89.7,126.5,84.6"/>
		<path class="st6" d="M129.5,78.7l-0.8,1.4l-1.6-0.2c-3.4-0.5-11.5-2-13.6-6.2c-0.6-1.3-0.8-2.8-0.4-4.2c0.2-0.6,0.6-1.8,1.7-2.8
			c0.9-0.8,2.1-1.3,3.5-1.4h0.1c0.9-0.1,1.9,0,3,0.2c0.9-2.5,3.1-4.1,6-4.5h0.1c2.2-0.2,4.3,1.1,5.3,3.1
			C134.9,68.4,130.8,76.3,129.5,78.7 M133.9,64c-1.2-2.4-3.7-3.8-6.2-3.6h-0.1c-2.8,0.3-5.1,1.8-6.2,4.1c-0.8-0.1-1.6-0.1-2.3-0.1
			H119c-1.5,0.1-2.9,0.7-3.9,1.6c-1.4,1.2-1.8,2.6-2,3.2c-0.5,1.6-0.3,3.3,0.4,4.8c2.2,4.4,9.6,6,13.8,6.6l2.3,0.3l1.1-2
			C132.4,76,136.1,68.5,133.9,64"/>
		<path class="st1" d="M130.5,67.9c-0.1,0.5-0.2,1-0.2,1.5c-0.1,0.5-0.2,1-0.2,1.5c-0.1,0.5-0.2,1-0.2,1.5c-0.1,0.7-0.4,1.2-0.9,1.7
			s-1,0.8-1.6,1l-0.2,0.1H127c-0.2,0-0.5,0-0.7,0s-0.5-0.1-0.7-0.2s-0.4-0.3-0.5-0.4c-0.1-0.2-0.2-0.4-0.3-0.6v-0.1v-0.1v-0.1v-0.1
			c0-0.2,0-0.5,0.2-0.7c0.1-0.2,0.3-0.3,0.5-0.4h0.1h0.1c0.3,0,0.5,0.1,0.7,0.3c0.2,0.2,0.3,0.4,0.3,0.7l0,0l0,0
			c0,0.2,0,0.4-0.1,0.6s-0.2,0.3-0.4,0.4h0.1h0.1h0.1l0,0c0.4,0,0.7-0.3,0.9-0.7c0.2-0.4,0.3-0.9,0.4-1.4c0-0.2,0.1-0.5,0.1-0.7
			s0.1-0.4,0.1-0.6c-0.2,0.2-0.3,0.4-0.5,0.5s-0.4,0.3-0.7,0.3h-0.1h-0.2c-0.2,0-0.4,0-0.6-0.1s-0.4-0.2-0.5-0.4
			c-0.1-0.1-0.2-0.3-0.2-0.4l0,0l-0.2,0.3c-0.3,0.5-0.9,0.9-1.6,1h-0.2H123c-0.2,0-0.4,0-0.5-0.1c-0.2-0.1-0.3-0.2-0.5-0.3l-0.2-0.4
			c0-0.1-0.1-0.3-0.1-0.4v-0.2v-0.2c0-0.2,0-0.3,0-0.5s0.1-0.3,0.1-0.5v-0.2l0.1-0.3v-0.1V69v-0.2v-0.2l-0.1-0.2l-0.1-0.1
			c-0.1,0-0.3,0.1-0.4,0.3c-0.1,0.2-0.2,0.4-0.3,0.5l-0.1,0.3l-0.1,0.3c0,0.2-0.1,0.4-0.1,0.7c0,0.2-0.1,0.5-0.1,0.7
			s-0.1,0.5-0.1,0.7s-0.1,0.5-0.1,0.7L118,73c0.1-0.3,0.1-0.6,0.2-0.9c0-0.3,0.1-0.6,0.1-0.9s0.1-0.6,0.1-0.9s0.1-0.6,0.1-0.9v-0.2
			v-0.1l-0.1-0.2h-0.2h-0.1L118,69l-0.1,0.1l-0.1,0.2c-0.1,0.2-0.2,0.4-0.3,0.7c-0.1,0.3-0.2,0.7-0.3,1.2c-0.1,0.4-0.1,0.7-0.1,0.9
			c0,0.2-0.1,0.4-0.1,0.5c0,0.2,0,0.3-0.1,0.3l-2.2,0.3l0.8-5.1l2.2-0.3l-0.1,0.3c0.2-0.2,0.3-0.3,0.6-0.4c0.2-0.1,0.4-0.2,0.7-0.2
			h0.1h0.1h0.3l0.3,0.1c0.2,0.1,0.3,0.1,0.5,0.2c0.1,0.1,0.3,0.3,0.3,0.5c0.2-0.3,0.4-0.6,0.7-0.8c0.3-0.2,0.6-0.3,0.9-0.3h0.4
			l0.4,0.1c0.3,0.1,0.6,0.3,0.8,0.5c0.2,0.3,0.3,0.6,0.3,0.9V69c0,0.6-0.2,1.2-0.2,1.8v0.1l0,0h0.1h0.1l0.1-0.1
			c0.1-0.1,0.2-0.2,0.3-0.4c0.1-0.2,0.2-0.3,0.2-0.5l0.2-0.4l0.1-0.3l0,0v-0.1c0-0.2,0.1-0.5,0.1-0.7s0.1-0.5,0.1-0.7
			s0.1-0.5,0.1-0.7l2.2-0.3c0,0.3-0.1,0.5-0.1,0.8s-0.1,0.5-0.1,0.8s-0.1,0.5-0.1,0.8s-0.1,0.5-0.1,0.8V70c0,0.1,0,0.4,0.2,0.4h0.1
			c0.2,0,0.4-0.2,0.6-0.7c0.2-0.4,0.3-0.9,0.4-1.3s0.1-0.8,0.2-1.1c0-0.3,0.1-0.6,0.1-0.7l2.2-0.3C130.6,66.9,130.6,67.4,130.5,67.9
			 M131.7,63.8c-0.9-1.8-2.8-2.9-4.7-2.8h-0.1l0,0c-3.4,0.4-5.1,2.6-5.7,4.7c-1-0.3-2.3-0.5-3.6-0.4c-1.2,0.1-2.3,0.5-3.1,1.3
			c-1,0.9-1.4,1.9-1.5,2.5c-0.4,1.2-0.2,2.5,0.3,3.7c2,4.1,10.7,5.6,13.3,5.9l1.1,0.2l0.6-1C129.3,76.3,133.7,68,131.7,63.8"/>
		<path class="st2" d="M191.2,62.9v0.3h0.2h0.2l0.1-0.1l-0.1-0.1h-0.2L191.2,62.9z M191.2,63.9H191l-0.1-1.2h0.4h0.3l0.1,0.1
			l0.1,0.2l-0.1,0.2l-0.2,0.1l0.1,0.1l0.2,0.2l0.1,0.2h-0.2l-0.1-0.2l-0.2-0.2h-0.2h-0.1L191.2,63.9z M191.4,62.4
			c-0.2,0-0.5,0.1-0.6,0.3c-0.2,0.2-0.2,0.4-0.2,0.7c0,0.2,0.1,0.5,0.3,0.6c0.2,0.2,0.4,0.2,0.6,0.2c0.2,0,0.4-0.1,0.6-0.3
			c0.2-0.2,0.2-0.4,0.2-0.6c0-0.2-0.1-0.5-0.3-0.6C191.9,62.5,191.6,62.4,191.4,62.4 M191.4,62.2c0.2,0,0.4,0,0.5,0.1
			c0.2,0.1,0.3,0.2,0.4,0.4c0.1,0.2,0.2,0.3,0.2,0.5c0,0.4-0.2,0.7-0.5,1c-0.2,0.1-0.3,0.2-0.5,0.2s-0.4,0-0.5-0.1
			c-0.2-0.1-0.3-0.2-0.4-0.4c-0.1-0.2-0.2-0.3-0.2-0.5s0-0.4,0.1-0.5c0.1-0.2,0.2-0.3,0.4-0.4C191,62.3,191.2,62.2,191.4,62.2"/>
		<path class="st1" d="M143,68.8c-0.3,0-0.4,0.2-0.4,0.5l0,0l0.4,3.3c0,0.3,0.3,0.5,0.5,0.5L145,73c0.3,0,0.5-0.3,0.4-0.5l-0.5-3.4
			c0-0.3-0.3-0.5-0.6-0.4 M153.7,67.6c0,0.3,0.3,0.5,0.5,0.4h0.8c0.3,0,0.5,0.2,0.5,0.4l0.2,3.4c0,0.3,0.3,0.5,0.5,0.5h0.7
			c0.3,0,0.5-0.2,0.5-0.5l-0.1-3.6c0-0.3,0.2-0.5,0.5-0.5l0.7-0.1c0.3,0,0.5-0.3,0.5-0.5l-0.1-1.2c0-0.3-0.2-0.5-0.5-0.4l-4.4,0.4
			c-0.3,0-0.5,0.3-0.4,0.5 M146.7,68.2c0,0.3,0.2,0.5,0.5,0.4l0.8-0.1c0.3,0,0.5,0.2,0.5,0.4l0.2,3.4c0,0.3,0.3,0.5,0.5,0.5h0.7
			c0.3,0,0.5-0.2,0.5-0.5l0,0l-0.1-3.6c0-0.3,0.2-0.5,0.5-0.5l0.7-0.1c0.3,0,0.5-0.3,0.5-0.5l-0.1-1.2c0-0.3-0.2-0.4-0.5-0.4l0,0
			l-4.4,0.4c-0.3,0-0.5,0.3-0.4,0.5 M162.7,65.3c0-0.3-0.3-0.5-0.6-0.4l-1.3,0.1c-0.3,0-0.5,0.3-0.5,0.5l0.4,5.7
			c0,0.3,0.2,0.5,0.5,0.5l3.6-0.2c0.3,0,0.5-0.3,0.5-0.5v-0.3c0-0.3-0.2-0.5-0.5-0.5l-1.2,0.1c-0.3,0-0.5-0.2-0.5-0.5 M144.4,66.2
			c0,0.6-0.5,1.1-1.2,1.1c-0.6,0-1.1-0.5-1.1-1.2c0-0.6,0.5-1.1,1.2-1.1C144,65.1,144.5,65.6,144.4,66.2 M169.1,69.5
			c0-0.3-0.1-0.8,0.3-0.8l0.7-0.1c0.5,0,0.5-0.3,0.5-0.5c0-0.3,0-0.4-0.5-0.4h-0.5c-0.8,0.1-0.6-0.4-0.6-0.7v-0.2
			c0-0.3,0.2-0.5,0.9-0.5h0.6c0.4,0,0.4-0.3,0.4-0.6l-0.1-0.9c0-0.3-0.3-0.5-0.5-0.5l-3.4,0.2c-0.3,0-0.5,0.2-0.5,0.5l0.3,5.8
			c0,0.3,0.2,0.5,0.5,0.4l3.4-0.4c0.3,0,0.4-0.1,0.4-0.4s-0.1-0.7-0.4-0.7l-0.5,0.1C169.6,69.8,169.1,70,169.1,69.5 M138.6,67.1
			c0-0.3-0.3-0.5-0.6-0.4l-1.3,0.1c-0.3,0-0.5,0.3-0.5,0.5l0.4,5.7c0,0.3,0.2,0.5,0.5,0.5l3.6-0.2c0.3,0,0.5-0.3,0.5-0.5v-0.3
			c0-0.3-0.2-0.5-0.5-0.5l-1.2,0.1c-0.3,0-0.5-0.2-0.5-0.5"/>
	</g>
</g>
</svg>
