<?xml version="1.0" encoding="UTF-8"?><svg xmlns="http://www.w3.org/2000/svg" viewBox="0 0 70.69443 70.69443"><defs><style>.d{fill:#652d87;}.e{fill:#fff;}.f{stroke-width:.75px;}.f,.g,.h,.i,.j,.k,.l,.m{fill:none;stroke-miterlimit:10;}.f,.g,.m{stroke:#a46bbd;}.g,.h{stroke-width:.5px;}.h,.l{stroke:#132248;}.n{fill:#d4f9ff;}.o{fill:#a46bbd;}.p{fill:#132248;}.i{stroke:#b9dce6;}.i,.j,.l,.m{stroke-width:.25px;}.q{fill:#243870;}.j{stroke:#000;}.r{fill:#ea428b;}.s{fill:#652e87;}.k{stroke:#fff;stroke-width:6px;}.t{fill:#b9dce6;}.u{fill:#cc9cdf;}</style></defs><g id="a"><circle class="n" cx="35.24539" cy="35.03849" r="31.15756"/><path class="k" d="M3,35.34722C3,17.48234,17.48234,3,35.34722,3s32.34722,14.48234,32.34722,32.34722"/></g><g id="b"><path class="u" d="M42.30205,8.31705c.91807,4.12823-.73755,7.6384-5.32383,10.44477-1.28273,4.93616-3.48922,7.15066-7.1549,5.06587l-1.24468,3.35106c1.39255,.60347,2.91898,.46668,4.5224-.09575-1.16933,1.05454-2.764,1.56103-4.87347,1.40425,.0583,3.27084,.85475,6.17414,2.23404,8.78724,2.28117-.67308,4.35493-1.63665,5.39509-4.04787,.73257-1.73936,.7964-2.17021,3.22193-2.44149,.54476,.30699,.4028,2.15425,.25532,2.94283,1.60305-.81332,3.12868-1.39979,4.43617-1.34708,.45372,1.24863-.20278,3.19609-.91222,5.17686,1.26312,.99677,1.57223,5.14468,1.63133,10.11837,3.39791-.19949,7.56492,12.80097,7.19578,17.61845-.49573,1.23524-6.70213,1.23525-7.78724,0,1.93863-4.88809,.57024-11.23976-5.0882-19.49007-.2375-.19538-.38707-.11947-.5126,.03056-1.4862,.71111-1.78383,1.52039-1.42846,2.38359,2.09153-1.83776,6.2367,14.0401,3.28117,16.22076-1.39222,1.03836-3.21838,1.04842-5.31101,.42706,.09191,1.44036-.25097,2.5592-1.45215,3.04333-2.56466,.65105-5.07358,1.01485-7.31123-.01932-.72353-.20387-.71377-.82422-.25207-1.70123,1.91665-4.34093,2.89907-10.43697,3.00154-18.18614-.88894-.48936-1.98021-1.17833-3.5376-2.32714-5.02769,4.93894-8.72982-4.96629-2.42597-9.12179,1.66734-3.05593,2.95266-6.29197,3.00466-10.10948-3.98175-.87495-6.79763-2.45607-7.93617-5.05319l2.75532,1.55319c.51157-1.80909-.38013-2.50539-1.37766-2.72293-2.06292-.44986-2.48333-2.85912-1.31213-3.79835,.15182-.13882,.72804-.32617,.66022-1.01777,.53281-2.71275,1.63056-4.66081,3.24266-5.91266,4.7611,.6061,8.12486,2.89826,11.2252,6.38825,.04162-2.38194,.84805-3.90027,3.10692-4.60476,1.89449-1.88681,3.90707-2.9523,6.07181-2.95945Z"/><path class="e" d="M24.62568,18.53c-.21169-3.7548,.4952-6.2611,2.4514-7.06933,1.71505,.70605,3.37806,1.78588,5.00093,3.15381,.17043,1.70065-.35471,3.33759-1.35565,4.93093-1.77929-1.30174-3.85232-1.48481-6.09668-1.01541Z"/><path class="e" d="M22.75882,10.47432c.77548,2.46108-.04325,4.35-1.66954,5.94911-.70818-.4636-1.46659-.89428-2.37943-1.22376,.50227-1.81385,1.0553-3.56792,2.11226-4.72847,.52238,.22354,1.16129,.23661,1.93671,.00313Z"/><path class="s" d="M21.99157,11.33339c.2565-.02246,.50734,.11968,.67097,.3593,.53692,.78627,.43513,1.84456-.42951,3.22776-.70913,.90398-1.84374,.56142-1.7807-.87543,.15621-1.84281,.7102-2.63905,1.53925-2.71163Z"/><path class="s" d="M28.64762,13.0876c.34632-.0251,.685,.1338,.90592,.40169,.72493,.87905,.5875,2.06221-.57992,3.60861-.95745,1.01064-2.48936,.62766-2.40425-.97872,.21091-2.06025,.9589-2.95044,2.07825-3.03158Z"/><path d="M27.06674,15.28051c.43012-1.13295,.9771-1.55761,1.60901-1.35814,.70213,.31915,.51302,1.32075,.17553,2.14628-.35356,.69373-.89362,1.09308-1.42819,.88564-.56649-.32643-.59693-1.01513-.35635-1.67378Z"/><path d="M20.8754,13.4371c.19237-1.00862,.56714-1.43254,1.08848-1.3391,.59176,.18624,.57166,1.0552,.41259,1.79299-.18856,.62832-.56114,1.03004-1.00713,.91828-.52802-.2088-.59836-.78694-.49395-1.37218Z"/><ellipse class="e" cx="28.76992" cy="14.91705" rx=".55477" ry=".87234"/><ellipse class="e" cx="27.86148" cy="15.88125" rx=".21227" ry=".30839"/><ellipse class="e" cx="22.12034" cy="12.85977" rx=".475" ry=".74692"/><ellipse class="e" cx="21.42198" cy="13.89684" rx=".18175" ry=".26405"/><polygon class="e" points="42.82546 40.22668 42.47702 39.19339 42.12858 39.55384 42.82546 40.22668"/><polygon class="e" points="42.16463 40.48501 42.33885 39.60791 41.94235 39.60791 42.16463 40.48501"/><polygon class="r" points="42.3682 38.74258 43.31449 40.01917 42.3682 39.51917 42.77014 41.88088 42.11056 39.65747 41.57865 40.56173 41.57865 39.62657 42.3682 38.74258"/><path class="r" d="M23.74354,9.91279l-2.02246-.46727c1.17566-4.73034,3.99931-6.59767,8.48523-5.57719l2.61702,1.78998c-2.4734-.38913-8.12871,.74754-9.07979,4.25448Z"/><path class="r" d="M36.2628,27.7373l.01468,.65915c-1.51745,4.02372-3.75676,6.47171-6.52864,7.47671l-.51795-1.28458c3.08968-1.43687,5.34023-3.82673,7.03192-6.85128Z"/><path class="r" d="M50.5659,57.55299l.97019,4.32951,2.69279-1.33939c7.73275-20.43883,1.78699-31.23073-10.19545-26.88564l-.33995,1.63091c12.82269-2.61435,13.06629,6.75798,6.87241,22.26461Z"/><path class="d" d="M25.3739,10.6449l-1.63036-.73211c1.13201-3.78595,3.7477-5.6114,9.00231-4.25448l1.94821,1.46422c-4.44374-.38181-7.78515,.56468-9.32017,3.52237Z"/><path d="M32.11728,15.35679c.76522,.24404,1.37497,.24783,2.06383-.05114-.54318,.54991-1.41889,.57994-2.14238,.51714,0,.00002,.07855-.46599,.07855-.46599h0Z"/><path d="M32.06625,15.17468c.81084-.06217,1.39879-.27103,1.93838-.80999-.31262,.71998-1.13623,1.057-1.83876,1.27194,0,.00001-.09963-.46195-.09963-.46195h0Z"/><path class="d" d="M49.79405,55.42533l.77185,2.12766c7.31062-13.81041,5.36319-26.30904-6.77981-22.20577l-.4034,.99715c10.21384-.90393,11.04606,6.63003,6.41135,19.08097Z"/><path class="d" d="M36.3312,25.93644l-.0684,1.80086c-1.82434,3.61335-4.24962,5.6266-6.97105,6.85128l-.62761-1.9656c2.88454-.83728,5.50992-2.8421,7.66706-6.68653Z"/><path class="q" d="M36.27748,28.39645c-1.03057,2.90833-2.90469,5.51028-6.52864,7.47671l.71279,1.40133c4.14894-.60106,6.87844-4.2496,5.81585-8.87804Z"/><path class="q" d="M38.33957,18.1263c-.57101,.33185-1.02247,.54132-1.36135,.63552-1.56782,6.22892-4.18922,6.60381-7.1549,5.06587l-1.24468,3.35106c1.34681,.52243,2.79557,.69307,4.5224-.09575-.7191,.96412-2.3392,1.43462-4.87347,1.40425l.43656,4.13572c3.10901-.92185,5.70198-3.06264,7.66706-6.68653,.03875-2.96635,.90763-5.45497,2.00837-7.81015Z"/><path class="q" d="M54.04565,60.63425l5.04363-2.50869,2.29787-8.87234-.46809,7.80851,2.82979-1.82979c.40425-17.95744-9.29465-30.58105-21.92844-22.60896l1.94971-.2421,.2633,1.2766c4.72953-1.60102,8.87155-1.3068,11.61881,3.48692,1.12827,1.96873,1.60543,4.2381,1.59894,6.50721-.01607,5.6243-1.53945,11.30099-3.20554,16.98264Z"/><path class="q" d="M49.09472,53.42113l.69933,2.0042c2.0985-3.67877,3.35729-7.86215,2.72964-13.17912-.09899-.83853-.36007-1.86317-.75726-2.60827-2.03037-3.80879-5.07203-3.90428-8.38374-3.29358l-.52477,1.21338,.79664,1.14228c3.75387-.29334,7.47728,6.21276,5.44016,14.7211Z"/><path class="q" d="M25.3739,10.6449c1.40178-2.9979,3.78668-4.94896,9.4044-3.45771l3.38188,2.56603-1.44342,1.38732c-2.2006,.02715-2.8815,2.33689-3.64875,4.51693-1.89178-2.03829-4.52042-3.67424-7.69411-5.01257Z"/><path class="q" d="M26.3266,2.09335c-7.05226-.93128-9.00481,2.72002-11.00327,6.33007,2.20486-.0019,4.3993,.27769,6.57479,1.06957,.98956-3.32405,2.62535-4.89573,4.62957-5.46831-.26333-.55317-.44067-1.14604-.2011-1.93134Z"/><path class="m" d="M21.72108,9.53432c-1.3509,1.07366-2.61071,3.36357-3.29578,6.95876"/><path class="e" d="M18.36795,19.84322c-.1498,.34458-.1958,.86976-.04614,1.7354,.75893,.38188,1.54817,.84105,2.36321,1.36608,.21323-.62372,.21513-1.2772-.26538-1.99859-.55937-.54771-1.24753-.90919-2.05169-1.10289Z"/><path class="g" d="M39.19035,33.72796c.27312-1.04667,.46727-2.07332-.04787-2.83113-.90036,.04581-1.76429,.2595-2.76862,.56649"/><path class="m" d="M37.91918,33.20641c.32765-.51138,.8799-1.06478,1.54532-1.63937"/><path class="m" d="M37.88184,31.13619c-.70479,.49559-1.25532,.99119-1.6516,1.48678"/><path class="j" d="M27.07707,11.3842c-1.9916,1.18001-2.80873,3.56194-2.4514,7.1458"/><path class="f" d="M39.48144,33.72796c-.47554-.44124-2.07183-.57816-3.62472-.50134"/><path class="j" d="M21.08929,16.42343c1.60106-1.46633,2.39894-3.30028,1.66954-5.94911"/><path class="l" d="M28.75851,12.25461c1.43855-2.53912,3.64977-4.2193,7.92443-3.60562"/><path class="l" d="M27.57131,11.62413c.77406-2.45332,2.6095-4.23487,8.44506-3.48465"/><path class="l" d="M18.14771,8.7124c1.86262-3.68075,4.53365-6.38197,9.75858-5.98873"/><path class="t" d="M20.8015,21.9767c-.08472,.12867-.40352-.02621-.53736-.06849-.12245-.06019-.53171-.24463-.3944-.36627,.23511,.07745,.45515,.14856,.69486,.14637,.07661,.02639,.14609-.06854,.22417,.03873l.01273,.24967h0Z"/><path class="l" d="M49.27993,53.86668c3.02212-8.1241,3.39683-15.64661-5.96544-15.78971"/><path class="i" d="M18.32182,19.80853c-.07231,.52065-.01375,1.12422,0,1.7701"/><path class="p" d="M36.7087,11.18943c-2.25768,.55922-3.15858,2.92593-3.49085,5.03069-2.13042-2.66166-5.28696-4.31672-8.42952-5.53248-3.15031-1.18686-6.4888-1.85705-9.84748-2.03784,1.02171-2.25483,2.46194-4.44369,4.64531-5.78312,6.91649-4.28968,13.3773,3.01384,18.72167,6.68469-.00003,.00009-.29529,.4036-.29529,.4036-3.75802-2.70717-7.23692-6.01499-11.65273-7.58268-4.5873-1.56264-9.10273,2.024-10.80996,6.15724-.00013-.00005-.2123-.3557-.2123-.3557,6.45527,.52469,13.38451,2.45086,17.92437,7.32554,.00017-.00278-.44879,.13791-.44204,.12744,.14101-1.64438,.85599-3.33694,2.23487-4.32658,.45498-.29745,1.13911-.63058,1.67006-.20859,0,0-.01611,.09779-.01611,.09779h0Z"/><path class="h" d="M38.3845,18.01917c-1.41223,3.34309-2.54354,7.44338-1.96969,12.07144,.08688,.70072,.06252,1.42092-.15227,2.09354-.9922,3.10698-3.157,4.45749-5.80091,5.09034-1.57643-2.77769-2.24269-5.72104-2.23404-8.78724,2.31402,.03124,4.05721-.35089,4.87347-1.40425-1.46188,.68398-2.97198,.67821-4.5224,.09575l1.24468-3.35106c1.93353,1.29538,3.5518,1.09394,4.91489-.31915,1.26492-1.52534,2.07777-3.06673,2.24-4.74672"/><path class="h" d="M43.46112,38.40668c5.43667,.44228,7.56433,9.10185,5.63359,15.01445"/><path class="l" d="M57.98176,58.67644c6.38413-19.49992-1.47108-30.24771-13.91375-25.47003"/><path class="h" d="M51.53609,61.88249l7.55319-3.75694,2.29787-8.87234-.46809,7.80851,2.82979-1.82979c.44681-19.26861-10.40426-30.51063-21.92844-22.60896"/><path class="o" d="M32.58403,44.63359c3.11196,6.05741,3.4057,13.15862,2.55137,19.81096-.19898,1.13606-.09402,2.45515-1.0423,3.29557-.48746,.43662-1.06419,.58845-1.60326,.77669-2.24799,.63768-4.71218,.37274-6.82448-.55245-.62519-.46034-.33555-1.30106-.10608-1.84638,.74495-2.10751,1.38122-4.25264,1.87473-6.42966,1.00607-4.34799,1.38411-8.84247,.97962-13.27949l.28409,.26592c-4.14292,.00337-4.81125-3.54334-4.03472-6.90468-.00014,.00008,.49098,.09387,.49098,.09387-.24646,1.4118-.43166,2.96983,.10457,4.31498,.57426,1.49955,2.23921,1.93326,3.7156,1.91582-.00002,.00004,.02483,.25838,.02483,.25838,.65692,6.77549-.65606,13.58306-2.93165,19.94451-.13279,.45188-.46652,.90952-.0661,1.25231,2.09654,.94677,7.93619,1.61461,8.40978-1.50947,1.17028-7.12813,1.17051-14.71796-1.82698-21.40688h0Z"/><path class="o" d="M28.65893,46.13541c1.41574-.21744,5.38436-1.33775,3.85736-3.30756-.86582-.67936-1.54005-1.66881-2.01404-2.66421-1.01852-1.70484-.81851-4.88628-3.36705-4.95991-3.24479,.66311-5.24845,4.12438-5.99171,7.15695,.00004,.0001-.19354-.0448-.19354-.0448,.50929-2.16633,1.49769-4.30015,3.19742-5.81762,1.89037-1.81871,4.34804-2.53772,5.58046,.40705,.5905,2.07253,1.33577,4.23701,3.08477,5.61792,.45291,.41637,.67617,1.16133,.35159,1.76266-.88175,1.5626-2.82172,1.99061-4.41048,2.34048-.00002-.00003-.09478-.49096-.09478-.49096h0Z"/><path class="g" d="M25.86588,26.4447c-.11946,2.73288-.62012,5.74932-2.80851,10.02128-.16093,.68085-.17485,1.17437-.12619,1.58813"/><path class="g" d="M23.11555,36.35165c-2.24031,1.7675-4.32902,3.67453-3.38797,8.36965,.91066,3.04242,4.45776,3.02467,5.73556,.6719,.03899-.0718,.04764,.06956,.07295,.14725,.30527,.93674,1.64399,1.50605,3.26937,2.11617"/><path class="o" d="M33.81424,47.54661c3.36621-.25751,6.06973-2.66707,6.40256-6.08609,.00015,.00014,.1417,.01806,.1417,.01806-.21566,3.5569-2.98307,6.1646-6.47137,6.56252,.00014,.00015-.07289-.49449-.07289-.49449h0Z"/><path class="u" d="M27.11056,8.31694c.80459-.94659,1.92306-1.48881,3.40425-1.56373-1.02593-2.55366-2.23167-4.67357-3.66839-6.23629-.78603,1.63721-.46617,4.49255,.26414,7.80001Z"/><path class="g" d="M34.81227,65.05563c4.11845,.73164,6.64526-.12387,6.27702-3.86624-.14894-5.09608-1.60784-12.57447-3.59575-12.97873l-.625,.00798c-.13686-.1075,.00741-.73404,.09293-1.36436"/><path class="o" d="M36.89688,49.20289c-.20761-.35503-.33773-.78634-.33193-1.23428l.49521,.06901c-.11023,.34339-.11927,.72758-.02848,1.11167l-.13481,.0536h0Z"/><path class="g" d="M38.6354,45.54217c6.06307,9.08415,7.31025,15.37416,5.26239,19.7524-.44681,1.16078,7.43617,1.22461,7.78724,0,.47522-4.8501-2.93777-14.40247-5.60862-16.93477-.29601-.28065-.68419-.4471-1.08215-.53664-.29595-.06658-.51319-.14086-.69221-.21888,.19504-5.97417-.3968-9.09755-1.51064-10.32979"/><path class="o" d="M44.54895,47.64353c-.08212,.16633,.10515,.59075,.18234,.80484,.00002,0-.10318,.06713-.10318,.06713-.25946-.31575-.52097-.46302-.573-.95044,.00004-.00002,.49384,.07848,.49384,.07848h0Z"/><path class="o" d="M35.11776,36.60833c-.03194,.42297-.58146,.77144-.78445,1.22407-.74997,1.36934-1.14799,3.33599-.25188,4.69586,.443,.46355,1.25154,.62027,1.87782,.66909,2.95706-.07214,4.95745-2.9355,6.37924-5.25241,.95754-1.67016,1.53621-3.61595,1.18732-5.50841-.01591-.0414,.20588,.20069,.20622,.19146-1.32791-.08277-2.66466,.53599-3.81736,1.18589-1.28659,.63846-2.18887,1.68512-3.43053,2.40171,.00166-.59635,.94992-1.26607,1.37381-1.66009,1.72471-1.35274,3.82646-2.74285,6.13171-2.39322,.44029,2.09585-.14945,4.25713-1.17022,6.05331-1.52537,2.44265-3.68087,5.42381-6.88179,5.44736-2.8134-.09795-3.12818-2.35026-2.54307-4.62209,.20374-.73751,.55463-1.44828,1.04806-2.03686,.1385-.1673,.3908-.50594,.67513-.39568h0Z"/><path class="m" d="M42.3682,32.62298c-1.72354,1.26098-3.2648,2.57301-4.64125,3.93121"/><line class="m" x1="37.88184" y1="38.70002" x2="43.78609" y2="33.22662"/><line class="m" x1="38.40843" y1="41.02981" x2="43.65456" y2="35.45163"/><path class="m" d="M37.88184,43.00583c.76691-1.36731,.95807-2.37301-.57447-2.29615,1.38699-1.32943,1.46075-2.12119-.39894-2.12136,1.46599-1.24211,2.13714-2.15955,.25532-2.03414,.83188-.79577,.86308-1.18726,.158-1.20697"/><path class="o" d="M27.67238,26.74586c-3.89739-.33082-8.37449-1.73509-10.03537-5.64072,1.09485,.46839,2.12522,1.09342,3.12123,1.72058,0,0-.20803,.08234-.20803,.08234,.1638-.61151,.19217-1.29648-.18188-1.79195-.67761-.94054-2.17897-.71516-2.76794-1.81907-.90387-1.16691-.42662-3.94489,1.48544-2.94568,.30775,.05195,1.4299,.35468,1.85823,.00006,0-.00003,.02115,.17633,.02115,.17633-.1115-.11006-.34253-.24385-.52887-.3524-.59492-.33348-1.22249-.64322-1.85951-.87724,0,0,.08873-.26,.08873-.26,.934,.3701,1.84992,.69569,2.62921,1.35749-.25716,.50731-.7809,.47709-1.23148,.49886-.39329-.00544-.77824-.06072-1.16059-.15179-.35962-.21734-.78394-.26784-1.03871,.01417-.76223,.97486-.16718,2.73626,.9847,3.15303,.55695,.14752,1.34445,.45037,1.74964,1.04013,.4793,.66533,.38298,1.50724,.17223,2.21266-.94877-.59106-1.88917-1.18706-2.8995-1.64377,0,0,.18507-.18806,.18507-.18806,1.73126,3.57112,5.95478,4.80366,9.64154,5.13184,0,.00003-.0253,.28318-.0253,.28318h0Z"/><path class="m" d="M24.19567,18.59364c2.88605-.45254,5.29012-.34914,6.59575,1.02128"/><path class="o" d="M36.17718,11.68538c1.38802-2.0833,3.7061-3.74746,6.314-3.59922-.00003-.00008,.03082,.19911,.03082,.19911,.97709,4.67531-1.82447,10.04745-6.75361,10.8581,2.0638-.87726,4.06968-2.0918,5.18737-4.22165,1.13384-1.96932,1.37069-4.31731,1.12638-6.5727,0,0,.21863,.19025,.21863,.19025-2.41947-.02902-4.52047,1.40063-6.00146,3.23928-.00003-.00005-.12212-.09317-.12212-.09317h0Z"/><path class="o" d="M26.88936,8.34358c-1.88249-9.50454-.46455-11.73912,3.75955-1.65045-.00009-.00001-.37129,.16486-.37129,.16486-1.05105-2.1231-2.08159-4.50088-3.75608-6.15386,.12639,.24004,.51717,.12296,.49487-.14443-.75184,2.3231,.07168,5.29212,.23537,7.73059,.00019,0-.36243,.05328-.36243,.05328h0Z"/><path class="m" d="M29.08267,3.86833c-.74216,1.27344-1.53626,1.71189-2.35278,1.78998"/><path class="m" d="M28.00016,1.96398c-.76149,.99236-1.23041,1.19929-1.61017,1.16689"/><path class="o" d="M40.54031,11.78337c-.47143,1.73701-1.85635,3.87407-3.57719,4.28433,1.62154-1.02138,2.76513-2.55528,3.46234-4.32339,.00004,.00003,.11485,.03905,.11485,.03905h0Z"/><path class="l" d="M36.4131,25.12229c-2.18693,3.8837-4.87783,5.89554-7.93464,6.54832"/><path class="l" d="M36.8781,22.53576c-3.28936,3.97323-5.74474,4.38773-7.9292,3.64616"/><path d="M23.87284,10.18227c-1.09074,.72313-3.53094,1.20535-3.93961-.50331,.00009-.00003,.10015-.04295,.10015-.04295,.94911,1.1425,2.50826,.90231,3.71959,.32684-.00001,.00003,.11987,.21941,.11987,.21941h0Z"/><path d="M31.05309,18.54859c.43284,.29925,.80784,.9715,.66538,1.37911-.14424-.47576-.48084-.83578-.89236-.96461l.22698-.41451h0Z"/><path d="M31.41206,17.89601c.51827,.18122,1.26071,.49082,1.29292,1.1348,0,0-.04041,.00678-.04041,.00678-.19603-.57014-.83603-.62442-1.35838-.68102,0,0,.10587-.46056,.10587-.46056h0Z"/><path d="M31.81313,17.1124c.36813,.10355,.8953,.30162,1.04084,.71293,.00002-.00003-.03402,.02277-.03402,.02277-.30907-.32635-.66225-.2831-1.08793-.2701,0-.00001,.08111-.46559,.08111-.46559h0Z"/><path d="M33.62021,16.95454c-.56886-.00603-1.25115-.30485-1.59096-.66918,.51219,.16164,1.02161,.34895,1.54639,.19867,0,.00003,.04457,.47051,.04457,.47051h0Z"/><path d="M19.35069,10.45183c.28666,.44265,.80971,.47919,1.32036,.59156l-.15477,.46621c-.46461-.22299-1.08046-.47245-1.25222-1.0128,0,.00001,.08663-.04497,.08663-.04497h0Z"/><path d="M18.82026,11.27003c.28168,.44481,.79435,.45615,1.30179,.52305l-.11762,.47694c-.47665-.17869-1.10967-.41278-1.27079-.95503-.00001,.00002,.08662-.04496,.08662-.04496h0Z"/><polygon class="e" points="42.04448 41.02981 42.04448 41.42218 41.88228 41.32005 42.07452 41.69252 41.9784 42.12506 42.17664 41.96886 42.21269 42.43745 42.21269 41.96886 42.41094 42.03494 42.25474 41.6805 42.33885 41.23594 42.14661 41.44621 42.04448 41.02981"/></g><g id="c"><path class="k" d="M67.69443,35.04722c0,17.86487-14.48234,32.34722-32.34722,32.34722S3,53.21209,3,35.04722"/></g></svg>