<svg xmlns="http://www.w3.org/2000/svg" viewBox="0 0 294 311"><path fill="#5B4716" fill-rule="evenodd" d="M112.9 277.8c3.4-15.6 5.3-35.1 5.3-55.6 0-21.4 6.7-25.4 40.1-35.2 8.6-12 15.2-31.6 17.4-40.6 0 0-1.7 1-2.4.1-3 6.5-7.7 15-13 22 1.1-8 3-20 5.4-28.3 0 0-.8-15.3-5.1 5.8-6.2 29.8-8 31.7-32 36.4-1.4-7.4 0-17.6 4.4-36.3 0 0-10.2-13.6-13.2.4-7.6 36-10.4 39-15.3 40.1-7.8 1.9-20.6.8-21-4.3-.8-9 4.5-26.9 4.1-39.2 0-2.4-1.8 3.8-2 3.5-1.4 9-4.3 24-7.2 35-1.2-3.6-2.4-10.7-4.7-19.3-1.4-8.5-9.5-11.7-7.4-.7 5 26.3 9.6 30.9 19 33.3 5.2 1.3 10 4.2 10.2 9.7-1.3 24.2-10.1 54.2-21.6 70.8-6.7 10.2-17 10.1-25 9.3 9.8 4.5 13.2 5 16.7 5a44 44 0 0 1-18.4 7.3c-4.3.7-4.2 1 1.1 1.4 5.4.5 15.6.2 20.6-3-.2 5-4.2 10.9-10.2 14.2 8.4-.1 15.3-4.4 20-9 4.1-4 12.6-1.7 17 2.8a29 29 0 0 0 14.9 7c-2.6-3.9-2.3-6.9-.8-10.5a36.2 36.2 0 0 0 22.1 5.8c-7.2-4-10.4-7-12.2-11 4.8.9 12.3-1.8 15-5-6.2 2.1-24.4-1.2-21.8-11.9Z"/><path fill="#E2C125" fill-rule="evenodd" d="M73.6 180.8c42.8-20.5 73.5-32.4 115.3-7 50.4 30.5 87.7-13.9 100-64 24-96.7-47.5-145.7-123.4-77.6C97.3-12.8-4.3 15.6.1 119.2c3.1 72 51.6 72 73.5 61.6Z"/><path fill="#3C2E1F" fill-rule="evenodd" d="M196.7 103.2c.1-.4 3.8-3.8 4.6-3.3 0-.4-.4.6-.4.8-.9.9-3.1 2-3.7 2.8.2.2-.7-.2-.5-.3Z"/><path fill="#FFE348" fill-rule="evenodd" d="M190 102.3a4.1 4.1 0 0 1 5.9-1.7c.8.5 1.4 2 1 2.2 0 .6.2.5.6.8 1.4-1 3.4-1.2 4-.2.1.6 2 2-.2 6.5a7.4 7.4 0 0 1-6.2 3.7c-1 0-1.6.2-2.2-1.4-.2-.7-.3-.6-1-.3s-2.5 0-2-3.4c-1-1.5-1.3-3.8 0-6.2Z"/><path fill-rule="evenodd" d="M196.5 101.7c-.2 1.5.2 2 2.4 2-2-.4-2.2-.5-2.4-2Z" opacity=".4"/><path fill="#3C2E1F" fill-rule="evenodd" d="M233 158c.8-.5 2.7-4.4 3.8-4.8.1.4 0 1.4 0 1.6-.9.5-2.8 2.4-3.3 3.4 0 .2-.6 0-.5-.3Z"/><path fill="#FFE348" fill-rule="evenodd" d="M226.2 158.2c1.1-3 4.8-3.4 5.6-2.7 1 .4 1.4 1.3 1.4 2 0 .6.2 1.4.5.2 1.4-1.3 2.5-1 3.6-.3.9.5 2.9 2.6 1.4 6.4-1 3-4.2 4.6-5.5 4.7-1 .2-1.8-.2-2.5-1-.2-.7-.3-.6-1-.2-.1.5-2.6-.4-3.3-2.9-.4-1.4-1.1-3.6-.2-6.2Z"/><path fill-rule="evenodd" d="M232.6 156.5c0 2.2 1.4 2 1.9 1.7-1.2 0-1.5-.2-1.9-1.7Z" opacity=".4"/><path fill="#3C2E1F" fill-rule="evenodd" d="M96.1 149.8c-.1-.4-.3-5 .4-6.1a6 6 0 0 1 1 1.8c-.5.4-1 3.1-.8 4.2 0 .2-.5.4-.6.1Z"/><path fill="#FFE348" fill-rule="evenodd" d="M90.8 154c-.8-3.1 1.2-5.1 3-5.5 1-.2 1.8.3 2.3.8.4.5.5.3.5-.1.3-1.8 1.5-2.4 2.8-2.4.8 0 3.3-.3 4.8 4.4 1 3-.7 6.2-1.7 7-.7.8-1.8 1.1-2.6.6-.6-.4-.6-.2-.7.4-.5 1.5-2.5 1.3-4.6-.3-1.2-1-3-2.3-3.8-5Z"/><path fill-rule="evenodd" d="M95.2 148.9c.8 1.2 1.4 1.3 2.3.2-1 .6-1.3.7-2.3-.2Z" opacity=".4"/><path fill="#3C2E1F" fill-rule="evenodd" d="M49.1 59.2c-.4 0-3.7-3.5-4-4.7.5 0 1.5.4 1.7.4 1 1 1.8 3.2 2.6 3.8.2.1-.1.6-.3.5Z"/><path fill="#FFE348" fill-rule="evenodd" d="M48.2 66c-2.8-1.7-2.7-4.6-1.7-6 1.4 0 1.7-1.2 2.3-1.1.6 0 .5-.1.5-.5-.7-1.5-.9-2.6.1-3.6.9-.5 2.2-2.4 6.5-.1 2.9 1.5 3.8 5 3.7 6.3 0 1-.6 2.1-.7 2.2-1.5.1-1.5.2-1.2 1.5 1.1.2-.8 1.9-3.4 2.2-1.5.3-3.8.4-6.1-1Z"/><path fill-rule="evenodd" d="M47.7 59.3c1.5.3 2-.1 2-1.5-.4 1.1-.5 1.4-2 1.5Z" opacity=".4"/><path fill="#3C2E1F" fill-rule="evenodd" d="M202.7 25.4c-.4.4 3.3-3.3 4.5-3 0 0-.6 1-.5 1.2-1 .2-3.5 1.9-4.2 2.2-.1.2-.6-.2.2-.4Z"/><path fill="#FFE348" fill-rule="evenodd" d="M195.5 23.7c2-2.5 4.8-2.2 6.2-1 .7.7.9 1.7.7 2.4-.1.6 0 .5.5.3 1.6-.8 2.7-.3 3.5.8.5.7 2.2 2.5-.6 6.5a7.5 7.5 0 0 1-5.9 3c-1.8-.3-2.8-1-2-1.8-.5-.8-1-.7-1.7-.5-.8.3-2.4-1.1-2.3-3.7 0-1.5 0-3.8 1.6-6Z"/><path fill-rule="evenodd" d="M202.2 24c-.5 1.5 0 2.3 1.2 2.1-1-.5-.5-.6-1.2-2.1Z" opacity=".4"/><path fill="#1C3A1B" fill-rule="evenodd" d="M68 71.2c.3-.9.3-4.3 5-4.8-1 1.9-2.7 4.4-4.3 5.2-1 1.1-1 .7-.7-.4Z"/><path fill="#3C2E1F" fill-rule="evenodd" d="M69 72c-.7-1.2-3.3-4.5-4.6-4.2.4-1.1 1.2-1.3 1.9-1.3 1.2.8 3.4 4.3 3.4 4.6 0 1.1 0 1-.7.9Z"/><path fill="#F7EB32" fill-rule="evenodd" d="M63.7 77.5c-1-1.9-1.4-5 0-6.6 1.5-1.4 4-1.8 5.5.2.8-1.3 3.8-1.8 5-.6 1.4 1.8 1.3 4.6.3 6.6-1.7 3-3.9 2.7-4.6 2.2-.8-1-1.2-.9-1.6-.4-1.4 1.6-3.7.4-4.6-1.4Z"/><path fill="#94933E" fill-rule="evenodd" d="M70.3 70.7c-.5 1.2-2.4.8-3 1 .7.5 2.6-.1 3-1Z"/><path fill="#1C3A1B" fill-rule="evenodd" d="M114.5 107c-.3-1.2-1.8-3.8 2-6.4.2 1.9-.1 5-1.2 6.5-.5.7-.5 1-.8-.1Z"/><path fill="#3C2E1F" fill-rule="evenodd" d="M115.3 106.4c-1-.6-4.5-1.6-5.9-1.4.2-.5.8-1 1.4-1.4 1.5.2 4.7 1.6 5.4 2.5.3 1.5.2.9-.9.3Z"/><path fill="#F7EB32" fill-rule="evenodd" d="M113.7 114.5c-1.8-1.2-3.2-3.8-3-5.8.6-2 2.6-3.4 4.9-2.4 0-1.5 3.2-3.3 4-2.8 2 .6 3.6 3.4 3.6 5.7 0 3.4-2.3 4.1-3.3 3.8-1-.4-1.3 0-1.5.6-.5 2-3 2-4.7 1Z"/><path fill="#94933E" fill-rule="evenodd" d="M116.3 105.4c.6.7-1.7 1.8-2.5 1.8 1.2.6 2.6-.8 2.5-1.8Z"/><path fill="#1C3A1B" fill-rule="evenodd" d="M33.7 153.3c0-.7-.5-4.3 3.7-5.4-.5 1.6-1.5 4.5-2.9 5.6-.8.7-.8 1-.8-.2Z"/><path fill="#3C2E1F" fill-rule="evenodd" d="M34.7 153c-1-.9-4-2.8-5.4-2.2.3-1.2 1-1.6 1.7-.8 1.4-.4 4.1 1.8 4.4 2.8.2 1 .1 1-.7.1Z"/><path fill="#F7EB32" fill-rule="evenodd" d="M31 160.4c-1.4-1.6-2.6-4.6-1.5-6.4 1.1-1.8 4.2-2.7 5.4-1 .4-1.5 3.3-2.7 4.7-1.8 1.8 1.1 2.4 4.2 1.8 6.3-.9 3.4-3.1 4-4 3-1-.6-1.3-.4-1.6.2-1 1.9-3.5 1.2-4.8-.3Z"/><path fill="#94933E" fill-rule="evenodd" d="M35.8 152.2c-.3.5-2 1.3-2.6 1.1.8.9 2.5-.1 2.6-1Z"/><path fill="#1C3A1B" fill-rule="evenodd" d="M211.6 145.1c.6-1 1.7-4 6.4-3.2a16.6 16.6 0 0 1-5 3.9c-1 .1-2 .3-1.4-.7Z"/><path fill="#3C2E1F" fill-rule="evenodd" d="M212.5 145.4c-.3-1.2-1.9-4.5-3-4.5.9-1 1.4-1 2-.7 1 1.1 2 4.5 1.7 5.5-.4 1-.4.9-.7-.3Z"/><path fill="#F7EB32" fill-rule="evenodd" d="M205.4 149.6c-.3-2 .4-5.2 2.2-6 2-1 4.6-.5 5.2 2 1-1.1 4.1-.1 4.8 1 1 1.9-.2 4.8-1.9 6.3-2.5 2.3-4.5 1.3-5 .3-.4-1-.8-1-1.4-.7-1.8 1-3.6-.8-3.9-2.9Z"/><path fill="#94933E" fill-rule="evenodd" d="M214 145.4c-.7.3-2.5 0-3-.6.3 1.8 2.3 1.4 3 .6Z"/><path fill="#1C3A1B" fill-rule="evenodd" d="M271.5 62.4c0-1.2-.8-4.2 4.4-6.2-1.3 2.4-2.2 5.3-3.6 6.5-.8.6-.8 1-.8-.3Z"/><path fill="#3C2E1F" fill-rule="evenodd" d="M272.4 62.1c-.9-.8-4-2.7-5-2.8-.1-.5 1.2-.8 1.3-1 2.2.5 4.2 2.6 4.4 3.7.3 1.1.2 1-.7.1Z"/><path fill="#F7EB32" fill-rule="evenodd" d="M268.8 69.6c-1.4-1.5-2.6-3.9-1.5-6.4 1-1.8 3.5-2.7 5.4-.5 1-2 3.2-3.3 4.6-2.4 1.8 1 2.5 4.1 2 6.3-1 3.4-3.1 3.6-4 3-1-.6-1.3-.4-1.6.3-1 1.8-3.5 1.2-4.9-.3Z"/><path fill="#94933E" fill-rule="evenodd" d="M273.6 61.4c-.4.5-2 1.3-2.8 1 1 1 2.7 0 2.8-1Z"/><path fill="#1C3A1B" fill-rule="evenodd" d="M76.8 135.4c.5-1.3 2-3.5 4.5-3.6 0 2-2.5 3.8-3.8 4.2-1.3.3-1 .2-.7-.6Z"/><path fill="#3C2E1F" fill-rule="evenodd" d="M76.5 136.5c.2-.7-.3-4-1.2-4.8h1.1c.8 1.5 1 3.5.6 4.7-.3.9-.8.8-.5.1Z"/><path fill="#F1E41F" fill-rule="evenodd" d="M72.3 141.9c1.3-.3 2.7-.2 3.3.5.9 1 3 1.5 4.8-.5 2.8-5 2-7.2-2.4-6.4-1.2.3-1.7.3-2.5-.6-1.3-1.6-4.7-1.6-4.2 1.4.2 1.4.5 3.7.2 4-.3 1-.1 2.6.8 1.6Z"/><path fill="#1C3A1B" fill-rule="evenodd" d="M247.8 108.5c-.7-1.3-1.3-4 .3-5.9 1.4 1.3 1.1 5 .5 5.7 0 1.2-.5.9-.8.2Z"/><path fill="#3C2E1F" fill-rule="evenodd" d="M248.5 109.7c-1-1.5-3.3-2.8-4.5-2.1.2-1 .5-1.2.8-1.3 1.6.3 3.6 1.5 3.8 2.6.3.6 0 1-.1.8Z"/><path fill="#F1E41F" fill-rule="evenodd" d="M249.7 116.1c.5-1.2 1.6-2.2 2.5-2.2 1.3 0 3.1-1.2 2.2-4.4-1.2-4.8-4-6.2-5.8-2-.5 1.2-.8 2.1-2 2.2-2.1-.8-4.4 1.8-1.8 3.4a8 8 0 0 1 3.1 2.5c.6 1 1.3 1.3 1.8.5Z"/><path fill="#1C3A1B" fill-rule="evenodd" d="M173.4 49.3c-.5-1.4-.1-4.2 2-5.3.9 1.6-.5 4.5-1.5 5.4-1 1-.8 1.5-.5-.1Z"/><path fill="#3C2E1F" fill-rule="evenodd" d="M173.8 50c-1-1-2.6-3.1-2.9-3.4-.6-.3-.2-.4.5-.4 1 1.2 2.1 2.6 2.3 4.2 0 .3-.4.5.1-.5Z"/><path fill="#F1E41F" fill-rule="evenodd" d="M172.1 57.4c1.4-1.2 2.3-1.8 3.2-1.5 1.2.5 3.3 0 3.6-3.3.5-5-1.5-7.2-4.8-3.9-.8 1-1.3 1.1-2.4.6-2-.8-5 .8-3 3.3.8 1.1 1.7 2.2 2 3.4.2 1.7.7 1.7 1.4 1.4Z"/><path fill="#1C3A1B" fill-rule="evenodd" d="M107.7 49.3c-.1-1.4.3-4.2 2.4-5.3.9 1.6-.5 4.5-1.5 5.4-1 1-.8 1.5-.9-.1Z"/><path fill="#3C2E1F" fill-rule="evenodd" d="M107.8 50c-.2-1-2-3.1-3-3.4.6-.3.6-.4 1-.4 1.3 1.2 2.4 2.6 2.6 4.2 0 .3-.4.5-.6-.5Z"/><path fill="#F1E41F" fill-rule="evenodd" d="M106.8 57.4c1-1.2 3-1.8 3.2-1.5 1.2.5 3.3 0 3.6-3.3.5-5-1-7.2-4.8-3.9-.8 1-1.3 1.1-2.4.6-2-.8-5 .8-3.1 3.3.9 1.1 2.5 2.2 2 3.4.3 1.7 1.4 1.7 1.5 1.4Z"/></svg>