<svg xmlns="http://www.w3.org/2000/svg" viewBox="0 0 13 13"><path fill="#1C3A1B" fill-rule="evenodd" d="M5.3 4.9c.2-1.1.2-4 4.6-4-1 1.2-2.5 3.6-4 4.4 0 .4-1 .6-.6-.4Z"/><path fill="#3C2E1F" fill-rule="evenodd" d="M6.2 4.8c-.6-1-3-3.3-4.2-3.2.3-1 1.7-1 1.7-1 1.1.7 3.1 3.2 3.1 4.2s0 1-.6 0Z"/><path fill="#E0DE50" fill-rule="evenodd" d="M1.3 10.7a7 7 0 0 1 0-6c1.4-1.4 4-1.7 5.1.1C8 3.6 10 3.1 11 4.2c1.4 1.5 1.3 4.3.3 6.2C9.8 13.2 7.7 12.9 7 12c-.8-.7-1.1-.5-1.6.3-1.3 1.1-3.3 0-4.2-1.7Z"/><path fill="#94933E" fill-rule="evenodd" d="M7.4 4.4c-.4.4-2.2.7-2.8.4.7 1 3.4.4 2.8-.4Z"/></svg>