<svg xmlns="http://www.w3.org/2000/svg" viewBox="0 0 294 311"><defs><linearGradient id="a" x1="0%" x2="30.9%" y1="95.1%" y2="0%"><stop offset="0%" stop-color="#806C40"/><stop offset="100%" stop-color="#382606"/></linearGradient><linearGradient id="b" x1="15.6%" x2="0%" y1="98.8%" y2="0%"><stop offset="1%" stop-color="#9A7208"/><stop offset="100%" stop-color="#F7D82E"/></linearGradient></defs><path fill="#5B4716" fill-rule="evenodd" d="M112.9 277.8c3.4-15.6 5.3-35.1 5.3-55.6 0-21.4 6.7-25.4 40.1-35.2 8.6-12 15.2-31.6 17.4-40.6 0 0-1.7 1-2.4.1-3 6.5-7.7 15-13 22 1.1-8 3-20 5.4-28.3 0 0-.8-15.3-5.1 5.8-6.2 29.8-8 31.7-32 36.4-1.4-7.4 0-17.6 4.4-36.3 0 0-10.2-13.6-13.2.4-7.6 36-10.4 39-15.3 40.1-7.8 1.9-20.6.8-21-4.3-.8-9 4.5-26.9 4.1-39.2 0-2.4-1.8 3.8-2 3.5-1.4 9-4.3 24-7.2 35-1.2-3.6-2.4-10.7-4.7-19.3-1.4-8.5-9.5-11.7-7.4-.7 5 26.3 9.6 30.9 19 33.3 5.2 1.3 10 4.2 10.2 9.7-1.3 24.2-10.1 54.2-21.6 70.8-6.7 10.2-17 10.1-25 9.3 9.8 4.5 13.2 5 16.7 5a44 44 0 0 1-18.4 7.3c-4.3.7-4.2 1 1.1 1.4 5.4.5 15.6.2 20.6-3-.2 5-4.2 10.9-10.2 14.2 8.4-.1 15.3-4.4 20-9 4.1-4 12.6-1.7 17 2.8a29 29 0 0 0 14.9 7c-2.6-3.9-2.3-6.9-.8-10.5a36.2 36.2 0 0 0 22.1 5.8c-7.2-4-10.4-7-12.2-11 4.8.9 12.3-1.8 15-5-6.2 2.1-24.4-1.2-21.8-11.9Z"/><path fill="url(#a)" d="M112.9 277.8c3.4-15.6 5.3-35.1 5.3-55.6 0-21.4 6.7-25.4 40.1-35.2 8.6-12 15.2-31.6 17.4-40.6 0 0-1.7 1-2.4.1-3 6.5-7.7 15-13 22 1.1-8 3-20 5.4-28.3 0 0-.8-15.3-5.1 5.8-6.2 29.8-8 31.7-32 36.4-1.4-7.4 0-17.6 4.4-36.3 0 0-10.2-13.6-13.2.4-7.6 36-10.4 39-15.3 40.1-7.8 1.9-20.6.8-21-4.3-.8-9 4.5-26.9 4.1-39.2 0-2.4-1.8 3.8-2 3.5-1.4 9-4.3 24-7.2 35-1.2-3.6-2.4-10.7-4.7-19.3-1.4-8.5-9.5-11.7-7.4-.7 5 26.3 9.6 30.9 19 33.3 5.2 1.3 10 4.2 10.2 9.7-1.3 24.2-10.1 54.2-21.6 70.8-6.7 10.2-17 10.1-25 9.3 9.8 4.5 13.2 5 16.7 5a44 44 0 0 1-18.4 7.3c-4.3.7-4.2 1 1.1 1.4 5.4.5 15.6.2 20.6-3-.2 5-4.2 10.9-10.2 14.2 8.4-.1 15.3-4.4 20-9 4.1-4 12.6-1.7 17 2.8a29 29 0 0 0 14.9 7c-2.6-3.9-2.3-6.9-.8-10.5a36.2 36.2 0 0 0 22.1 5.8c-7.2-4-10.4-7-12.2-11 4.8.9 12.3-1.8 15-5-6.2 2.1-24.4-1.2-21.8-11.9Z"/><path fill="#A79675" fill-rule="evenodd" d="M121.5 156c-5.2 32.1-11.8 30.5-16.6 36.4-3.2 4-5.6 11.2-6.3 34 0 4.5.2 3.8.4.3.9-20.5 2.8-29 6.1-33.4 5.5-7 12-5.7 17.1-37.6.5-10.4 1.3-13.1-.7.3Zm-24.7 62.3c1 13.5-7 51-13.1 60.4-6.1 9.5-11.5 15.1-26 17.2 16-3.6 20.3-8.7 25.6-17.5 5.9-9.2 13.6-46.5 13.5-60Z"/><path fill="#A79675" fill-rule="evenodd" d="M57.6 286.6c13.2-1.6 18.2-6.9 23.6-21.4-3.2 9.7-8.6 21.4-23.6 21.4ZM99.2 234c-1 10.7-5 45.6-25.2 58.8 17.4-14.9 21-35 25.2-58.8Zm6.6 73.2a22.5 22.5 0 0 1-8.3-18.5c1.2 9.9 4.2 12.8 8.3 18.5Zm19.3-3c-12.2-2.4-20.8-9.8-20.7-24.6 1.1 14 7.9 21.2 20.7 24.6Z"/><path fill="#A79675" fill-rule="evenodd" d="M120.1 302c-7.5-3.6-12.1-15.3-11.6-27.4-.6 11.5 5 23.3 11.6 27.3Zm7.9-11a29.7 29.7 0 0 1-12.7-3.5c2 2.7 9.2 4 12.6 3.5Zm-62.5 15.4a73 73 0 0 0 33.7-37 63.4 63.4 0 0 1-33.7 37Zm41.3-4c-9.7-10.1-9-20-4.6-27.6 4.4-7 8-29.6 7.5-47.9 1.7 19.5-2.1 40.2-6.8 48.4-4 7-4.4 16.4 3.9 27.1Zm17.7-150.5c-4.2 31-11.9 36-16.7 42-3.2 4-6.9 14.4-7.6 37.3 0 3.6.2 3.8.4.3 1-20.5 4-32.4 7.9-36.7 5-7 11.6-10.4 16.7-42.4.5-9.6 1-13.1-.7-.5Zm3.3 4.6c-2.3 29.7-4.2 36.4-9.2 47.2-8.1 17.7-1.3 49.2-9.4 68.8 7.2-20 .5-51.2 9.2-69 4.4-10.2 6.7-18.2 8.7-47 .4-5 1.2-6 .7 0Z"/><path fill="#A79675" fill-rule="evenodd" d="M123.7 166.5c.2 17-11.6 26.6-15.7 42.8-3.3 13.1-2.8 50.7-13.6 64.4 11-20.2 9.5-51 13-64.9 3.9-14.9 15.2-24.8 16.3-42.3Z"/><path fill="#A79675" fill-rule="evenodd" d="M120.5 189c-5.3 9.2-6 11.5-10.8 27.6-4 13.4-2.5 38.9-7 48.7 3.6-9.8 2.3-35.4 6.5-49 4.5-15 5.3-19.4 11.3-27.4Zm.3 15.1c7.4-14.7 31.7-15.9 36-19.6 7.9-7 11-18 12.4-25 1.2-5.6-.8 1.1-.8 1.1-1.4 6-4.5 16.8-11.9 23.2-4.6 4-31.1 6.4-35.7 20.3Z"/><path fill="#A79675" fill-rule="evenodd" d="M158.8 156.8c-3.7 28.4-20.3 20.6-35 38.9 15-17.2 32.1-10.1 35-39Z"/><path fill="#A79675" fill-rule="evenodd" d="M133.6 188.9c6.7-6.2 16.8-5.8 23.6-18.2-5.6 12.2-14.6 11.4-23.6 18.2Z"/><path fill="#A79675" fill-rule="evenodd" d="M166.4 161.3c-3.2 11.2-7.3 21.4-20.9 24.9 14.3-3 18-13.2 20.9-25Zm-70.5 53.6c2.3-12.4 1-17.4-3-18.6-12-3.8-16.8-5.6-21.2-16.8-3-7.8 0-.7 0-.7 5.4 12.2 9.8 14 21.1 16.8 5.2 1.5 5.9 9.7 3.1 19.3Z"/><path fill="#A79675" fill-rule="evenodd" d="M94.6 195c-11.9-2.4-19.9-9.7-19.8-16.7.4 5.9 7.1 13.6 19.8 16.6Z"/><path fill="#A79675" fill-rule="evenodd" d="M82.8 175.2c-1.5.6-2 7.2-1.7 10.8 9 9 18 3.7 18.3 17.8.8-14.1-9.1-9.6-17.7-18-.4-3 .1-9.2 1.1-10.6Z"/><path fill="#AD6F0C" fill-rule="evenodd" d="M73.6 180.8c42.8-20.5 73.5-32.4 115.3-7 50.4 30.5 87.7-13.9 100-64 24-96.7-47.5-145.7-123.4-77.6C97.3-12.8-4.3 15.6.1 119.2c3.1 72 51.6 72 73.5 61.6Z"/><path fill="url(#b)" d="M73.6 180.8c42.8-20.5 73.5-32.4 115.3-7 50.4 30.5 87.7-13.9 100-64 24-96.7-47.5-145.7-123.4-77.6C97.3-12.8-4.3 15.6.1 119.2c3.1 72 51.6 72 73.5 61.6Z"/><path fill="#634F09" fill-rule="evenodd" d="M126.8 66.2c1.3 6.4 4.7 4.6 6.7.4 6 6.3 10.7 1.5 7.9-3.6 5.7 3.1 13.5-.8 3.2-3.3 7.1-.3 7.8-3.8.8-3 6.7-1.3 9 1 3.3 3 4 1.6 2.2 7-5.6 5 1.2 6.5-5.1 7-9.3 3.7-3 4-7.6 4-7.2-.8-4.1 6.8-5.7 6.9-6 .8-6 6-11 5.1-7-2.9-9 4-7.8-1-4-4-3.9 5.1-1.7 6.1 6 2.4-4 6-3.6 11.6 5.3 3.5 1 5.4 1.8 5.5 6-1.2ZM57.4 88.5c1.6 4.6-1 5.8-2.8 3.7 0 3-3.2 3.5-5-.9.3 5.7-6.2 1.6-5.1-3.6-3.9 1.7-7.2-.5-3.7-5.5-6.5 1.7-7.7-4.3-1.9-5.7-4.3 2.9-3.2 6.7 3.5 4.7-4 5.4-1.7 7.2 3.3 5.4-1.4 4.8 3.8 10.1 3.5 2.6 2 4.7 4.5 6.4 5 1.8 1.7 2.3 3.6 1.4 3.1-2.5Zm59.1 38.8c4.9-.7 5.3 2.2 2.9 3.3 2.9.7 2.5 4-2.1 4.6 5.5 1.2 0 6.4-4.9 4 .8 4.2-2.4 7-6.2 2.2 0 7.3-5.3 6.4-6 .4 1.7 4.9 5.5 4.8 5.4-2.2 4.2 5.3 6.6 3.5 5.9-1.2 4.5 2 10.3-1.8 3.6-3.3 4.2-.9 7.3-2.8 3.6-4.3 2.1-1.1 1.7-3.3-2.2-3.5ZM203.7 76c-4.5 2.7-3.3 5.5-.6 4.2-1.3 2.5.2 4.6 4.4 2.5-4 4 3.7 4 6.4-1 1.8 3.5 6 3.2 6.4-2.6 3.9 4.7 9.3.4 5.3-3.8 1.4 4.7-1.9 7.2-5.8 2-.5 7-3.5 7-5.6 3.2-2.6 4.4-9.7 5.6-5 0-4 2.1-7.7 3-5-1-2.8 1-3.7-.8-.5-3.6Zm64.3 8.4c4.8-.6 5.3 2.2 2.8 3.4 2.9.7 2.5 4-2.2 4.5 5.5 1.3-.1 6.4-5 4 .8 4.2-2.4 6.7-6.1 2-.2 6.8-6.2 6.3-6 .3 1.9 5 5.4 5 5.4-2 4.5 5.3 6.5 3.6 5.9-1.2 4.5 2 10.3-1.7 3.7-3.2 4.2-1 7.3-2.7 3-4.3 2.7-1.1 2.3-3.2-1.6-3.5Zm-60.5-41.5c3 4.8-4.7 4.4-6.4-.7-2.4 3.5-6.5 3-5.8-2.9-4.9 4.6-8.9 0-4.5-4-2.4 4.6.4 7.2 5.3 2.3-.8 6.7 2.1 7.2 5 3.4 1.7 4.6 8.5 6.8 5 .3 4 3.2 5.8 3.2 5-1 2 2.6 1.7 7.5-3.6 2.6Zm-30 91.6c-4.3 5.2-1.6 8.1-.7 9.4 2-.5 3.8-3.2 5-4.2 1.5 4 4.4 1.8 4.4-.3 2.6 3.3 6.5.5 4.6-2.1 6 1.4 7-2.7 4.6-4.5.7-.4 1.5-1.6 1.8-3 .6 3.2 2 5.4 4.2 5.4 1.7 0 3-1.6 2.8-2.5 3 1.8 5-1.2 5-3.6 3.7 2.3 5.2-.2 4.6-2.9-.8-3.5-2.5-5.9-6.4-6.4 3 1.2 5 3.5 5.6 6.5.5 3-1.8 3.4-4.6 1.6 1.2 4.4-2.8 5.3-5 3.5 0 2.3-.8 3-2 3-2 0-3.8-5-4.5-7.6 0 5.1-1.3 6.1-6.4 3.1 4.2 2.9 5.7 4.8 4.7 6.3-.6.6-4.3.6-6.8-1.4 1.9 1.6 3.1 3.8 1.5 4.8-.7.8-3.4 1.2-4.3-2.8.8 5.5-4 6.2-4 .1-1.4 4.2-4.1 5.6-5 5.6-1-1-1.2-3.4 1-8Zm71.6-80.3c1 3.6 2.3 4.3 4.2 3.8 1.3-.1 2.1-.7 2.1-3 2.1 1.7 6.1.9 5-3.5 2.7 1.8 5 1.1 4.5-2.6 6 .5 7.5-4.6 1.9-5 8-1 4.7 6.5-1.1 5.9.6 2.7-1.7 4.6-4.4 3.9.2 2.1-2.4 4-5.2 2.6.2.9-.7 2.6-2.9 2.6-1.2 0-4-1-4-4.7Zm-114.9 60.1c1.4 5.5 8 7.3 7.2 1.1 4 2.9 6.6 1 4.3-1.8 2.9 2 5.5 0 2.7-3.8 4.2.1 10.5-4.3 5.3-6.6 3.1-1.4 8.2-6.5 3.2-6.8 3.6 1-1.2 5.5-5.8 7.4 7.2 1 2.6 5.6-4.3 5.4 4 4.4.9 4.7-2.3 3.4 2 4.5-.7 3.7-4.2 2.2 1.4 4.9-2.7 5.1-6-.5ZM54.9 37.1c-3.3 5.1.6 10.7 4 5.4 1.6 4.8 3.7 4.4 4.4 1.5.9 2.6 4.3 3.4 4.5-1.2 3.2 2.7 10.8 3.4 7.8-2.1 3.8 1.4 11 .6 7.4-2.7 2 3.3-4.4 3.3-8.8 1.3 4.2 5.8-2.3 5.9-7.2 2 .3 6-2.3 4.1-3.6 1-1.7 4.8-3.3 2.5-4.5-1.4-2.5 5.4-5.2 2.7-4-3.8Zm191.4 102.5c5.6 1.1 8 6.8 1.8 6.2 3.2 3.5 1.4 5-1.4 4 1.7 2 .5 5.8-3.4 3.5.5 3.7-2.3 9-5.3 4.4-.7 3-6.7 4.5-5.3-1.3-.5 4.4 4.3 3.9 5.2-.6 2.4 6 5 1.6 4.6-4 4.7 3.5 4.6-.4 3-3.1 4.7 1.6 3.7-.7 1.2-3.7 5.6 1.4 5.5-2.5-.4-5.4ZM77.2 104.3c-4.4 3.6-3.6 9.9 1.6 6.3-1 4.5 1.3 5 3.5 2.7-.7 2.5 2.3 5.4 4.5 1.5 1.5 3.4 6.7 6.7 7 1.5 2 2 8.5.4 4-4 2.7 3.6-1.6 5.5-5 2 1 6.5-3.5 3.9-6-1.2-2.4 5.3-4.3 1.9-4.3-1.3-3.3 3.7-3.6 1.1-2.9-2.7-4.4 3.7-6.2.5-2.4-4.8Zm-21 45c-3.5 3.2-7.3 1.7-6.7-3.1-1.5 4.8-3 6.8-4.4 6.2-.3.2-1.7-4-.1-7-1.7 2.4-3.6 4.5-4.4 3-1.5-.5-2-3.2 1-5-5 2.4-7-2.1-1.3-3.9-4.4 0-6.5-2.3-6.1-3.3 0-1 2.2-2.3 7.4-.8-6.4-3.2-8.4-.4-7.8 1.3-.7 1.9 2.6 3 3.7 3.1-3.2 3.3-.3 5.5 1.7 4.9-2.4 4.2 2.3 7 3.6 3.8.1 6.2 4.6 6 6.3 2 .3 1 4 3 7-1.2Z"/><path fill="#3C2E1F" fill-rule="evenodd" d="M196.7 103.2c.1-.4 3.8-3.8 4.6-3.3 0-.4-.4.6-.4.8-.9.9-3.1 2-3.7 2.8.2.2-.7-.2-.5-.3Z"/><path fill="#FFE348" fill-rule="evenodd" d="M190 102.3a4.1 4.1 0 0 1 5.9-1.7c.8.5 1.4 2 1 2.2 0 .6.2.5.6.8 1.4-1 3.4-1.2 4-.2.1.6 2 2-.2 6.5a7.4 7.4 0 0 1-6.2 3.7c-1 0-1.6.2-2.2-1.4-.2-.7-.3-.6-1-.3s-2.5 0-2-3.4c-1-1.5-1.3-3.8 0-6.2Z"/><path fill-rule="evenodd" d="M196.5 101.7c-.2 1.5.2 2 2.4 2-2-.4-2.2-.5-2.4-2Z" opacity=".4"/><path fill="#3C2E1F" fill-rule="evenodd" d="M233 158c.8-.5 2.7-4.4 3.8-4.8.1.4 0 1.4 0 1.6-.9.5-2.8 2.4-3.3 3.4 0 .2-.6 0-.5-.3Z"/><path fill="#FFE348" fill-rule="evenodd" d="M226.2 158.2c1.1-3 4.8-3.4 5.6-2.7 1 .4 1.4 1.3 1.4 2 0 .6.2 1.4.5.2 1.4-1.3 2.5-1 3.6-.3.9.5 2.9 2.6 1.4 6.4-1 3-4.2 4.6-5.5 4.7-1 .2-1.8-.2-2.5-1-.2-.7-.3-.6-1-.2-.1.5-2.6-.4-3.3-2.9-.4-1.4-1.1-3.6-.2-6.2Z"/><path fill-rule="evenodd" d="M232.6 156.5c0 2.2 1.4 2 1.9 1.7-1.2 0-1.5-.2-1.9-1.7Z" opacity=".4"/><path fill="#3C2E1F" fill-rule="evenodd" d="M96.1 149.8c-.1-.4-.3-5 .4-6.1a6 6 0 0 1 1 1.8c-.5.4-1 3.1-.8 4.2 0 .2-.5.4-.6.1Z"/><path fill="#FFE348" fill-rule="evenodd" d="M90.8 154c-.8-3.1 1.2-5.1 3-5.5 1-.2 1.8.3 2.3.8.4.5.5.3.5-.1.3-1.8 1.5-2.4 2.8-2.4.8 0 3.3-.3 4.8 4.4 1 3-.7 6.2-1.7 7-.7.8-1.8 1.1-2.6.6-.6-.4-.6-.2-.7.4-.5 1.5-2.5 1.3-4.6-.3-1.2-1-3-2.3-3.8-5Z"/><path fill-rule="evenodd" d="M95.2 148.9c.8 1.2 1.4 1.3 2.3.2-1 .6-1.3.7-2.3-.2Z" opacity=".4"/><path fill="#3C2E1F" fill-rule="evenodd" d="M49.1 59.2c-.4 0-3.7-3.5-4-4.7.5 0 1.5.4 1.7.4 1 1 1.8 3.2 2.6 3.8.2.1-.1.6-.3.5Z"/><path fill="#FFE348" fill-rule="evenodd" d="M48.2 66c-2.8-1.7-2.7-4.6-1.7-6 1.4 0 1.7-1.2 2.3-1.1.6 0 .5-.1.5-.5-.7-1.5-.9-2.6.1-3.6.9-.5 2.2-2.4 6.5-.1 2.9 1.5 3.8 5 3.7 6.3 0 1-.6 2.1-.7 2.2-1.5.1-1.5.2-1.2 1.5 1.1.2-.8 1.9-3.4 2.2-1.5.3-3.8.4-6.1-1Z"/><path fill-rule="evenodd" d="M47.7 59.3c1.5.3 2-.1 2-1.5-.4 1.1-.5 1.4-2 1.5Z" opacity=".4"/><path fill="#3C2E1F" fill-rule="evenodd" d="M202.7 25.4c-.4.4 3.3-3.3 4.5-3 0 0-.6 1-.5 1.2-1 .2-3.5 1.9-4.2 2.2-.1.2-.6-.2.2-.4Z"/><path fill="#FFE348" fill-rule="evenodd" d="M195.5 23.7c2-2.5 4.8-2.2 6.2-1 .7.7.9 1.7.7 2.4-.1.6 0 .5.5.3 1.6-.8 2.7-.3 3.5.8.5.7 2.2 2.5-.6 6.5a7.5 7.5 0 0 1-5.9 3c-1.8-.3-2.8-1-2-1.8-.5-.8-1-.7-1.7-.5-.8.3-2.4-1.1-2.3-3.7 0-1.5 0-3.8 1.6-6Z"/><path fill-rule="evenodd" d="M202.2 24c-.5 1.5 0 2.3 1.2 2.1-1-.5-.5-.6-1.2-2.1Z" opacity=".4"/><path fill="#1C3A1B" fill-rule="evenodd" d="M68 71.2c.3-.9.3-4.3 5-4.8-1 1.9-2.7 4.4-4.3 5.2-1 1.1-1 .7-.7-.4Z"/><path fill="#3C2E1F" fill-rule="evenodd" d="M69 72c-.7-1.2-3.3-4.5-4.6-4.2.4-1.1 1.2-1.3 1.9-1.3 1.2.8 3.4 4.3 3.4 4.6 0 1.1 0 1-.7.9Z"/><path fill="#F7EB32" fill-rule="evenodd" d="M63.7 77.5c-1-1.9-1.4-5 0-6.6 1.5-1.4 4-1.8 5.5.2.8-1.3 3.8-1.8 5-.6 1.4 1.8 1.3 4.6.3 6.6-1.7 3-3.9 2.7-4.6 2.2-.8-1-1.2-.9-1.6-.4-1.4 1.6-3.7.4-4.6-1.4Z"/><path fill="#94933E" fill-rule="evenodd" d="M70.3 70.7c-.5 1.2-2.4.8-3 1 .7.5 2.6-.1 3-1Z"/><path fill="#1C3A1B" fill-rule="evenodd" d="M114.5 107c-.3-1.2-1.8-3.8 2-6.4.2 1.9-.1 5-1.2 6.5-.5.7-.5 1-.8-.1Z"/><path fill="#3C2E1F" fill-rule="evenodd" d="M115.3 106.4c-1-.6-4.5-1.6-5.9-1.4.2-.5.8-1 1.4-1.4 1.5.2 4.7 1.6 5.4 2.5.3 1.5.2.9-.9.3Z"/><path fill="#F7EB32" fill-rule="evenodd" d="M113.7 114.5c-1.8-1.2-3.2-3.8-3-5.8.6-2 2.6-3.4 4.9-2.4 0-1.5 3.2-3.3 4-2.8 2 .6 3.6 3.4 3.6 5.7 0 3.4-2.3 4.1-3.3 3.8-1-.4-1.3 0-1.5.6-.5 2-3 2-4.7 1Z"/><path fill="#94933E" fill-rule="evenodd" d="M116.3 105.4c.6.7-1.7 1.8-2.5 1.8 1.2.6 2.6-.8 2.5-1.8Z"/><path fill="#1C3A1B" fill-rule="evenodd" d="M33.7 153.3c0-.7-.5-4.3 3.7-5.4-.5 1.6-1.5 4.5-2.9 5.6-.8.7-.8 1-.8-.2Z"/><path fill="#3C2E1F" fill-rule="evenodd" d="M34.7 153c-1-.9-4-2.8-5.4-2.2.3-1.2 1-1.6 1.7-.8 1.4-.4 4.1 1.8 4.4 2.8.2 1 .1 1-.7.1Z"/><path fill="#F7EB32" fill-rule="evenodd" d="M31 160.4c-1.4-1.6-2.6-4.6-1.5-6.4 1.1-1.8 4.2-2.7 5.4-1 .4-1.5 3.3-2.7 4.7-1.8 1.8 1.1 2.4 4.2 1.8 6.3-.9 3.4-3.1 4-4 3-1-.6-1.3-.4-1.6.2-1 1.9-3.5 1.2-4.8-.3Z"/><path fill="#94933E" fill-rule="evenodd" d="M35.8 152.2c-.3.5-2 1.3-2.6 1.1.8.9 2.5-.1 2.6-1Z"/><path fill="#1C3A1B" fill-rule="evenodd" d="M211.6 145.1c.6-1 1.7-4 6.4-3.2a16.6 16.6 0 0 1-5 3.9c-1 .1-2 .3-1.4-.7Z"/><path fill="#3C2E1F" fill-rule="evenodd" d="M212.5 145.4c-.3-1.2-1.9-4.5-3-4.5.9-1 1.4-1 2-.7 1 1.1 2 4.5 1.7 5.5-.4 1-.4.9-.7-.3Z"/><path fill="#F7EB32" fill-rule="evenodd" d="M205.4 149.6c-.3-2 .4-5.2 2.2-6 2-1 4.6-.5 5.2 2 1-1.1 4.1-.1 4.8 1 1 1.9-.2 4.8-1.9 6.3-2.5 2.3-4.5 1.3-5 .3-.4-1-.8-1-1.4-.7-1.8 1-3.6-.8-3.9-2.9Z"/><path fill="#94933E" fill-rule="evenodd" d="M214 145.4c-.7.3-2.5 0-3-.6.3 1.8 2.3 1.4 3 .6Z"/><path fill="#1C3A1B" fill-rule="evenodd" d="M271.5 62.4c0-1.2-.8-4.2 4.4-6.2-1.3 2.4-2.2 5.3-3.6 6.5-.8.6-.8 1-.8-.3Z"/><path fill="#3C2E1F" fill-rule="evenodd" d="M272.4 62.1c-.9-.8-4-2.7-5-2.8-.1-.5 1.2-.8 1.3-1 2.2.5 4.2 2.6 4.4 3.7.3 1.1.2 1-.7.1Z"/><path fill="#F7EB32" fill-rule="evenodd" d="M268.8 69.6c-1.4-1.5-2.6-3.9-1.5-6.4 1-1.8 3.5-2.7 5.4-.5 1-2 3.2-3.3 4.6-2.4 1.8 1 2.5 4.1 2 6.3-1 3.4-3.1 3.6-4 3-1-.6-1.3-.4-1.6.3-1 1.8-3.5 1.2-4.9-.3Z"/><path fill="#94933E" fill-rule="evenodd" d="M273.6 61.4c-.4.5-2 1.3-2.8 1 1 1 2.7 0 2.8-1Z"/><path fill="#1C3A1B" fill-rule="evenodd" d="M76.8 135.4c.5-1.3 2-3.5 4.5-3.6 0 2-2.5 3.8-3.8 4.2-1.3.3-1 .2-.7-.6Z"/><path fill="#3C2E1F" fill-rule="evenodd" d="M76.5 136.5c.2-.7-.3-4-1.2-4.8h1.1c.8 1.5 1 3.5.6 4.7-.3.9-.8.8-.5.1Z"/><path fill="#F1E41F" fill-rule="evenodd" d="M72.3 141.9c1.3-.3 2.7-.2 3.3.5.9 1 3 1.5 4.8-.5 2.8-5 2-7.2-2.4-6.4-1.2.3-1.7.3-2.5-.6-1.3-1.6-4.7-1.6-4.2 1.4.2 1.4.5 3.7.2 4-.3 1-.1 2.6.8 1.6Z"/><path fill="#1C3A1B" fill-rule="evenodd" d="M247.8 108.5c-.7-1.3-1.3-4 .3-5.9 1.4 1.3 1.1 5 .5 5.7 0 1.2-.5.9-.8.2Z"/><path fill="#3C2E1F" fill-rule="evenodd" d="M248.5 109.7c-1-1.5-3.3-2.8-4.5-2.1.2-1 .5-1.2.8-1.3 1.6.3 3.6 1.5 3.8 2.6.3.6 0 1-.1.8Z"/><path fill="#F1E41F" fill-rule="evenodd" d="M249.7 116.1c.5-1.2 1.6-2.2 2.5-2.2 1.3 0 3.1-1.2 2.2-4.4-1.2-4.8-4-6.2-5.8-2-.5 1.2-.8 2.1-2 2.2-2.1-.8-4.4 1.8-1.8 3.4a8 8 0 0 1 3.1 2.5c.6 1 1.3 1.3 1.8.5Z"/><path fill="#1C3A1B" fill-rule="evenodd" d="M173.4 49.3c-.5-1.4-.1-4.2 2-5.3.9 1.6-.5 4.5-1.5 5.4-1 1-.8 1.5-.5-.1Z"/><path fill="#3C2E1F" fill-rule="evenodd" d="M173.8 50c-1-1-2.6-3.1-2.9-3.4-.6-.3-.2-.4.5-.4 1 1.2 2.1 2.6 2.3 4.2 0 .3-.4.5.1-.5Z"/><path fill="#F1E41F" fill-rule="evenodd" d="M172.1 57.4c1.4-1.2 2.3-1.8 3.2-1.5 1.2.5 3.3 0 3.6-3.3.5-5-1.5-7.2-4.8-3.9-.8 1-1.3 1.1-2.4.6-2-.8-5 .8-3 3.3.8 1.1 1.7 2.2 2 3.4.2 1.7.7 1.7 1.4 1.4Z"/><path fill="#1C3A1B" fill-rule="evenodd" d="M107.7 49.3c-.1-1.4.3-4.2 2.4-5.3.9 1.6-.5 4.5-1.5 5.4-1 1-.8 1.5-.9-.1Z"/><path fill="#3C2E1F" fill-rule="evenodd" d="M107.8 50c-.2-1-2-3.1-3-3.4.6-.3.6-.4 1-.4 1.3 1.2 2.4 2.6 2.6 4.2 0 .3-.4.5-.6-.5Z"/><path fill="#F1E41F" fill-rule="evenodd" d="M106.8 57.4c1-1.2 3-1.8 3.2-1.5 1.2.5 3.3 0 3.6-3.3.5-5-1-7.2-4.8-3.9-.8 1-1.3 1.1-2.4.6-2-.8-5 .8-3.1 3.3.9 1.1 2.5 2.2 2 3.4.3 1.7 1.4 1.7 1.5 1.4Z"/></svg>