<svg xmlns="http://www.w3.org/2000/svg" viewBox="0 0 13 15"><path fill="#3C2E1F" fill-rule="evenodd" d="M7.3 4.6A16 16 0 0 1 11.5.8l-.2 1.5c-1 .3-3 2.1-3.6 2.5 0 .5-.5 0-.4-.2Z"/><path fill="#F1EF4D" fill-rule="evenodd" d="M1.4 3.8A3.6 3.6 0 0 1 6.5 2c.8.6 1.1 1.4 1 2.1 0 .6.2.5.7.3 1.2-1 2.3-.7 3.2.2.5.6 2.3 2 .2 6a6.3 6.3 0 0 1-5.8 3.6c-.9 0-1.9-.5-2-1.4-.2-.6-.3-.6-.9-.3-.7.4-2.3-.7-2.6-3.1C1 8.9.2 6 1.4 3.8Z"/><path fill-rule="evenodd" d="M7.2 3.2c-.2 1.4.1 1.9 1.4 2.1-1-.6-1.3-.7-1.4-2.1Z" opacity=".4"/></svg>