<svg xmlns="http://www.w3.org/2000/svg" viewBox="0 0 296 335"><defs><linearGradient id="a" x1="34.2%" x2="0%" y1="94%" y2="0%"><stop offset="0%" stop-color="#7B682E"/><stop offset="100%" stop-color="#48330D"/></linearGradient><linearGradient id="b" x1="0%" x2="24.2%" y1="97%" y2="0%"><stop offset="0%" stop-color="#946010"/><stop offset="100%" stop-color="#F2BF28"/></linearGradient></defs><path fill="#574114" fill-rule="evenodd" d="M75.4 302.6c7.9 3 24 1.4 27.2-5 8.2-13.7 9-26.2 9.7-54 .2-33.1-7-61.5-33.5-80.9-26.3-19.4 2.2-7.2 2.2-7.2a74.4 74.4 0 0 1 30.3 32.4c1.1 3 1.8 2 3-.2a90.7 90.7 0 0 1 37.9-32.5c20.5-9 17.5-2.3 17.5-2.3-18.4 5-38.4 24.2-41.9 34.3-1.6 2.2-2 2.5 2.7 0 33.8-18.2 80.4-11.8 104.3-39.8 10-11.9 6.2 0 6.2 0-19.7 31-83.5 31.2-96.2 46.1-7.1 8.3-8 35.3-8 47.9 0 12-.3 32.3 11.5 53.7 2.5 4.7 10.5 8 27 5.1-1.7 2.7-10.4 7-15.9 7.7a47.3 47.3 0 0 0 22.2 3.3c8.4 0 9.3.3 2.3 3a60 60 0 0 1-42.5-.8c2.4 6.9 14 12.2 25.5 15.8-22 1.4-38.2-8-41.4-12.4a49.2 49.2 0 0 1-18.6 15.7c-5.3 3.4-5.4 3.1-2.5-2 1.9-3 3.3-10.3 1.4-12.8-10 .3-20 6.7-33.6 5.5 8.2-3.2 15.1-7 20.8-12.4a23.3 23.3 0 0 1-17.6-8.2Z"/><path fill="url(#a)" d="M75.4 302.6c7.9 3 24 1.4 27.2-5 8.2-13.7 9-26.2 9.7-54 .2-33.1-7-61.5-33.5-80.9-26.3-19.4 2.2-7.2 2.2-7.2a74.4 74.4 0 0 1 30.3 32.4c1.1 3 1.8 2 3-.2a90.7 90.7 0 0 1 37.9-32.5c20.5-9 17.5-2.3 17.5-2.3-18.4 5-38.4 24.2-41.9 34.3-1.6 2.2-2 2.5 2.7 0 33.8-18.2 80.4-11.8 104.3-39.8 10-11.9 6.2 0 6.2 0-19.7 31-83.5 31.2-96.2 46.1-7.1 8.3-8 35.3-8 47.9 0 12-.3 32.3 11.5 53.7 2.5 4.7 10.5 8 27 5.1-1.7 2.7-10.4 7-15.9 7.7a47.3 47.3 0 0 0 22.2 3.3c8.4 0 9.3.3 2.3 3a60 60 0 0 1-42.5-.8c2.4 6.9 14 12.2 25.5 15.8-22 1.4-38.2-8-41.4-12.4a49.2 49.2 0 0 1-18.6 15.7c-5.3 3.4-5.4 3.1-2.5-2 1.9-3 3.3-10.3 1.4-12.8-10 .3-20 6.7-33.6 5.5 8.2-3.2 15.1-7 20.8-12.4a23.3 23.3 0 0 1-17.6-8.2Z"/><path fill="#554015" fill-rule="evenodd" d="M164.3 177.2a35.6 35.6 0 0 0 26.5-26.3c2.6-10.2 3.5-8.4 2.8 0-2 9.3-6.8 23.4-19.2 25.6-7.6 2-10 .7-10 .7Z"/><path fill="#574114" fill-rule="evenodd" d="M121.4 178.4c5.1-7 4.3-24.3-7.3-32-11.8-7.6.7-1.7.7-1.7 13.6 7.6 16.8 22.6 12.4 31-2.6 3-5.8 2.7-5.8 2.7Z"/><path fill="#877553" fill-rule="evenodd" d="M225.2 158.8c-12.4 11.7-51.3 16.7-67 28.4-15.5 11.8-11.8 13 1 2.2 15.2-13 54-18 66.1-31.3 2.8-6.2 4.6-4.6-.1.7ZM134.7 195c6.5-9.5 14-14.4 26.9-18.2 4.3 1.7 1.1.8 1.1.8a44.9 44.9 0 0 0-28 17.3Z"/><path fill="#877553" fill-rule="evenodd" d="M148.6 185.3c3.4-2.6 8.5-5.7 12.8-6.5 2.8-.4 2.5 1.1.6.6a39 39 0 0 0-13.4 5.9Zm13.3-3.9c-20.7 7.2-29.1 16.1-30.4 29.7 2.3-12.9 11.5-23.8 31.2-29.1 7.9-2.1-.8-.6-.8-.6ZM109 193.1a140 140 0 0 1 10.3 47.2c-2.8 4.9-5.2 10-5.6 19-.5 5.5-1.2 12-.7 17.5-1.5 7.7-2 14.4-2.9 19.4 1.6-5.4 2-12.6 2.6-20 1-5.8.8-11.6 1.6-16.8.3-8.5 2.4-14.7 5.6-19-.3-13-5-39.3-11-47.3Z"/><path fill="#877553" fill-rule="evenodd" d="M114.4 292.5c1-6.4.7-28.4 3-34.6 2.3-6.3 3.8-8.4 6-9 3.8.7 5 17.3 5.1 25.2-1.2-11.5-2-23.5-5.2-24.8-1.5.4-3.5 3.7-5.3 9-1.9 5.2-1.8 20.9-2.6 29.6-.2 2-.7 3.5-1 4.6Z"/><path fill="#877553" fill-rule="evenodd" d="M118 275.5c-.6-7.7 2.2-18.4 4.8-19 2.2.8 4 7 3.8 12.5.5 6.3.2 12 0 13.5l-.6-12.9c-.4-5.9-1.4-11.5-3.2-12-.7.1-1.5 1.3-2.4 3a67 67 0 0 0-2.5 15Zm12 12.7c-.5 9.3 2.5 15.3 3 21.6 3.8 1.5 3.7 4.7 9.1 8.1-6-3.2-5.2-6.2-9.7-7.5-.8-6.6-3.5-12.7-2.5-22.2Zm-22.5 17.3c-2.2.4-10.3 4.1-10.6 5.7a38 38 0 0 1 10.6-5.7Zm21 .4c1 5.3 4.3 9.2 9.6 12.5-6.2-3.5-9.4-6-9.6-12.5Zm-5.2 2.9c-1.1 4.6-4.3 13-9.8 16.7 5.9-3.6 10.5-13 9.8-16.7ZM137.4 202c-5.5 11.4-3 28.5 1.5 32.3-5.7-12.7-4.8-20-1.5-32.3Zm-16.7-9c4 7.5 5.5 12.6 2.2 27.5a127 127 0 0 1 17.6 36.4c2.9-.6-11.8-29-16.8-36.4 4.4-22.8-3.2-22.8-.5-27.6 2.7-4-.9-7.5-2.5 0Zm1 32.7a89 89 0 0 1 7.1 14c1.9 4.2 4.2 9 5.8 14.3 3 7.2 5 15 5.8 18.4a124 124 0 0 0-9.7-30.2 86.2 86.2 0 0 0-9-16.5Zm8.1 29.7c0-6-3.3-10.8-5.9-11.6-.2-2.2.3-5.1-2-11.1 3 6.6 2.4 8.5 2.4 11 2.3 0 5.8 5.4 6 11.2.1 3.3 1.2 10.3 2.8 18 2.3 10.8 5.6 23.3 7.7 31-1.8-5-4.3-13.8-6.4-22.2-2.6-10.7-4.6-22-4.6-26.3Z"/><path fill="#877553" fill-rule="evenodd" d="M121.7 285.3c0 5.6-1.2 15.3-5.3 20.3a55 55 0 0 0-21.2 10.9 45.8 45.8 0 0 1 20.6-11.4c4.1-5.1 6-14.2 5.9-19.8Zm38.6 29.6c-11-3.2-15.7-10.6-17-17.2 4 9.1 6.4 12.7 17 17.2Zm51.5-147.2c13.7-6.4 17-10.4 18.9-14 1.8-3.8 4-3.1 1.9 0-2 3.1-9.9 10.5-20.8 14Z"/><path fill="#B68000" fill-rule="evenodd" d="M92 208.2c-27.3 28-63.6 25-84.8 4-13.5-13.5-6.8-40.4 16.1-60.6 17.3-15.4 16.8-32.4 7.6-38.3-34.7-24-6.5-91.5 29.6-69.8 0-19.2 22.5-29.9 31-9.6 10.8-39.2 83.5-50.5 95.3 3.5 2.8 12.8 5.9 17 14.8 6.3 74.8-88.2 126.3 54.4 70.8 89.1 21.5 9.4 14 32.5-19.8 44.4-13 4.8-33.7.2-42.8-7.3-8.3-6.2-17.1-5-26.3 7.5-6.6 8.9-22.4 14.2-30.4-.2-5.8-11-12 17.7-17.4 25.1-4.1 5.3-13.9 5.3-19.1 1-7.2-6-16.6-3.3-24.6 5Z"/><path fill="url(#b)" d="M92 208.2c-27.3 28-63.6 25-84.8 4-13.5-13.5-6.8-40.4 16.1-60.6 17.3-15.4 16.8-32.4 7.6-38.3-34.7-24-6.5-91.5 29.6-69.8 0-19.2 22.5-29.9 31-9.6 10.8-39.2 83.5-50.5 95.3 3.5 2.8 12.8 5.9 17 14.8 6.3 74.8-88.2 126.3 54.4 70.8 89.1 21.5 9.4 14 32.5-19.8 44.4-13 4.8-33.7.2-42.8-7.3-8.3-6.2-17.1-5-26.3 7.5-6.6 8.9-22.4 14.2-30.4-.2-5.8-11-12 17.7-17.4 25.1-4.1 5.3-13.9 5.3-19.1 1-7.2-6-16.6-3.3-24.6 5Z"/><path fill="#FDD73D" fill-rule="evenodd" d="M210.3 58.6c-2.4-7 5-8.2 5-4.7 1.4-10.8 12-10.6 10-4.6 7.6-8.7 15 1.3 8.4 7.7 8-7.2 10.7 10.2 4.8 11.9 4.7-6.6 1.3-16.2-6-10.6 6.2-10.1-1.5-15-7.8-7-.5-9.4-8-4-9 3.3-2.4-3.8-5.3-1.2-5.4 4ZM59.4 196.4c-1.2 7.3-8.2 4.8-7.2 2.3-6 8.1-15.2 3-10.4-1.4-11 3.9-12.6-8.6-3.6-11-10.6 2.4-4.4-14 1.7-12.6-7.2 3.5-9.2 13.5 0 12-10.4 5.9-6.1 14 3.3 10-3.5 8.5 5.1 8.2 9.5 1.5.3 4.5 4 3.7 6.7-.8ZM265.4 91c3.8-7.5 11.2-6 15.4-1.3 1.7 4 .3 9.2-5 10.7 8.7 3.9.9 9.4-3.5 6.8 7.6 1 7.8-4.8 1.3-6.4 6.3-2.8 7.3-7 5.4-10-3.2-4-9-5-13.6.2ZM80.9 121.6c1.5 6.4 13.9 5 16-.3-.3 5.6-12.5 7.3-15 4.3a7.8 7.8 0 0 1-9.4 8.2c-4-.3-7.7-5-5.5-10.1-8.5 5-7-5.2-3-7-5.6 5.3-1 9.6 5 5.1-2.8 6.7 0 10.1 3.4 10.5 6.5.5 9.6-3.9 8.5-10.7Zm83.6-71.3c3.2-5.7-.6-8.7-4.3-6.6.6-3.6-4.9-9.8-9.4-3.9 1.7-9.5-13.1-10.9-13.3-1.2-4.4-8.5-15.6-.4-9.7 10-8.9-6-11 5.9-6.4 7.8-3.2-4.7-.5-11.7 8.1-6.2-6.1-10.6 2.5-18.8 8.3-9.7.7-8.2 12-11 13 1 2.8-4.9 8-3.3 8.8 3.6 3-2.5 6.2.7 5 5.2Zm49.6 32.3c4.6-1 5.5 3 3.4 4.5 2.9.4 5.4 5.7.8 7.6 6.3.8 3.7 11.5-2.8 9.4 5.4 5-3.5 11.9-9 4.5 2.2 7.7-6.6 6.3-6.9 2.7 2.8 3.3 7.8 3 6.2-4 5.6 6.5 13.1 2.3 8.5-3.8 5.6 1.4 10.2-5.9 2.5-8.7 3.8-1.4 4-5.5-.4-7.6 2.4-1.5 1.5-4.3-2.3-4.6ZM96.4 181.3c-.9 6.1 4.8 6.4 6.8 3.3 1.3 3.3 8.6 5.8 11-.4 1.8 8.6 16.8 2 13.1-6 7.7 5.7 15.4-7 5.5-12.8 11.7 1.2 9-10 3.1-9.5 5 2.4 5.8 9.5-5.4 9 10.2 5.8 5 16.6-4.2 11.8 2.5 7.1-7.4 14.7-11.6 6.1-2.3 4.5-8 5.8-11.5.4-1.9 3.4-6 3-6.8-2Zm49.7-98c-3-7 5.5-9.6 8.3-5.5 3-7.3 11.3 1 7.4 5.6 7.1-1.5 12.1 9 10.4 12.8-.4-5.3-5-13.8-11.7-11.7 3.9-8-4.7-10.6-5.6-5.7-4.1-3.5-9.4-.9-8.8 4.5ZM59.8 61.4c-.9-7.4-4.8-6-2.5 1.6-6.5-10.2-9-1-3.7 4.6-7-2-11.3 4-2.2 9-4.5 3-5.6 7 2.3 6.8-6.9 3-8.8-2.2-4.6-6.8-5-3.6-6.1-10.4 1.8-10.8-3.6-7.9 1.5-11 4.6-7 .8-6.6 4.1-4.3 4.3 2.6Zm118.5 73.5c6.4.2 5.3 3.3-.4 2 8.7 4.4.5 6.8-4.6 3 2.1 5.2-2.8 8.9-7.5 2.3-2.4 3.5-5.4 4.6-6-1.4-2.3 5.4 2.3 6.6 6 3 3.4 3.8 10 4.2 9.1-1.9 7 2.3 9.4-1.8 5.9-4 5.5-.6 3.8-3.3-2.6-3Zm59.1 10.8c-6.4 6.7-2.5 9.5 3 1.9-5 13.8 6 9 7.5-.2 3 8 12.3 7 10.4-5 6.2 1.8 10.2 0 4.3-7.1 7.9 4 4.3 10.4-3.2 9.2.4 7.4-4.7 13.4-11.2 6.3-5 9.1-11.7 6.6-10.2.9-6.7 4-7.4-.4-.6-6Z"/><path fill="#3C2E1F" fill-rule="evenodd" d="M141.3 132.6a16 16 0 0 1 4.2-3.8l-.2 1.5c-1 .3-3 2.1-3.6 2.5 0 .5-.5 0-.4-.2Z"/><path fill="#F1EF4D" fill-rule="evenodd" d="M135.4 131.8a3.4 3.4 0 0 1 5.1-1.7c.8.6 1.1 1.4 1 2.1 0 .6.2.5.7.3 1.2-1 2.3-.7 3.2.2.5.6 2.3 2 .2 6a6.3 6.3 0 0 1-5.8 3.6c-.9 0-1.9-.5-2-1.4-.2-.6-.3-.6-.9-.3-.7.4-2.3-.7-2.6-3.1.7-.6-.5-3.5 1.1-5.7Z"/><path fill-rule="evenodd" d="M141.2 131.2c-.2 1.4.1 1.9 1.4 2.1-1-.6-1.3-.7-1.4-2.1Z" opacity=".4"/><path fill="#3C2E1F" fill-rule="evenodd" d="M51.5 161.3c-.1-.4.3-4.7 1-5.6.2.3.9 1.2.7 2-.5.1-1.2 2.6-1 3.5.1.2-.7.3-.7.1Z"/><path fill="#F1EF4D" fill-rule="evenodd" d="M46.1 164.6c-.4-3 1.6-4.2 3.3-4.7 1-.1 1.7.4 2.1 1 .3.4.4.3.5-.1.5-1.6 1.5-2 2.8-1.9.8.3 3 .3 4 4.6.6 2.9-1.4 6.3-2.4 6.3-.7.6-1.8.8-2.5.7-.5-.9-.5-.8 0-.2-1.2 1.1-3.1 1-4.4-.8-1-1-3-1.8-3.4-5Z"/><path fill-rule="evenodd" d="M50.5 160.3c.8 1.3 1.3 1.4 2.3.6-1 .3-1.3.4-2.3-.6Z" opacity=".4"/><path fill="#3C2E1F" fill-rule="evenodd" d="M81.4 73.4a14 14 0 0 1-.8-5.7l1.1 1.1c-.2 1-.2 3.4.2 4.3 0 .2-.4.5-.5.3Z"/><path fill="#F1EF4D" fill-rule="evenodd" d="M77.3 78.1c-1.3-2.6.1-4.8 1.7-5.5.9-.3 1.7 0 2.3.4.4.3.4.1.4-.3 0-1.4.9-2.4 2.1-1.8.8-1 3-1.7 5.3 2.3 1.4 2.6.3 5.8-.4 6.8-.5.7-1.5 1.3-2.2 1-.7-.3-.7-.2-.8.5 0 .8-1.9 1.8-4 .4a8.4 8.4 0 0 1-4.4-3.8Z"/><path fill-rule="evenodd" d="M80.2 72.7c1 1 1.7 1 2.3-.2-.8.7-1 .9-2.3.2Z" opacity=".4"/><path fill="#3C2E1F" fill-rule="evenodd" d="M184.3 62.5c.2-.3 3-3.7 4-4 0 .3.6 1.3-.2 1.5-.8.3-2.8 2-3.3 2.8 0 .2-.6-.1-.5-.3Z"/><path fill="#F1EF4D" fill-rule="evenodd" d="M178.7 62.2c.6-2.7 3.3-2.9 4.7-2 .9.4 1.2 1.3 1.2 2 0 .5.2.4 1.1.2.7-1.1 1.8-.8 2.7 0 1.5.5 2.5 1.8.7 6-1.1 2.8-4.2 3.9-5.5 4-.9 0-2-.4-2.1-1.2-.2-.7-.3-.6-.9-.3-.7.4-2.4-.5-2.9-3a6.4 6.4 0 0 1 1-5.7Z"/><path fill-rule="evenodd" d="M184.1 61.2c.2 1.4.3 2.6 1.6 1.7-1-.3-1.3-.3-1.6-1.7Z" opacity=".4"/><path fill="#3C2E1F" fill-rule="evenodd" d="M249.8 121.5c0-.4 1.9-4.3 2.9-5 .1.4 0 1.4.2 2.5-.7-.3-2.3 1.7-2.5 2.6 0 .2-.6 0-.6 0Z"/><path fill="#F1EF4D" fill-rule="evenodd" d="M243.7 122.7c.6-2.9 3-3.7 4.7-3.3.9.3 1.4 1 1.8 2.5 0-.3 0-.4.3-.7 1-1.4 2.1-1.4 3.3-.8.7.3 2.8 1.1 2.1 6-.4 2.6-3.2 4.4-4.4 4.8-.8.2-2 0-2.3-.6-.4-.6-.5 0-1 0-.5 1.2-2.4 0-3.5-2.2-.6-1.3-1.5-3.2-1-5.7Z"/><path fill-rule="evenodd" d="M249.3 120.2c.3 1.5 1 1.9 2 1.3-1.2 0-1.4 0-2-1.3Z" opacity=".4"/><path fill="#3C2E1F" fill-rule="evenodd" d="M231.2 91.8c0-.3-1-4.6-.5-5.7.6.3.9 1 1 1.2-.2.8-.3 3.4 0 4.3 0 .2-.4.4-.5.2Z"/><path fill="#F1EF4D" fill-rule="evenodd" d="M226.9 96.3c-1.2-2.7.3-4.8 2-5.4.8-.3 1.7 0 2.2.5.4.3.5.1.5-.3 0-1.6 1-2.3 2.2-2.5.8 0 3-.6 5 3.8 1.3 2.3.1 5.4-.6 6.4-.6.7-1.6 1.2-2.4.8-.6-.3-.6-.1 0 .5-.9.8-2.7 1.5-4.8.3-1.2-.7-3.1-1.7-4.1-4Z"/><path fill-rule="evenodd" d="M230.5 91.8c1.2 1.2 1.2.3 1.9-.6-1 .4-1.1.6-1.9.6Z" opacity=".4"/><path fill="#1C3A1B" fill-rule="evenodd" d="M57.3 108.9c.2-1.1.2-4 4.6-4-1 1.2-2.5 3.6-4 4.4 0 .4-1 .6-.6-.4Z"/><path fill="#3C2E1F" fill-rule="evenodd" d="M58.2 108.8c-.6-1-3-3.3-4.2-3.2.3-1 1.7-1 1.7-1 1.1.7 3.1 3.2 3.1 4.2s0 1-.6 0Z"/><path fill="#E0DE50" fill-rule="evenodd" d="M53.3 114.7c-1-1.7-1.3-4.2 0-6 1.4-1.4 4-1.7 5.1.1 1.6-1.2 3.5-1.7 4.6-.6 1.4 1.5 1.3 4.3.3 6.2-1.5 2.8-3.6 2.5-4.2 1.7-.8-.7-1.1-.5-1.6.3-1.3 1.1-3.3 0-4.2-1.7Z"/><path fill="#94933E" fill-rule="evenodd" d="M59.4 108.4c-.4.4-2.2.7-2.8.4.7 1 3.4.4 2.8-.4Z"/><path fill="#1C3A1B" fill-rule="evenodd" d="M105.7 161.7c-.5-1-2.4-3.2.4-6.3.6 1.8 1 4.6.4 6.2-.4.8-.3 1-.8 0Z"/><path fill="#3C2E1F" fill-rule="evenodd" d="M106.4 161.2c-1.1-.5-4.5-.6-5.7.1 0-.8.5-1.4 1-1.8 1.3-.2 4.5.4 5.2 1.1.6.8.5.7-.5.6Z"/><path fill="#E0DE50" fill-rule="evenodd" d="M106.6 168.7c-1.8-.4-4-2.1-4-4.6.1-1.9 1.7-3.7 4-3.2-.3-1.4 2-3.6 3-3.5 2 .2 3.8 2.4 4.3 4.4.7 3.1-1 4.7-2 4.2-1-.1-1.2.2-1.2.9 0 2-2.3 2.5-4.1 1.8Z"/><path fill="#94933E" fill-rule="evenodd" d="M107.8 160c-.9.5-2 1.9-2.6 2.4 1.1 0 2.1-1.6 2.6-2.5Z"/><path fill="#1C3A1B" fill-rule="evenodd" d="M159.9 104.3c.6-.8 1.8-3.5 6.2-2.5-1.8 1.5-4.1 3.1-5.8 3.2-1 .3-1.1.2-.4-.7Z"/><path fill="#3C2E1F" fill-rule="evenodd" d="M160.7 104.6c-.2-1-1.5-4.2-2.4-5 .5-.3 1.3-.1 1.8.1.8 1.2 1.6 4.7 1.2 5.2-.4 1-.4.8-.6-.3Z"/><path fill="#E0DE50" fill-rule="evenodd" d="M153.9 109c-.2-2.8.6-5.7 2.4-6.4 1.8-.7 4.1 0 4.6 2.2 1.5-.9 4-.2 4.4 1.5 1.3 1.6-.5 4.2-2.1 5.5-2.5 2-4.3.9-4.6 0-.4-1-.8-1-1.4-.4-1.7.5-2.8-1.2-3.3-2.5Z"/><path fill="#94933E" fill-rule="evenodd" d="M162.4 104.8c-1 .1-2.7-.2-3.1-.8.2 1.2 2 1.4 3.1.8Z"/><path fill="#1C3A1B" fill-rule="evenodd" d="M233 134.1c.4-1 .9-3.9 5.3-3.9a7 7 0 0 1-4.8 4.4c-1 .3-1 .5-.6-.5Z"/><path fill="#3C2E1F" fill-rule="evenodd" d="M233.8 134.2c-.4-1-2.4-3.8-3.4-4.4.3-.3 1.1-.4 1.7-.2 1 .9 2.6 3.8 2.4 4.8-.2 1-.2.8-.7-.2Z"/><path fill="#E0DE50" fill-rule="evenodd" d="M228 139.1c-.7-1.8-.5-4.8 1.8-6 .9-.3 3.5-1 5 1.2.1-1.1 3-1 3.9.2 1 1.7.4 4.5-.9 6.1-2 2.5-4 1.8-4.5 1-.5-.9-.9-.8-1.4-.4-1.5 1.2-3.4-.2-4-2Z"/><path fill="#94933E" fill-rule="evenodd" d="M235.1 134.2c-.5.1-2.3.2-2.8-.3.5 1 2.3 1 2.8.3Z"/><path fill="#1C3A1B" fill-rule="evenodd" d="M214.3 61.4c.5-1 1-4.2 5.5-4.1-1.3 1.8-3.3 3.8-5 4.3-.9.2-1 .7-.5-.2Z"/><path fill="#3C2E1F" fill-rule="evenodd" d="M215.2 61.1c-.4-.2-2.3-3.8-3.4-4.5.4-.3 1.5-.3 1.8-.1 1 1 3 3.9 2.3 4.8-.3 1-.3.9-.7-.2Z"/><path fill="#E0DE50" fill-rule="evenodd" d="M209.2 66a6 6 0 0 1 1.3-5.8c2.4-1.2 4-1 5 1 .8-1 3.7-1 4.7.4 1.8 1.6.2 4.9-.6 6-2.2 2.5-4 1.8-5 1-.6-1-1-.9-1.5-.5-1.6 1.2-3.4-.3-4-2.2Z"/><path fill="#94933E" fill-rule="evenodd" d="M216.5 61.6c-.5-.3-2.3-.3-2.8-.8.4 1.1 2.4 1 2.8.8Z"/><path fill="#1C3A1B" fill-rule="evenodd" d="M72.8 171.3c.5-.4 2-3.3 5-3.3-.2 1.7-3.1 3.4-4.3 3.8-1.2.3-1 .6-.7-.5Z"/><path fill="#3C2E1F" fill-rule="evenodd" d="M72.6 171.9c.2-1-.3-3.4-1.1-4 .4-.2.7-.1 1 0 .8 1.3 1 3.9 1.2 4.3-1 .6-1.4.6-1.1-.3Z"/><path fill="#E0DE50" fill-rule="evenodd" d="M68.7 177.3c1.1-.3 2.5.6 3 .4.9 1 2.8 1.5 4.5-1.2 2.6-3.8 2.1-6.5-2.2-5.2-1.2.4-1.6.4-2.3-.5-1.3-1.5-4.4-1.5-4 2 .3.6.5 1.9.3 3-.3 1-.2 1.7.7 1.4Z"/><path fill="#1C3A1B" fill-rule="evenodd" d="M75.5 89.5c-.2-1.2-.1-3.8 1.8-5 1 1.4-.1 4.1-1 5-.8 1-.6.8-.8 0Z"/><path fill="#3C2E1F" fill-rule="evenodd" d="M75.6 90.1c-.3-.9-2-2.6-3.1-2.8.3 0 .6-.4.9-.5 1.4.7 2.5 3 2.8 3.4.1.6-.3 1.1-.6 0Z"/><path fill="#E0DE50" fill-rule="evenodd" d="M75.3 96.7c.8-.8 2-1.4 2.8-1.2 1.2.3 3-.3 3.1-2.7 0-5.3-2-7.2-4.7-3.9-.7 1-1.1 1.8-2.2.8-1.9-.6-4.5 1.2-2.6 3.2 1 1 1.8 2 2.2 3 .3 1 .8 1.5 1.4.8Z"/><path fill="#1C3A1B" fill-rule="evenodd" d="M204.7 132.5c.7-1.3 1.7-3.3 4-3.7 0 1.7-2.1 3.6-3.3 4.1-1.2.5-1 .3-.7-.4Z"/><path fill="#3C2E1F" fill-rule="evenodd" d="M204.5 133.8c.2-1.6-.6-4-1.3-4.7.2-.1.6.2 1.4 0 .3 1.2.7 3.1.4 4.3-.2.6-.7.6-.5.3Z"/><path fill="#E0DE50" fill-rule="evenodd" d="M201.2 138.8c1-.4 2.4-.4 3 .2 1 .8 3.8 1.2 4.4-1.6 2.2-4 1.2-6.7-2.8-5-1 .5-1.5.5-2.3.2-1.3-1.9-3.6-1-3.8 1.2 1.1 1.8.8 2.5.6 3.6-.2 1 0 1.7.9 1.4Z"/><path fill="#1C3A1B" fill-rule="evenodd" d="M148.5 50.3c-.7-1-.8-3.6 0-5.4 1.3 1 1.2 4 .8 6-.5.4-.4 0-.8-.6Z"/><path fill="#3C2E1F" fill-rule="evenodd" d="M148.8 50.9c-.6-.8-2.8-1.4-4-1.6.6-.4.5-.7.8-.8 2.2.2 3 1.2 3.7 2.2.3.5 0 1-.5.2Z"/><path fill="#E0DE50" fill-rule="evenodd" d="M150.7 57.2c.5-1 2.1-2 2.2-1.4 1.2-.8 2.8-2 1.8-5-1.5-4.3-4-5.4-5.5-1.4-.4 1.1-.7 1.5-1.9 1.5-1.9 0-3.8 2.6-1.2 4 1.1.5 2.3 1.7 3.4 2 .2.8.8 1.5 1.2.3Z"/><path fill="#1C3A1B" fill-rule="evenodd" d="M262.6 85.6c1-.8 3.3-2 5.4-1-.8 1.6-3.8 2-4.3 1.8-2-.3-1-.3-1-.8Z"/><path fill="#3C2E1F" fill-rule="evenodd" d="M262.2 86.2c.6-.9 1.3-3.2 1.4-4.3-.1.3.2.3.4.6a5 5 0 0 1-1.6 4c-.5.4-.9.2-.2-.3Z"/><path fill="#E0DE50" fill-rule="evenodd" d="M256.2 89.2c1.2 0 2.3 1 2.5 1.7.6 1.3 1.8 2.5 4.5 1 4-2.3 4.7-5 .5-5.7-1.2-.2-1.6-.4-1.8-1.6-.4-1.8-3.2-3.3-4.1-.6-.4 1.3-.6 2.5-1.5 3.3-.8.8-1 1.5 0 1.9Z"/></svg>