<?xml version="1.0" encoding="UTF-8"?><svg id="a" xmlns="http://www.w3.org/2000/svg" viewBox="0 0 3840 1080"><defs><style>.b{fill:none;stroke:#584515;stroke-miterlimit:10;}.c{fill:#b5a669;}</style></defs><path class="c" d="M0,961.957c356.346-50.829,1085.617,63.701,1920,16.596v101.447H0v-118.043Z"/><path class="b" d="M1.607,983.509c11.443,7.627,8.03-2.507,23.367,1.672"/><path class="b" d="M43.02,989.233c1.011-.502,2.178-.535,3.2-.965"/><path class="b" d="M68.725,987.952c5.958-.147,12.103,.504,17.763-1.681,3.955-.799,7.993,2.24,11.907,1.26,5.154-2.762,7.877-3.183,12.663,.57"/><path class="b" d="M110.68,983.058l2.863,2.119"/><path class="b" d="M145.706,969.355c8.241-1.533,10.5,.91,17.676,3.352,7.414,2.373,14.223-6.315,21.404-1.621"/><path class="b" d="M195.895,997.207c1.207,1.549,2.92,2.661,4.45,.799,2.419-1.289,5.353-1.35,7.998-1.991"/><path class="b" d="M215.788,985.21c1.448,.09,2.903,.052,4.344-.112"/><path class="b" d="M241.404,974c1.044-.474,1.968-1.878,1.41-2.998"/><path class="b" d="M160.285,1001.569c9.047,6.139,10.084,5.128,20.877,3.609"/><path class="b" d="M229.302,1015.554c29.325-11.645,18.961,20.057,73.077,1.934"/><path class="b" d="M270.817,956.643c-6.235,8.105-1.991,6.242-9.952,4.614"/><path class="b" d="M277.953,981.897c1.72,.203,3.283-.916,4.934-1.441,3.785-1.031,7.813,.247,11.65,.534"/><path class="b" d="M300.709,1005.95c2.215-1.027,4.424-.736,6.229,.845,3.671,2.206,8.389,.565,12.632,1.149"/><path class="b" d="M199.849,1030.371c4.112-1.254,8.534-.555,12.775,.154,2.503,.419,5.006,.837,7.509,1.255"/><path class="b" d="M266.209,1042.734c13.67,.261,26.445-4.244,40.129-4.024"/><path class="b" d="M99.913,1029.679c4.988-.831,9.784-3.098,14.983-2.666"/><path class="b" d="M119.787,1010.351c8.011-2.892,17.229-2.246,24.759,1.734"/><path class="b" d="M124.095,1042.458c19.996,9.9,12.74,12.126,38.118,6.735"/><path class="b" d="M180.836,1065.025c6.287-2.519,13.021-3.919,19.792-4.114"/><path class="b" d="M265.841,1064.306c4.008-.5,7.853-1.773,11.598,.471,9.454,3.177,18.631-3.615,27.924-4.459"/><path class="b" d="M44.565,1056.086l.087,3.175c4.157-3.309,6.966-10.704,13.649-9.489,2.958,.6,5.471,3.56,8.407,2.858"/><path class="b" d="M73.621,1048.929c4.044-.258,8.144-.513,12.115,.292,2.873,.583,5.743,1.72,8.642,1.284"/><path class="b" d="M35.743,1010.458c1.992-.316,3.948-.865,5.814-1.63"/><path class="b" d="M62.969,1007.696l2.76-.685c.735-.182,1.507-.365,2.242-.182,.567,.142,1.057,.488,1.547,.806,6.935,4.503,15.827,4.186,24.082,3.711"/><path class="b" d="M607.706,1053.632c-11.443-7.627-8.03,2.507-23.367-1.672"/><path class="b" d="M552.633,1034.785c-1.011,.502-2.178,.535-3.2,.965"/><path class="b" d="M555.93,1058.743c-5.958,.147-12.103-.504-17.763,1.681-3.955,.799-7.993-2.24-11.907-1.26-5.154,2.762-7.877,3.183-12.663-.57"/><path class="b" d="M513.975,1063.637l-2.863-2.119"/><path class="b" d="M478.949,1054.167c-8.241,1.533-10.5-.91-17.676-3.352-7.414-2.373-14.223,6.315-21.404,1.621"/><path class="b" d="M428.759,1049.488c-1.207-1.549-2.92-2.661-4.45-.799-2.419,1.289-5.353,1.35-7.998,1.991"/><path class="b" d="M408.866,1061.485c-1.448-.09-2.903-.052-4.344,.112"/><path class="b" d="M383.251,1072.695c-1.044,.474-1.968,1.878-1.41,2.998"/><path class="b" d="M434.465,1016.193c-9.047-6.139-10.084-5.128-20.877-3.609"/><path class="b" d="M394.448,1031.141c-29.325,11.645-18.961-20.057-73.077-1.934"/><path class="b" d="M347.719,1054.606c6.235-8.105,1.991-6.242,9.952-4.614"/><path class="b" d="M346.702,1064.798c-1.72-.203-3.283,.916-4.934,1.441-3.785,1.031-7.813-.247-11.65-.534"/><path class="b" d="M323.945,1040.745c-2.215,1.027-4.424,.736-6.229-.845-3.671-2.206-8.389-.565-12.632-1.149"/><path class="b" d="M397.574,968.96c-4.112,1.254-8.534,.555-12.775-.154-2.503-.419-5.006-.837-7.509-1.255"/><path class="b" d="M358.445,1003.961c-13.67-.261-26.445,4.244-40.129,4.024"/><path class="b" d="M524.742,1017.016c-4.988,.831-9.784,3.098-14.983,2.666"/><path class="b" d="M504.867,1036.344c-8.011,2.892-17.229,2.246-24.759-1.734"/><path class="b" d="M496.759,984.858c-19.996-9.9-12.74-12.126-38.118-6.735"/><path class="b" d="M443.819,981.67c-6.287,2.519-13.021,3.919-19.792,4.114"/><path class="b" d="M358.814,982.389c-4.008,.5-7.853,1.773-11.598-.471-9.454-3.177-18.631,3.615-27.924,4.459"/><path class="b" d="M580.089,990.609l-.087-3.175c-4.157,3.309-6.966,10.704-13.649,9.489-2.958-.6-5.471-3.56-8.407-2.858"/><path class="b" d="M551.033,997.767c-4.044,.258-8.144,.513-12.115-.292-2.873-.583-5.743-1.72-8.642-1.284"/><path class="b" d="M619.789,1012.997c-1.992,.316-3.948,.865-5.814,1.63"/><path class="b" d="M613.975,1027.213l-2.76,.685c-.735,.182-1.507,.365-2.242,.182-.567-.142-1.057-.488-1.547-.806-6.935-4.503-15.827-4.186-24.082-3.711"/><path class="b" d="M610.199,977.124c11.443,7.627,8.03-2.507,23.367,1.672"/><path class="b" d="M657.725,991.44c5.958-.147,12.103,.504,17.763-1.681,3.955-.799,7.993,2.24,11.907,1.26,5.154-2.762,7.877-3.183,12.663,.57"/><path class="b" d="M699.68,986.546l2.863,2.119"/><path class="b" d="M734.707,996.016c8.241-1.533,10.5,.91,17.676,3.352,7.414,2.373,14.223-6.315,21.404-1.621"/><path class="b" d="M784.896,1000.695c1.207,1.549,2.92,2.661,4.45,.799,2.419-1.289,5.353-1.35,7.998-1.991"/><path class="b" d="M804.789,988.698c1.448,.09,2.903,.052,4.344-.112"/><path class="b" d="M830.405,977.487c1.044-.474,1.968-1.878,1.41-2.998"/><path class="b" d="M752.378,1023.348c9.047,6.139,10.084,5.128,20.877,3.609"/><path class="b" d="M819.207,1019.042c29.325-11.645,18.961,20.057,73.077,1.934"/><path class="b" d="M865.937,995.577c-6.235,8.105-1.991,6.242-9.952,4.614"/><path class="b" d="M866.953,985.385c1.72,.203,3.283-.916,4.934-1.441,3.785-1.031,7.813,.247,11.65,.534"/><path class="b" d="M889.71,1009.438c2.215-1.027,4.424-.736,6.229,.845,3.671,2.206,8.389,.565,12.632,1.149"/><path class="b" d="M788.85,1033.858c4.112-1.254,8.534-.555,12.775,.154,2.503,.419,5.006,.837,7.509,1.255"/><path class="b" d="M855.21,1046.221c13.67,.261,26.445-4.244,40.129-4.024"/><path class="b" d="M688.913,1033.167c4.988-.831,9.784-3.098,14.983-2.666"/><path class="b" d="M708.788,1013.838c8.011-2.892,17.229-2.246,24.759,1.734"/><path class="b" d="M713.096,1045.946c19.996,9.9,12.74,12.126,38.118,6.735"/><path class="b" d="M769.837,1068.513c6.287-2.519,13.021-3.919,19.792-4.114"/><path class="b" d="M854.842,1067.794c4.008-.5,7.853-1.773,11.598,.471,9.454,3.177,18.631-3.615,27.924-4.459"/><path class="b" d="M633.566,1059.574l.087,3.175c4.157-3.309,6.966-10.704,13.649-9.489,2.958,.6,5.471,3.56,8.407,2.858"/><path class="b" d="M662.622,1052.416c4.044-.258,8.144-.513,12.115,.292,2.873,.583,5.743,1.72,8.642,1.284"/><path class="b" d="M651.97,1011.184l2.76-.685c.735-.182,1.507-.365,2.242-.182,.567,.142,1.057,.488,1.547,.806,6.935,4.503,15.827,4.186,24.082,3.711"/><path class="b" d="M1212.048,1066.673c-11.443-7.627-8.03,2.507-23.367-1.672"/><path class="b" d="M1170.635,1060.95c-1.011,.502-2.178,.535-3.2,.965"/><path class="b" d="M1144.931,1062.231c-5.958,.147-12.103-.504-17.763,1.681-3.955,.799-7.993-2.24-11.907-1.26-5.154,2.762-7.877,3.183-12.663-.57"/><path class="b" d="M1102.976,1067.125c-.954-.706-1.909-1.413-2.863-2.119"/><path class="b" d="M1067.949,1057.655c-8.241,1.533-10.5-.91-17.676-3.352-7.414-2.373-14.223,6.315-21.404,1.621"/><path class="b" d="M1017.76,1052.976c-1.207-1.549-2.92-2.661-4.45-.799-2.419,1.289-5.353,1.35-7.998,1.991"/><path class="b" d="M997.867,1064.973c-1.448-.09-2.903-.052-4.344,.112"/><path class="b" d="M973.04,1062.9c-1.044,.474-1.968,1.878-1.41,2.998"/><path class="b" d="M1050.278,1030.323c-9.047-6.139-10.084-5.128-20.877-3.609"/><path class="b" d="M983.449,1034.629c-29.325,11.645-18.961-20.057-73.077-1.934"/><path class="b" d="M936.719,1058.093c6.235-8.105,1.991-6.242,9.952-4.614"/><path class="b" d="M935.703,1068.286c-1.72-.203-3.283,.916-4.934,1.441-3.785,1.031-7.813-.247-11.65-.534"/><path class="b" d="M912.946,1044.233c-2.215,1.027-4.424,.736-6.229-.845-3.671-2.206-8.389-.565-12.632-1.149"/><path class="b" d="M1013.806,1019.812c-4.112,1.254-8.534,.555-12.775-.154-2.503-.419-5.006-.837-7.509-1.255"/><path class="b" d="M933.011,997.776c-13.67-.261-26.445,4.244-40.129,4.024"/><path class="b" d="M1113.743,1020.504c-4.988,.831-9.784,3.098-14.983,2.666"/><path class="b" d="M1093.868,1039.832c-8.011,2.892-17.229,2.246-24.759-1.734"/><path class="b" d="M1089.56,1007.724c-19.996-9.9-12.74-12.126-38.118-6.735"/><path class="b" d="M993.345,996.073c-6.287,2.519-13.021,3.919-19.792,4.114"/><path class="b" d="M947.814,985.877c-4.008,.5-7.853,1.773-11.598-.471-9.454-3.177-18.631,3.615-27.924,4.459"/><path class="b" d="M1169.09,994.097c-.029-1.058-.058-2.117-.087-3.175-4.157,3.309-6.966,10.704-13.649,9.489-2.958-.6-5.471-3.56-8.407-2.858"/><path class="b" d="M1140.034,1001.254c-4.044,.258-8.144,.513-12.115-.292-2.873-.583-5.743-1.72-8.642-1.284"/><path class="b" d="M1177.912,1039.725c-1.992,.316-3.948,.865-5.814,1.63"/><path class="b" d="M1150.686,1042.487l-2.76,.685c-.735,.182-1.507,.365-2.242,.182-.567-.142-1.057-.488-1.547-.806-6.935-4.503-15.827-4.186-24.082-3.711"/><path class="b" d="M1306.469,1056.885c-11.443-7.627-8.03,2.507-23.367-1.672"/><path class="b" d="M1251.396,1038.039c-1.011,.502-2.178,.535-3.2,.965"/><path class="b" d="M1254.693,1061.997c-5.958,.147-12.103-.504-17.763,1.681-3.955,.799-7.993-2.24-11.907-1.26-5.154,2.762-7.877,3.183-12.663-.57"/><path class="b" d="M1212.738,1066.891l-2.863-2.119"/><path class="b" d="M1223.505,1020.27c-4.988,.831-9.784,3.098-14.983,2.666"/><path class="b" d="M1203.63,1039.598c-8.011,2.892-17.229,2.246-24.759-1.734"/><path class="b" d="M1278.852,993.863c-.029-1.058-.058-2.117-.087-3.175-4.157,3.309-6.966,10.704-13.649,9.489-2.958-.6-5.471-3.56-8.407-2.858"/><path class="b" d="M1249.796,1001.02c-4.044,.258-8.144,.513-12.115-.292-2.873-.583-5.743-1.72-8.642-1.284"/><path class="b" d="M1318.552,1016.251c-1.992,.316-3.948,.865-5.814,1.63"/><path class="b" d="M1312.738,1030.467l-2.76,.685c-.735,.182-1.507,.365-2.242,.182-.567-.142-1.057-.488-1.547-.806-6.935-4.503-15.827-4.186-24.082-3.711"/><path class="b" d="M1356.488,994.694c5.958-.147,12.103,.504,17.763-1.681,3.955-.799,7.993,2.24,11.907,1.26,5.154-2.762,7.877-3.183,12.663,.57"/><path class="b" d="M1398.443,989.8l2.863,2.119"/><path class="b" d="M1433.47,999.27c8.241-1.533,10.5,.91,17.676,3.352,7.414,2.373,14.223-6.315,21.404-1.621"/><path class="b" d="M1483.659,1003.949c1.207,1.549,2.92,2.661,4.45,.799,2.419-1.289,5.353-1.35,7.998-1.991"/><path class="b" d="M1503.552,991.951c1.448,.09,2.903,.052,4.344-.112"/><path class="b" d="M1451.141,1026.601c9.047,6.139,10.084,5.128,20.877,3.609"/><path class="b" d="M1555.181,1023.777c29.325-11.645,18.961,20.057,73.077,1.934"/><path class="b" d="M1538.894,998.831c-6.235,8.105-1.991,6.242-9.952,4.614"/><path class="b" d="M1565.745,995.748c1.72,.203,3.283-.916,4.934-1.441,3.785-1.031,7.813,.247,11.65,.534"/><path class="b" d="M1625.684,1014.173c2.215-1.027,4.424-.736,6.229,.845,3.671,2.206,8.389,.565,12.632,1.149"/><path class="b" d="M1487.612,1037.112c4.112-1.254,8.534-.555,12.775,.154,2.503,.419,5.006,.837,7.509,1.255"/><path class="b" d="M1522.766,1056.008c13.67,.261,26.445-4.244,40.129-4.024"/><path class="b" d="M1387.676,1036.421c4.988-.831,9.784-3.098,14.983-2.666"/><path class="b" d="M1407.551,1017.092c8.011-2.892,17.229-2.246,24.759,1.734"/><path class="b" d="M1411.858,1049.2c19.996,9.9,12.74,12.126,38.118,6.735"/><path class="b" d="M1468.6,1071.767c6.287-2.519,13.021-3.919,19.792-4.114"/><path class="b" d="M1547.74,1066.674c4.008-.5,7.853-1.773,11.598,.471,9.454,3.177,18.631-3.615,27.924-4.459"/><path class="b" d="M1332.329,1062.827c.029,1.058,.058,2.117,.087,3.175,4.157-3.309,6.966-10.704,13.649-9.489,2.958,.6,5.471,3.56,8.407,2.858"/><path class="b" d="M1361.385,1055.67c4.044-.258,8.144-.513,12.115,.292,2.873,.583,5.743,1.72,8.642,1.284"/><path class="b" d="M1350.733,1014.438l2.76-.685c.735-.182,1.507-.365,2.242-.182,.567,.142,1.057,.488,1.547,.806,6.935,4.503,15.827,4.186,24.082,3.711"/><path class="b" d="M1910.811,1069.927c-11.443-7.627-8.03,2.507-23.367-1.672"/><path class="b" d="M1869.398,1064.203c-1.011,.502-2.178,.535-3.2,.965"/><path class="b" d="M1843.694,1065.485c-5.958,.147-12.103-.504-17.763,1.681-3.955,.799-7.993-2.24-11.907-1.26-5.154,2.762-7.877,3.183-12.663-.57"/><path class="b" d="M1801.739,1070.378c-.954-.706-1.909-1.413-2.863-2.119"/><path class="b" d="M1777.84,1064.408c-8.241,1.533-10.5-.91-17.676-3.352-7.414-2.373-14.223,6.315-21.404,1.621"/><path class="b" d="M1727.651,1059.729c-1.207-1.549-2.92-2.661-4.45-.799-2.419,1.289-5.353,1.35-7.998,1.991"/><path class="b" d="M1707.758,1071.726c-1.448-.09-2.903-.052-4.344,.112"/><path class="b" d="M1682.931,1069.653c-1.044,.474-1.968,1.878-1.41,2.998"/><path class="b" d="M1760.169,1037.076c-9.047-6.139-10.084-5.128-20.877-3.609"/><path class="b" d="M1719.423,1039.364c-29.325,11.645-18.961-20.057-73.077-1.934"/><path class="b" d="M1646.611,1064.847c6.235-8.105,1.991-6.242,9.952-4.614"/><path class="b" d="M1645.594,1075.039c-1.72-.203-3.283,.916-4.934,1.441-3.785,1.031-7.813-.247-11.65-.534"/><path class="b" d="M1622.837,1050.986c-2.215,1.027-4.424,.736-6.229-.845-3.671-2.206-8.389-.565-12.632-1.149"/><path class="b" d="M1713.556,1011.836c-4.112,1.254-8.534,.555-12.775-.154-2.503-.419-5.006-.837-7.509-1.255"/><path class="b" d="M1778.365,1011.561c-13.67-.261-26.445,4.244-40.129,4.024"/><path class="b" d="M1837.862,1015.418c-4.988,.831-9.784,3.098-14.983,2.666"/><path class="b" d="M1817.987,1034.746c-8.011,2.892-17.229,2.246-24.759-1.734"/><path class="b" d="M1813.68,1002.638c-19.996-9.9-12.74-12.126-38.118-6.735"/><path class="b" d="M1729.318,995.64c-6.287,1.021-13.021,1.588-19.792,1.667"/><path class="b" d="M1646.577,989.131c-4.008,.5-7.853,1.773-11.598-.471-9.454-3.177-18.631,3.615-27.924,4.459"/><path class="b" d="M1893.209,989.011c-.029-1.058-.058-2.117-.087-3.175-4.157,3.309-6.966,10.704-13.649,9.489-2.958-.6-5.471-3.56-8.407-2.858"/><path class="b" d="M1864.153,996.168c-4.044,.258-8.144,.513-12.115-.292-2.873-.583-5.743-1.72-8.642-1.284"/><path class="b" d="M1902.032,1034.639c-1.992,.316-3.948,.865-5.814,1.63"/><path class="b" d="M1874.805,1037.4l-2.76,.685c-.735,.182-1.507,.365-2.242,.182-.567-.142-1.057-.488-1.547-.806-6.935-4.503-15.827-4.186-24.082-3.711"/><path class="c" d="M3840,961.957c-356.346-50.829-1085.617,63.701-1920,16.596v101.447s1920,0,1920,0v-118.043Z"/><path class="b" d="M1943.778,1051.959c11.443-7.627,8.03,2.507,23.367-1.672"/><path class="b" d="M1985.191,1046.235c1.011,.502,2.178,.535,3.2,.965"/><path class="b" d="M2010.895,1047.516c5.958,.147,12.103-.504,17.763,1.681,3.955,.799,7.993-2.24,11.907-1.26,5.154,2.762,7.877,3.183,12.663-.57"/><path class="b" d="M2052.85,1052.41l2.863-2.119"/><path class="b" d="M2087.877,1066.113c8.241,1.533,10.5-.91,17.676-3.352,7.414-2.373,14.223,6.315,21.404,1.621"/><path class="b" d="M2138.066,1038.261c1.207-1.549,2.92-2.661,4.45-.799,2.419,1.289,5.353,1.35,7.998,1.991"/><path class="b" d="M2157.959,1050.258c1.448-.09,2.903-.052,4.344,.112"/><path class="b" d="M2183.575,1061.469c1.044,.474,1.968,1.878,1.41,2.998"/><path class="b" d="M2083.16,1051.404c9.047-6.139,10.084-5.128,20.877-3.609"/><path class="b" d="M2164.424,1040.483c29.325,11.645,18.961-20.057,73.077-1.934"/><path class="b" d="M2210.915,1065.36c-6.235-8.105-1.991-6.242-9.952-4.614"/><path class="b" d="M2220.123,1053.571c1.72-.203,3.283,.916,4.934,1.441,3.785,1.031,7.813-.247,11.65-.534"/><path class="b" d="M2242.88,1029.518c2.215,1.027,4.424,.736,6.229-.845,3.671-2.206,8.389-.565,12.632-1.149"/><path class="b" d="M2100.927,1048.48c4.112,1.254,8.534,.555,12.775-.154,2.503-.419,5.006-.837,7.509-1.255"/><path class="b" d="M2178.971,1018.125c13.67-.261,26.445,4.244,40.129,4.024"/><path class="b" d="M2012.675,1031.179c4.988,.831,9.784,3.098,14.983,2.666"/><path class="b" d="M2061.958,1025.118c8.011,2.892,17.229,2.246,24.759-1.734"/><path class="b" d="M2036.857,1018.4c19.996-9.9,12.74-12.126,38.118-6.735"/><path class="b" d="M2093.598,995.833c6.287,2.519,13.021,3.919,19.792,4.114"/><path class="b" d="M2178.603,996.552c4.008,.5,7.853,1.773,11.598-.471,9.454-3.177,18.631,3.615,27.924,4.459"/><path class="b" d="M1957.327,1004.773c.029-1.058,.058-2.117,.087-3.175,4.157,3.309,6.966,10.704,13.649,9.489,2.958-.6,5.471-3.56,8.407-2.858"/><path class="b" d="M1986.383,1011.93c4.044,.258,8.144,.513,12.115-.292,2.873-.583,5.743-1.72,8.642-1.284"/><path class="b" d="M1977.914,1025.011c1.992,.316,3.948,.865,5.814,1.63"/><path class="b" d="M2005.14,1027.772l2.76,.685c.735,.182,1.507,.365,2.242,.182,.567-.142,1.057-.488,1.547-.806,6.935-4.503,15.827-4.186,24.082-3.711"/><path class="b" d="M2590.644,1018.874c-11.443,7.627-8.03-2.507-23.367,1.672"/><path class="b" d="M2494.809,998.733c-1.011-.502-2.178-.535-3.2-.965"/><path class="b" d="M2538.868,1013.762c-5.958-.147-12.103,.504-17.763-1.681-3.955-.799-7.993,2.24-11.907,1.26-5.154-2.762-7.877-3.183-12.663,.57"/><path class="b" d="M2496.913,1008.868c-.954,.706-1.909,1.413-2.863,2.119"/><path class="b" d="M2418.357,1036.489c-8.241-1.533-10.5,.91-17.676,3.352-7.414,2.373-14.223-6.315-21.404-1.621"/><path class="b" d="M2435.857,1035.493c-1.207,1.549-2.92,2.661-4.45,.799-2.419-1.289-5.353-1.35-7.998-1.991"/><path class="b" d="M2415.964,1023.496c-1.448,.09-2.903,.052-4.344-.112"/><path class="b" d="M2390.348,1012.286c-1.044-.474-1.968-1.878-1.41-2.998"/><path class="b" d="M2359.308,1045.59c-9.047,6.139-10.084,5.128-20.877,3.609"/><path class="b" d="M2336.623,1002.377c-29.325-11.645-18.961,20.057-73.077,1.934"/><path class="b" d="M2354.816,1030.376c6.235,8.105,1.991,6.242,9.952,4.614"/><path class="b" d="M2353.8,1020.183c-1.72,.203-3.283-.916-4.934-1.441-3.785-1.031-7.813,.247-11.65,.534"/><path class="b" d="M2236.707,1020.113c-2.215-1.027-4.424-.736-6.229,.845-3.671,2.206-8.389,.565-12.632,1.149"/><path class="b" d="M2341.481,1069.552c-4.112-1.254-8.534-.555-12.775,.154-2.503,.419-5.006,.837-7.509,1.255"/><path class="b" d="M2300.621,1029.557c-13.67,.261-26.445-4.244-40.129-4.024"/><path class="b" d="M2466.917,1016.502c-4.988-.831-9.784-3.098-14.983-2.666"/><path class="b" d="M2487.805,1036.161c-8.011-2.892-17.229-2.246-24.759,1.734"/><path class="b" d="M2440.665,1053.654c-19.996,9.9-12.74,12.126-38.118,6.735"/><path class="b" d="M2387.725,1056.842c-6.287-2.519-13.021-3.919-19.792-4.114"/><path class="b" d="M2300.989,1051.129c-4.008-.5-7.853-1.773-11.598,.471-9.454,3.177-18.631-3.615-27.924-4.459"/><path class="b" d="M2522.203,1060.14c-.029,1.058-.058,2.117-.087,3.175-4.157-3.309-6.966-10.704-13.649-9.489-2.958,.6-5.471,3.56-8.407,2.858"/><path class="b" d="M2493.147,1052.982c-4.044-.258-8.144-.513-12.115,.292-2.873,.583-5.743,1.72-8.642,1.284"/><path class="b" d="M2561.903,1037.752c-1.992-.316-3.948-.865-5.814-1.63"/><path class="b" d="M2556.089,1023.536l-2.76-.685c-.735-.182-1.507-.365-2.242-.182-.567,.142-1.057,.488-1.547,.806-6.935,4.503-15.827,4.186-24.082,3.711"/><path class="b" d="M2552.313,1073.625c11.443-7.627,8.03,2.507,23.367-1.672"/><path class="b" d="M2599.839,1059.309c5.958,.147,12.103-.504,17.763,1.681,3.955,.799,7.993-2.24,11.907-1.26,5.154,2.762,7.877,3.183,12.663-.57"/><path class="b" d="M2641.794,1064.203l2.863-2.119"/><path class="b" d="M2676.821,1054.733c8.241,1.533,10.5-.91,17.676-3.352,7.414-2.373,14.223,6.315,21.404,1.621"/><path class="b" d="M2727.071,1032.823c1.207-1.549,2.92-2.661,4.45-.799,2.419,1.289,5.353,1.35,7.998,1.991"/><path class="b" d="M2749.336,1058.953c1.448-.09,2.903-.052,4.344,.112"/><path class="b" d="M2774.951,1070.163c1.044,.474,1.968,1.878,1.41,2.998"/><path class="b" d="M2694.553,1010.171c9.047-6.139,10.084-5.128,20.877-3.609"/><path class="b" d="M2763.754,1028.609c29.325,11.645,18.961-20.057,73.077-1.934"/><path class="b" d="M2810.483,1052.074c-6.235-8.105-1.991-6.242-9.952-4.614"/><path class="b" d="M2811.5,1062.266c1.72-.203,3.283,.916,4.934,1.441,3.785,1.031,7.813-.247,11.65-.534"/><path class="b" d="M2834.256,1038.213c2.215,1.027,4.424,.736,6.229-.845,3.671-2.206,8.389-.565,12.632-1.149"/><path class="b" d="M2733.396,1013.792c4.112,1.254,8.534,.555,12.775-.154,2.503-.419,5.006-.837,7.509-1.255"/><path class="b" d="M2799.756,1001.429c13.67-.261,26.445,4.244,40.129,4.024"/><path class="b" d="M2631.089,1000.351c4.988,.831,9.784,3.098,14.983,2.666"/><path class="b" d="M2650.902,1036.911c8.011,2.892,17.229,2.246,24.759-1.734"/><path class="b" d="M2696.034,1026.559c19.996-9.9,12.74-12.126,38.118-6.735"/><path class="b" d="M2752.775,1003.992c6.287,2.519,13.021,3.919,19.792,4.114"/><path class="b" d="M2818.628,992.03c4.008,.5,7.853,1.773,11.598-.471,9.454-3.177,18.631,3.615,27.924,4.459"/><path class="b" d="M2616.504,1012.932c.029-1.058,.058-2.117,.087-3.175,4.157,3.309,6.966,10.704,13.649,9.489,2.958-.6,5.471-3.56,8.407-2.858"/><path class="b" d="M2645.56,1020.089c4.044,.258,8.144,.513,12.115-.292,2.873-.583,5.743-1.72,8.642-1.284"/><path class="b" d="M2594.084,1039.565l2.76,.685c.735,.182,1.507,.365,2.242,.182,.567-.142,1.057-.488,1.547-.806,6.935-4.503,15.827-4.186,24.082-3.711"/><path class="b" d="M3156.595,980.977c-11.443,7.627-8.03-2.507-23.367,1.672"/><path class="b" d="M3115.181,986.701c-1.011-.502-2.178-.535-3.2-.965"/><path class="b" d="M3089.477,985.42c-5.958-.147-12.103,.504-17.763-1.681-3.955-.799-7.993,2.24-11.907,1.26-5.154-2.762-7.877-3.183-12.663,.57"/><path class="b" d="M3047.522,980.526c-.954,.706-1.909,1.413-2.863,2.119"/><path class="b" d="M3012.496,989.996c-8.241-1.533-10.5,.91-17.676,3.352-7.414,2.373-14.223-6.315-21.404-1.621"/><path class="b" d="M2962.307,994.675c-1.207,1.549-2.92,2.661-4.45,.799-2.419-1.289-5.353-1.35-7.998-1.991"/><path class="b" d="M2942.413,982.678c-1.448,.09-2.903,.052-4.344-.112"/><path class="b" d="M2917.587,984.751c-1.044-.474-1.968-1.878-1.41-2.998"/><path class="b" d="M2994.825,1017.328c-9.047,6.139-10.084,5.128-20.877,3.609"/><path class="b" d="M2927.995,1013.022c-29.325-11.645-18.961,20.057-73.077,1.934"/><path class="b" d="M2900.506,1001.73c6.235,8.105,1.991,6.242,9.952,4.614"/><path class="b" d="M2899.489,991.538c-1.72,.203-3.283-.916-4.934-1.441-3.785-1.031-7.813,.247-11.65,.534"/><path class="b" d="M2857.493,1003.418c-2.215-1.027-4.424-.736-6.229,.845-3.671,2.206-8.389,.565-12.632,1.149"/><path class="b" d="M2958.353,1027.839c-4.112-1.254-8.534-.555-12.775,.154-2.503,.419-5.006,.837-7.509,1.255"/><path class="b" d="M2877.557,1049.875c-13.67,.261-26.445-4.244-40.129-4.024"/><path class="b" d="M3058.289,1027.147c-4.988-.831-9.784-3.098-14.983-2.666"/><path class="b" d="M3038.414,1007.819c-8.011-2.892-17.229-2.246-24.759,1.734"/><path class="b" d="M3034.107,1039.926c-19.996,9.9-12.74,12.126-38.118,6.735"/><path class="b" d="M2937.891,1051.578c-6.287-2.519-13.021-3.919-19.792-4.114"/><path class="b" d="M2892.361,1061.774c-4.008-.5-7.853-1.773-11.598,.471-9.454,3.177-18.631-3.615-27.924-4.459"/><path class="b" d="M3113.636,1053.554c-.029,1.058-.058,2.117-.087,3.175-4.157-3.309-6.966-10.704-13.649-9.489-2.958,.6-5.471,3.56-8.407,2.858"/><path class="b" d="M3084.58,1046.396c-4.044-.258-8.144-.513-12.115,.292-2.873,.583-5.743,1.72-8.642,1.284"/><path class="b" d="M3122.459,1007.926c-1.992-.316-3.948-.865-5.814-1.63"/><path class="b" d="M3095.233,1005.164l-2.76-.685c-.735-.182-1.507-.365-2.242-.182-.567,.142-1.057,.488-1.547,.806-6.935,4.503-15.827,4.186-24.082,3.711"/><path class="b" d="M3251.015,990.765c-11.443,7.627-8.03-2.507-23.367,1.672"/><path class="b" d="M3195.943,1009.611c-1.011-.502-2.178-.535-3.2-.965"/><path class="b" d="M3199.239,985.654c-5.958-.147-12.103,.504-17.763-1.681-3.955-.799-7.993,2.24-11.907,1.26-5.154-2.762-7.877-3.183-12.663,.57"/><path class="b" d="M3157.284,980.76c-.954,.706-1.909,1.413-2.863,2.119"/><path class="b" d="M3168.051,1027.381c-4.988-.831-9.784-3.098-14.983-2.666"/><path class="b" d="M3148.177,1008.053c-8.011-2.892-17.229-2.246-24.759,1.734"/><path class="b" d="M3223.399,1053.788l-.087,3.175c-4.157-3.309-6.966-10.704-13.649-9.489-2.958,.6-5.471,3.56-8.407,2.858"/><path class="b" d="M3194.343,1046.63c-4.044-.258-8.144-.513-12.115,.292-2.873,.583-5.743,1.72-8.642,1.284"/><path class="b" d="M3263.099,1031.4c-1.992-.316-3.948-.865-5.814-1.63"/><path class="b" d="M3257.284,1017.184c-.92-.228-1.84-.457-2.76-.685-.735-.182-1.507-.365-2.242-.182-.567,.142-1.057,.488-1.547,.806-6.935,4.503-15.827,4.186-24.082,3.711"/><path class="b" d="M3301.035,1052.957c5.958,.147,12.103-.504,17.763,1.681,3.955,.799,7.993-2.24,11.907-1.26,5.154,2.762,7.877,3.183,12.663-.57"/><path class="b" d="M3342.99,1057.851l2.863-2.119"/><path class="b" d="M3378.016,1048.381c8.241,1.533,10.5-.91,17.676-3.352,7.414-2.373,14.223,6.315,21.404,1.621"/><path class="b" d="M3428.205,1043.702c1.207-1.549,2.92-2.661,4.45-.799,2.419,1.289,5.353,1.35,7.998,1.991"/><path class="b" d="M3448.098,1055.699c1.448-.09,2.903-.052,4.344,.112"/><path class="b" d="M3395.687,1021.049c9.047-6.139,10.084-5.128,20.877-3.609"/><path class="b" d="M3499.728,1023.874c29.325,11.645,18.961-20.057,73.077-1.934"/><path class="b" d="M3483.44,1048.82c-6.235-8.105-1.991-6.242-9.952-4.614"/><path class="b" d="M3510.292,1051.903c1.72-.203,3.283,.916,4.934,1.441,3.785,1.031,7.813-.247,11.65-.534"/><path class="b" d="M3570.23,1033.478c2.215,1.027,4.424,.736,6.229-.845,3.671-2.206,8.389-.565,12.632-1.149"/><path class="b" d="M3432.159,1010.538c4.112,1.254,8.534,.555,12.775-.154,2.503-.419,5.006-.837,7.509-1.255"/><path class="b" d="M3467.312,991.643c13.67-.261,26.445,4.244,40.129,4.024"/><path class="b" d="M3332.223,1011.23c4.988,.831,9.784,3.098,14.983,2.666"/><path class="b" d="M3352.097,1030.558c8.011,2.892,17.229,2.246,24.759-1.734"/><path class="b" d="M3356.405,998.451c19.996-9.9,12.74-12.126,38.118-6.735"/><path class="b" d="M3413.146,975.884c6.287,2.519,13.021,3.919,19.792,4.114"/><path class="b" d="M3492.286,980.977c4.008,.5,7.853,1.773,11.598-.471,9.454-3.177,18.631,3.615,27.924,4.459"/><path class="b" d="M3276.875,984.823c.029-1.058,.058-2.117,.087-3.175,4.157,3.309,6.966,10.704,13.649,9.489,2.958-.6,5.471-3.56,8.407-2.858"/><path class="b" d="M3305.931,991.981c4.044,.258,8.144,.513,12.115-.292,2.873-.583,5.743-1.72,8.642-1.284"/><path class="b" d="M3295.279,1033.213l2.76,.685c.735,.182,1.507,.365,2.242,.182,.567-.142,1.057-.488,1.547-.806,6.935-4.503,15.827-4.186,24.082-3.711"/><path class="b" d="M3813.944,983.447c-1.011-.502-2.178-.535-3.2-.965"/><path class="b" d="M3788.24,982.166c-5.958-.147-12.103,.504-17.763-1.681-3.955-.799-7.993,2.24-11.907,1.26-5.154-2.762-7.877-3.183-12.663,.57"/><path class="b" d="M3746.285,977.272c-.954,.706-1.909,1.413-2.863,2.119"/><path class="b" d="M3722.387,983.243c-8.241-1.533-10.5,.91-17.676,3.352-7.414,2.373-14.223-6.315-21.404-1.621"/><path class="b" d="M3672.198,987.922c-1.207,1.549-2.92,2.661-4.45,.799-2.419-1.289-5.353-1.35-7.998-1.991"/><path class="b" d="M3652.305,975.925c-1.448,.09-2.903,.052-4.344-.112"/><path class="b" d="M3627.478,977.998c-1.044-.474-1.968-1.878-1.41-2.998"/><path class="b" d="M3704.716,1010.574c-9.047,6.139-10.084,5.128-20.877,3.609"/><path class="b" d="M3663.969,1008.287c-29.325-11.645-18.961,20.057-73.077,1.934"/><path class="b" d="M3591.157,982.804c6.235,8.105,1.991,6.242,9.952,4.614"/><path class="b" d="M3590.14,972.612c-1.72,.203-3.283-.916-4.934-1.441-3.785-1.031-7.813,.247-11.65,.534"/><path class="b" d="M3567.384,996.664c-2.215-1.027-4.424-.736-6.229,.845-3.671,2.206-8.389,.565-12.632,1.149"/><path class="b" d="M3658.102,1035.814c-4.112-1.254-8.534-.555-12.775,.154-2.503,.419-5.006,.837-7.509,1.255"/><path class="b" d="M3722.911,1036.09c-13.67,.261-26.445-4.244-40.129-4.024"/><path class="b" d="M3782.408,1032.233c-4.988-.831-9.784-3.098-14.983-2.666"/><path class="b" d="M3762.534,1012.905c-8.011-2.892-17.229-2.246-24.759,1.734"/><path class="b" d="M3758.226,1045.013c-19.996,9.9-12.74,12.126-38.118,6.735"/><path class="b" d="M3673.865,1052.011c-6.287-1.021-13.021-1.588-19.792-1.667"/><path class="b" d="M3591.124,1058.52c-4.008-.5-7.853-1.773-11.598,.471-9.454,3.177-18.631-3.615-27.924-4.459"/><path class="b" d="M3837.756,1058.64l-.087,3.175c-4.157-3.309-6.966-10.704-13.649-9.489-2.958,.6-5.471,3.56-8.407,2.858"/><path class="b" d="M3808.7,1051.483c-4.044-.258-8.144-.513-12.115,.292-2.873,.583-5.743,1.72-8.642,1.284"/><path class="b" d="M3819.352,1010.25c-.92-.228-1.84-.457-2.76-.685-.735-.182-1.507-.365-2.242-.182-.567,.142-1.057,.488-1.547,.806-6.935,4.503-15.827,4.186-24.082,3.711"/></svg>