<?xml version="1.0" encoding="UTF-8"?>
<svg xmlns="http://www.w3.org/2000/svg" viewBox="0 0 1920 1080"><defs><style>.e{fill:#408b4d;}.f{fill:#0d4e45;}.g{fill:#967b3a;}.h{fill:#12544b;}.i{stroke:#117163;}.i,.j,.k,.l,.m{fill:none;stroke-miterlimit:10;}.n{fill:#778ac0;}.o{fill:#034e43;}.p{fill:#084844;}.j{stroke:#feffff;stroke-width:2px;}.q{fill:#1f5226;}.r{fill:#418399;}.s{fill:#11615e;}.t{fill:#135453;}.k{stroke:#106f58;}.u{fill:#117163;}.v{fill:#265728;}.w{fill:#034d47;}.x{fill:#388e84;}.y{fill:#0f4748;}.z{fill:#0f4744;}.aa{fill:#09614d;}.ab{fill:#498da1;}.ac{fill:#6277a1;}.ad{fill:#1c4670;}.ae{fill:#68a3b4;}.af{fill:#0a624d;}.ag{fill:url(#b);}.ah{fill:#1e7d78;}.ai{fill:#044d3d;}.aj{fill:#08604b;}.ak{fill:#3f7b91;}.l{stroke:#489e94;stroke-width:3px;}.al{fill:#656692;}.am{fill:#163c20;}.m{stroke:#3c6447;}.an{fill:#104741;}.ao{fill:#c7fffb;}.ap{fill:#12625a;}</style><linearGradient id="b" x1="960" y1="0" x2="960" y2="1080" gradientUnits="userSpaceOnUse"><stop offset="0" stop-color="#0bc7ff"/><stop offset=".008" stop-color="#0ec7ff"/><stop offset=".169" stop-color="#4dd6ff"/><stop offset=".329" stop-color="#83e2ff"/><stop offset=".483" stop-color="#afecff"/><stop offset=".63" stop-color="#d2f4ff"/><stop offset=".769" stop-color="#eafaff"/><stop offset=".896" stop-color="#f9fdff"/><stop offset="1" stop-color="#fff"/></linearGradient></defs><g id="a"><rect class="ag" width="1920" height="1080"/><path class="al" d="M54.809,137.277c133.787,4.085,76.596,668.936,269.617,797.106H0V153.617c9.537-15.025,26.645-21.745,54.809-16.34Z"/><path class="ac" d="M434.468,922.128c-32.426-46.979-41.106-262.468-121.787-267.574-75.064-2.553-83.745,231.319-141.957,279.83l263.745-12.255Z"/><path class="n" d="M392.989,777.581c-11.001,43.204-19.993,54.376-23.372-23.964-.832,65.024-5.862,83.903-15.574,51.319-15.66,82.638-19.488,62.084-33.021-4.851-9.823,35.085-19.706,74.662-28.255,13.277-20.052,25.76-33.203,12.373-42.213-24.511-12.012,39.792-15.475,30.684-9.517-32.315,16.233-61.964,37.708-102.446,69.049-102.494,45.603,1.76,65.855,59.136,82.904,123.538Z"/><path class="r" d="M335.66,934.383c-12.06-210.776-8.17-746.043-203.234-739.915-67.876-1.517-112.446,17.175-132.426,57.191V926.723l335.66,7.66Z"/><path class="ab" d="M294.222,447.529c2.603,120.512-8.598,160.925-37.712,18.599-3.369,81.13-12.369,94.403-31.66-16.34-9.402,51.96-18.419,62.85-26.553-20.426-15.164,65.282-30.076,85.764-44.426,6.638-13.558,115.743-23.727,138.382-30.638,71.489-23.475,21.582-40.056,7.149-50.553-39.064-17.242,50.423-23.097,19.345-20.426-72.766-6.157,91.625-15.151,133.37-32.681,25.021-4.162,13.966-10.486,20.918-19.574,18.894V245.532c33.361-40.378,79.202-56.561,136.512-51.112,83.166,1.145,131.378,89.952,154.802,223.322,1.727,9.836,2.693,19.803,2.909,29.787Z"/><path class="ak" d="M1593.362,908.34c95.489-135.83,49.021-332.426,130.979-334.468,105.095,3.908,50.109,134.347,96.766,126.638,53.617-8.17,20.936-129.192,98.894-152.17v343.149l-326.638,16.851Z"/><path class="ae" d="M1673.751,637.155c2.672-38.148,16.018-64.901,56.972-63.793,40.989,1.461,63.66,33.872,65.703,80.979-5.423-3.665-7.398-10.068-12.596-27.873-.83,14.612-2.646,22.86-8.511,4.936-.751,7.583-4.684,7.301-12.766-3.234-1.079,67.037-6.625,84.803-18.383,34.043-7.018,17.889-11.31,6.258-12.766-36.085-12.069,68.027-17.888,68.61-19.234,20.936-13.27,82.374-19.221,89.648-16.34,6.298-6.92,18.271-10.597,13.723-10.553-17.021-12.606,22.969-12.911,16.584-7.66-3.064-1.726,3.199-2.443,5.241-3.866,3.878Z"/><path class="ae" d="M1850.167,671.74c-53.699-18.075-75.036,21.271-88.504,77.179-1.061,4.406-1.535,8.944-1.38,13.473,.971,28.499,7.981,22.978,11.462-9.457,4.222,14.734,8.533,17.839,13.106-12.936l3.234-2.894c2.79,1.545,4.385-1.062,5.617-4.936-3.571,46.764,2.564,40.045,15.149-2.213,9.889,19.37,14.188,11.873,13.787-18.213l1.021-1.702c2.593,7.335,5.755,6.767,9.192,2.383,.74,34.098,7.828-.036,17.316-40.685Z"/><path class="ae" d="M1920,547.319v96.34c-8.694,13.975-13.792,11.653-13.787-13.787-9.021,6.126-11.618-5.278-6.979-36.426-13.013,42.2-21.772,62.468-21.617,36.766-16.915,50.41-26.364,64.113-19.915-.34,6.387-43.473,27.768-70.308,62.298-82.553Z"/><path class="ad" d="M1649.404,875.66c-3.466-16.65-9.181-30.295-19.834-37.343-2.159-1.429-5.167-.851-6.484,1.377-.019,.032-.037,.063-.055,.095-.207,.363-.709,.389-.946,.046-.054-.079-.109-.156-.165-.231-1.617-2.166-4.692-2.68-7.036-1.334s-3.249,2.8-3.394,4.326l-2.426,.128c-.177-1.95-1.141-3.114-3.192-3.191-3.542-.162-3.687,5.046-2.808,11.872l-3.319-.128c-3.517-8.282-6.656-7.154-9.574-.511l-2.426,.255c-11.333-15.342-12.732,17.64-16.979,36.766l78.638-12.128Z"/><path class="af" d="M1587.617,880.511c1.868-17.298-2.686-25.137-14.809-21.83,2.215-11.236-.004-16.089-6.128-15.319,1.149-13.277-19.404-12.638-21.192,2.17-2.429,1.197-2.474,3.507-.766,6.638-3.3,1.746-4.198,3.923-2.808,6.511-12.219,1.469-11.869,8.55-11.362,15.702-4.665-.995-7.149,9.191-.766,11.872-.77,1.509-3.667,4.894-7.021,8.681l64.851-14.426Z"/><path class="ao" d="M953.191,325.191c-47.743,27.313-11.745,87.319,74.553,45.617,89.447-62.979,72.596-60.17,144.34,4.426,43.915,34.213,45.192,1.021,98.723-16.681,35.397-1.993,75.123,16.106,114.979,34.809-69.92-87.43-132.066-158.383-121.787-75.83-74.894-78.809-212.766-155.064-181.532-57.191-44.793-16.004-68.206-14.682-65.362,7.915-66.448-14.999-85.179,18.468-63.915,56.936Z"/><path class="j" d="M1008.511,332.34c-2.766-8.936,11.149-11.106,15.83,0,2.273,8.7-15.844,14.043-25.604,3.168-2.408-2.683-3.034-6.592-1.533-9.869,6.121-13.362,35.038-30.188,38.862-4.655,1.355,9.048-1.259,18.335-7.156,25.33-8.245,9.78-22.014,16.57-35.347,3.103-13.235-13.368-10.313-35.714,5.575-45.786,21.494-13.627,59.847-18.819,91.116-11.839,4.65,1.038,9.183,2.566,13.528,4.52,66.714,30.004,103.368,48.815,114.477,32.618,.838-1.222,1.753-3.45,2.116-4.887,7.281-28.804-27.808-59.032-48.025-37.774-1.891,1.988-2.888,4.674-2.705,7.412,.566,8.462,2.453,15.227,17.373,16.783,1.387,.145,3.398-.45,4.373-1.446,2.227-2.274,2.318-6.482-.583-11.743"/><path class="j" d="M1288.064,321.043c13.16-10.798,5.553-29.872-8.745-28.979-10.882,1.861-14.692,15.028-5.929,19.218,2.48,1.186,5.406,1.053,7.782-.328,3.102-1.804,3.097-4.192-.321-7.197"/><path class="j" d="M1093.766,225.745c-11.387,17.414,5.298,40.213,24.702,29.106,8.125-5.297,7.338-15.756,1.121-21.07-2.892-2.472-6.972-3.101-10.55-1.808-4.526,1.636-5.545,5.139-2.125,11.006"/></g><g id="c"><path class="x" d="M1920,1080v-222.723c-290.907-1.979-432.917,36.106-550.808,80.681-63.077-59.194-180.318-43.786-311.489-9.191-151.304-48.644-302.469-45.414-453.447,27.574-150.09-39.799-295.4-65.38-419.745-28.596-58.783-4.723-119.982,4.73-184.511,33.702v118.553H1920Z"/><path class="l" d="M890.037,909.738c-6.501-3.205,5.461-6.848,7.541-4.481,.375,.427,.874,.73,1.439,.675,19.603-1.908,8.096,12.037-8.981,3.806Z"/><path class="l" d="M893.289,917.735c-6.233-1.682-15.726-2.982-16.225-10.992"/><path class="l" d="M944.523,907.002c12.582,12.32-8.705,16.215-18.183,16.351"/><path class="l" d="M812.664,911.958c2.065-.848,3.514-2.709,5.083-4.246,.569,2.256,2.337,3.835,3.271,5.917"/><path class="l" d="M776.681,922.718l5.075,.015c.818,.002,1.676-.004,2.396-.393"/><path class="l" d="M742.543,929.112c1.051,1.265,2.772,1.718,4.389,2.016,4.216,.776,8.567,.966,12.793,.245s8.328-2.375,11.687-5.039c.915-.726,1.807-1.574,2.178-2.682"/><path class="l" d="M760.841,941.115l1.617,1.957"/><path class="l" d="M765.041,938.444c.348,.277,.747,.489,1.172,.621"/><path class="l" d="M751.561,950.665c1.713-.477,3.502-.996,4.782-2.231,.386-.373,.652-1.004,.913-1.468,.13-.23,.47-.18,.542,.074,.411,1.466,.889,2.912,1.434,4.334,.364,.949,.907,1.826,1.633,2.538,.265,.26,.593,.528,.973,.534,.22,.004,.431-.081,.634-.165,1.326-.546,2.652-1.091,3.978-1.637"/><path class="l" d="M1259.251,917.177c4.001-.594,5.595-5.722,10.134-4.932,6.012-.292,5.809,3.998,7.411,7.31"/><path class="l" d="M1265.037,922.825c-3.221-3.166,2.069-5.085,4.474-3.004,2.282,3.457-1.953,5.371-4.474,3.004Z"/><path class="l" d="M1290.021,933.851c.335-.593,1.452-2.658,2.001-3.654,.108-.196,.358-.254,.539-.122,.878,.643,3.137,2.11,3.376,2.371"/><path class="l" d="M1219.83,913.063c-2.404,.093-4.81-1.253-5.988-3.351,3.851-3.137,30.311-6.532,15.431-1.258"/><path class="g" d="M694.426,921.447c5.626,1.644,9.959,1.663,12.681-.34-4.872-3.326-6.354-6.759-4.468-10.298,3.959-.393,6.397-3.206,7.83-7.617h-3.064c-3.834,8.963-6.426,4.851-6.255,0l-2.34-.213-.426,4.255c-3.056-.992-4.412-3.107-5.106-5.66h-2.723c.755,4.278,2.707,7.414,7.021,8.298-.075,6.432-1.245,9.973-3.149,11.574Z"/><path class="aj" d="M697.447,900.255c-.94,1.266-1.145,2.295,.511,2.723l16.596,.596c3.852-.38,5.219-2.624,4-6.809,12.684,2.809,17.702-13.128,6.213-20.17,1.505-6.398,.072-11.34-5.021-14.468l-7.745-.596c-.111-1.316-.385-2.453-1.532-2.638,6.034-6.386,1.268-8.806-4.17-10.979,2.043-14.809-21.957-13.149-23.83,1.447-4.087,3.12-3.112,4.918,.766,5.957-1.319,.301-1.443,1.156-.766,2.383-3.562-.044-5.876,.751-3.66,4.596-8.026,1.59-11.756,6.464-10.723,14.979-8.234,2.787-6.766,16.894-.681,13.277v2.298c-11.378,4.722-4.601,7.984,8.681,10.723,6.865,1.103,13.966,.174,21.362-3.319Z"/><path class="y" d="M1802.532,874.064c-2.956-2.316-5.08-4.854-5.234-7.915,1.194-2.704,3.359-5.866,5.872-9.191l-2.936-.447c-2.519,8.704-7.468,8.809-7.085,2.553l-6.447-3.255c2.218,7.269,1.424,12.46-2.936,15.191,3.107-.378,3.918,.971,3.064,3.574,3.102-1.618,5.866-1.719,8.17,.255-.052-2.665,2.224-3.14,7.532-.766Z"/><path class="an" d="M1798.292,857.279c21.973,4.123,20.165-17.341,9.828-18.866-.559-4.314-2.797-7.052-9.094-5.987-4.916-8.882-9.056-6.993-12.991-2.259-10.869,9.113-12.257,24.684,.282,27.113,3.879,3.943,7.898,2.979,11.975,0Z"/><path class="t" d="M1786.431,857.505c1.663,4.375,4.661,6.178,11.805,0,9.787,.8,13.409-.919,15.194-3.389-3.185-4.004-6.186-5.504-8.755-1.13-.452-1.784-2.063-2.471-4.745-2.146l-4.123-7.738-13.726-.339c-8.731,6.223-10.941,11.389-4.406,15.138,3.108,.808,6.069,.883,8.755-.395Z"/><path class="ah" d="M1808.131,835.178c.121-3.529-.28-6.784-7.946-6.24-6.732-15.309-19.544-10.28-16.381,2.711-5.279,.79-8.92,3.526-10.899,8.236-.516,1.229,.014,2.794,1.29,3.18,10.739,3.25,21.654,.64,32.75-5.685,.762-.435,1.156-1.326,1.187-2.203Z"/><path class="s" d="M1789.735,844.528c4.069,10.863,6.317,10.958,7.174,2.824,1.582,14.291,11.523-5.709,4.632-5.535,9.941-1.864,8.36-13.5-2.429-9.546,.621-11.918-13.556-12.653-13.161-2.09-13.5,6.347-16.283,13.344-13.613,20.673,4.902,10.841,9.345,8.072,13.669,1.808,7.59,4.68,5.242,.965,1.716-3.744l2.012-4.39Z"/><path class="y" d="M1771.319,880.191c-1.324-4.504,2.133-5.314,11.617-1.468-4.71-4.53-7.763-9.007-8.298-13.404,2.819-2.66,6.38-8.579,10.085-15.128l-4.787-.383c-4.117,14.262-11.751,14.824-12.511,5.106l-10.66-7.851c4.178,16.07,1.277,22.316-3.255,26.298,5.31-.167,4.605,3.199,3.447,6.83,4.756-1.989,9.528-2.954,14.362,0Z"/><path class="an" d="M1776.723,850.362c33.106,6.213,30.383-26.128,14.808-28.426-.842-6.5-4.215-10.626-13.702-9.021-7.407-13.382-13.645-10.536-19.574-3.404-16.377,13.73-18.468,37.191,.426,40.851,5.845,5.941,11.901,4.488,18.042,0Z"/><path class="t" d="M1758.851,850.702c2.505,6.591,7.023,9.309,17.787,0,14.746,1.206,20.204-1.385,22.894-5.106-4.799-6.032-9.321-8.293-13.191-1.702-.68-2.688-3.108-3.724-7.149-3.234l-6.213-11.66-20.681-.511c-13.155,9.376-16.486,17.16-6.638,22.809,4.683,1.217,9.144,1.331,13.192-.596Z"/><path class="ah" d="M1791.547,817.062c.183-5.317-.422-10.221-11.973-9.403-10.143-23.067-29.447-15.489-24.681,4.085-7.953,1.191-13.44,5.312-16.422,12.41-.778,1.851,.021,4.21,1.943,4.791,16.181,4.896,32.627,.965,49.345-8.565,1.149-.655,1.742-1.997,1.788-3.319Z"/><path class="s" d="M1763.83,831.149c6.131,16.367,9.518,16.51,10.808,4.255,2.383,21.532,17.362-8.602,6.979-8.34,14.979-2.809,12.596-20.34-3.66-14.383,.936-17.957-20.425-19.064-19.83-3.149-20.341,9.563-24.534,20.106-20.511,31.149,7.386,16.335,14.08,12.162,20.596,2.723,11.437,7.051,7.898,1.454,2.586-5.641l3.031-6.614Z"/><path class="f" d="M1902.638,885.191c2.383-.327,4.675-.587,5.787,0,1.081,1.103,1.218,2.271,.596,3.489,2.928-.955,5.715-1.002,8.34,0,.448-2.371,1.24-3.78,2.638-3.489v-9.191c-3.277-1.043-4.268-3.278-3.915-6.213l-6.383-1.277c.418,7.229-2.108,12.686-7.064,16.681Z"/><path class="ai" d="M1920,868.511c-.706,1.397-2.147,1.602-3.915,1.277l-6.383-1.277h-1.532c-3.718,8.373-12.943,7.634-24.638,2.809-4.383,4.73-7.715,2.587-10.979,0-2.207,1.34-4.205,2.255-3.958-1.404-17.308-3.559-16.048-9.953-19.532-15.623,.629-15.161,5.711-27.731,19.149-35.44,5.37-8.973,16.014-9.966,27.574-9.574,9.244,8.449,17.238,14.591,24.213,18.638v40.596Z"/><path class="q" d="M1875.66,899.489c1.566-4.728,2.558-3.771,3.319-.511l23.234-3.234c-1.066-1.269-2.629-2.142-6.043-1.532-1.698-3.086-3.744-4.12-6.042-3.66,.11-3.642-1.75-6.448-5.958-8.255v-16.979s-15.319-.383-15.319-.383c3.275,3.826,4.392,10.319,4.17,18.468-5.725,1.378-6.446,8.161-6.979,15.149-2.312,.088-3.009,1.305-2.809,3.149l12.426-2.213Z"/><path class="u" d="M1854.468,783.404l30.298,4.255c3.48-10.573,3.357-19.247-11.319-20.255-13.658,.178-20.07,5.451-18.979,16Z"/><path class="aa" d="M1864.894,866.851c1.359,1.655,2.973,2.365,5.106,1.149,5.886,1.346,11.758,2.635,16.34-1.149,4.567,4.665,8.12,5.891,9.574,0,4.197,6.963,7.247,3.765,9.447-6.964l2.553-.824c6.283,10.889,9.69,8.485,12.085,1.404v-35.433c-1.48-4.014-4.248-5.396-7.617-5.548-3.39-7.34-7.666-11.243-13.277-9.954l-1.915-2.553c8.553-10.085-3.519-22.807-12.128-19.404,2.63-24.389-25.021-19.787-30.383-4.468-2.187,.169-2.922,1.016,0,3.574-8.325-.551-6.445,4.647-2.553,10.979-9.1-1.448-10.068,1.949-7.149,7.66-6.978-1.05-11.557,.431-10.085,8.298-6.52,1.764-7.575,5.558-4.596,10.851l-.894,2.809c-11.779,3.016-8.569,11.396-1.404,21.191l-.766,2.043c-20.763,9.402,14.553,22.851,37.66,16.34Z"/><path class="i" d="M1859.272,786.681c-1.797,5.084,3.057,5.88,6.325,3.131-.56,3.597,6.825,4.571,5.691,.318"/><path class="i" d="M1882.504,806.054c3.468,1.983,9.879,.308,9.723-4.352,.938,1.693,4.092,1.478,5.466,.498"/><path class="i" d="M1865.226,817.383c-2.835,5.303-1.398,13.156,5.82,8.846-2.924,4.628,5.28,11.004,8.086,6.03"/><path class="i" d="M1887.569,822.875c-1.043,5.029,3.803,6.787,5.69,1.866-1.122,4.526,5.438,6.396,6.613,1.796-.685,2.653,3.221,3.3,4.782,1.818"/><path class="i" d="M1840.505,832.573c-.915,3.946,3.002,7.722,5.805,3.701,1.778,4.448,10.063,2.257,8.901-2.818"/><path class="i" d="M1850.343,859.99c1.701,6.503,15.19,3.726,15.305-3.024-.889,5.773,9.925,8.547,10.44,2.04"/><path class="i" d="M1879.869,859.571c3.368-3.991,6.266,4.148,9.861-1.27,.185,1.445,1.047,2.788,2.283,3.559"/><path class="g" d="M1684.83,935.787c-3.715-.401-6.319,.582-7.682,3.109-.531,.985,.1,2.217,1.195,2.45,4.901,1.039,9.083,1.026,10.828-2.558,2.22,.665,4.455,.562,6.702-.128,8.312,3.509,13.148,3.448,12.447-2.298-8.057,.092-12.468-4.883-9.83-19.66,10.631,1.025,15.52-3.782,17.489-11.553h-3.83c-2.579,6.937-3.641,6.169-3.638,0h-3c2.681,12.191-11.808,12.447-9.319-.574l-5.234-1.021-1.596,9.766c-5.228-2.046-8.979-5.35-11.426-9.766h-4.915c4.832,5.756,9.751,10.839,15,13.34l-3.191,18.894Z"/><path class="o" d="M1671.85,902.71c1.767,4.085,10.043,5.477,12.256,2.78,.173-.211,.272-.481,.326-.749,.623-3.056-.479-5.256-4.135-6.188-4.027-.943-6.507,.228-8.203,2.474-.364,.482-.485,1.129-.245,1.683Z"/><path class="u" d="M1659.234,798.354c-6.256-19.484,3.227-29.706,25.362-32.482,19.105-.358,25.639,7.32,23.148,20.766,2.197,3.819,.775,7.138-1.191,10.383l-47.319,1.333Z"/><path class="u" d="M1715.404,825.035c-4.213-9.758,15.669-10.475,23.745,0,6.566,7.902,8.291,16.116,6.085,24.582l-29.83-24.582Z"/><path class="o" d="M1688.34,900.617c-.647,1.458,.314,2.688,2.485,3.744,30.296,5.414,43.446,.356,41.238-14.085,17.738,4.79,23.709-4.737,23.617-21.638l-67.596,1.468,.255,30.511Z"/><path class="aj" d="M1624.128,881.021c-32.298,18.953,12.511,27.447,57.064,19.149,7.979,1.276,14.022,.054,18-3.83,11.581,3.416,17.785,2.932,16.213-3.191,6.589,6.746,9.594,4.869,9.447-4.596l6.766-7.532c11.906,22.663,37.5-9.319,16.213-32.553-3.434-19.603-12.641-28.866-27.958-27.191l-3.957-2.426c8.213-18.094,4.514-28.782-15.447-29.362,4.979-28.979-31.532-23.362-39.83,2.17-10.877,5.445-10.551,9.735-4.213,13.404-9.122,5.254-13.04,10.011-5.362,13.66-17.448,4.165-28.221,14.799-26.936,37.021-11.632,8.934-8.132,17.206,0,25.277Z"/><path class="k" d="M1666.445,827.325c-2.038,7.08,2.742,10.79,7.173,4.192-8.477,6.448,3.494,19.539,10.706,11.982-1.397,6.397,8.995,9.274,10.97,3.161,.082,1.234,1.029,2.361,2.229,2.656"/><path class="k" d="M1703.027,835.403c-.748,5.997,5.166,15.162,7.855,7.109,.114-.342,.605-.38,.759-.054,1.898,4.018,10.368,4.866,10.424-.629,3.918,8.186,12.847-1.029,10.427-7.786"/><path class="k" d="M1705.651,804.207c6.741,7.956,1.426,8.404-5.202,10.419,1.28,1.717-1.896,3.585-3.206,2.08"/><path class="k" d="M1660.551,793.087c1.37,5.326,4.891,5.748,8.799,2.093-4.433,7.526,10.159,8.554,5.916,.541,.908,3.153,7.104,9.167,9.435,5.112"/><path class="k" d="M1661.233,800.911c-6.007,4.022-.612,7.598,4.171,4.758-.765,5.799,10.454-2.227,13.082,3.583"/><path class="k" d="M1657.895,811.756c.807,5.106,5.271,8.155,8.975,3.322-1.725,8.813,12.076,9.431,11.043,.163"/><path class="k" d="M1648.679,822.892c.632,2.101,1.264,4.203,1.896,6.304,2.332-2.417,4.911-4.595,7.685-6.49"/><path class="k" d="M1641.031,846.137c-2.016,8.038,1.534,8.433,7.58,3.991-1.325,5.791,7.489,5.618,8.886,1.158"/><path class="k" d="M1630.409,853.77c-1.762,15.48,8.23-1.891,11.191,8.059,3.897,1.45,7.46,.238,10.314-2.551,.118,7.797,15.487,7.022,9.19-.889"/><path class="k" d="M1624.771,867.091c-6.164,10.377,8.049,9.439,4.905,9.867,6.172,2.833,.692,8.777-3.97,4.91"/><path class="k" d="M1665.18,883.747c1.163,4.841,4.665,3.499,6.368-.229,.601,7.385,13.117,16.458,15.099,5.501"/><path class="k" d="M1687.448,880.003c-.215,7.228,6.676,10.097,9.344,2.559,1.804,7.614,16.123,6.327,14.367-2.734"/><path class="k" d="M1721.222,868.479c8.236-2.422,8.308,9.13,13.762,9.216"/><path class="k" d="M1734.2,870.086c.92,1.935,3.409,2.616,4.819,.862,3.082,.107,6.202-1.966,6.682-5.148"/><path class="k" d="M1636.205,887.407c2.801,4.927,7.64-.255,7.456-4.279-2.173,8.261,10.902,7.067,15.457,5.358"/></g><g id="d"><polygon class="v" points="524.085 901.638 524.085 913.255 531.489 919.702 509.277 918.745 513.681 913.574 512.851 901.638 524.085 901.638"/><path class="p" d="M490.447,896.743c3.071,2.471,8.301,3.756,17.553,2.831-.943,2.858,.838,3.243,4.34,2.064,4.141,.857,8.673,.808,13.532,0,17.793,8.105,21.802,3.423,21.277-5.468,29.106,.573,23.149-25.447,11.404-29.532l-68.106,30.105Z"/><path class="aj" d="M526.511,898.511c11.38,5.127,17.282,2.284,18.128-7.915,21.191,12,29.382-8.276,13.915-24-2.289-16.075-8.166-26.937-21.957-26.298,4.879-10.37,2.538-17.924-8.17-22.213l-.128-2.426c4.313-16.064-31.021-25.021-33.191,.638v1.277c-5.899,2.371-7.596,4.927-3.064,7.758v2.838c-6.225,.647-7.344,3.958-6,8.553-8.115-.488-12.287,1.91-10.485,8.681-8.849,2.183-14.297,7.526-15.047,17.234-5.648,11.03,2.355,23.74,12.596,32.426,4.231,1.855,10.229,2.233,17.34,1.679,4.383,2.01,9.64,2.413,16.021,.746,4.921,3.744,11.89,3.527,20.043,1.021Z"/><path class="am" d="M0,860.34v80.936l191.915-1.532c10.202-17.027,12.951-32.496,0-44.681,.722-10.477-1.694-15.166-10.723-7.66,1.926-19.011-8.774-29.996-35.745-30.638l-1.787-7.149c15.94-8.08,13.223-19.32-.511-32.426,28.936-9.106-27.915-41.957-47.191-27.83v-7.149c-48.809-10.043-79.699,35.517-58,42.383-5.36,5.334-4.13,9.827,1.277,13.787-4.7,1.609-8.492,3.565-8.681,6.894-11.144-2.629-19.423,1.53-23.745,15.064H0Z"/><path class="k" d="M518.809,830.553c-4.086,3.596-1.532,7.404,3.574,3.404-.323,6.207,5.787,5.531,7.489,1.191"/><path class="k" d="M540.34,854.809c.233,5.685-4.34,7.66-6.809,2.628-1.251,2.889-2.722,4.651-5.447,0"/><path class="k" d="M490.979,832.851c1.869,3.098,4.535,3.369,7.915,1.106,2.35,3.718,5.022,4.708,8.255,.936-4.089,4.84-6.399,9.809-3.66,15.149-1.651,7.36,1.325,8.916,7.83,6.043-1.22,7.014,3.915,8.681,9.021,5.872"/><path class="k" d="M524.085,883.83c-.323,8.14,5.362,7.915,7.404,0"/><path class="m" d="M107.404,904.255c-2.886,1.561-5.862,.911-8.936-2.17-6.711,3.915-13.096,3.332-19.021-3.574-6.203,2.96-9.88,.55-11.489-6.255-5.302,1.835-6.462-1.033-6-5.745-11.106,13.021-27.319,5.362-16.723-3.191-17.234-.383-15.842-7.917,0-8.553,.667-7.189,7.374-7.587,15.957-5.872"/><path class="m" d="M92.085,881.915c-4.34,13.915-12.064,14.17-16.468,2.17-2.539,4.24-5.095,6.694-7.66,8.17"/><line class="m" x1="51.489" y1="875.149" x2="45.234" y2="874.766"/><path class="m" d="M60,863.745c-5.077,.014-10.096-.051-9.872-7.234l-5.277,1.106-.681-5.957c-9.106,6.809-14.563,.935-6.468-4.511"/><line class="m" x1="54.468" y1="855.447" x2="50.128" y2="856.511"/><path class="m" d="M52.298,842.383c-16.73-4.062-22.615-1.528-17.653,7.603"/><path class="m" d="M56.936,837.532l-1.106,2.213c3.797,3.631,9.491,4.996,17.021,4.17l1.532-3.408c3.075-1.103,5.986-.694,8.681,1.706,3.757-3.658,5.923-8.199,6.043-13.872,2.42,.25,5.015-1.273,7.83-5.021,.424,4.612,3.11,6.192,7.404,5.617-4.737,7.614-3.561,10.323,7.064,5.191"/><path class="m" d="M84,832.511l-7.66,5.787-2.723-5.277-4.851,3.489-6.979-.34-2.723-3.66c-8.936,6.298-14.756,3.319-10.298-2.638-4.649-1.784-6.309-4.238-2.894-7.83l-5.021-.681v-3.319c-12.511,1.362-5.536-7.655,4.085-14.213"/><line class="m" x1="60.511" y1="830.723" x2="59.064" y2="832.511"/><line class="m" x1="44.426" y1="817.447" x2="40.851" y2="818.043"/><path class="m" d="M48.766,829.872c3.773-1.536,7.201-4.134,10.298-7.745,1.949,6.945,5.962,8.474,13.787,0,2.883,3.779,5.681,5.214,8.255,.596,1.512,8.121,3.77,5.255,6.468-4.085-2.136,7.105-1.504,10.162,1.532,9.702"/><path class="m" d="M80.085,791.915c-5.532-8.621-9.572-10.672-10.723,0-6.774-6.284-11.947-7.219-13.532,3.83-10.001,.046-11.404,11.234,3.234,9.872-.649,8.602,7.745,11.234,10.553,0,3.187,13.698,8.681,14.298,13.106-1.787"/><line class="m" x1="60.511" y1="796.085" x2="55.83" y2="795.745"/><path class="e" d="M879.489,1080c-129.161-171.02-405.701-195.091-756-145.617-49.873-5.257-89.623-12.713-123.489-21.447v167.064H879.489Z"/><path class="z" d="M486.043,920.085c-10.073-5.718-14.575-14.062-12.447-25.532h-8.553c-.013,3.043-.857,5.835-2.743,8.314-.534,.703-1.376,1.126-2.259,1.118-4.814-.043-8.797-2.59-10.701-11.412,1.24-.217,1.95-1.309,2.298-3l-8.489-1.085c.101,3.144,.679,5.37,2.617,4.979,1.613,5.139,4.971,9.884,10.085,14.234-.307,3.969-1.87,7.56-5.489,10.532-3.508,1.635-3.74,4.153-3.383,6.83,2.85-2.167,6.055-4.04,12.319-3.383,.682,1.101,.753,2.767,.511,4.723,5.324-2.143,10.941-2.208,16.915,.255-1.483-2.388-1.958-4.75-1.404-7.085,3.386,.765,6.994,.832,10.723,.511Z"/><path class="h" d="M452.511,890.638c2.849,6.518,8.006,6.945,13.957,5.277,2.373-.978,4.53-1.021,6.638-.851,8.232,2.727,12.673,1.546,14.987-1.828,1.871-2.728,1.911-6.323,.377-9.254l-17.078-32.625c-3.161-6.039-8.931-10.281-15.638-11.497h0c-4.026-.73-8.211-.407-11.983,1.18-7.119,2.995-11.2,7.995-6.495,16.663-17.532,3.489-21.021,31.319,0,27.234-1.051,5.753-.185,8.145,3.83,5.021l4.325-.183c1.142-.048,2.285,.027,3.411,.223l3.668,.64Z"/><path class="ap" d="M441.702,854.723c-3.479,1.738-6.145,1.868-6.383-2.809,1.517-9.646,5.974-15.067,15.745-12.851,14.298-20,30.894-17.957,26.979,4.851,12.895,2.774,21.253,9.982,20.426,26.164,1.662,9.097,2.86,17.878-8.021,18.41-1.722,1.63-3.556,1.152-5.426,0-3.565,.174-7.339-2.356-11.489-9.766-2.313,2.066-3.575,4.729-3.319,8.255-3.659,.058-3.405-4.422,.766-13.447-.762,1.154-1.648,1.474-2.638,1.106-1.532-.615-2.381-2.166-3.149-3.83l-11.234,3.404-3.574,6.383-4.766-1.617c-.659-1.098-1.049-2.799-.596-6.383-1.75-1.562-3.104-3.72-2.894-8.234,3.523,.057,6-1.499,7.574-4.447-8.866,.929-13.381-.009-8-5.191Z"/><path class="w" d="M475.638,864.362c2.427,7.977,7.293,10.216,14.809,6.223-2.484,4.506-6.05,6.085-10.691,4.755-3.628-1.433-4.492-5.595-4.117-10.979Z"/></g></svg>
