<svg xmlns="http://www.w3.org/2000/svg" viewBox="0 0 290 209"><defs><linearGradient id="a" x1="0%" x2="58.8%" y1="80.9%" y2="0%"><stop offset="0%" stop-color="#662D0D"/><stop offset="100%" stop-color="#913F14"/></linearGradient><linearGradient id="b" x1="35.8%" x2="0%" y1="0%" y2="93.4%"><stop offset="0%" stop-color="#93C534"/><stop offset="100%" stop-color="#385B0A"/></linearGradient><linearGradient id="c" x1="76.6%" x2="0%" y1="0%" y2="64.3%"><stop offset="0%" stop-color="#9FAE22"/><stop offset="100%" stop-color="#677C05"/></linearGradient><linearGradient id="d" x1="0%" x2="81.9%" y1="57.4%" y2="0%"><stop offset="0%" stop-color="#643300"/><stop offset="50%" stop-color="#B98B0B"/><stop offset="55%" stop-color="#B98B0B"/><stop offset="100%" stop-color="#F5E12C"/></linearGradient><linearGradient id="e" x1="0%" x2="74.3%" y1="66.9%" y2="0%"><stop offset="0%" stop-color="#643300"/><stop offset="21%" stop-color="#7F4F04"/><stop offset="42%" stop-color="#B3850A"/><stop offset="73%" stop-color="#FFDB34"/><stop offset="100%" stop-color="#FFDB34"/></linearGradient></defs><path fill="#C89B3A" fill-rule="evenodd" d="M216.2 94.8c1.3-6-3-13.5-11.2-7.7 1.5-8-9-10.3-13.6-2.7 7.3-7.3 15.1-2.8 12 5.1 5.9-5.7 12.2-4.7 12.8 5.3Zm58 28.4c5.2 2.6 3.3-2.9 1.2-4.4 3.2 0 5.5-4.4 0-5.3 6.3-1.3 0-8-5-5.2 5.4-6.4-5.8-9.6-8.7.2 3.8-8.1 12.6-6.2 8.1 1.1 1.7-1.4 4-1.5 5.3-.9 2.4 1 2.9 3.8-1.5 4.8a8 8 0 0 1 3.3 1.2c1.8 1.2.2 2.8-3 4 2.8 1.5 5.3 6 .3 4.5Zm12.1 24.2c6.5-4 3.1-10-2-7.7 3-8.3-.6-9-6.2-5 .2-6.2-8-6.1-9.3-1.5-1.3 5.1.6 1.1.6 1.1 1.4-6.4 9.4-3.9 7.8 1-1.2 4.5-1.8 2.3 1 .1 5-3.9 9.5-2.9 4.7 3.8-1.3 2-1.6 2.2.6 1.2 3.7-2.7 9 1 2.8 7Z"/><path fill="#813F1A" fill-rule="evenodd" d="M265.7 174.3c27.5-8.8 29.9-45.4.4-41 17.5-8.4 8.7-36.7-6.7-24 13.9-35-30.7-15-39.4-.3 2.8-22.3-37.4-37.3-46.3-18.8-4.4-25-26.7-13.5-35.4 6.8-4-22.8-37.6-55.7-38.4-7.6-22-27.1-23.3 56.2 5.3 70.7 28.5 14.5 75.6 8.3 75.6 8.3s66.7 11.7 85 5.9Z"/><path fill="url(#a)" d="M265.7 174.3c27.5-8.8 29.9-45.4.4-41 17.5-8.4 8.7-36.7-6.7-24 13.9-35-30.7-15-39.4-.3 2.8-22.3-37.4-37.3-46.3-18.8-4.4-25-26.7-13.5-35.4 6.8-4-22.8-37.6-55.7-38.4-7.6-22-27.1-23.3 56.2 5.3 70.7 28.5 14.5 75.6 8.3 75.6 8.3s66.7 11.7 85 5.9Z"/><path fill="#C89B3A" fill-rule="evenodd" d="M173.8 126.9c-4.8-7.3-.3-8.7 3.5-4.4-2-11.8 6-7 6-3.8 3.5-9.8 13-3.5 11 1.1 5.6-5.5 13.4-.2 9.4 4.1 7.3-2.2 10.7 6 7.6 8.3 2-2.7-1.4-9.7-9-7.3 2.9-6.3-2-9-8.5-3.6.8-6.6-7-10.2-10.4-1-2.6-6.5-7.1-3.8-5 3.5-6.8-5.3-7-1.4-4.6 3Zm103.3 13.9c7.6.3 4.6 5 1 5.1 6 1.8 2.6 3.4 1 2.8 5.3 3.7 4.5 7.2.7 5.6 1.6 1.5 1.9 3.5-.3 4.7-2 1.2-3.2-.2-4.3-1.2 1.4 4-1.7 4.6-3 1.6 1.5 5.2 4.5 1.1 4.5-.5 1.2 3.3 7.3-1.3 3.5-4 4.5.9 3.6-3.7 0-5.5 3.7-1 1.8-2.6-.7-2.7 5-2.3 1.8-7.2-2.4-6ZM149.4 92.5c-2.6-.3-4 4.2-1.6 4.2-5.3 3.5-2.5 7.7 2 6-2.2.2-4.3 0-3.9-2.3a7 7 0 0 1 4-4.2c-1.4.2-2.7-.7-2.5-1.6.2-.9 1.4-1.7 3.4-1.4-2.4-.8 1.6-7.3 5.7-3.6-2.6-4-7.3-.3-7 3Zm106.9 8.7c1.2-1.3-.5-3.6-2-2.2-.4-4.1-3.8-3.2-4.1-.9.5-1.2 1.7-2.2 2.5-1.4a5 5 0 0 1 1.3 3.6c.4-1.1 1.2-1 1.7-.9.5.4.7 1.3-.2 2.4 1.3-1.1 3.9 3.8 1.2 4.1 2.5.1 1.6-3.8-.4-4.7Zm-40.4-2.6c-.7-3-6.4-1.3-5.3 1-5.3-2.8-9.8 2.6-7 6-.7-2-.1-4.7 1.9-5.4 1.3-.5 4.4-.2 5.5 1.3-.6-1.7.3-3.1 1.3-3.5 1-.4 2.3.2 2.2 2.4 1.3-3 8.7-3.2 5.1 2.9 4.3-4.8-.9-7-3.7-4.7Zm-111.7-2.4c.1-3-5.5-1.3-5 1-5-2.9-9.3 2.6-6.5 6.3 0-2.4 0-5 2-5.7 1.3-.5 4.6-.3 5.4 2-.6-2.5.3-3.9 1.4-4.3 1-.4 2.2.2 2.2 2.5.5-2.8 8.7-3.2 5.1 2.8 4.7-4.6-1-7-4.6-4.6Zm7.5-13.9c-3.5-4-1.2-10.7 2.6-6.1-1.4-7 8-1.8 6.7 3.2 3-1.6 6.3 3.6 4.8 5 2.7-.3 3.4 4.3.8 4 4.6 4 1.7 7.9-2.7 5.8 2 .4 4.3-.2 4.2-2 .3-1-1.4-3.5-3.3-4.3 1.9.3 2.9-.5 2.8-1.4 0-.9-1-1.8-3.1-1.6 3-.7-.3-7.4-4.5-4 2.6-5.2-6.3-11.4-5.1-3.6-4.2-5-5 1.6-3.2 5Zm99.3 38.2c-5.3-10.9-18-22.7-35.6-19.3 16.3-5.6 34 10.3 35.6 19.3Z"/><path fill="#A75E18" fill-rule="evenodd" d="M205 149c-4.6-31.3 6.4-39.9 12.1-30.8-5.8-26.5.3-62.6 14-57-6.5-53.6 18.5-65.8 17.4-17 12.4-12 11 44.5-2.6 58.2 20 6.3 12.6 33.4 2.6 41.4-10 7.9-23 14.2-23 14.2s-17.8 8.7-20.5-9Z"/><path fill="#DFA026" fill-rule="evenodd" d="M240 46.6c-8.5 1.5-7.1 17.9-1.1 19.7-3.5 3-.3 5.3 4.8 2.9-3.1 3.3-8.5 1.8-7.5-1.2-2.6-2.2-6-1.6-7.2-.1-1.1 1.3-.4 3.6 1.2 5.9-7.4-5-10.5 3.7-4.2 8-6.3 6.3-7.6 17.6-.6 24.2-9-5.7-6-18.8-.8-24.2-7-5.5-1.8-12.1 3.1-10.5-3-4.3 3.2-8.2 8.9-4.1.2-.3.6-.6.7-1-5.6-2-6.3-18.3.8-19.7-5.4-4-4-18.7 3.2-20.8-7.2 5.3-6.1 16.9-1.4 20.9Z"/><path fill="#DFA026" fill-rule="evenodd" d="M236.9 84.9c3-10.7 9.9-7.6 5.7-.6 4.8-1.2 5 6.3-1 9.3 7.8 1.8 3.2 10-1 12.5 8.3 3.5 1.6 12.7-2.7 13.1 6.5-3.3 8-9.7 1-12.5 5.8-4.3 9.4-11 1.4-12.6 5-3.8 7.4-9.4 1.2-9.5 3.2-6.2-.2-9-4.6.3Zm-18.6 37.7c-4.8-9-12.3-2-8.5 2.4-4.7-1.2-6 8.3-.6 11.1-6.7 1.5-4 8.1.2 11.4 2.9 1 .4-.9.4-.9-4.9-1.7-5.6-9.9 2.1-10-7.4-3.7-6-12.7-.7-9.7-3.6-7.5 3-9.7 7.1-4.3Z"/><path fill="#C04814" fill-rule="evenodd" d="M157.4 144.2c-6-7.3-12.9-31.6-2.6-40.1-3.9-14.3-1.2-30.5.7-43.1 1.5-10.2 10.1-15.4 13-2.5-6.2-62.9 21.7-86 18.2-10.8 3.6 12.5 2.5 31.8-2.6 40.3a72 72 0 0 1 .7 44.9c5.6 11 5.5 32.9-1.8 35.4-7.4 2.5-19.3-16.9-25.6-24.1Zm-44 36c-6-7.3-12.9-31.6-2.6-40.1-3.9-14.3-1.2-30.5.7-43.1 1.5-10.2 10.1-15.4 13-2.5-6.2-62.9 21.7-86 18.2-10.8 3.6 12.5 2.5 31.8-2.6 40.3a72 72 0 0 1 .7 44.9c5.6 11 5.5 32.9-1.8 35.4-7.4 2.5-19.3-16.9-25.6-24.1Z"/><path fill="#88290F" fill-rule="evenodd" d="M174.4 18.5c3.5-14.3 9.5 2.3 5.2 25.8 7.1-4 5.8 7.4-1.3 13.2 6.4-1.1 8.5 11 3.2 14.3 5.5 2.2 1.3 13.7-6 12.7 5 0 12.8-12 1.7-12.1 9.2-2.4 7.7-16-1.7-13.5 12.4-12.2 7.3-18 .6-10.5 5.8-20.9 3.6-40.2-1.7-30Zm-4.6 54.9c-3-6.6-8.5 2-6 4.6-5.6-.3-6.8 15.2-.2 16.7-6.4-5-2.9-18.5 2.6-15.1-4.5-3 .2-10.4 3.6-6.2Zm-1.8 28.8c1.3-6.6 12-10 10.5-2.6 6.8-7 10.3 6.4 2.8 9.2 5 1.5 2.2 9-1 8.7 3.1 2.4-2 6.7-4.1 4.1 0 7.7-8.2 7.8-10 2.2 1.7 3 4.8 4 6.7 2.4 1.4-1 3-4.3 2-6.8 1.5 2.2 3.5 2.4 4.6 2.1 1-1.2 1.2-3-1.2-4.8 3.4 1.9 8.6-6.4 0-7.7 9.2-1.7 7.5-15.5-.9-7.8 1.8-8-7-3.5-9.4 1Z"/><path fill="#7B8E0F" fill-rule="evenodd" d="M171.7 139.3c3.2-12.9 20.6-15.6 20.7-2.8 5.2-11.7 38.4-6.9 32.8 10.3 9.5 10.4.2 8.4-4.3 9.3-4.4 1.1-41 .6-41 .6s-10.4-8.8-8.2-17.4Z"/><path fill="url(#b)" d="M171.7 139.3c3.2-12.9 20.6-15.6 20.7-2.8 5.2-11.7 38.4-6.9 32.8 10.3 9.5 10.4.2 8.4-4.3 9.3-4.4 1.1-41 .6-41 .6s-10.4-8.8-8.2-17.4Z"/><path fill="#CCF14A" fill-rule="evenodd" d="M211.6 137.8c1.5-5.6-4.2-6.5-4.6-3.5-1-2.6-5.8.1-4.8 3.3-3-2.5-6 .7-4.9 3.6.6 1.6.7 1.3.4 0-1-2.5 2.2-5.5 5.1-2.3-1.2-4.3 3.2-6.6 4.2-3.7 1.7-3.7 4.8-1.6 4.6 2.6Z"/><path fill="#8E8D0F" fill-rule="evenodd" d="M148.8 127.5c1-37.9-85.2-39-90.2-1.6-14.7-7-44-1.7-56.4 27.5-8.1 19.4 8.3 28.9 40.5 18.9 2 24 66.4 29 85.7 9.2-18.8-30 20-39.3 20.4-54Z"/><path fill="url(#c)" d="M148.8 127.5c1-37.9-85.2-39-90.2-1.6-14.7-7-44-1.7-56.4 27.5-8.1 19.4 8.3 28.9 40.5 18.9 2 24 66.4 29 85.7 9.2-18.8-30 20-39.3 20.4-54Z"/><path fill="#D5E847" fill-rule="evenodd" d="M92.3 116c5.4-7 12.7-4.8 13.8 3.6-.6-6.2.2-7.6 2-8.3 1.2.2 4.3 4 3.6 8.2.7-3.4 2-5.2 3.6-5 1.3.3 3.3 4.2 1 6.5 4.3-4.2 8.3 1.2 2.9 5 4.7-1.2 7.6.5 8.6 1.7-.5 1.7-2.3 3.5-8.3 3.7 8 1.6 9.1-2.4 8.3-4.5-.6-1.6-4.8-2.7-6-2.4 2-4.9-2.1-6.6-4-5.3 1-4.8-4.2-7.3-5.4-3.5-2.8-7.4-7.3-5.9-7.2-1.2a7.2 7.2 0 0 0-13 1.5Zm2.9 67.3c2.7 5-8.5 6.7-13.8 1.3 2 6.7-9 5.4-12-1.1-1.6 4-9.3 1-9-1.7-2.5 2.4-7.2-2.4-4.6-3.9-8-.8-7.8-7.7-2-8.7-2.9.7-4.5 4-3 5.8a9 9 0 0 0 7.1 2.1c-2.2 1-2.3 2.6-1.5 3.5.8 1 2.9 1.5 4.8-.3-2 2.7 6.8 8.3 8.1 1.2 1.9 7.8 14.2 10 10.9 1.4 6 5.8 15.2 5.9 15 .4Zm-61.8-45c-1-7.1-8.5-5-7-1-3-2.7-7 3.3-3.8 7.2-5.1-1.9-6.6 4.2-3.3 7 2.3 1 1.6.7.5-.7-3-2.5-1-7.9 4.5-5.7-4.2-4.5-.5-9.8 2.6-6.8-.4-5.5 4.7-4.7 6.5 0Zm-2.2 18.6c-4.4-.5-3.7 4 1.7 3.5-2.4 2-.5 4.3 3.7 1.2-2.1 4.8.6 7.1 4.3 4-1 1.8-6.5 4-5.3-2.6-3.2 2.2-6.2-.4-3.7-2.5-3.3.8-6.2-3.8-1.5-4.5-1.3-.6-.5-4.7 2.6-3.7-3-.5-3 3.3-1.8 4.6Z"/><path fill="#F0F121" fill-rule="evenodd" d="M86.2 123.8c-.9-6-5.2-12.5-9-12-1.5 5 2.5 10.8 9 12Zm14.9-4.4c1.5-4.5 11.8-8.8 16.1-6.4-4.8 9.1-10.3 9.6-16.1 6.4Zm-34.3 22.1c-4.5-6-12.2-9-19.5-6 2.3 7.4 12 10.3 19.5 6Z"/><path fill="#211E1B" fill-rule="evenodd" d="M93.6 162s-25.4-18.7-30.2-25.3c8.8 7 10.8 8.8 13.4 10.6a62 62 0 0 1-1.4-27.6 80.4 80.4 0 0 0 3.6 29c2.4 2.7 8.8 7.1 10.6 8 .9-8-3-36.2-2.8-46 1.7 6.5 2.5 18.8 2.5 18.8 4.5-3 13.6-15.6 17.5-20.9a214.4 214.4 0 0 1-17.2 24 107 107 0 0 1 1.1 16.5c2.2-3.5 9.8-17.8 9.8-17.8s-1.8 6.6-9.2 19.5c-1.7 3 0 2.5 0 2.5l2.3 8.7Z"/><path fill="#F6E065" fill-rule="evenodd" d="M100.6 148.6c2-7.8-3.2-4.1-4.4-.3-1.1-4.2-5-6.3-5.3.6-2-8-7.5 1.3-4.5 8-7-6.5-13.3 6-3.2 8.3-8.5-3.8-3.3-12.8 4-7.6a12 12 0 0 1-1-7c.7-4.1 3.4-5.3 5 .7 0-1.8.1-3.4.7-5 1-2.6 2.8-.6 4.4 3.6 1-4.2 5.2-8.6 4.3-1.3Zm151.6-15.2c6.4-1.7 7.4 6.5 2.4 7.3 6.5.7 4.7 5.6-1.6 6.2 3.6-.4 3.4 1.6 2.3 3.5 2.3-3.1 8-1.5 6.7.8 5.3-4 12.5-.4 6.5 3.3 5.1-5-3.3-6-6.6-1.9 1-3.4-3.1-5.6-7.4-1 2-3 .7-5.9-3.7-4.5-.6-.3-.2-1.7-1-1.7 11.5 1 10-4 1.5-5.5 6.6 0 7.5-6.3.9-6.5Zm-98.7-24c5-8 13-4.9 7.7.1 5.7-.5 5.4 5.4-1.8 7.2 9 2.1 3.2 8-2 9.7 4.2 1.5 5 3.7 4 5.5-.5 1.3-1.1 1.4-.5-.2.7-2-1-4.2-5.5-5.5 8.3-1.6 12.2-7.8 2.1-9.3 7.7-2.7 9.6-6.6 2.4-7.2 5.3-3.9.3-7-6.4-.3Z"/><path fill="#B58B0E" fill-rule="evenodd" d="M214.3 193.5c2.9 13.8-31 22.5-35 7.9-2.8 12.8-25.8 5-22.4-7.8-7.3 10.1-34 2.3-28.1-9-7.3 12.8-24 8.5-24.3-2.1-26.6 1.7-33.8-35.3.9-35-7.8-11 2-20 16-17.6-3.5-11 13.4-27.4 13.2-10 12-32.3 35.5-21.4 22.9 15 12.8-17.7 32-5 18.4 10.6 9.5-8 20.8-6.8 22.2 3.3 3-12 17.4-9.6 21.7-1.9.6-19.8 19.8-34.2 24.3-11.5 10.9-11.2 14.1 6.5 5.6 17.6 19.8-9.3 27.7 8 12.3 15.2 30.3-2.7 6.8 25.3-10 26a35 35 0 0 1-24.6-7c1.4 4.5-8 10-13 6.3Z"/><path fill="url(#d)" d="M214.3 193.5c2.9 13.8-31 22.5-35 7.9-2.8 12.8-25.8 5-22.4-7.8-7.3 10.1-34 2.3-28.1-9-7.3 12.8-24 8.5-24.3-2.1-26.6 1.7-33.8-35.3.9-35-7.8-11 2-20 16-17.6-3.5-11 13.4-27.4 13.2-10 12-32.3 35.5-21.4 22.9 15 12.8-17.7 32-5 18.4 10.6 9.5-8 20.8-6.8 22.2 3.3 3-12 17.4-9.6 21.7-1.9.6-19.8 19.8-34.2 24.3-11.5 10.9-11.2 14.1 6.5 5.6 17.6 19.8-9.3 27.7 8 12.3 15.2 30.3-2.7 6.8 25.3-10 26a35 35 0 0 1-24.6-7c1.4 4.5-8 10-13 6.3Z"/><path fill="#F6E065" fill-rule="evenodd" d="M127.9 179.3c-7-10.1-1.5-22 3.8-14.7-4.2-8 2-15.8 4.2-7.3-1-7.9 4.7-13.4 7.5-5.8 0-5.1 3.9-4.1 3.6-.2 1.8-3.1 4.7-3.1 3 1.4 1.4-4.2-1.4-4.6-3.1-.5-.2-6-3.1-4.9-3.6.7-2-7.5-8-5.4-7.2 6.6-2.9-11.1-8.1-3.7-4.3 7.1-6.3-10.4-9.6 4.2-4 12.7Zm48.3-8.7c5.1-.4 5.1 3.5 1.1 3.8 3.1 1.4 3.6 4.3-.6 3.2 3.7 1.2 3.7-2-.6-3 5.9-1.1 4.3-4.4-1.2-3.2 9.3-3.7 6-12-7.6-6.4 8-6.1 20.3 0 9 5.6Z"/><path fill="#B6880B" fill-rule="evenodd" d="M179.2 201.4c-2.7 12.8-25.7 5-22.3-7.8-7.3 10.1-34 2.3-28.1-9-6.8-14.9 12.5-43.7 22.7-32 7.6-15.8 20.3-15.2 12.6 13.5 13-9.5 17.5 11.2 9.3 16.1 19.9-9.7 15 14.1 5.8 19.2Z"/><path fill="url(#e)" d="M179.2 201.4c-2.7 12.8-25.7 5-22.3-7.8-7.3 10.1-34 2.3-28.1-9-6.8-14.9 12.5-43.7 22.7-32 7.6-15.8 20.3-15.2 12.6 13.5 13-9.5 17.5 11.2 9.3 16.1 19.9-9.7 15 14.1 5.8 19.2Z"/><path fill="#F6E065" fill-rule="evenodd" d="M255.4 173.6c5.3-1.5 11 4.1 5.1 5.8 7.2 1.8-1.7 9-6 5.2.4 3.8-5.9 4.6-6.6 2.7-.4 2.6-5.7.8-4.5-1.4-5.6 2.6-8-2.7-4.4-5-1.2 1-1.5 3.6.2 4.3a9 9 0 0 0 5.6-.3c-1 .9-.6 2.2.5 2.7.6.4 2-.2 2.6-2.4-.4 3 7.3 3.3 5.7-2.6 4 5.2 13.6-.7 5.9-3.4 6-1.7 0-5.7-4-5.6Zm-92.6 18.1c5 5.2 9.6-1 6-3.2 4 .3 3.4-6.9-1.2-7.7 4.9-2 2.7-7.3-1.7-7.6-2.4 0-2 .1-.3.5 3.9.2 5.7 5.6 0 7.6 6 1 6.6 7.1 2 6.7 3.8 4.6-.7 6.6-4.8 3.7Zm-18.1-28.2c-1.8-.5-4 4.2-1 4.1-5.9 3.6-3 7.8 1.6 6-2.4.3-4.5-.3-4-2.3.2-1.1 2-3.5 4-4.1-2 .2-2.8-.7-2.6-1.6.2-1 2-1.8 3.4-1.4-2.4-.9 1.6-7.4 5.2-3.6-2.1-4.1-6.8-.3-6.6 2.9Zm-9.2 23.3c-3.9 2-1.5 5.9 3.1 3-1.7 4.1 1.3 4.5 4 .1-.1 5.3 3.3 6.4 5.5 2.9-.3 1.3-4.5 5.3-5.9-1.2-1.3 3.3-5.8 2-4.3-1-2.8 2-7.2-1.2-3-3.4-1.5-.2-2.3-4.3.9-4.6-3 .8-1.6 4.2-.3 4.2Zm58.9-21.8c9.8-3.1 4.4-11.8-.6-8.9 2.7-4.3-7-7.5-10.9-2.6.4-6.8-7.8-7.1-10.3-2-2.1 2.6-1.6 2.3 0 .8 2.6-4.7 10.7-4 9.9 3.9 4-7.5 13.1-3.8 10 1 7.7-2.1 8 4.5 2 7.7Zm50.4-.2c7-3.9 4.2-11.4-1.5-10.2 5-8.8-1.4-12.7-6.2-6.8 1.6-8.5-5.7-16-5.4-3.5-2.5-8.1-6.3-6.4-3.2.2-3.7-7-1.8-10.2 2.2-4.5.6-5.1 6.5-4.7 7.5 4.4 7.1-3 9.4 3.5 7 9.2 5.5-1.2 6.7 11-.4 11.2Zm-36.5 16.9c2.4 6.9-2.7 11-8.8 8.3 4.4 2.2 6 3.9 5.1 5.1.1.8-4.3 1-6.9-1.3 2 2 2.9 4 1.9 5-.7.7-3.4.6-4.5-2.3 1.2 5-3.7 5.8-3.4.4-1.7 3.9-4.4 5.3-5.3 5-1-.4-1.7-2.6.5-7-4.2 5.3-2 7.6-.2 7.9 1.3.2 3.7-2.4 4-3.3 2.5 3.4 5.3 1.2 5.1-.7 2.8 2.8 6.6 0 4.5-2.5 6.1 1.1 6.8-2.7 3.6-4.6 6.5-.8 6.4-7.5 4.4-10Zm-85.2-26.1c-7-3.2-3.9-7.4.8-6-7-8.6 1-9.2 2.4-6.7-2.8-9.6 7.2-10.1 8.2-5.3 1.1-7.7 8.6-7.4 8.4-2 3.3-5.4 10.3-1.1 9.2 2.6 0-3.4-5.7-7.2-9.7-1 0-7-6.3-6.5-7.6 2-2.7-5.9-10.4-5.2-7.7 5-2.3-2.3-4.2-2.2-4.9-1.4-1 1.2 0 4.6 3 7.3-6.5-.6-5.4 2.8-2.1 5.5Z"/></svg>