<svg xmlns="http://www.w3.org/2000/svg" viewBox="0 0 292 529"><path fill="#BD6F24" fill-rule="evenodd" d="M161.6 361.1c-39.5 53.4-149.7-2.4-131-70.4-45-8-34.4-103.2-5.6-112.8-8.2-19.4 45.3-99.1 73.9-82.4C83.3-34 185.3-6.5 216.3 36.9c54.4-17.4 75.4 49.4 45.7 38.8 36.6 19.5-2.7 110.2-30.3 115.7 54.8 5 92.5 123.6 18.2 107 6.2 29.5-50.7 83.2-88.3 62.7Z"/><path fill="#5A3306" fill-rule="evenodd" d="M149.1 358.8c1.6 9.3 6.3 120.4 1.3 133.1a42.4 42.4 0 0 1-19 3.4c4.3 3.5 8.8 4.2 15.8 4.8-4.6 7.6-13.4 11.4-23.8 13.5a34.1 34.1 0 0 0 30.4-2.7c1.1 6.3 5.8 14.7 11.3 17.7-.6-7.7.8-14 6.4-15.7 5 9.4 15 13.4 25.7 13.7-9.2-5.3-14.4-15.8-13-19.9 4.2 4.1 14.7 5 20.6 2.6-10.5-1.7-17.6-9.8-22.2-17-11.4-16.6-6.3-102-6-114.6 5.2-6 12-15.5 20.7-29a220 220 0 0 0 33-23.2c-6.7 4.5-24.4 14-30.7 17.7 2.6-6.3 15.8-35.4 17.7-41.6-1.2 1.8-3.2 5.7-5.5 10.3-.6-4.7-.8-8.3-.8-12-.6 2.6-.9 11.8-.8 15.3l-8.8 17c-.7-5.5 1.5-18.7 0-24.8-1.1 9.2-3.1 18-2.8 29.3-11 19.1-16.4 24.6-23.2 32-.1-31.1 9-53.2 27.5-88.5 13.8-1.2 48.9-7.6 67-22-19.5 11.3-54.6 16.7-65.5 17.2 3.5-6.6 24.5-46.4 33.5-59.7-15 15.1-46.5 70.6-52.4 83.5 1.4-22.2 4.1-34.5 11.1-53.6-9.1 14.3-13 33.7-17.3 63-4.2 11.7-10.8 23-14.1 32.3-1-20.8-1.6-43-1.4-71.3 24.5-45 38.2-81.3 48-114.7a809 809 0 0 1-49.5 103.3c.5-42.7 3.9-89.7 6.7-129.8a238 238 0 0 0 44.3-40c-6 4.9-12.8 10.5-19.8 16 1.7-5.3 3.4-10.6 5.4-21-2.4 9.3-6.8 17.4-10.4 25-6.6 5.2-13.2 10-19.4 14.1.6-7.7 1.8-19.1 2.5-26.2-3.1 9.6-5.7 20.1-7.9 33-11.5-12-21.8-33.8-22.3-44.7-.5 11.2 10.5 38.2 21.5 50.3a831 831 0 0 0-7.3 71.7 324.3 324.3 0 0 1-42.7-55.8c1.4 5.3 6.4 14.6 12.8 24.7-7.1-1.4-15.4-4.1-24-6.8 8.5 4.9 19.1 9 26.9 11.4 8.7 13.2 19 27 25.8 34.6-3.5 58-2.9 113-1.9 122.2-17-16-26-22.7-40.3-34-1.7-10-3-25.6-4.4-38.2l14-34.1c-3.5 7-10.9 21.8-14.7 28.1l-2.7-33.6c-1.8 14.1 1 64.7 2 73.8-11.7-8.6-29.6-18.1-36.9-25.2a91.4 91.4 0 0 0-21.9-24.3c6 8 14.5 19 18.5 26.4-12.1-1.2-25.2-.6-37.1-.5 10.8 2 36.5 3.4 41.7 4.7 7.6 5.2 36.8 25.6 43.9 32.8-17.7 3.5-48.9 7.4-70.7 4.3 21 7.4 57 3.2 74.3-1 10.3 9 29.3 33.5 30.9 42.7Z"/></svg>