<svg xmlns="http://www.w3.org/2000/svg" viewBox="0 0 287 319"><defs><filter id="a"><feFlood flood-color="#281503" flood-opacity="1" result="floodOut"/><feComposite in="floodOut" in2="SourceGraphic" operator="atop" result="compOut"/><feBlend in="compOut" in2="SourceGraphic"/></filter><filter id="b"><feFlood flood-color="#281503" flood-opacity="1" result="floodOut"/><feComposite in="floodOut" in2="SourceGraphic" operator="atop" result="compOut"/><feBlend in="compOut" in2="SourceGraphic"/></filter><filter id="c"><feFlood flood-color="#281503" flood-opacity="1" result="floodOut"/><feComposite in="floodOut" in2="SourceGraphic" operator="atop" result="compOut"/><feBlend in="compOut" in2="SourceGraphic"/></filter><filter id="d"><feFlood flood-color="#281503" flood-opacity="1" result="floodOut"/><feComposite in="floodOut" in2="SourceGraphic" operator="atop" result="compOut"/><feBlend in="compOut" in2="SourceGraphic"/></filter><filter id="e"><feFlood flood-color="#281503" flood-opacity="1" result="floodOut"/><feComposite in="floodOut" in2="SourceGraphic" operator="atop" result="compOut"/><feBlend in="compOut" in2="SourceGraphic"/></filter><filter id="f"><feFlood flood-color="#281503" flood-opacity="1" result="floodOut"/><feComposite in="floodOut" in2="SourceGraphic" operator="atop" result="compOut"/><feBlend in="compOut" in2="SourceGraphic"/></filter><filter id="g"><feFlood flood-color="#281503" flood-opacity="1" result="floodOut"/><feComposite in="floodOut" in2="SourceGraphic" operator="atop" result="compOut"/><feBlend in="compOut" in2="SourceGraphic"/></filter><filter id="h"><feFlood flood-color="#281503" flood-opacity="1" result="floodOut"/><feComposite in="floodOut" in2="SourceGraphic" operator="atop" result="compOut"/><feBlend in="compOut" in2="SourceGraphic"/></filter><filter id="i"><feFlood flood-color="#281503" flood-opacity="1" result="floodOut"/><feComposite in="floodOut" in2="SourceGraphic" operator="atop" result="compOut"/><feBlend in="compOut" in2="SourceGraphic"/></filter><filter id="j"><feFlood flood-color="#281503" flood-opacity="1" result="floodOut"/><feComposite in="floodOut" in2="SourceGraphic" operator="atop" result="compOut"/><feBlend in="compOut" in2="SourceGraphic"/></filter><filter id="k"><feFlood flood-color="#281503" flood-opacity="1" result="floodOut"/><feComposite in="floodOut" in2="SourceGraphic" operator="atop" result="compOut"/><feBlend in="compOut" in2="SourceGraphic"/></filter><filter id="l"><feFlood flood-color="#281503" flood-opacity="1" result="floodOut"/><feComposite in="floodOut" in2="SourceGraphic" operator="atop" result="compOut"/><feBlend in="compOut" in2="SourceGraphic"/></filter><filter id="m"><feFlood flood-color="#281503" flood-opacity="1" result="floodOut"/><feComposite in="floodOut" in2="SourceGraphic" operator="atop" result="compOut"/><feBlend in="compOut" in2="SourceGraphic"/></filter><filter id="n"><feFlood flood-color="#281503" flood-opacity="1" result="floodOut"/><feComposite in="floodOut" in2="SourceGraphic" operator="atop" result="compOut"/><feBlend in="compOut" in2="SourceGraphic"/></filter><filter id="o"><feFlood flood-color="#281503" flood-opacity="1" result="floodOut"/><feComposite in="floodOut" in2="SourceGraphic" operator="atop" result="compOut"/><feBlend in="compOut" in2="SourceGraphic"/></filter><filter id="p"><feFlood flood-color="#281503" flood-opacity="1" result="floodOut"/><feComposite in="floodOut" in2="SourceGraphic" operator="atop" result="compOut"/><feBlend in="compOut" in2="SourceGraphic"/></filter><filter id="q"><feFlood flood-color="#281503" flood-opacity="1" result="floodOut"/><feComposite in="floodOut" in2="SourceGraphic" operator="atop" result="compOut"/><feBlend in="compOut" in2="SourceGraphic"/></filter><filter id="r"><feFlood flood-color="#281503" flood-opacity="1" result="floodOut"/><feComposite in="floodOut" in2="SourceGraphic" operator="atop" result="compOut"/><feBlend in="compOut" in2="SourceGraphic"/></filter><filter id="s"><feFlood flood-color="#281503" flood-opacity="1" result="floodOut"/><feComposite in="floodOut" in2="SourceGraphic" operator="atop" result="compOut"/><feBlend in="compOut" in2="SourceGraphic"/></filter><filter id="t"><feFlood flood-color="#281503" flood-opacity="1" result="floodOut"/><feComposite in="floodOut" in2="SourceGraphic" operator="atop" result="compOut"/><feBlend in="compOut" in2="SourceGraphic"/></filter><filter id="u"><feFlood flood-color="#281503" flood-opacity="1" result="floodOut"/><feComposite in="floodOut" in2="SourceGraphic" operator="atop" result="compOut"/><feBlend in="compOut" in2="SourceGraphic"/></filter><linearGradient id="v" x1="42.3%" x2="0%" y1="0%" y2="90.6%"><stop offset="0%" stop-color="#F7B923"/><stop offset="100%" stop-color="#991A1A"/></linearGradient></defs><path fill="#593A12" fill-rule="evenodd" d="M105 162.4c8.5 0 10.4.3 14.3 3.8a37.7 37.7 0 0 0 21.6 6c6.7-.6 10.8 2.2 11.7 6.2 3.7 15.7 13.6 66.8 6.4 96.2-2.2 8.7-20.5 12.6-32.1 11.7 6.5 3.8 24.5 9.1 32.6 4.7a43.7 43.7 0 0 1-23.1 14.7c8.2 2.8 29 1.1 38.5-5 2.4 3.5 1.7 8.9-1.5 18.3 9.6-3.1 16.4-8 19.5-18.5 1.7 5.7 15.3 12 25.9 14.2-6.5-7.8-7.7-10.5-8-17.5 7 3.4 20.7 3.2 25.3-.7-13.3-1-23.7-9.3-26.4-16.8-9.5-26.7-26.9-55.2-26.2-118 0-3.2 17.4-16 22-14.9 3.6.8 6.3.4 9-2 3.8-16-51.6-12.5-60.2 12-1.6 3.4-5.2 4.6-11.8 5-6.7.6-18.8-2.6-24.2-6.4-4.3-9.5-22 7-13.3 7Z"/><g filter="url(#a)"><path fill="#62313B" fill-rule="evenodd" d="M138 168.5c-9.2 2.5-16-4.6-26.6-9.5-1.4-2.3-.3-1.2-.3-1.2 9.8 5.4 18.2 12.5 26.9 10.7Z"/></g><g filter="url(#b)"><path fill="#62313B" fill-rule="evenodd" d="M152.2 171.7c-2.8-2.4-23.5-7.7-27.1-8.4-2.2-.4-1.9.2-.4.6 3.6.7 24.4 5.5 27.5 7.8Z"/></g><g filter="url(#c)"><path fill="#62313B" fill-rule="evenodd" d="M141.2 164.5c17.7 5.4 36.7 1.1 36.6 26.2-1.5-25.4-19.5-20.4-37.2-25.6-6.7-1.6.6-.6.6-.6Z"/></g><g filter="url(#d)"><path fill="#62313B" fill-rule="evenodd" d="M181.7 160.6c-3 7.7-2.6 52.8-.3 64.2 3 4.2 5.9 8.6 8.3 16.7.9 5 2.6 11 3.6 16 2.3 7 3.2 13 4.8 17.6a108 108 0 0 1-5.4-18.1c-1.3-5.2-2.5-10.6-4.1-15.3a34.5 34.5 0 0 0-7.8-16.7c-1.9-12.4-3.2-56.1 1-64.4Z"/></g><g filter="url(#e)"><path fill="#62313B" fill-rule="evenodd" d="M191.9 267.7c-1.5-5.8-4-26.3-6.8-31.9-2.6-5.5-4.1-7.3-5.5-7.7-3.6 1-1.9 16.7-1.7 24-.4-10.8-1.2-21.7 1.3-23.6 1.3.2 3.4 3 5.5 7.8 2.2 4.6 4 19 5.8 27.2.4 1.8 1 3.2 1.4 4.2Z"/></g><g filter="url(#f)"><path fill="#62313B" fill-rule="evenodd" d="M187.5 251.8c-.5-7.3-4-17-6.3-17.2-1.7 1-1.9 6.8-1.7 12a41 41 0 0 0 2 12.5c-.5-2.3-1-6.8-1.4-12-.4-5.5-.2-10.9 1.2-11.6.6.1 1.7 1 2.4 2.6 1.6 2.8 2.4 7.5 3.8 13.7Z"/></g><g filter="url(#g)"><path fill="#62313B" fill-rule="evenodd" d="M179.6 263.9c-.2 7.8-2.7 13-3.1 19.4-3.2 1.4-10.8 14-15.3 17.1 5-3 12.7-15.3 16-16.6.4-6.1 2.7-11.4 2.4-20Z"/></g><g filter="url(#h)"><path fill="#62313B" fill-rule="evenodd" d="M202.2 285c2.6.3 8.6 3.8 9.6 5.3-4.4-3-6.5-3.7-9.6-5.4Z"/></g><g filter="url(#i)"><path fill="#62313B" fill-rule="evenodd" d="M176.9 290.1c-.5 5-3.6 8.6-8 11.8 5.3-3.3 7.8-6 8-11.8Z"/></g><g filter="url(#j)"><path fill="#62313B" fill-rule="evenodd" d="M192.2 288.2c.8 4.3 4.2 12 8 15.6-4.9-3.4-8-12.2-8-15.6Z"/></g><g filter="url(#k)"><path fill="#62313B" fill-rule="evenodd" d="M170.1 175.3c6.4 10 6.3 26.1 3 30.2 3-12 1.2-19.1-3-30.2Z"/></g><g filter="url(#l)"><path fill="#281503" fill-rule="evenodd" d="M156.6 152.4c-.9 8.5 2.4 37 11.6 53-4 18-2.6 34.5-2 42.8-2.8-6.3-.9-35.3 1.2-42.5a110.2 110.2 0 0 1-10.8-53.3Z"/></g><g filter="url(#m)"><path fill="#281503" fill-rule="evenodd" d="M182.1 241.3c1 8.1 1.6 23.4 1.8 29.3.4 2.4 1 5 4 8-5.5 5.9-6 18.7-7.7 26 .6-6 2.4-21.3 7-26-1.5-2.8-3.2-5-3.7-7.7 0-8.8-1.6-23.2-1.4-29.6Z"/></g><g filter="url(#n)"><path fill="#281503" fill-rule="evenodd" d="M181.1 177.4c-.9 5.4-.5 30.6 5.8 38-.4 10.4 10 39.5 14.7 46.1a117.9 117.9 0 0 1-15.1-45.6c-6-7.3-7.3-31.1-5.4-38.5Z"/></g><g filter="url(#o)"><path fill="#281503" fill-rule="evenodd" d="M209.3 308.1c-5.6-4.5-12.6-19.8-15-26.2 1.9 6.8 9.8 23.3 15 26.2Z"/></g><g filter="url(#p)"><path fill="#281503" fill-rule="evenodd" d="M168.4 136.3a53.5 53.5 0 0 1 13.5 40.2 67.6 67.6 0 0 0-13.5-40.2Z"/></g><g filter="url(#q)"><path fill="#281503" fill-rule="evenodd" d="M164.3 137.8c4 6 11.2 14 11.6 17.6-3.8-6.9-9-13.1-11.6-17.6Z"/></g><g filter="url(#r)"><path fill="#281503" fill-rule="evenodd" d="M169.3 216.6a52 52 0 0 0-.6 14.3c-.8 4.2-1 9.8-1 13.5.2 8 1 15.4 1.5 19.5a138.4 138.4 0 0 1 .1-47.3Z"/></g><g filter="url(#s)"><path fill="#281503" fill-rule="evenodd" d="M171.2 229.9c-1.2-5.2.7-10.2 2.7-11.3-.3-2-1.2-4.7-.4-10.2-1.2 6.2 0 8.6 0 10.1-1.8.4-3.8 6-2.9 11.4 1.3 3 .8 9.6.9 17 0 10.2-.2 22.7-1 29a219.2 219.2 0 0 0 .7-46Z"/></g><g filter="url(#t)"><path fill="#281503" fill-rule="evenodd" d="M194.2 267.1c0 4.5 1 14.4 4.5 19 3.6.2 14.7 6.7 17.7 9.9a39.8 39.8 0 0 0-17.2-10.3 42 42 0 0 1-5-18.6Z"/></g><g filter="url(#u)"><path fill="#281503" fill-rule="evenodd" d="M153.6 288.6a24 24 0 0 0 15-16.6c-3.9 8.5-6.2 11.9-15 16.6Z"/></g><path fill="#C8EE30" fill-rule="evenodd" d="M1 162.2c1.3 28.7 38.8 40.4 76.3 16.6 33.3-20.7 50.3-27.3 63.4-17.3 37.2 28 27-12 74 8 40.9 18.2 67.5-14.8 55.1-31.1 35.4-8 7-44.2-10-44.5 20.2-5.5 6.5-33-14-31.4-15.6 1.1-26-16.7-27.9-35-1.8-26.9-50-37.5-60-14.3-22.5-16.4-78 1.2-84.3 34.4-7.5-8-17.8-2.6-18 4C41 39 6.8 79.2 35 83.7c-26.6 4-21.7 29.7-8.3 33-21 7.8-26.5 26-25.7 45.5Z"/><path fill="url(#v)" d="M1 162.2c1.3 28.7 38.8 40.4 76.3 16.6 33.3-20.7 50.3-27.3 63.4-17.3 37.2 28 27-12 74 8 40.9 18.2 67.5-14.8 55.1-31.1 35.4-8 7-44.2-10-44.5 20.2-5.5 6.5-33-14-31.4-15.6 1.1-26-16.7-27.9-35-1.8-26.9-50-37.5-60-14.3-22.5-16.4-78 1.2-84.3 34.4-7.5-8-17.8-2.6-18 4C41 39 6.8 79.2 35 83.7c-26.6 4-21.7 29.7-8.3 33-21 7.8-26.5 26-25.7 45.5Z"/><path fill="#853111" fill-rule="evenodd" d="M251.5 141.7c7 2 6.6 5.3 5.3 6.5-1 1.5-5 0-5.2-.6-.6 4.3-4 4-5.6 2.6-.7 3.7-5.1 3.5-5.7.3-4.8 4.3-7.2 1.2-5.5-1.2a6 6 0 0 1-4.3-1c1.3 1.8.9 5-1.1 6-1.6 1-3.6.3-4-.4-2 2.8-5.4 1.5-6.7-.3-2.3 3.3-4.9 2.5-5.8 0-1-3.2-1-6.2 2.6-8.3-2.3 2.4-2.9 5.3-1.8 7.9 1.1 2.7 3.5 1.8 5.2-1 1.2 4 5.5 2.7 6.5.2 1.2 1.8 2.3 1.9 3.7 1.3 1.7-.9.8-5.8 0-8.2 2.7 4 5 3.9 7.8-.8-2.5 5-2.6 6.7-1.2 7.2 1 .3 4.5-1.6 5.6-5-.8 2.8-.3 4.9 1.2 6 1.2-.6 3.5-2.2 3.4-5.2 1.4 4.7 6.3 2.8 3.4-2 3.2 2.7 6.5 2.8 7.1 1.5 1.1-.8-.1-3-5-5.5Z"/><path fill="#630606" fill-rule="evenodd" d="M43.8 172.7c-2.6 6.1-11 8.5-9.1 1.4-5.5 3.3-7.4 1.2-5.2-1.9-3.2 1.7-6.8 0-2.8-3.5-5.3-.4-12.5-5.2-4.8-8-4.5-1.4-10-7-3.1-7.4-5.3 1.3 0 6 5.5 7.3-8.9 2.1-3.3 6.7 4.5 6.7-5.3 5-1.8 5.3 2.4 4.1-3.2 4.7.3 3.8 5 1.2-2.6 6.3 2.4 7 7.6 0Z"/><path fill="#CC880F" fill-rule="evenodd" d="M189 41.5c4.4 7-.1 14.6-5.8 7.8-1 6.3-4.7 5.8-6.2 2.1-.8 3.2-5.5 4.4-6.7-1.9-4 3.8-14.8 4.9-11.5-2.7-5.2 1.8-15.6 1-11-3.7-2.3 4.3 7 4.6 12.7 1.8-4.9 8 4.4 8 10.8 2.5.6 8.2 4 6.2 5.8 1.5 2.8 6.5 4.6 3.2 5.6-2.2 4.6 7 8.9 3.7 6.3-5.2Z"/><path fill="#761508" fill-rule="evenodd" d="M155 144.1c-6.5 1.6-3.6 5.5-1.4 4.7-6.7 4.6-1.2 9.8 2.4 6.3-2.3 7.2 9.2 7 10.2 1.1-1 7.2 13.2 1.3 11.3-2.3-1.7 4.8-11.3 7-11 1.2-4.2 7-12 5.2-9.3-.6-7.2 3-6.8-2.8-2.3-6.2-4 .3-3.7-2.1 0-4.2Z"/><path fill="#862C1A" fill-rule="evenodd" d="M33.6 102.2c-6.4 0-8.2 4.6-6 8 2 2.3 6 3.3 9 .6-.5 6.2 6.2 3.4 6 0-2 4.7-6.4 3-5-1-4.2 2.7-7 2-8.9 0-2.2-3.2-.3-6.5 5-7.6Z"/><path fill="#741C05" fill-rule="evenodd" d="M114.8 140.4c6.4 1.2 6.4 6 3.4 8.7-2.4 2.2-7 1.8-9-1.4-1.6 6-6.5 1.7-5.8-1.4.5 5 5.2 4.3 5.2 0 3 4 6.5 3.8 8.8 2.3 2.8-2 2-6.3-2.6-8.2Z"/><path fill="#8E3318" fill-rule="evenodd" d="M71.8 99.3c-4.2 1.8-1.5 5 1.4 4.9-1.5 1.7 1 7.2 6 5.7-4 4 7.4 9.9 10.4 4.9 1 6 12.2 5.6 10.7-1.9 5 6.5 10.4.7 7.4-1.5 1.1 3.2-3.1 6-8.3 0 1.7 7.8-7.5 9-8.8 2.3-3.6 4-13.4 1.5-10.2-4.6-4 1.1-7.8-1.5-6.3-5.4-2.4.3-4.9-2.2-2.3-4.4Z"/><path fill="#BB6F12" fill-rule="evenodd" d="M221.9 66.8c4.7 1.6 2.6 5-1 5 1.8 1.6-.2 7-5.3 6.1 4.2 3.7-7.2 10.4-11 5.6-.3 6-12.4 6.4-11.6-1.1-4.7 6.8-11 1.3-8.1-1.4-.2 3.6 4 6.8 8.8-.2-.9 7.8 9.1 8.5 10.8 1.6 3.3 3.8 13.4.7 9.3-5.2 4.4 1.3 8.1-2 6-5.9 3.4.2 5-2.4 2-4.5Z"/><path fill="#771409" fill-rule="evenodd" d="M49.6 132.2c-5.2 1.4-3.1 6.4 1 6.3-2.8 4.5 6.7 5 7 1.3 2 3.4 10 5.4 13-.2-3.9 4.3-10.6 4-12.8-1.3-2.1 5.3-9.3 2.8-6.4 0-4.1-.5-5.8-3.8-1.8-6.1Z"/><path fill="#8C4110" fill-rule="evenodd" d="M184.5 112.3c5.2 3 .2 7-3.6 5.7.7 5-8.1 2.8-7.2-.5-3.1 2.3-11.4 1.8-12-3.8 1.9 4.5 8.5 5.7 12.5 2 .4 5.7 7.5 5.5 6 1.8 4.1.7 7-1.8 4.3-5.2Z"/><path fill="#965313" fill-rule="evenodd" d="M243.8 110.5c6 .2 5.3 5.5 2 6.3 3.6 3.7-5.3 6.3-7.3 2.8-.5 3.8-7.7 8-12.7 2.7 5.3 3.3 11.6 1 12.1-4 4.5 4.4 10.2.6 6.3-1.5 4.3-1.4 4.4-5-.4-6.3Z"/><path fill="#A85B0E" fill-rule="evenodd" d="M110.8 62.4c8.5 2.3 5.5 5.7-2.4 2.1 9.2 7.8-2.9 8-7.7 2.2-.5 6.4-10.2 8.6-12-.2C83 69.6 78.3 69.7 82 63c-6.6 5.2-1.2 8 6.2 5.3 2 5.2 9.6 7.5 13.5 1.4 7.8 4.2 13.7.4 10.4-3 8 .6 7.3-2.6-1.3-4.3Z"/></svg>