<?xml version="1.0" encoding="utf-8"?>
<!-- Generator: Adobe Illustrator 27.0.0, SVG Export Plug-In . SVG Version: 6.00 Build 0)  -->
<svg version="1.1" id="a" xmlns="http://www.w3.org/2000/svg" x="0px" y="0px"
     viewBox="0 0 3840 1080" style="enable-background:new 0 0 3840 1080;" xml:space="preserve">
<style type="text/css">
	.st0{fill:#B5A669;}
	.st1{fill:none;stroke:#584515;stroke-miterlimit:10;}
</style>
<path class="st0" d="M1920,961.8C1085.6,1008.9,356.3,911.1,0,962v0v118c957.1,0,2883.1,0,3840,0V961.8
	c-834.4,47.1-1563.7-50.6-1920,0.2"/>
<path class="st1" d="M1.6,983.5c11.4,7.6,8-2.5,23.4,1.7"/>
<path class="st1" d="M43,989.2c1-0.5,2.2-0.5,3.2-1"/>
<path class="st1" d="M68.7,988c6-0.1,12.1,0.5,17.8-1.7c4-0.8,8,2.2,11.9,1.3c5.2-2.8,7.9-3.2,12.7,0.6"/>
<path class="st1" d="M110.7,983.1l2.9,2.1"/>
<path class="st1" d="M145.7,969.4c8.2-1.5,10.5,0.9,17.7,3.4c7.4,2.4,14.2-6.3,21.4-1.6"/>
<path class="st1" d="M195.9,997.2c1.2,1.5,2.9,2.7,4.4,0.8c2.4-1.3,5.4-1.3,8-2"/>
<path class="st1" d="M215.8,985.2c1.4,0.1,2.9,0.1,4.3-0.1"/>
<path class="st1" d="M241.4,974c1-0.5,2-1.9,1.4-3"/>
<path class="st1" d="M160.3,1001.6c9,6.1,10.1,5.1,20.9,3.6"/>
<path class="st1" d="M229.3,1015.6c29.3-11.6,19,20.1,73.1,1.9"/>
<path class="st1" d="M270.8,956.6c-6.2,8.1-2,6.2-10,4.6"/>
<path class="st1" d="M278,981.9c1.7,0.2,3.3-0.9,4.9-1.4c3.8-1,7.8,0.2,11.6,0.5"/>
<path class="st1" d="M300.7,1006c2.2-1,4.4-0.7,6.2,0.8c3.7,2.2,8.4,0.6,12.6,1.1"/>
<path class="st1" d="M199.8,1030.4c4.1-1.3,8.5-0.6,12.8,0.2c2.5,0.4,5,0.8,7.5,1.3"/>
<path class="st1" d="M266.2,1042.7c13.7,0.3,26.4-4.2,40.1-4"/>
<path class="st1" d="M99.9,1029.7c5-0.8,9.8-3.1,15-2.7"/>
<path class="st1" d="M119.8,1010.4c8-2.9,17.2-2.2,24.8,1.7"/>
<path class="st1" d="M124.1,1042.5c20,9.9,12.7,12.1,38.1,6.7"/>
<path class="st1" d="M180.8,1065c6.3-2.5,13-3.9,19.8-4.1"/>
<path class="st1" d="M265.8,1064.3c4-0.5,7.9-1.8,11.6,0.5c9.5,3.2,18.6-3.6,27.9-4.5"/>
<path class="st1" d="M44.6,1056.1l0.1,3.2c4.2-3.3,7-10.7,13.6-9.5c3,0.6,5.5,3.6,8.4,2.9"/>
<path class="st1" d="M73.6,1048.9c4-0.3,8.1-0.5,12.1,0.3c2.9,0.6,5.7,1.7,8.6,1.3"/>
<path class="st1" d="M35.7,1010.5c2-0.3,3.9-0.9,5.8-1.6"/>
<path class="st1" d="M63,1007.7l2.8-0.7c0.7-0.2,1.5-0.4,2.2-0.2c0.6,0.1,1.1,0.5,1.5,0.8c6.9,4.5,15.8,4.2,24.1,3.7"/>
<path class="st1" d="M607.7,1053.6c-11.4-7.6-8,2.5-23.4-1.7"/>
<path class="st1" d="M552.6,1034.8c-1,0.5-2.2,0.5-3.2,1"/>
<path class="st1" d="M555.9,1058.7c-6,0.1-12.1-0.5-17.8,1.7c-4,0.8-8-2.2-11.9-1.3c-5.2,2.8-7.9,3.2-12.7-0.6"/>
<path class="st1" d="M514,1063.6l-2.9-2.1"/>
<path class="st1" d="M478.9,1054.2c-8.2,1.5-10.5-0.9-17.7-3.4c-7.4-2.4-14.2,6.3-21.4,1.6"/>
<path class="st1" d="M428.8,1049.5c-1.2-1.5-2.9-2.7-4.5-0.8c-2.4,1.3-5.4,1.3-8,2"/>
<path class="st1" d="M408.9,1061.5c-1.4-0.1-2.9-0.1-4.3,0.1"/>
<path class="st1" d="M383.3,1072.7c-1,0.5-2,1.9-1.4,3"/>
<path class="st1" d="M434.5,1016.2c-9-6.1-10.1-5.1-20.9-3.6"/>
<path class="st1" d="M394.4,1031.1c-29.3,11.6-19-20.1-73.1-1.9"/>
<path class="st1" d="M347.7,1054.6c6.2-8.1,2-6.2,10-4.6"/>
<path class="st1" d="M346.7,1064.8c-1.7-0.2-3.3,0.9-4.9,1.4c-3.8,1-7.8-0.2-11.6-0.5"/>
<path class="st1" d="M323.9,1040.7c-2.2,1-4.4,0.7-6.2-0.8c-3.7-2.2-8.4-0.6-12.6-1.1"/>
<path class="st1" d="M397.6,969c-4.1,1.3-8.5,0.6-12.8-0.2c-2.5-0.4-5-0.8-7.5-1.3"/>
<path class="st1" d="M358.4,1004c-13.7-0.3-26.4,4.2-40.1,4"/>
<path class="st1" d="M524.7,1017c-5,0.8-9.8,3.1-15,2.7"/>
<path class="st1" d="M504.9,1036.3c-8,2.9-17.2,2.2-24.8-1.7"/>
<path class="st1" d="M496.8,984.9c-20-9.9-12.7-12.1-38.1-6.7"/>
<path class="st1" d="M443.8,981.7c-6.3,2.5-13,3.9-19.8,4.1"/>
<path class="st1" d="M358.8,982.4c-4,0.5-7.9,1.8-11.6-0.5c-9.5-3.2-18.6,3.6-27.9,4.5"/>
<path class="st1" d="M580.1,990.6l-0.1-3.2c-4.2,3.3-7,10.7-13.6,9.5c-3-0.6-5.5-3.6-8.4-2.9"/>
<path class="st1" d="M551,997.8c-4,0.3-8.1,0.5-12.1-0.3c-2.9-0.6-5.7-1.7-8.6-1.3"/>
<path class="st1" d="M619.8,1013c-2,0.3-3.9,0.9-5.8,1.6"/>
<path class="st1" d="M614,1027.2l-2.8,0.7c-0.7,0.2-1.5,0.4-2.2,0.2c-0.6-0.1-1.1-0.5-1.5-0.8c-6.9-4.5-15.8-4.2-24.1-3.7"/>
<path class="st1" d="M610.2,977.1c11.4,7.6,8-2.5,23.4,1.7"/>
<path class="st1" d="M657.7,991.4c6-0.1,12.1,0.5,17.8-1.7c4-0.8,8,2.2,11.9,1.3c5.2-2.8,7.9-3.2,12.7,0.6"/>
<path class="st1" d="M699.7,986.5l2.9,2.1"/>
<path class="st1" d="M734.7,996c8.2-1.5,10.5,0.9,17.7,3.4c7.4,2.4,14.2-6.3,21.4-1.6"/>
<path class="st1" d="M784.9,1000.7c1.2,1.5,2.9,2.7,4.5,0.8c2.4-1.3,5.4-1.3,8-2"/>
<path class="st1" d="M804.8,988.7c1.4,0.1,2.9,0.1,4.3-0.1"/>
<path class="st1" d="M830.4,977.5c1-0.5,2-1.9,1.4-3"/>
<path class="st1" d="M752.4,1023.3c9,6.1,10.1,5.1,20.9,3.6"/>
<path class="st1" d="M819.2,1019c29.3-11.6,19,20.1,73.1,1.9"/>
<path class="st1" d="M865.9,995.6c-6.2,8.1-2,6.2-10,4.6"/>
<path class="st1" d="M867,985.4c1.7,0.2,3.3-0.9,4.9-1.4c3.8-1,7.8,0.2,11.7,0.5"/>
<path class="st1" d="M889.7,1009.4c2.2-1,4.4-0.7,6.2,0.8c3.7,2.2,8.4,0.6,12.6,1.1"/>
<path class="st1" d="M788.8,1033.9c4.1-1.3,8.5-0.6,12.8,0.2c2.5,0.4,5,0.8,7.5,1.3"/>
<path class="st1" d="M855.2,1046.2c13.7,0.3,26.4-4.2,40.1-4"/>
<path class="st1" d="M688.9,1033.2c5-0.8,9.8-3.1,15-2.7"/>
<path class="st1" d="M708.8,1013.8c8-2.9,17.2-2.2,24.8,1.7"/>
<path class="st1" d="M713.1,1045.9c20,9.9,12.7,12.1,38.1,6.7"/>
<path class="st1" d="M769.8,1068.5c6.3-2.5,13-3.9,19.8-4.1"/>
<path class="st1" d="M854.8,1067.8c4-0.5,7.9-1.8,11.6,0.5c9.5,3.2,18.6-3.6,27.9-4.5"/>
<path class="st1" d="M633.6,1059.6l0.1,3.2c4.2-3.3,7-10.7,13.6-9.5c3,0.6,5.5,3.6,8.4,2.9"/>
<path class="st1" d="M662.6,1052.4c4-0.3,8.1-0.5,12.1,0.3c2.9,0.6,5.7,1.7,8.6,1.3"/>
<path class="st1" d="M652,1011.2l2.8-0.7c0.7-0.2,1.5-0.4,2.2-0.2c0.6,0.1,1.1,0.5,1.5,0.8c6.9,4.5,15.8,4.2,24.1,3.7"/>
<path class="st1" d="M1212,1066.7c-11.4-7.6-8,2.5-23.4-1.7"/>
<path class="st1" d="M1170.6,1060.9c-1,0.5-2.2,0.5-3.2,1"/>
<path class="st1" d="M1144.9,1062.2c-6,0.1-12.1-0.5-17.8,1.7c-4,0.8-8-2.2-11.9-1.3c-5.2,2.8-7.9,3.2-12.7-0.6"/>
<path class="st1" d="M1103,1067.1c-1-0.7-1.9-1.4-2.9-2.1"/>
<path class="st1" d="M1067.9,1057.7c-8.2,1.5-10.5-0.9-17.7-3.4c-7.4-2.4-14.2,6.3-21.4,1.6"/>
<path class="st1" d="M1017.8,1053c-1.2-1.5-2.9-2.7-4.5-0.8c-2.4,1.3-5.4,1.3-8,2"/>
<path class="st1" d="M997.9,1065c-1.4-0.1-2.9-0.1-4.3,0.1"/>
<path class="st1" d="M973,1062.9c-1,0.5-2,1.9-1.4,3"/>
<path class="st1" d="M1050.3,1030.3c-9-6.1-10.1-5.1-20.9-3.6"/>
<path class="st1" d="M983.4,1034.6c-29.3,11.6-19-20.1-73.1-1.9"/>
<path class="st1" d="M936.7,1058.1c6.2-8.1,2-6.2,10-4.6"/>
<path class="st1" d="M935.7,1068.3c-1.7-0.2-3.3,0.9-4.9,1.4c-3.8,1-7.8-0.2-11.7-0.5"/>
<path class="st1" d="M912.9,1044.2c-2.2,1-4.4,0.7-6.2-0.8c-3.7-2.2-8.4-0.6-12.6-1.1"/>
<path class="st1" d="M1013.8,1019.8c-4.1,1.3-8.5,0.6-12.8-0.2c-2.5-0.4-5-0.8-7.5-1.3"/>
<path class="st1" d="M933,997.8c-13.7-0.3-26.4,4.2-40.1,4"/>
<path class="st1" d="M1113.7,1020.5c-5,0.8-9.8,3.1-15,2.7"/>
<path class="st1" d="M1093.9,1039.8c-8,2.9-17.2,2.2-24.8-1.7"/>
<path class="st1" d="M1089.6,1007.7c-20-9.9-12.7-12.1-38.1-6.7"/>
<path class="st1" d="M993.3,996.1c-6.3,2.5-13,3.9-19.8,4.1"/>
<path class="st1" d="M947.8,985.9c-4,0.5-7.9,1.8-11.6-0.5c-9.5-3.2-18.6,3.6-27.9,4.5"/>
<path class="st1" d="M1169.1,994.1c0-1.1-0.1-2.1-0.1-3.2c-4.2,3.3-7,10.7-13.6,9.5c-3-0.6-5.5-3.6-8.4-2.9"/>
<path class="st1" d="M1140,1001.3c-4,0.3-8.1,0.5-12.1-0.3c-2.9-0.6-5.7-1.7-8.6-1.3"/>
<path class="st1" d="M1177.9,1039.7c-2,0.3-3.9,0.9-5.8,1.6"/>
<path class="st1" d="M1150.7,1042.5l-2.8,0.7c-0.7,0.2-1.5,0.4-2.2,0.2c-0.6-0.1-1.1-0.5-1.5-0.8c-6.9-4.5-15.8-4.2-24.1-3.7"/>
<path class="st1" d="M1306.5,1056.9c-11.4-7.6-8,2.5-23.4-1.7"/>
<path class="st1" d="M1251.4,1038c-1,0.5-2.2,0.5-3.2,1"/>
<path class="st1" d="M1254.7,1062c-6,0.1-12.1-0.5-17.8,1.7c-4,0.8-8-2.2-11.9-1.3c-5.2,2.8-7.9,3.2-12.7-0.6"/>
<path class="st1" d="M1212.7,1066.9l-2.9-2.1"/>
<path class="st1" d="M1223.5,1020.3c-5,0.8-9.8,3.1-15,2.7"/>
<path class="st1" d="M1203.6,1039.6c-8,2.9-17.2,2.2-24.8-1.7"/>
<path class="st1" d="M1278.9,993.9c0-1.1-0.1-2.1-0.1-3.2c-4.2,3.3-7,10.7-13.6,9.5c-3-0.6-5.5-3.6-8.4-2.9"/>
<path class="st1" d="M1249.8,1001c-4,0.3-8.1,0.5-12.1-0.3c-2.9-0.6-5.7-1.7-8.6-1.3"/>
<path class="st1" d="M1318.6,1016.3c-2,0.3-3.9,0.9-5.8,1.6"/>
<path class="st1" d="M1312.7,1030.5l-2.8,0.7c-0.7,0.2-1.5,0.4-2.2,0.2c-0.6-0.1-1.1-0.5-1.5-0.8c-6.9-4.5-15.8-4.2-24.1-3.7"/>
<path class="st1" d="M1356.5,994.7c6-0.1,12.1,0.5,17.8-1.7c4-0.8,8,2.2,11.9,1.3c5.2-2.8,7.9-3.2,12.7,0.6"/>
<path class="st1" d="M1398.4,989.8l2.9,2.1"/>
<path class="st1" d="M1433.5,999.3c8.2-1.5,10.5,0.9,17.7,3.4c7.4,2.4,14.2-6.3,21.4-1.6"/>
<path class="st1" d="M1483.7,1003.9c1.2,1.5,2.9,2.7,4.4,0.8c2.4-1.3,5.4-1.3,8-2"/>
<path class="st1" d="M1503.6,992c1.4,0.1,2.9,0.1,4.3-0.1"/>
<path class="st1" d="M1451.1,1026.6c9,6.1,10.1,5.1,20.9,3.6"/>
<path class="st1" d="M1555.2,1023.8c29.3-11.6,19,20.1,73.1,1.9"/>
<path class="st1" d="M1538.9,998.8c-6.2,8.1-2,6.2-10,4.6"/>
<path class="st1" d="M1565.7,995.7c1.7,0.2,3.3-0.9,4.9-1.4c3.8-1,7.8,0.2,11.7,0.5"/>
<path class="st1" d="M1625.7,1014.2c2.2-1,4.4-0.7,6.2,0.8c3.7,2.2,8.4,0.6,12.6,1.1"/>
<path class="st1" d="M1487.6,1037.1c4.1-1.3,8.5-0.6,12.8,0.2c2.5,0.4,5,0.8,7.5,1.3"/>
<path class="st1" d="M1522.8,1056c13.7,0.3,26.4-4.2,40.1-4"/>
<path class="st1" d="M1387.7,1036.4c5-0.8,9.8-3.1,15-2.7"/>
<path class="st1" d="M1407.6,1017.1c8-2.9,17.2-2.2,24.8,1.7"/>
<path class="st1" d="M1411.9,1049.2c20,9.9,12.7,12.1,38.1,6.7"/>
<path class="st1" d="M1468.6,1071.8c6.3-2.5,13-3.9,19.8-4.1"/>
<path class="st1" d="M1547.7,1066.7c4-0.5,7.9-1.8,11.6,0.5c9.5,3.2,18.6-3.6,27.9-4.5"/>
<path class="st1" d="M1332.3,1062.8c0,1.1,0.1,2.1,0.1,3.2c4.2-3.3,7-10.7,13.6-9.5c3,0.6,5.5,3.6,8.4,2.9"/>
<path class="st1" d="M1361.4,1055.7c4-0.3,8.1-0.5,12.1,0.3c2.9,0.6,5.7,1.7,8.6,1.3"/>
<path class="st1" d="M1350.7,1014.4l2.8-0.7c0.7-0.2,1.5-0.4,2.2-0.2c0.6,0.1,1.1,0.5,1.5,0.8c6.9,4.5,15.8,4.2,24.1,3.7"/>
<path class="st1" d="M1910.8,1069.9c-11.4-7.6-8,2.5-23.4-1.7"/>
<path class="st1" d="M1869.4,1064.2c-1,0.5-2.2,0.5-3.2,1"/>
<path class="st1" d="M1843.7,1065.5c-6,0.1-12.1-0.5-17.8,1.7c-4,0.8-8-2.2-11.9-1.3c-5.2,2.8-7.9,3.2-12.7-0.6"/>
<path class="st1" d="M1801.7,1070.4c-1-0.7-1.9-1.4-2.9-2.1"/>
<path class="st1" d="M1777.8,1064.4c-8.2,1.5-10.5-0.9-17.7-3.4c-7.4-2.4-14.2,6.3-21.4,1.6"/>
<path class="st1" d="M1727.7,1059.7c-1.2-1.5-2.9-2.7-4.4-0.8c-2.4,1.3-5.4,1.3-8,2"/>
<path class="st1" d="M1707.8,1071.7c-1.4-0.1-2.9-0.1-4.3,0.1"/>
<path class="st1" d="M1682.9,1069.7c-1,0.5-2,1.9-1.4,3"/>
<path class="st1" d="M1760.2,1037.1c-9-6.1-10.1-5.1-20.9-3.6"/>
<path class="st1" d="M1719.4,1039.4c-29.3,11.6-19-20.1-73.1-1.9"/>
<path class="st1" d="M1646.6,1064.8c6.2-8.1,2-6.2,10-4.6"/>
<path class="st1" d="M1645.6,1075c-1.7-0.2-3.3,0.9-4.9,1.4c-3.8,1-7.8-0.2-11.7-0.5"/>
<path class="st1" d="M1622.8,1051c-2.2,1-4.4,0.7-6.2-0.8c-3.7-2.2-8.4-0.6-12.6-1.1"/>
<path class="st1" d="M1713.6,1011.8c-4.1,1.3-8.5,0.6-12.8-0.2c-2.5-0.4-5-0.8-7.5-1.3"/>
<path class="st1" d="M1778.4,1011.6c-13.7-0.3-26.4,4.2-40.1,4"/>
<path class="st1" d="M1837.9,1015.4c-5,0.8-9.8,3.1-15,2.7"/>
<path class="st1" d="M1818,1034.7c-8,2.9-17.2,2.2-24.8-1.7"/>
<path class="st1" d="M1813.7,1002.6c-20-9.9-12.7-12.1-38.1-6.7"/>
<path class="st1" d="M1729.3,995.6c-6.3,1-13,1.6-19.8,1.7"/>
<path class="st1" d="M1646.6,989.1c-4,0.5-7.9,1.8-11.6-0.5c-9.5-3.2-18.6,3.6-27.9,4.5"/>
<path class="st1" d="M1893.2,989c0-1.1-0.1-2.1-0.1-3.2c-4.2,3.3-7,10.7-13.6,9.5c-3-0.6-5.5-3.6-8.4-2.9"/>
<path class="st1" d="M1864.2,996.2c-4,0.3-8.1,0.5-12.1-0.3c-2.9-0.6-5.7-1.7-8.6-1.3"/>
<path class="st1" d="M1902,1034.6c-2,0.3-3.9,0.9-5.8,1.6"/>
<path class="st1" d="M1874.8,1037.4l-2.8,0.7c-0.7,0.2-1.5,0.4-2.2,0.2c-0.6-0.1-1.1-0.5-1.5-0.8c-6.9-4.5-15.8-4.2-24.1-3.7"/>
<path class="st0" d="M1920,961.8L1920,961.8"/>
<path class="st1" d="M1921.6,983.5c11.4,7.6,8-2.5,23.4,1.7"/>
<path class="st1" d="M1963,989.2c1-0.5,2.2-0.5,3.2-1"/>
<path class="st1" d="M1988.7,988c6-0.1,12.1,0.5,17.8-1.7c4-0.8,8,2.2,11.9,1.3c5.2-2.8,7.9-3.2,12.7,0.6"/>
<path class="st1" d="M2030.7,983.1l2.9,2.1"/>
<path class="st1" d="M2065.7,969.4c8.2-1.5,10.5,0.9,17.7,3.4c7.4,2.4,14.2-6.3,21.4-1.6"/>
<path class="st1" d="M2115.9,997.2c1.2,1.5,2.9,2.7,4.4,0.8c2.4-1.3,5.4-1.3,8-2"/>
<path class="st1" d="M2135.8,985.2c1.4,0.1,2.9,0.1,4.3-0.1"/>
<path class="st1" d="M2161.4,974c1-0.5,2-1.9,1.4-3"/>
<path class="st1" d="M2080.3,1001.6c9,6.1,10.1,5.1,20.9,3.6"/>
<path class="st1" d="M2149.3,1015.6c29.3-11.6,19,20.1,73.1,1.9"/>
<path class="st1" d="M2190.8,956.6c-6.2,8.1-2,6.2-10,4.6"/>
<path class="st1" d="M2198,981.9c1.7,0.2,3.3-0.9,4.9-1.4c3.8-1,7.8,0.2,11.7,0.5"/>
<path class="st1" d="M2220.7,1006c2.2-1,4.4-0.7,6.2,0.8c3.7,2.2,8.4,0.6,12.6,1.1"/>
<path class="st1" d="M2119.8,1030.4c4.1-1.3,8.5-0.6,12.8,0.2c2.5,0.4,5,0.8,7.5,1.3"/>
<path class="st1" d="M2186.2,1042.7c13.7,0.3,26.4-4.2,40.1-4"/>
<path class="st1" d="M2019.9,1029.7c5-0.8,9.8-3.1,15-2.7"/>
<path class="st1" d="M2039.8,1010.4c8-2.9,17.2-2.2,24.8,1.7"/>
<path class="st1" d="M2044.1,1042.5c20,9.9,12.7,12.1,38.1,6.7"/>
<path class="st1" d="M2100.8,1065c6.3-2.5,13-3.9,19.8-4.1"/>
<path class="st1" d="M2185.8,1064.3c4-0.5,7.9-1.8,11.6,0.5c9.5,3.2,18.6-3.6,27.9-4.5"/>
<path class="st1" d="M1964.6,1056.1l0.1,3.2c4.2-3.3,7-10.7,13.6-9.5c3,0.6,5.5,3.6,8.4,2.9"/>
<path class="st1" d="M1993.6,1048.9c4-0.3,8.1-0.5,12.1,0.3c2.9,0.6,5.7,1.7,8.6,1.3"/>
<path class="st1" d="M1955.7,1010.5c2-0.3,3.9-0.9,5.8-1.6"/>
<path class="st1" d="M1983,1007.7l2.8-0.7c0.7-0.2,1.5-0.4,2.2-0.2c0.6,0.1,1.1,0.5,1.5,0.8c6.9,4.5,15.8,4.2,24.1,3.7"/>
<path class="st1" d="M2527.7,1053.6c-11.4-7.6-8,2.5-23.4-1.7"/>
<path class="st1" d="M2472.6,1034.8c-1,0.5-2.2,0.5-3.2,1"/>
<path class="st1" d="M2475.9,1058.7c-6,0.1-12.1-0.5-17.8,1.7c-4,0.8-8-2.2-11.9-1.3c-5.2,2.8-7.9,3.2-12.7-0.6"/>
<path class="st1" d="M2434,1063.6l-2.9-2.1"/>
<path class="st1" d="M2398.9,1054.2c-8.2,1.5-10.5-0.9-17.7-3.4c-7.4-2.4-14.2,6.3-21.4,1.6"/>
<path class="st1" d="M2348.8,1049.5c-1.2-1.5-2.9-2.7-4.4-0.8c-2.4,1.3-5.4,1.3-8,2"/>
<path class="st1" d="M2328.9,1061.5c-1.4-0.1-2.9-0.1-4.3,0.1"/>
<path class="st1" d="M2303.3,1072.7c-1,0.5-2,1.9-1.4,3"/>
<path class="st1" d="M2354.5,1016.2c-9-6.1-10.1-5.1-20.9-3.6"/>
<path class="st1" d="M2314.4,1031.1c-29.3,11.6-19-20.1-73.1-1.9"/>
<path class="st1" d="M2267.7,1054.6c6.2-8.1,2-6.2,10-4.6"/>
<path class="st1" d="M2266.7,1064.8c-1.7-0.2-3.3,0.9-4.9,1.4c-3.8,1-7.8-0.2-11.7-0.5"/>
<path class="st1" d="M2243.9,1040.7c-2.2,1-4.4,0.7-6.2-0.8c-3.7-2.2-8.4-0.6-12.6-1.1"/>
<path class="st1" d="M2317.6,969c-4.1,1.3-8.5,0.6-12.8-0.2c-2.5-0.4-5-0.8-7.5-1.3"/>
<path class="st1" d="M2278.4,1004c-13.7-0.3-26.4,4.2-40.1,4"/>
<path class="st1" d="M2444.7,1017c-5,0.8-9.8,3.1-15,2.7"/>
<path class="st1" d="M2424.9,1036.3c-8,2.9-17.2,2.2-24.8-1.7"/>
<path class="st1" d="M2416.8,984.9c-20-9.9-12.7-12.1-38.1-6.7"/>
<path class="st1" d="M2363.8,981.7c-6.3,2.5-13,3.9-19.8,4.1"/>
<path class="st1" d="M2278.8,982.4c-4,0.5-7.9,1.8-11.6-0.5c-9.5-3.2-18.6,3.6-27.9,4.5"/>
<path class="st1" d="M2500.1,990.6l-0.1-3.2c-4.2,3.3-7,10.7-13.6,9.5c-3-0.6-5.5-3.6-8.4-2.9"/>
<path class="st1" d="M2471,997.8c-4,0.3-8.1,0.5-12.1-0.3c-2.9-0.6-5.7-1.7-8.6-1.3"/>
<path class="st1" d="M2539.8,1013c-2,0.3-3.9,0.9-5.8,1.6"/>
<path class="st1" d="M2534,1027.2l-2.8,0.7c-0.7,0.2-1.5,0.4-2.2,0.2c-0.6-0.1-1.1-0.5-1.5-0.8c-6.9-4.5-15.8-4.2-24.1-3.7"/>
<path class="st1" d="M2530.2,977.1c11.4,7.6,8-2.5,23.4,1.7"/>
<path class="st1" d="M2577.7,991.4c6-0.1,12.1,0.5,17.8-1.7c4-0.8,8,2.2,11.9,1.3c5.2-2.8,7.9-3.2,12.7,0.6"/>
<path class="st1" d="M2619.7,986.5l2.9,2.1"/>
<path class="st1" d="M2654.7,996c8.2-1.5,10.5,0.9,17.7,3.4c7.4,2.4,14.2-6.3,21.4-1.6"/>
<path class="st1" d="M2704.9,1000.7c1.2,1.5,2.9,2.7,4.4,0.8c2.4-1.3,5.4-1.3,8-2"/>
<path class="st1" d="M2724.8,988.7c1.4,0.1,2.9,0.1,4.3-0.1"/>
<path class="st1" d="M2750.4,977.5c1-0.5,2-1.9,1.4-3"/>
<path class="st1" d="M2672.4,1023.3c9,6.1,10.1,5.1,20.9,3.6"/>
<path class="st1" d="M2739.2,1019c29.3-11.6,19,20.1,73.1,1.9"/>
<path class="st1" d="M2785.9,995.6c-6.2,8.1-2,6.2-10,4.6"/>
<path class="st1" d="M2787,985.4c1.7,0.2,3.3-0.9,4.9-1.4c3.8-1,7.8,0.2,11.7,0.5"/>
<path class="st1" d="M2809.7,1009.4c2.2-1,4.4-0.7,6.2,0.8c3.7,2.2,8.4,0.6,12.6,1.1"/>
<path class="st1" d="M2708.9,1033.9c4.1-1.3,8.5-0.6,12.8,0.2c2.5,0.4,5,0.8,7.5,1.3"/>
<path class="st1" d="M2775.2,1046.2c13.7,0.3,26.4-4.2,40.1-4"/>
<path class="st1" d="M2608.9,1033.2c5-0.8,9.8-3.1,15-2.7"/>
<path class="st1" d="M2628.8,1013.8c8-2.9,17.2-2.2,24.8,1.7"/>
<path class="st1" d="M2633.1,1045.9c20,9.9,12.7,12.1,38.1,6.7"/>
<path class="st1" d="M2689.8,1068.5c6.3-2.5,13-3.9,19.8-4.1"/>
<path class="st1" d="M2774.8,1067.8c4-0.5,7.9-1.8,11.6,0.5c9.5,3.2,18.6-3.6,27.9-4.5"/>
<path class="st1" d="M2553.6,1059.6l0.1,3.2c4.2-3.3,7-10.7,13.6-9.5c3,0.6,5.5,3.6,8.4,2.9"/>
<path class="st1" d="M2582.6,1052.4c4-0.3,8.1-0.5,12.1,0.3c2.9,0.6,5.7,1.7,8.6,1.3"/>
<path class="st1" d="M2572,1011.2l2.8-0.7c0.7-0.2,1.5-0.4,2.2-0.2c0.6,0.1,1.1,0.5,1.5,0.8c6.9,4.5,15.8,4.2,24.1,3.7"/>
<path class="st1" d="M3132,1066.7c-11.4-7.6-8,2.5-23.4-1.7"/>
<path class="st1" d="M3090.6,1060.9c-1,0.5-2.2,0.5-3.2,1"/>
<path class="st1" d="M3064.9,1062.2c-6,0.1-12.1-0.5-17.8,1.7c-4,0.8-8-2.2-11.9-1.3c-5.2,2.8-7.9,3.2-12.7-0.6"/>
<path class="st1" d="M3023,1067.1c-1-0.7-1.9-1.4-2.9-2.1"/>
<path class="st1" d="M2987.9,1057.7c-8.2,1.5-10.5-0.9-17.7-3.4c-7.4-2.4-14.2,6.3-21.4,1.6"/>
<path class="st1" d="M2937.8,1053c-1.2-1.5-2.9-2.7-4.4-0.8c-2.4,1.3-5.4,1.3-8,2"/>
<path class="st1" d="M2917.9,1065c-1.4-0.1-2.9-0.1-4.3,0.1"/>
<path class="st1" d="M2893,1062.9c-1,0.5-2,1.9-1.4,3"/>
<path class="st1" d="M2970.3,1030.3c-9-6.1-10.1-5.1-20.9-3.6"/>
<path class="st1" d="M2903.4,1034.6c-29.3,11.6-19-20.1-73.1-1.9"/>
<path class="st1" d="M2856.7,1058.1c6.2-8.1,2-6.2,10-4.6"/>
<path class="st1" d="M2855.7,1068.3c-1.7-0.2-3.3,0.9-4.9,1.4c-3.8,1-7.8-0.2-11.7-0.5"/>
<path class="st1" d="M2832.9,1044.2c-2.2,1-4.4,0.7-6.2-0.8c-3.7-2.2-8.4-0.6-12.6-1.1"/>
<path class="st1" d="M2933.8,1019.8c-4.1,1.3-8.5,0.6-12.8-0.2c-2.5-0.4-5-0.8-7.5-1.3"/>
<path class="st1" d="M2853,997.8c-13.7-0.3-26.4,4.2-40.1,4"/>
<path class="st1" d="M3033.7,1020.5c-5,0.8-9.8,3.1-15,2.7"/>
<path class="st1" d="M3013.9,1039.8c-8,2.9-17.2,2.2-24.8-1.7"/>
<path class="st1" d="M3009.6,1007.7c-20-9.9-12.7-12.1-38.1-6.7"/>
<path class="st1" d="M2913.3,996.1c-6.3,2.5-13,3.9-19.8,4.1"/>
<path class="st1" d="M2867.8,985.9c-4,0.5-7.9,1.8-11.6-0.5c-9.5-3.2-18.6,3.6-27.9,4.5"/>
<path class="st1" d="M3089.1,994.1c0-1.1-0.1-2.1-0.1-3.2c-4.2,3.3-7,10.7-13.6,9.5c-3-0.6-5.5-3.6-8.4-2.9"/>
<path class="st1" d="M3060,1001.3c-4,0.3-8.1,0.5-12.1-0.3c-2.9-0.6-5.7-1.7-8.6-1.3"/>
<path class="st1" d="M3097.9,1039.7c-2,0.3-3.9,0.9-5.8,1.6"/>
<path class="st1" d="M3070.7,1042.5l-2.8,0.7c-0.7,0.2-1.5,0.4-2.2,0.2c-0.6-0.1-1.1-0.5-1.5-0.8c-6.9-4.5-15.8-4.2-24.1-3.7"/>
<path class="st1" d="M3226.5,1056.9c-11.4-7.6-8,2.5-23.4-1.7"/>
<path class="st1" d="M3171.4,1038c-1,0.5-2.2,0.5-3.2,1"/>
<path class="st1" d="M3174.7,1062c-6,0.1-12.1-0.5-17.8,1.7c-4,0.8-8-2.2-11.9-1.3c-5.2,2.8-7.9,3.2-12.7-0.6"/>
<path class="st1" d="M3132.7,1066.9l-2.9-2.1"/>
<path class="st1" d="M3143.5,1020.3c-5,0.8-9.8,3.1-15,2.7"/>
<path class="st1" d="M3123.6,1039.6c-8,2.9-17.2,2.2-24.8-1.7"/>
<path class="st1" d="M3198.9,993.9c0-1.1-0.1-2.1-0.1-3.2c-4.2,3.3-7,10.7-13.6,9.5c-3-0.6-5.5-3.6-8.4-2.9"/>
<path class="st1" d="M3169.8,1001c-4,0.3-8.1,0.5-12.1-0.3c-2.9-0.6-5.7-1.7-8.6-1.3"/>
<path class="st1" d="M3238.6,1016.3c-2,0.3-3.9,0.9-5.8,1.6"/>
<path class="st1" d="M3232.7,1030.5l-2.8,0.7c-0.7,0.2-1.5,0.4-2.2,0.2c-0.6-0.1-1.1-0.5-1.5-0.8c-6.9-4.5-15.8-4.2-24.1-3.7"/>
<path class="st1" d="M3276.5,994.7c6-0.1,12.1,0.5,17.8-1.7c4-0.8,8,2.2,11.9,1.3c5.2-2.8,7.9-3.2,12.7,0.6"/>
<path class="st1" d="M3318.4,989.8l2.9,2.1"/>
<path class="st1" d="M3353.5,999.3c8.2-1.5,10.5,0.9,17.7,3.4c7.4,2.4,14.2-6.3,21.4-1.6"/>
<path class="st1" d="M3403.7,1003.9c1.2,1.5,2.9,2.7,4.4,0.8c2.4-1.3,5.4-1.3,8-2"/>
<path class="st1" d="M3423.6,992c1.4,0.1,2.9,0.1,4.3-0.1"/>
<path class="st1" d="M3371.1,1026.6c9,6.1,10.1,5.1,20.9,3.6"/>
<path class="st1" d="M3475.2,1023.8c29.3-11.6,19,20.1,73.1,1.9"/>
<path class="st1" d="M3458.9,998.8c-6.2,8.1-2,6.2-10,4.6"/>
<path class="st1" d="M3485.7,995.7c1.7,0.2,3.3-0.9,4.9-1.4c3.8-1,7.8,0.2,11.7,0.5"/>
<path class="st1" d="M3545.7,1014.2c2.2-1,4.4-0.7,6.2,0.8c3.7,2.2,8.4,0.6,12.6,1.1"/>
<path class="st1" d="M3407.6,1037.1c4.1-1.3,8.5-0.6,12.8,0.2c2.5,0.4,5,0.8,7.5,1.3"/>
<path class="st1" d="M3442.8,1056c13.7,0.3,26.4-4.2,40.1-4"/>
<path class="st1" d="M3307.7,1036.4c5-0.8,9.8-3.1,15-2.7"/>
<path class="st1" d="M3327.6,1017.1c8-2.9,17.2-2.2,24.8,1.7"/>
<path class="st1" d="M3331.9,1049.2c20,9.9,12.7,12.1,38.1,6.7"/>
<path class="st1" d="M3388.6,1071.8c6.3-2.5,13-3.9,19.8-4.1"/>
<path class="st1" d="M3467.7,1066.7c4-0.5,7.9-1.8,11.6,0.5c9.5,3.2,18.6-3.6,27.9-4.5"/>
<path class="st1" d="M3252.3,1062.8c0,1.1,0.1,2.1,0.1,3.2c4.2-3.3,7-10.7,13.6-9.5c3,0.6,5.5,3.6,8.4,2.9"/>
<path class="st1" d="M3281.4,1055.7c4-0.3,8.1-0.5,12.1,0.3c2.9,0.6,5.7,1.7,8.6,1.3"/>
<path class="st1" d="M3270.7,1014.4l2.8-0.7c0.7-0.2,1.5-0.4,2.2-0.2c0.6,0.1,1.1,0.5,1.5,0.8c6.9,4.5,15.8,4.2,24.1,3.7"/>
<path class="st1" d="M3830.8,1069.9c-11.4-7.6-8,2.5-23.4-1.7"/>
<path class="st1" d="M3789.4,1064.2c-1,0.5-2.2,0.5-3.2,1"/>
<path class="st1" d="M3763.7,1065.5c-6,0.1-12.1-0.5-17.8,1.7c-4,0.8-8-2.2-11.9-1.3c-5.2,2.8-7.9,3.2-12.7-0.6"/>
<path class="st1" d="M3721.7,1070.4c-1-0.7-1.9-1.4-2.9-2.1"/>
<path class="st1" d="M3697.8,1064.4c-8.2,1.5-10.5-0.9-17.7-3.4c-7.4-2.4-14.2,6.3-21.4,1.6"/>
<path class="st1" d="M3647.7,1059.7c-1.2-1.5-2.9-2.7-4.4-0.8c-2.4,1.3-5.4,1.3-8,2"/>
<path class="st1" d="M3627.8,1071.7c-1.4-0.1-2.9-0.1-4.3,0.1"/>
<path class="st1" d="M3602.9,1069.7c-1,0.5-2,1.9-1.4,3"/>
<path class="st1" d="M3680.2,1037.1c-9-6.1-10.1-5.1-20.9-3.6"/>
<path class="st1" d="M3639.4,1039.4c-29.3,11.6-19-20.1-73.1-1.9"/>
<path class="st1" d="M3566.6,1064.8c6.2-8.1,2-6.2,10-4.6"/>
<path class="st1" d="M3565.6,1075c-1.7-0.2-3.3,0.9-4.9,1.4c-3.8,1-7.8-0.2-11.7-0.5"/>
<path class="st1" d="M3542.8,1051c-2.2,1-4.4,0.7-6.2-0.8c-3.7-2.2-8.4-0.6-12.6-1.1"/>
<path class="st1" d="M3633.6,1011.8c-4.1,1.3-8.5,0.6-12.8-0.2c-2.5-0.4-5-0.8-7.5-1.3"/>
<path class="st1" d="M3698.4,1011.6c-13.7-0.3-26.4,4.2-40.1,4"/>
<path class="st1" d="M3757.9,1015.4c-5,0.8-9.8,3.1-15,2.7"/>
<path class="st1" d="M3738,1034.7c-8,2.9-17.2,2.2-24.8-1.7"/>
<path class="st1" d="M3733.7,1002.6c-20-9.9-12.7-12.1-38.1-6.7"/>
<path class="st1" d="M3649.3,995.6c-6.3,1-13,1.6-19.8,1.7"/>
<path class="st1" d="M3566.6,989.1c-4,0.5-7.9,1.8-11.6-0.5c-9.5-3.2-18.6,3.6-27.9,4.5"/>
<path class="st1" d="M3813.2,989c0-1.1-0.1-2.1-0.1-3.2c-4.2,3.3-7,10.7-13.6,9.5c-3-0.6-5.5-3.6-8.4-2.9"/>
<path class="st1" d="M3784.2,996.2c-4,0.3-8.1,0.5-12.1-0.3c-2.9-0.6-5.7-1.7-8.6-1.3"/>
<path class="st1" d="M3822,1034.6c-2,0.3-3.9,0.9-5.8,1.6"/>
<path class="st1" d="M3794.8,1037.4l-2.8,0.7c-0.7,0.2-1.5,0.4-2.2,0.2c-0.6-0.1-1.1-0.5-1.5-0.8c-6.9-4.5-15.8-4.2-24.1-3.7"/>
<path class="st0" d="M3840,1079.8v-118v0"/>
</svg>
