<svg xmlns="http://www.w3.org/2000/svg" viewBox="0 0 290 209"><path fill="#813F1A" d="M266 174c27-8 30-45 0-41 18-8 9-36-7-24 14-35-30-15-39 0 3-22-37-37-46-19-5-25-27-13-36 7-4-23-37-56-38-8-22-27-23 57 5 71 29 15 76 8 76 8s66 12 85 6Z"/><path fill="#A75E18" d="M205 149c-5-31 6-40 12-31-6-26 0-62 14-57-6-53 19-66 18-17 12-12 11 45-3 58 20 7 13 34 3 42-11 8-23 14-23 14s-18 9-21-9Z"/><path fill="#C04814" d="M157 144c-6-7-12-31-2-40-4-14-1-30 0-43 2-10 11-15 13-2-6-63 22-86 19-11 3 12 2 31-3 40 6 14 5 35 1 45 5 11 5 33-2 35-7 3-19-17-26-24Z"/><path fill="#8CBC30" d="M172 139c3-13 20-15 20-2 6-12 39-7 33 10 10 10 0 8-4 9l-41 1s-10-9-8-18Z"/><path fill="#8D9E19" d="M149 127c1-37-85-38-90-1-15-7-44-2-57 27-8 20 8 29 41 19 2 24 66 29 85 10-18-30 20-40 21-55Z"/><path fill="#F0F121" d="M86 124c-1-6-5-13-9-12-1 5 3 11 9 12Zm15-5c2-4 12-8 16-6-5 9-10 10-16 6Zm-34 22c-5-6-12-9-20-5 3 7 12 10 20 5Z"/><path fill="#211E1B" d="M94 162s-26-19-31-25l14 10c-3-4-3-22-2-27 0 10 2 26 4 29l11 8c1-8-3-37-3-46l2 19c5-3 14-16 18-21l-17 24 1 16 9-18s-1 7-9 20v2l3 9Z"/><path fill="#B98B0B" d="M214 193c3 14-31 23-35 8-3 13-25 5-22-7-7 10-34 2-28-9-8 12-24 8-25-3-26 2-33-35 1-35-7-11 2-19 16-17-3-11 14-28 14-10 12-32 35-22 22 15 13-18 33-5 19 10 9-7 21-6 22 4 3-12 17-10 22-2 0-20 20-34 24-12 11-11 14 7 6 18 20-9 27 8 12 15 30-2 7 25-10 26-10 1-19-2-25-7 2 5-8 10-13 6Z"/><path fill="#F6D22F" d="M179 201c-3 13-25 5-22-7-7 10-34 2-28-9-7-15 12-44 22-32 8-16 21-16 13 13 13-9 18 11 9 16 20-9 15 14 6 19Z"/></svg>