<?xml version="1.0" encoding="UTF-8"?><svg id="a" xmlns="http://www.w3.org/2000/svg" viewBox="0 0 328.65046 284.98832"><defs><style>.b{fill:#fff;}.c{fill:#d318d3;stroke:#fff;stroke-miterlimit:10;stroke-width:10px;}</style></defs><ellipse class="c" cx="138.16707" cy="165.48207" rx="134.86486" ry="112.43243" transform="translate(-41.93483 47.00102) rotate(-16.80111)"/><ellipse class="c" cx="283.05826" cy="43.42867" rx="37.2973" ry="41.62162" transform="translate(103.9188 266.84998) rotate(-60)"/><g><path class="b" d="M65.97153,131.88759c22.61719,0,34.98047,.69141,37.08984,2.07422,.49219,.70312,.73828,2.70703,.73828,6.01172,0,8.46094-.48047,12.69141-1.44141,12.69141,0,.1875-.77344,.33984-2.32031,.45703l-11.17969-.10547c-2.08643,0-3.12891,.57422-3.12891,1.72266l-.14062,4.74658v1.96875c0,1.38281,.42188,2.07422,1.26562,2.07422,1.9917,.23438,6.15234,.46875,12.48047,.70312,.77344,0,1.19531,.71484,1.26562,2.14453v2.46094c0,3.16406-.45703,4.74609-1.37109,4.74609l-1.19531,.10547-9.87891-.10547c-1.33594,0-2.00391,.49219-2.00391,1.47656l-.10547,2.07422v3.9375c0,2.13281,.59766,3.19922,1.79297,3.19922l4.14844,.24609,5.02734-.10547h2.46094c3.42188,.21094,5.13281,1.01953,5.13281,2.42578l.10547,.45703v2.07422c0,2.46094-.70312,5.00391-2.10938,7.62891-1.21875,.60938-2.85986,.91406-4.92188,.91406l-17.12109-.24609-8.4375,.14062-.14062,.10547h-.10547l-.66797-.10547h-1.23047c-4.35938,0-7.11377-.46875-8.26172-1.40625-.75049,0-1.125-7.80469-1.125-23.41406v-4.04297c.1875-23.55518,.5625-35.33252,1.125-35.33252,.42188-1.14844,1.83984-1.72266,4.25391-1.72266Z"/><path class="b" d="M141.80356,154.35244c8.55469,.53906,12.83203,1.07812,12.83203,1.61719l.10547,.38672c0,.39844-2.15625,3.87939-6.46875,10.44189-3.07031,4.96875-4.60547,7.79297-4.60547,8.47266l12.41064,20.67188v.21094c0,.5625-3.37549,.84375-10.12549,.84375l-5.58984,.10547c-2.46094,0-4.41797-2.13281-5.87109-6.39844l-2.49609-6.36328h-.10547c-.28125,0-.69141,.99609-1.23047,2.98828-2.27344,6.30469-3.91406,9.45703-4.92188,9.45703-.53906,.30469-2.08594,.45703-4.64062,.45703h-5.87109c-3.91406-.09375-5.87109-.35156-5.87109-.77344,.28125-.89062,2.14453-4.24219,5.58984-10.05469,2.78906-4.92188,4.6875-8.61328,5.69531-11.07422,0-1.125-1.60547-4.32422-4.81641-9.59766-3.30469-4.94531-5.20312-7.96875-5.69531-9.0708v-.17578c0-.51562,4.52344-1.18359,13.57031-2.00391h.21094c1.64062,0,2.73047,.51562,3.26953,1.54688,1.71094,3.21143,3.41016,7.10205,5.09766,11.67236,.14062,0,.21094,.10547,.21094,.31641h.07031c.375-.44531,.92578-1.85156,1.65234-4.21875,2.36719-5.39062,3.71484-8.26221,4.04297-8.61377,1.10156-.5625,2.28516-.84375,3.55078-.84375Z"/><path class="b" d="M172.91733,131.11415l.80859,.03516c4.92188,.23438,8.33203,3.21094,10.23047,8.92969l.28125,2.74219-.07031,.94922c-.1875,4.19531-2.48438,7.44141-6.89062,9.73828-1.47656,.70312-3.04688,1.00781-4.71094,.91406l-.77344-.03516c-4.94531-.21094-8.35547-3.1875-10.23047-8.92969l-.28125-2.70703,.03516-.98438c.21094-4.17188,2.51953-7.40625,6.92578-9.70312,1.47656-.70312,3.03516-1.01953,4.67578-.94922Zm-1.40625,29.07471l2.56641,.31641,2.63672,.10547c4.6875,.21094,7.00781,.70312,6.96094,1.47656,.25781,2.83594,.39844,13.78125,.42188,32.83594-.09375,2.15625-1.60547,3.16406-4.53516,3.02344l-4.25391-.17578-7.45312-.14062c-3.1875-.14062-4.73438-1.17188-4.64062-3.09375-.60938-18.28125-.83203-29.02734-.66797-32.23828,.07031-1.54688,2.12109-2.22656,6.15234-2.03906l2.8125-.07031Z"/><path class="b" d="M210.04233,138.35634c1.42969,.16406,2.14453,.79688,2.14453,1.89844,.25781,.35156,.41016,1.71094,.45703,4.07812-.04688,2.83594-.17578,4.89844-.38672,6.1875l4.42969-.28125c4.125,0,6.1875,.79688,6.1875,2.39062,.1875,.07031,.31641,1.03125,.38672,2.88281v.10547c-.32812,5.67236-1.17188,8.76611-2.53125,9.28174l-.66797,.10547c-1.61719,0-4.21875-.5625-7.80469-1.6875v.10547l-.28125,14.55469c0,3.02344,.44531,4.92188,1.33594,5.69531,.89062,.53906,1.98047,.80859,3.26953,.80859,.9375,0,3.25781-.21094,6.96094-.63281,1.07812,0,1.75781,.39844,2.03906,1.19531,.1875,.42188,.28125,1.05469,.28125,1.89844,0,2.74219-1.14844,6.04688-3.44531,9.91406-1.59375,1.05469-3.91406,1.88672-6.96094,2.49609l-2.21484,.28125c-4.40625,0-8.73047-1.92188-12.97266-5.76562-3.25781-4.07812-4.88672-9.17578-4.88672-15.29297v-1.125c0-4.40625,.53906-9.25781,1.61719-14.55469-5.71875-.65625-8.57812-1.72266-8.57812-3.19922-.25781-.79688-.38672-1.6875-.38672-2.67236v-1.19531c0-2.55469,.57422-4.07812,1.72266-4.57031l2.49609-.35156,6.11719,.14062c.70312,0,1.05469-.23438,1.05469-.70312,.25781-6.25781,.79688-9.38672,1.61719-9.38672,3.67969-1.73438,6.67969-2.60156,9-2.60156Z"/></g></svg>