<?xml version="1.0" encoding="UTF-8"?><svg id="a" xmlns="http://www.w3.org/2000/svg" viewBox="0 0 1030.72 240.26"><defs><style>.b{opacity:.74;}.c{fill:#282828;}</style></defs><g class="b"><path class="c" d="M152.28,4.85h10.91c3.99,0,5.99,1.03,5.99,3.09,.45,0,.77,9.94,.97,29.83h.14l20.52-.48v-.19c0-20.4,.48-30.6,1.45-30.6,.93-1.09,2.86-1.64,5.79-1.64h10.62c4.15,0,6.56,1.32,7.24,3.96,.84,2.61,1.42,29.93,1.74,81.97,0,3.03-1.3,4.79-3.91,5.31-1.25,.32-2.67,.48-4.25,.48h-.97c-6.02,0-11.51-.93-16.46-2.8-1.74-.9-2.61-3.09-2.61-6.56l-.19-3.81,.34-14.48,.14-1.64-17.57-.34-1.11-.14,.68,16.27c0,6.69-.74,10.04-2.22,10.04-2.8,1.77-5.68,2.66-8.64,2.66-2.96,.55-5.94,.82-8.93,.82h-.63c-3.89,0-6.4-.93-7.53-2.8l-.63-4.1c.55-54.68,1.22-82.02,2.03-82.02,1.61-1.87,3.97-2.8,7.1-2.8Z"/><path class="c" d="M255.58,35.79c6.6,0,12.65,2.06,18.15,6.18,3.57,3.93,5.36,9.32,5.36,16.17v.15c0,3.51-.92,5.73-2.75,6.66-8.88,3.38-18.89,5.07-30.03,5.07h-2.46l-.14,.1v.48c1.09,2.96,3.19,5.26,6.28,6.9,1.93,1.03,5.02,1.54,9.27,1.54,3.89,0,7.55-1.16,10.96-3.48,1.29-.74,2.59-1.11,3.91-1.11h.29c2.67,0,4.46,.64,5.36,1.93,.77,.9,1.16,3.41,1.16,7.53v.72c0,2.67-.48,4.28-1.45,4.83-2.8,1.19-6.1,2.19-9.9,2.99-5.5,.9-9.56,1.35-12.16,1.35h-.63c-8.3,0-15.62-1.85-21.96-5.55-7.31-6.15-10.96-14.42-10.96-24.81,0-12.39,5.82-20.76,17.47-25.1,5.21-1.71,9.96-2.56,14.24-2.56Zm-2.12,13.13c-5.02,0-8.29,1.82-9.8,5.46l-.29,1.69c0,2.22,.97,3.48,2.9,3.77h.24c3.41,0,8.46-.97,15.16-2.9,.8-.45,1.29-.82,1.45-1.11v-.82c0-2.7-1.58-4.55-4.73-5.55-.87-.35-1.92-.53-3.14-.53h-.63l-.15-.1-.1,.1h-.92Z"/><path class="c" d="M309.02,4.27c3.83,0,5.74,.6,5.74,1.79,.32,.39,.48,.89,.48,1.5-.8,7.76-1.21,14.8-1.21,21.14l-.15,8.93v2.85c.32,23.82,.87,35.72,1.64,35.72,.58,.52,1.27,.92,2.08,1.21l7.1-1.59c1.77,0,2.82,1.16,3.14,3.48,.58,1.42,.87,3.31,.87,5.7v.29c0,7.24-3.25,10.86-9.75,10.86-13.07-.84-20.87-1.69-23.41-2.56-2.29-1.26-3.43-3.22-3.43-5.89-1.13-6.69-2.27-25.01-3.43-54.93-.77-9.85-1.16-16.38-1.16-19.6v-.92c0-2.73,.88-4.59,2.65-5.55,1.29-.71,5.63-1.35,13.03-1.93l5.79-.48Z"/><path class="c" d="M342.28,32.13c3.67,0,8.32,1.71,13.95,5.12,1.51,1.77,2.27,4.09,2.27,6.95v3.86h.15c3.7-6.92,8.13-10.38,13.27-10.38h1.21c5.53,0,11.86,3.6,18.97,10.81,5.7,6.73,8.54,13.37,8.54,19.94v.82c0,8.59-2.8,15.93-8.4,22.01-3.38,3.25-7.9,4.88-13.56,4.88-6.28,0-12.36-2.35-18.25-7.05l.1,5.5v.97l-.24,7.92,.39,9.03c0,3.35-.9,5.5-2.7,6.47-4.89,1.77-8.87,2.65-11.92,2.65h-1.35c-4.18,0-6.66-2.03-7.43-6.08-.84-3.38-1.25-7.4-1.25-12.07v-4.01c.39-11.39,.58-22.16,.58-32.29l-.97-20.66v-.24c0-7.21,1.53-11.83,4.59-13.85l2.08-.29Zm16.65,28.14c.29,11.52,.82,17.28,1.59,17.28,1.29,2.19,4.23,3.91,8.83,5.17,1.22,.26,2.48,.39,3.77,.39h1.25c3.67,0,6.05-1.19,7.14-3.57,1-2.48,1.5-5.49,1.5-9.03,0-7.56-2.48-12.33-7.43-14.29-1.96-.55-3.69-.82-5.17-.82-3.77,0-7.6,1.63-11.49,4.88Z"/><path class="c" d="M486.52,4.85h2.51c1.45,0,2.32,.48,2.61,1.45,10.3,23.3,20.92,49.32,31.86,78.06,2.12,4.54,3.19,7.18,3.19,7.92v.48c0,.45-.92,.72-2.75,.82h-8.93l-10.57,.14c-4.7,0-7.31-1.29-7.82-3.86l-8.83-23.46-.14-.15h-.15c-3.64,1.06-6.84,1.59-9.61,1.59h-1.59c-1.64,0-4.26-.37-7.87-1.11-.23,.1-1.5,3.64-3.81,10.62l-5.79,17.04c0,.8-7.52,2.04-22.54,3.72-3.22-.42-4.83-1.45-4.83-3.09,.61-2.61,4.41-12.2,11.39-28.77,12.87-32.5,20.39-51.02,22.54-55.56,1.93-2.93,4.28-4.39,7.05-4.39,5.86-.97,10.56-1.45,14.1-1.45Zm-20.32,32.73c0,4.28,4.05,10.25,12.16,17.91,8.95-6.53,13.42-12.41,13.42-17.62v-.29c0-4.22-2.14-6.32-6.42-6.32h-.43c-2.09,0-4.09,.85-5.99,2.56-1.83-1.83-3.8-2.75-5.89-2.75-3.25,0-5.54,1.88-6.85,5.65v.87Z"/><path class="c" d="M573.02,5l10.67-.34,9.22-.82c2.12-.13,3.25,.69,3.38,2.46l.43,4.3,.24,3.33c2.25,33.28,1.87,53.33-1.16,60.15-1.45,4.6-5.38,9.51-11.78,14.72-4.15,3.06-8.53,4.75-13.13,5.07l-2.17,.19c-14.13,1-23.93-4.07-29.4-15.21-3.67-7.18-5.78-14.84-6.32-22.98l-.1-1.11-.29-6.47,.14-.19v-.15l-.19-.15v-.14c.74-1.87,2.22-2.86,4.44-2.99,10.43,.42,16.59,.9,18.49,1.45,1.48,.64,2.3,2.19,2.46,4.63,.64,9.75,2.53,15.61,5.65,17.57,1.16,1.16,2.32,1.71,3.48,1.64,2.57-.19,4.42-3.51,5.55-9.94l-.05-3.38-4.97-36.49-.43-4.25c-.48-6.76,.4-10.22,2.66-10.38l3.19-.53Z"/><path class="c" d="M677.87,32.7l1.4,.1,1.16-.1,.77,.1,1.11-.1c4.38,0,6.56,.43,6.56,1.3,2.8,14.06,4.97,23.62,6.52,28.67,1.25,3.35,2.37,5.02,3.33,5.02,1.74,0,3.4-3.96,4.97-11.88,1.29-6.34,2.53-11.62,3.72-15.83,1.06-3.12,2.35-4.68,3.86-4.68l2.17-.19c4.34,0,8.74,.55,13.18,1.64,3.02,.68,4.6,1.22,4.73,1.64v.29l-12.17,30.03c-4.34,12.68-7.71,21.14-10.09,25.39l-1.93,.34c-13.9,0-20.85-.29-20.85-.87-1.29-1.74-2.75-5.74-4.39-12.02-.13-.13-.63-1.69-1.5-4.68h-.29c-2.58,8.85-4.41,14.27-5.5,16.27,0,.64-1.71,.97-5.12,.97-5.86,.23-11.26,.34-16.22,.34-1.42,0-2.24-.47-2.46-1.4-3.38-7.43-6.74-16.12-10.09-26.07-7.69-18.5-11.54-27.93-11.54-28.29v-.29c.35-.48,2.06-1.08,5.12-1.79,4.38-1,8.64-1.5,12.79-1.5,2.35,0,3.85,.5,4.49,1.5,1.29,2.09,2.7,6.9,4.25,14.43,1.35,7.31,2.75,12.47,4.2,15.5,.68,.77,1.32,1.16,1.93,1.16,2.03,0,4.67-8.32,7.92-24.96l2.32-9.37c0-.29,1.88-.51,5.65-.68Z"/><path class="c" d="M753.86,3.74l1.11,.05c6.76,.32,11.44,4.41,14.05,12.26l.39,3.77-.1,1.3c-.26,5.76-3.41,10.22-9.46,13.37-2.03,.97-4.18,1.38-6.47,1.26l-1.06-.05c-6.79-.29-11.47-4.38-14.05-12.26l-.39-3.72,.05-1.35c.29-5.73,3.46-10.17,9.51-13.32,2.03-.97,4.17-1.4,6.42-1.3Zm-1.93,39.92l3.52,.43,3.62,.15c6.44,.29,9.62,.97,9.56,2.03,.35,3.89,.55,18.92,.58,45.09-.13,2.96-2.21,4.34-6.23,4.15l-5.84-.24-10.23-.19c-4.38-.19-6.5-1.61-6.37-4.25-.84-25.1-1.14-39.86-.92-44.27,.1-2.12,2.91-3.06,8.45-2.8l3.86-.1Z"/><path class="c" d="M804.83,13.69c1.96,.23,2.94,1.09,2.94,2.61,.35,.48,.56,2.35,.63,5.6-.06,3.89-.24,6.73-.53,8.5l6.08-.39c5.66,0,8.5,1.09,8.5,3.28,.26,.1,.43,1.42,.53,3.96v.15c-.45,7.79-1.61,12.04-3.48,12.74l-.92,.14c-2.22,0-5.79-.77-10.72-2.32v.15l-.39,19.98c0,4.15,.61,6.76,1.83,7.82,1.22,.74,2.72,1.11,4.49,1.11,1.29,0,4.47-.29,9.56-.87,1.48,0,2.41,.55,2.8,1.64,.26,.58,.39,1.45,.39,2.61,0,3.77-1.58,8.3-4.73,13.61-2.19,1.45-5.38,2.59-9.56,3.43l-3.04,.39c-6.05,0-11.99-2.64-17.81-7.92-4.47-5.6-6.71-12.6-6.71-21v-1.54c0-6.05,.74-12.71,2.22-19.98-7.85-.9-11.78-2.37-11.78-4.39-.35-1.09-.53-2.32-.53-3.67v-1.64c0-3.51,.79-5.6,2.37-6.28l3.43-.48,8.4,.19c.96,0,1.45-.32,1.45-.97,.35-8.59,1.09-12.89,2.22-12.89,5.05-2.38,9.17-3.57,12.36-3.57Z"/><path class="c" d="M852.09,14.12c2.25,0,3.38,1.35,3.38,4.06-.52,6.63-.77,11.84-.77,15.64v2.17l.14,8.64v.14h.1c1.45-4.44,4.09-7.71,7.92-9.8,2.57-1.13,5.45-1.69,8.64-1.69,7.88,0,13.31,3.6,16.27,10.81,.61,1.96,.92,3.88,.92,5.74v1.01c0,1.45-.5,7.5-1.5,18.15l-.14,3.23c0,2.32,.42,7.79,1.25,16.41v.53c0,2.9-5.08,4.99-15.25,6.28h-2.56c-2,0-3.15-.47-3.48-1.4-.74-1.58-1.11-3.88-1.11-6.9v-1.98c.39-9.24,.88-17.12,1.5-23.65v-.24c0-3.09-1.43-5.47-4.3-7.14l-1.74-.39c-2.61,0-4.65,1.08-6.13,3.23-.77,2.38-1.19,4.73-1.25,7.05l.14,2.51v.77l.58,18.49c0,5.5-.74,8.25-2.22,8.25-2.58,.84-5.46,1.26-8.64,1.26-5.79,0-9.72-2.56-11.78-7.68l-.39-3.91c.68-17.57,1.22-37.3,1.64-59.18,.23-1.93,.6-3.31,1.11-4.15,.51-.84,3.03-1.88,7.53-3.14,4.38-2.09,7.75-3.14,10.14-3.14Z"/><path class="c" d="M11.25,150.76c3.67,0,8.32,1.71,13.95,5.12,1.51,1.77,2.27,4.09,2.27,6.95v3.86h.15c3.7-6.92,8.13-10.38,13.27-10.38h1.21c5.53,0,11.86,3.6,18.97,10.81,5.7,6.73,8.54,13.37,8.54,19.94v.82c0,8.59-2.8,15.93-8.4,22.01-3.38,3.25-7.9,4.88-13.56,4.88-6.28,0-12.36-2.35-18.25-7.05l.1,5.5v.97l-.24,7.92,.39,9.03c0,3.35-.9,5.5-2.7,6.47-4.89,1.77-8.87,2.65-11.92,2.65h-1.35c-4.18,0-6.66-2.03-7.43-6.08-.84-3.38-1.25-7.4-1.25-12.07v-4.01c.39-11.39,.58-22.16,.58-32.29l-.97-20.66v-.24c0-7.21,1.53-11.83,4.59-13.85l2.08-.29Zm16.65,28.14c.29,11.52,.82,17.28,1.59,17.28,1.29,2.19,4.23,3.91,8.83,5.17,1.22,.26,2.48,.39,3.77,.39h1.25c3.67,0,6.05-1.19,7.14-3.57,1-2.48,1.5-5.49,1.5-9.03,0-7.56-2.48-12.33-7.43-14.29-1.96-.55-3.69-.82-5.17-.82-3.77,0-7.6,1.63-11.49,4.88Z"/><path class="c" d="M91.19,122.38l1.11,.05c6.76,.32,11.44,4.41,14.05,12.26l.39,3.77-.1,1.3c-.26,5.76-3.41,10.22-9.46,13.37-2.03,.97-4.18,1.38-6.47,1.26l-1.06-.05c-6.79-.29-11.47-4.38-14.05-12.26l-.39-3.72,.05-1.35c.29-5.73,3.46-10.17,9.51-13.32,2.03-.97,4.17-1.4,6.42-1.3Zm-1.93,39.92l3.52,.43,3.62,.15c6.44,.29,9.62,.97,9.56,2.03,.35,3.89,.55,18.92,.58,45.09-.13,2.96-2.2,4.34-6.23,4.15l-5.84-.24-10.23-.19c-4.38-.19-6.5-1.61-6.37-4.25-.84-25.1-1.14-39.86-.92-44.27,.1-2.12,2.91-3.06,8.45-2.8l3.86-.1Z"/><path class="c" d="M144.19,153.42h1.54c11.81,0,19.79,1.72,23.94,5.17,.71,.87,1.06,1.74,1.06,2.61,0,2.74-2.11,7.32-6.32,13.76-.93,1.16-1.69,1.74-2.27,1.74h-.1c-.39,0-2.25-1.09-5.6-3.28-2.67-1.42-5.6-2.12-8.79-2.12h-1.4c-4.83,0-7.98,2.65-9.46,7.96-.29,1.42-.43,2.72-.43,3.91,0,5.79,1.58,9.22,4.73,10.28,1.74,1,3.6,1.5,5.6,1.5,2.67,0,6.89-1.46,12.65-4.39,1.51-.51,2.62-.77,3.33-.77h.53c3.09,0,5.13,2.53,6.13,7.58,.48,2.77,.8,4.94,.97,6.52,0,1.06-.64,1.79-1.93,2.17-3.28,1.83-7.26,3.35-11.92,4.54-5.44,1.13-10.15,1.69-14.14,1.69-6.98,0-13.79-2.88-20.42-8.64-5.02-4.34-7.53-11.23-7.53-20.66v-.82c0-6.53,1.25-11.55,3.77-15.06,.87-1.87,3.06-4.47,6.57-7.82,4.7-3.89,11.2-5.84,19.5-5.84Z"/><path class="c" d="M182.23,123.25c14.1,1.45,21.14,2.54,21.14,3.28,1.32,.42,1.98,1.14,1.98,2.17l-1.83,12.02-.24,3.43c.61,18.28,1.45,27.42,2.51,27.42,1.64-.55,3.73-3.65,6.28-9.32l4.92-11.25c1.16-1.42,2.75-2.12,4.78-2.12l16.85,.72c2.32,.48,3.48,1.24,3.48,2.27,0,.9-2.01,4.15-6.03,9.75-2.48,3.83-4.34,7.55-5.6,11.15l-1.69,5.65c.87,4.83,1.9,9.12,3.09,12.89,1.45,4.12,3.59,8.5,6.42,13.13l.19,.63v.77c0,2.74-3.65,4.7-10.96,5.89-4.31,1.29-7.21,1.93-8.69,1.93h-.15c-2.8,0-6.4-7.71-10.81-23.12-.52-1.19-1.27-1.79-2.27-1.79-.9,0-1.35,1.38-1.35,4.15v5.17c0,2.9,.13,5.97,.39,9.22,0,3.54-2.7,5.31-8.11,5.31-6.18,.61-10.3,.92-12.36,.92-2.48,0-3.96-.93-4.44-2.8l-.48-4.15,.29-21.39-.14-.14v-.1l.14-.19-.14-.72c0-20.08-.32-38.26-.97-54.55v-.92c0-3.54,1.13-5.31,3.38-5.31h.43Z"/><path class="c" d="M263.47,122.38l1.11,.05c6.76,.32,11.44,4.41,14.05,12.26l.39,3.77-.1,1.3c-.26,5.76-3.41,10.22-9.46,13.37-2.03,.97-4.18,1.38-6.47,1.26l-1.06-.05c-6.79-.29-11.47-4.38-14.05-12.26l-.39-3.72,.05-1.35c.29-5.73,3.46-10.17,9.51-13.32,2.03-.97,4.17-1.4,6.42-1.3Zm-1.93,39.92l3.52,.43,3.62,.15c6.44,.29,9.62,.97,9.56,2.03,.35,3.89,.55,18.92,.58,45.09-.13,2.96-2.2,4.34-6.23,4.15l-5.84-.24-10.23-.19c-4.38-.19-6.5-1.61-6.37-4.25-.84-25.1-1.14-39.86-.92-44.27,.1-2.12,2.91-3.06,8.45-2.8l3.86-.1Z"/><path class="c" d="M288.91,155.97h.63c3.12,0,7.72,1.11,13.81,3.33,1.32,.55,2.53,2.16,3.62,4.83l1.5,4.44h.29c2.25-5.63,5.34-9.36,9.27-11.2,1.77-.84,3.44-1.25,5.02-1.25h1.11c4.12,0,7.76,1.01,10.91,3.04,3.86,3.8,5.79,8.09,5.79,12.89s-.16,11.91-.48,21.63l.1,15.06c0,2.41-.87,4.02-2.61,4.83-1.58,.61-3.93,.92-7.05,.92h-2.37c-4.83,0-7.8-.93-8.93-2.8l-.1-.77v-3.33l.34-15.54c0-6.6-1.37-11.23-4.1-13.9-.87-.48-1.67-.72-2.41-.72-3.41,0-5.12,5.55-5.12,16.65l.48,13.52c0,2.38-.55,3.78-1.64,4.2-6.11,2.22-11.01,3.33-14.67,3.33-3.09,0-5-1.11-5.74-3.33-.52-1.54-.77-3.02-.77-4.44v-1.64l.48-15.45-.34-30.32v-1.64c0-1.54,1-2.32,2.99-2.32Z"/><path class="c" d="M408.29,149.36c1.93,0,3.11,.8,3.52,2.41,.68,.8,1.11,9.85,1.3,27.13l-.15,5.99v22.69c0,11.55-2.04,19.45-6.13,23.7-6.98,5.15-15.29,7.72-24.91,7.72-10.97,0-20.69-2.8-29.16-8.4-1.29-1.06-1.93-2.21-1.93-3.43,0-3.06,2.01-6.82,6.03-11.3,1.22-1.16,2.27-1.74,3.14-1.74h.48c2,0,5.84,1.24,11.54,3.72,2.09,.58,4.07,.87,5.94,.87h.58c6.56,0,10.51-2,11.83-5.99,.77-1.48,1.16-2.91,1.16-4.3v-1.11c0-.51-.19-.85-.58-1.01h-.14c-5.05,4.09-9.67,6.13-13.85,6.13h-.92c-6.98,0-13.44-2.85-19.36-8.54-5.73-5.76-8.59-12.24-8.59-19.45v-2.12c0-7.05,1.45-12.76,4.34-17.14,2.96-3.93,7.88-6.77,14.77-8.54,1.42-.48,2.96-.72,4.63-.72,4.15,0,10.33,1.58,18.54,4.73l-.15-.15v-.14c0-3.19,.39-5.23,1.16-6.13,1.67-1.16,4.83-2.4,9.46-3.72,3.38-.77,5.86-1.16,7.43-1.16Zm-36.98,33.26c0,5.83,2.77,9.77,8.3,11.83l3.04,.43c1.77,0,2.93-1.42,3.48-4.25,.58-4.31,.87-8.98,.87-14,0-3.8-.48-5.7-1.45-5.7-1.09-.87-2.41-1.3-3.96-1.3-4.63,0-7.93,3.09-9.9,9.27-.26,1.26-.39,2.49-.39,3.72Z"/><path class="c" d="M474.48,132.32c1.96,.23,2.94,1.09,2.94,2.61,.35,.48,.56,2.35,.63,5.6-.06,3.89-.24,6.73-.53,8.5l6.08-.39c5.66,0,8.5,1.09,8.5,3.28,.26,.1,.43,1.42,.53,3.96v.15c-.45,7.79-1.61,12.04-3.48,12.74l-.92,.14c-2.22,0-5.79-.77-10.72-2.32v.15l-.39,19.98c0,4.15,.61,6.76,1.83,7.82,1.22,.74,2.72,1.11,4.49,1.11,1.29,0,4.47-.29,9.56-.87,1.48,0,2.41,.55,2.8,1.64,.26,.58,.39,1.45,.39,2.61,0,3.77-1.58,8.3-4.73,13.61-2.19,1.45-5.38,2.59-9.56,3.43l-3.04,.39c-6.05,0-11.99-2.64-17.81-7.92-4.47-5.6-6.71-12.6-6.71-21v-1.54c0-6.05,.74-12.71,2.22-19.98-7.85-.9-11.78-2.37-11.78-4.39-.35-1.09-.53-2.32-.53-3.67v-1.64c0-3.51,.79-5.6,2.37-6.28l3.43-.48,8.4,.19c.97,0,1.45-.32,1.45-.97,.35-8.59,1.09-12.89,2.22-12.89,5.05-2.38,9.17-3.57,12.36-3.57Z"/><path class="c" d="M521.73,132.76c2.25,0,3.38,1.35,3.38,4.06-.52,6.63-.77,11.84-.77,15.64v2.17l.14,8.64v.14h.1c1.45-4.44,4.09-7.71,7.92-9.8,2.57-1.13,5.45-1.69,8.64-1.69,7.88,0,13.31,3.6,16.27,10.81,.61,1.96,.92,3.88,.92,5.74v1.01c0,1.45-.5,7.5-1.5,18.15l-.14,3.23c0,2.32,.42,7.79,1.25,16.41v.53c0,2.9-5.08,4.99-15.25,6.28h-2.56c-2,0-3.15-.47-3.48-1.4-.74-1.58-1.11-3.88-1.11-6.9v-1.98c.39-9.24,.88-17.12,1.5-23.65v-.24c0-3.09-1.43-5.47-4.3-7.14l-1.74-.39c-2.61,0-4.65,1.08-6.13,3.23-.77,2.38-1.19,4.73-1.25,7.05l.14,2.51v.77l.58,18.49c0,5.5-.74,8.25-2.22,8.25-2.58,.84-5.46,1.26-8.64,1.26-5.79,0-9.72-2.56-11.78-7.68l-.39-3.91c.68-17.57,1.22-37.3,1.64-59.18,.22-1.93,.6-3.31,1.11-4.15,.51-.84,3.02-1.88,7.53-3.14,4.38-2.09,7.76-3.14,10.14-3.14Z"/><path class="c" d="M596.27,154.43c6.6,0,12.65,2.06,18.15,6.18,3.57,3.93,5.36,9.32,5.36,16.17v.15c0,3.51-.92,5.73-2.75,6.66-8.88,3.38-18.89,5.07-30.03,5.07h-2.46l-.15,.1v.48c1.09,2.96,3.19,5.26,6.28,6.9,1.93,1.03,5.02,1.54,9.27,1.54,3.89,0,7.55-1.16,10.96-3.48,1.29-.74,2.59-1.11,3.91-1.11h.29c2.67,0,4.46,.64,5.36,1.93,.77,.9,1.16,3.41,1.16,7.53v.72c0,2.67-.48,4.28-1.45,4.83-2.8,1.19-6.1,2.19-9.9,2.99-5.5,.9-9.56,1.35-12.17,1.35h-.63c-8.3,0-15.62-1.85-21.96-5.55-7.31-6.15-10.96-14.42-10.96-24.81,0-12.39,5.82-20.76,17.47-25.1,5.21-1.71,9.96-2.56,14.24-2.56Zm-2.12,13.13c-5.02,0-8.29,1.82-9.8,5.46l-.29,1.69c0,2.22,.97,3.48,2.9,3.77h.24c3.41,0,8.46-.97,15.16-2.9,.8-.45,1.29-.82,1.45-1.11v-.82c0-2.7-1.58-4.55-4.73-5.55-.87-.35-1.92-.53-3.14-.53h-.63l-.15-.1-.1,.1h-.92Z"/><path class="c" d="M683.01,154c5.63,.35,11.68,2.22,18.15,5.6,1.77,1,3.7,2.75,5.79,5.26,.93,1.42,1.75,3.62,2.46,6.61,.87,3.99,1.19,7.92,.97,11.78l-.15,2.65c-1.61,18.86-2.67,28.27-3.19,28.24-.68,1.67-1.69,2.46-3.04,2.37l-1.35-.05c-3.7-.23-7.79-1.71-12.26-4.44-1.13-1-1.62-2.59-1.5-4.78l-.15-.39c-3.09,2.03-5.86,3.36-8.3,4.01-2.74,1.03-6.76,1.38-12.07,1.06-7.5-.45-12.37-4.99-14.63-13.61-.64-2.32-.89-4.78-.72-7.39,.51-8.33,4.7-13.34,12.55-15.01,2.93-.48,5.46-.66,7.58-.53,4.73,.29,9.65,2.41,14.77,6.37h.14l.43-2.41,.05-.48c.26-4.5-2.67-7.9-8.79-10.19l-4.1-.68-7.67,.1c-2.41-.29-3.59-.97-3.52-2.03,.13-2.09,2.2-4.88,6.23-8.35,3.31-2.77,7.42-4.01,12.31-3.72Zm-13.18,39.34c-.23,3.35,1.06,5.58,3.86,6.71l2.08,.39c1.9,.1,5.1-.76,9.61-2.56,1.32-1.06,2.12-4.18,2.41-9.36-1.96-1.67-4.71-2.62-8.25-2.85l-1.06-.05c-3.57-.22-6.03,.9-7.39,3.38-.74,1.32-1.16,2.77-1.25,4.34Z"/><path class="c" d="M726.65,150.76c3.67,0,8.32,1.71,13.95,5.12,1.51,1.77,2.27,4.09,2.27,6.95v3.86h.14c3.7-6.92,8.13-10.38,13.28-10.38h1.21c5.54,0,11.86,3.6,18.97,10.81,5.7,6.73,8.54,13.37,8.54,19.94v.82c0,8.59-2.8,15.93-8.4,22.01-3.38,3.25-7.9,4.88-13.56,4.88-6.28,0-12.36-2.35-18.25-7.05l.1,5.5v.97l-.24,7.92,.39,9.03c0,3.35-.9,5.5-2.7,6.47-4.89,1.77-8.87,2.65-11.92,2.65h-1.35c-4.18,0-6.66-2.03-7.43-6.08-.84-3.38-1.26-7.4-1.26-12.07v-4.01c.39-11.39,.58-22.16,.58-32.29l-.97-20.66v-.24c0-7.21,1.53-11.83,4.59-13.85l2.08-.29Zm16.65,28.14c.29,11.52,.82,17.28,1.59,17.28,1.29,2.19,4.23,3.91,8.83,5.17,1.22,.26,2.48,.39,3.76,.39h1.26c3.67,0,6.05-1.19,7.14-3.57,1-2.48,1.5-5.49,1.5-9.03,0-7.56-2.48-12.33-7.43-14.29-1.96-.55-3.68-.82-5.17-.82-3.77,0-7.6,1.63-11.49,4.88Z"/><path class="c" d="M799.06,150.76c3.67,0,8.32,1.71,13.95,5.12,1.51,1.77,2.27,4.09,2.27,6.95v3.86h.14c3.7-6.92,8.13-10.38,13.28-10.38h1.21c5.54,0,11.86,3.6,18.97,10.81,5.7,6.73,8.54,13.37,8.54,19.94v.82c0,8.59-2.8,15.93-8.4,22.01-3.38,3.25-7.9,4.88-13.56,4.88-6.28,0-12.36-2.35-18.25-7.05l.1,5.5v.97l-.24,7.92,.39,9.03c0,3.35-.9,5.5-2.7,6.47-4.89,1.77-8.87,2.65-11.92,2.65h-1.35c-4.18,0-6.66-2.03-7.43-6.08-.84-3.38-1.26-7.4-1.26-12.07v-4.01c.39-11.39,.58-22.16,.58-32.29l-.97-20.66v-.24c0-7.21,1.53-11.83,4.59-13.85l2.08-.29Zm16.65,28.14c.29,11.52,.82,17.28,1.59,17.28,1.29,2.19,4.23,3.91,8.83,5.17,1.22,.26,2.48,.39,3.76,.39h1.26c3.67,0,6.05-1.19,7.14-3.57,1-2.48,1.5-5.49,1.5-9.03,0-7.56-2.48-12.33-7.43-14.29-1.96-.55-3.68-.82-5.17-.82-3.77,0-7.6,1.63-11.49,4.88Z"/><path class="c" d="M884.55,122.91c3.83,0,5.75,.6,5.75,1.79,.32,.39,.48,.89,.48,1.5-.8,7.76-1.21,14.8-1.21,21.14l-.14,8.93v2.85c.32,23.82,.87,35.72,1.64,35.72,.58,.52,1.27,.92,2.08,1.21l7.1-1.59c1.77,0,2.82,1.16,3.14,3.48,.58,1.42,.87,3.31,.87,5.7v.29c0,7.24-3.25,10.86-9.75,10.86-13.07-.84-20.87-1.69-23.41-2.56-2.29-1.26-3.43-3.22-3.43-5.89-1.13-6.69-2.27-25.01-3.43-54.93-.77-9.85-1.16-16.38-1.16-19.6v-.92c0-2.73,.88-4.59,2.66-5.55,1.29-.71,5.63-1.35,13.03-1.93l5.79-.48Z"/><path class="c" d="M941.18,154.43c6.6,0,12.65,2.06,18.15,6.18,3.57,3.93,5.36,9.32,5.36,16.17v.15c0,3.51-.92,5.73-2.75,6.66-8.88,3.38-18.89,5.07-30.03,5.07h-2.46l-.15,.1v.48c1.09,2.96,3.19,5.26,6.28,6.9,1.93,1.03,5.02,1.54,9.27,1.54,3.89,0,7.55-1.16,10.96-3.48,1.29-.74,2.59-1.11,3.91-1.11h.29c2.67,0,4.46,.64,5.36,1.93,.77,.9,1.16,3.41,1.16,7.53v.72c0,2.67-.48,4.28-1.45,4.83-2.8,1.19-6.1,2.19-9.9,2.99-5.5,.9-9.56,1.35-12.17,1.35h-.63c-8.3,0-15.62-1.85-21.96-5.55-7.31-6.15-10.96-14.42-10.96-24.81,0-12.39,5.82-20.76,17.47-25.1,5.21-1.71,9.96-2.56,14.24-2.56Zm-2.12,13.13c-5.02,0-8.29,1.82-9.8,5.46l-.29,1.69c0,2.22,.97,3.48,2.9,3.77h.24c3.41,0,8.46-.97,15.16-2.9,.8-.45,1.29-.82,1.45-1.11v-.82c0-2.7-1.58-4.55-4.73-5.55-.87-.35-1.92-.53-3.14-.53h-.63l-.15-.1-.1,.1h-.92Z"/><path class="c" d="M999.25,154.82c15.16,0,22.74,.42,22.74,1.26l.14,.97c-.48,4.22-1.3,8.05-2.46,11.49-.58,1.16-1.95,1.74-4.1,1.74-.77,0-4.7-.45-11.78-1.35h-.82c-3.99,0-6.68,1.24-8.06,3.72-.29,.71-.43,1.45-.43,2.22v.1c0,2,1.16,3.33,3.48,4.01,.68,.26,1.85,.45,3.52,.58l7.48-.29c4.09,0,8.4,1.22,12.94,3.67,3.35,2.74,5.02,7.02,5.02,12.84v1.26c0,7.95-3.7,13.08-11.1,15.4-2.83,1.03-9.88,1.54-21.14,1.54h-.1c-9.72,0-14.58-.35-14.58-1.06-.77-.29-1.4-3.96-1.88-11.01,0-3.57,1.71-5.36,5.12-5.36,1.06,0,4.15,.72,9.27,2.17,3.06,.39,5.53,.58,7.43,.58,4.76,0,7.14-1.75,7.14-5.26,0-2.03-.85-3.33-2.56-3.91-.8-.16-1.87-.29-3.19-.39l-10.23,.48h-.48c-6.4,0-11.31-2.53-14.72-7.58-1.32-2.25-1.98-4.71-1.98-7.39v-2.22c0-3.73,1.98-7.95,5.94-12.65,2.35-1.9,4.92-3.2,7.72-3.91,4.06-1.09,7.95-1.64,11.68-1.64Z"/></g></svg>