<svg xmlns="http://www.w3.org/2000/svg" viewBox="0 0 287 319"><path fill="#5A3A12" fill-rule="evenodd" d="M105 162.4c8.5 0 10.4.3 14.3 3.8a37.7 37.7 0 0 0 21.6 6c6.7-.6 10.8 2.2 11.7 6.2 3.7 15.7 13.6 66.8 6.4 96.2-2.2 8.7-20.5 12.6-32.1 11.7 6.5 3.8 24.5 9.1 32.6 4.7a43.7 43.7 0 0 1-23.1 14.7c8.2 2.8 29 1.1 38.5-5 2.4 3.5 1.7 8.9-1.5 18.3 9.6-3.1 16.4-8 19.5-18.5 1.7 5.7 15.3 12 25.9 14.2-6.5-7.8-7.7-10.5-8-17.5 7 3.4 20.7 3.2 25.3-.7-13.3-1-23.7-9.3-26.4-16.8-9.5-26.7-26.9-55.2-26.2-118 0-3.2 17.4-16 22-14.9 3.6.8 6.3.4 9-2 3.8-16-51.6-12.5-60.2 12-1.6 3.4-5.2 4.6-11.8 5-6.7.6-18.8-2.6-24.2-6.4-4.3-9.5-22 7-13.3 7Z"/><path fill="#281503" fill-rule="evenodd" d="M156.6 152.4c-.9 8.5 2.4 37 11.6 53-4 18-2.6 34.5-2 42.8-2.8-6.3-.9-35.3 1.2-42.5a110.2 110.2 0 0 1-10.8-53.3Zm25.5 88.9c1 8.1 1.6 23.4 1.8 29.3.4 2.4 1 5 4 8-5.5 5.9-6 18.7-7.7 26 .6-6 2.4-21.3 7-26-1.5-2.8-3.2-5-3.7-7.7 0-8.8-1.6-23.2-1.4-29.6Zm-1-63.9c-.9 5.4-.5 30.6 5.8 38-.4 10.4 10 39.5 14.7 46.1a117.9 117.9 0 0 1-15.1-45.6c-6-7.3-7.3-31.1-5.4-38.5Zm28.2 130.7c-5.6-4.5-12.6-19.8-15-26.2 1.9 6.8 9.8 23.3 15 26.2Zm-40.9-171.8a53.5 53.5 0 0 1 13.5 40.2 67.6 67.6 0 0 0-13.5-40.2Z"/><path fill="#281503" fill-rule="evenodd" d="M169.3 216.6a52 52 0 0 0-.6 14.3c-.8 4.2-1 9.8-1 13.5.2 8 1 15.4 1.5 19.5a138.4 138.4 0 0 1 .1-47.3Zm1.9 13.3c-1.2-5.2.7-10.2 2.7-11.3-.3-2-1.2-4.7-.4-10.2-1.2 6.2 0 8.6 0 10.1-1.8.4-3.8 6-2.9 11.4 1.3 3 .8 9.6.9 17 0 10.2-.2 22.7-1 29a219.2 219.2 0 0 0 .7-46Zm23 37.2c0 4.5 1 14.4 4.5 19 3.6.2 14.7 6.7 17.7 9.9a39.8 39.8 0 0 0-17.2-10.3 42 42 0 0 1-5-18.6Zm-40.6 21.5a24 24 0 0 0 15-16.6c-3.9 8.5-6.2 11.9-15 16.6Z"/><path fill="#8CBC30" fill-rule="evenodd" d="M1 162.2c1.3 28.7 38.8 40.4 76.3 16.6 33.3-20.7 50.3-27.3 63.4-17.3 37.2 28 27-12 74 8 40.9 18.2 67.5-14.8 55.1-31.1 35.4-8 7-44.2-10-44.5 20.2-5.5 6.5-33-14-31.4-15.6 1.1-26-16.7-27.9-35-1.8-26.9-50-37.5-60-14.3-22.5-16.4-78 1.2-84.3 34.4-7.5-8-17.8-2.6-18 4C41 39 6.8 79.2 35 83.7c-26.6 4-21.7 29.7-8.3 33-21 7.8-26.5 26-25.7 45.5Z"/></svg>