<?xml version="1.0" encoding="UTF-8"?><svg id="a" xmlns="http://www.w3.org/2000/svg" viewBox="0 0 3840 1080"><defs><style>.b{fill:none;stroke:#466709;stroke-miterlimit:10;}.c{fill:#78aa21;}</style></defs><path class="c" d="M1801.556,920.876c-86.99,22.434-167.537,54.544-242.045,95.72-350.585-132.648-697.532-98.043-933.447,63.404h1759.319c-17.591-16.699-35.544-32.42-53.881-47.101-148.752-119.094-345.431-159.609-529.947-112.023Z"/><path class="b" d="M1793.156,1029.532c1.445-1.665,3.229-2.889,6.468-2.213l-2.042-10.723c2.839,1.043,5.558,3.776,8.17,8,1.686-5.539,2.27-10.595,1.702-15.149,3.723,3.849,6.059,7.978,6.808,12.426,3.005-6.793,5.891-12.506,8.511-15.83-1.283,4.138-1.792,8.968-1.362,14.638,6.421-5.196,13.319-8.27,21.277-6.638-.732,1.844-4.039,4.536-11.234,8.511,2.145,2.799,6.301,4.219,11.234,5.106"/><path class="b" d="M1796.05,953.617c-.032,.98,.36,1.635,1.118,2.008,2.658,1.306,5.246-2.259,3.066-4.263-.921-.847-2.417-1.44-4.683-1.693-1.644-.184-3.317,.448-4.366,1.727-2.024,2.47-1.458,4.817,2.823,6.987,12.221,3.784,23.13,4.474,30.65-2.828,1.802-1.749,2.54-4.322,1.955-6.764-2.735-11.41-13.92-16.161-37.57-11.089-.771,.165-1.557,.293-2.335,.422-20.675,3.436-19.515,30.061,5.058,34.825,1.098,.213,2.175,.498,3.262,.764,18.13,4.438,57.27-2.189,65.777-19.633,2.315-4.748,.996-10.482-2.963-13.978-7.212-6.37-17.109-11.956-32.939-15.81-1.784-.434-3.549-.969-5.23-1.707-4.768-2.094-4.978-3.933,1.618-5.391,2.115-.468,4.286-.653,6.453-.637,7.865,.061,17.585-.619,37.493-5.364,1.364-.325,2.688,.627,2.85,2.019,3.109,26.751,35.661,34.12,50.005,45.002"/><path class="b" d="M1920.703,906.298c-27.212,5.789-29.932,8.257-8.088,18.188,3.374,1.534,7.094,2.212,10.785,1.888,28.237-2.474,52.537,2.263,64.137,30.255,.751,1.812,1.25,3.733,1.488,5.679,2.751,22.565-6.47,30.259-23.386,28.395"/><path class="b" d="M1411.029,1053.872c-1.112,2.553-1.933,11.915-1.192,11.915,3.291-2.099,7.489-2.95,12.596-2.553"/><path class="b" d="M1402.859,1065.106c1.701-.48,1.954-16.084,0-16.34-2.155,3.49-3.253,7.197-3.574,11.064-4.111-3.52-6.918-7.678-8.17-12.596-.868,3.835-.372,7.817,1.192,11.915-6.764-3.244-13.058-5.284-18.553-5.277,2.919,2.827,6.255,5.575,10.383,8.17-1.826,1.766-4.478,2.269-7.83,1.702"/><path class="b" d="M1366.39,987.745c9.702-6.894,24.894-7.532,32.553-12.383-17.004-1.499-31.703-5.09-45.702-9.319-1.356,2.435-1.028,5.704,0,9.319"/><path class="b" d="M1358.22,994.638c-2.478,20.553,39.887,35.051,65.932,21.254,2.78-1.472,5.225-3.56,6.923-6.208,3.759-5.86,2.107-11.037-4.35-15.608-5.398-3.822-12.003-5.575-18.612-5.31-13.744,.55-20.992,4.108-19.792,11.578,.718,4.47,4.226,7.966,8.598,9.144,5.202,1.401,10.367,2.352,15.227-.345,1.453-.806,2.523-2.248,2.655-3.904,.086-1.073-.209-2.006-1.031-2.745-1.178-1.059-2.941-1.108-4.342-.368-1.885,.997-2.768,2.098-2.061,3.363"/><path class="b" d="M1342.944,986.809c-15.975,14.382-35,21.684-56.17,24"/><path class="b" d="M1313.412,954.043c27.085,13.349,18.118,24.402-18.383,33.702-23.44,8.109-45.127,12.667-65.872,15.319,3.551,25.523-37.946,38.346-87.064,49.021"/><path class="b" d="M1146.944,945.872c14.553-1.213,23.807,4.026,44.397-.481,2.905-.636,5.863-.955,8.835-1.04,15.937-.455,36.049,1.006,57.768,3.205,5.769,.584,11.485,1.717,16.984,3.556,30.788,10.29,23.666,29.144-7.465,27.333-1.674-.097-3.359-.124-5.035-.076-21.47,.625-41.805,3.572-64.494,1.115-5.456-.591-10.849-1.691-16.123-3.209-22.388-6.442-29.736-12.849-21.531-19.22,2.648-2.056,5.844-3.259,9.153-3.804,14.1-2.322,26.135-.236,37.843,2.545,.796,.189,1.625,.239,2.439,.152,20.535-2.205,31.331-.456,37.297,3.256,2.97,1.847,2.633,6.257-.569,7.661-17.959,7.876-47.484,7.984-56.855,.769-1.546-1.191-1.347-3.585,.299-4.635,4.689-2.992,11.322-4.164,20.634-2.829l4.34,2.298"/><path class="b" d="M1055.795,1001.021c10.11-7.045,34.573-11.47,70.086-13.877,3.08-.209,6.193,.053,9.162,.896,17.132,4.863,35.646,3.452,56.689-9.447"/><path class="b" d="M1030.007,1014.809c-4.085,21.447,112.841,19.939,154.213,9.191,26.725-18.544-70.213-34.193-115.404-13.191,.031,5.218,15.305,6.139,36,5.532,12.929,2.176,23.495,2.011,29.362-2.809"/><path class="b" d="M1135.71,1009.702c-18.877-2.204-28.456,.379-30.894,6.638"/><path class="b" d="M1083.71,1045.191c-77.623-11.062-153.945-22.329-63.66-59.915-21.721,8.33-40.221,14.273-49.702,13.532"/><path class="b" d="M897.156,1068.681c6.256-2.981,12.375-3.883,18.043,2.043-2.315-2.23-.332-2.026,3.064-1.021-2.048-5.256-2.474-10.025-2.383-14.638,2.823,3.853,4.715,7.829,5.787,11.915,.774-4.167,2.156-8.132,4.085-11.915,2.15,3.114,2.594,6.908,1.702,11.234,3.586-.321,6.853-3.606,9.872-9.191-1.435,5.63-2.187,11.094-2.043,16.34"/><path class="b" d="M943.167,1073.213c-.296-1.964-.216-4.46,0-7.149,.345,3.085,1.674,5.624,4.404,7.383-.61-3.284,.916-6.859,2.777-10.479,.828,5.473,2.979,9.145,8.681,7.979"/><path class="b" d="M852.305,982.894c14.298-6.043,19.915,18.128,4.085,18.128-26.298,14.213-32.122-5.561-13.532-9.064"/><path class="b" d="M970.348,949.191c-57.524,13.051-93.855,25.18-96.085,33.957,31.147,16.451,82.642,.071,134.553-16.979-18.828-13.894-92.936,3.407-89.362,12.423,7.394,4.879,20.574,2.635,41.362-8.976-1.936-2.25-4.323-1.8-6.894-.255"/><path class="b" d="M791.795,1055.064c-.766,.851-11.745-3.745-11.745-3.745l12.766,1.925-8.426-10.095s12.255,3.319,14.809,7.915,1.532-13.021,1.532-13.021l6.638,17.021,1.787-9.872"/><path class="b" d="M2027.426,1051.83l-11.234-16.851c1.478-1.441,19.999,13.221,18.383,11.234-1.96-2.41,.01-9.191,.01-9.191,2.447,.222,3.917,2.472,4.586,6.383,4.423-4.393,6.773-9.86,7.66-16.085-.449,6.382,.963,11.317,3.574,15.319,0,0,7.123-5.106,7.149-3.064,.036,2.861,8.942,8.375,11.234,5.106,3.089,2.171,6.342-.016,9.702-5.106-1.898,2.745-2.909,8.209-2.553,17.872"/><path class="b" d="M2171.426,963.489c17.593,2.618,33.837,7.71,46.356,19.632,7.207,6.863,11.334,16.496,10.629,26.423-1.102,15.523-12.591,21.612-25.71,26.221-1.899,.667-3.8,1.335-5.652,2.121-18.797,7.986-38.031,5.891-57.585-3.582-10.693-5.181-19.021-14.415-22.532-25.766-.138-.446-.267-.889-.387-1.329-5.599-20.496,11.773-39.88,32.892-37.546,12.183,1.347,23.854,5.943,35.033,13.66,5.426,3.746,7.661,10.887,4.84,16.846-2.825,5.967-8.438,6.545-15.842,3.66"/></svg>