<?xml version="1.0" encoding="UTF-8"?><svg xmlns="http://www.w3.org/2000/svg" viewBox="0 0 96 96"><defs><style>.c{fill:#e27de2;}.d{fill:none;stroke:#fff;stroke-miterlimit:10;stroke-width:4px;}</style></defs><g id="a"><circle class="c" cx="48" cy="48" r="48"/></g><g id="b"><path class="d" d="M17.5,54.4v-15.3c0-2.2,1.8-4.1,4.1-4.1h5.8c1.3,0,2.5-.6,3.5-1.4l14.3-12.9c1.5-1.3,3.8-.3,3.8,1.7v49.2c0,2-2.4,3-3.8,1.6l-13.8-13.1c-.9-.9-2.2-1.4-3.4-1.4l-6.4-.2c-2.2,0-4-1.9-4-4.1Z"/><path class="d" d="M59.1,33c8,9.1,8.1,18.4,0,28"/><path class="d" d="M69.5,24.1c10.3,13.9,12.9,28.4-.6,43.7"/></g></svg>