<?xml version="1.0" encoding="UTF-8"?><svg id="Layer_18" xmlns="http://www.w3.org/2000/svg" viewBox="0 0 2023.4 1087.04"><defs><style>.cls-1{fill:#e27de2;stroke:#fff;stroke-miterlimit:10;stroke-width:0.5px;}</style></defs><path class="cls-1" d="M602.45,228.87c40.88-.2,70.14,3.63,87.75,11.48,30.25,7.79,52.57,19.73,66.97,35.8,23.72,30.87,35.69,68.51,35.91,112.91l.05,10.35c.24,49.35-18.73,84.15-56.91,104.38-12.47,5.66-31.6,8.55-57.38,8.68l-39.66-1.95c-11.07,.05-16.58,4.64-16.53,13.75l-.36,5.67,.92,27.93c.06,13.02-2.95,21.83-9.05,26.41-7.66,4.98-28.06,12.77-61.21,23.35-9.88,3.96-17.29,5.94-22.24,5.97h-1.56c-7.94,.05-13-8.59-15.17-25.89-3.32-13.52-5.11-46.13-5.36-97.83l-4.74-169.51-.04-8.98c-.19-39.06,5.03-62.72,15.67-70.98,6.87-7.07,25.47-10.67,55.81-10.82l27.15-.72Zm124.89,175.17c-9.14-4.25-16.37-6.36-21.71-6.34l-3.12,.02c-9.9,.05-16.77,5.49-20.62,16.31l-.56,4.69v.78c.09,17.71,17.81,33.77,53.17,48.18,23.07-21.47,35.74-40.25,38-56.34,2.26-16.09-3.83-24.65-18.29-25.69-14.46-1.03-23.41,5.1-26.86,18.39Z"/><path class="cls-1" d="M929.29,374.02l13.18,1.65c23.25,2.92,43.54,11.17,60.87,24.76l16.59,18.42c8.57,13.28,13.51,28.86,14.81,46.74,1.17,26.26-.12,54.31-3.87,84.16l-.8,6.39c-2.32,18.48-10.05,34.04-23.18,46.7-16.53,11.44-33.97,17.59-52.31,18.44-11.78,.75-19.79,.86-24.06,.33l-13.18-1.65c-13.18-1.65-32.69-7.78-58.52-18.36-9.19-5.22-18.87-13.32-29.04-24.31-5.78-6.24-9.09-19.05-9.94-38.45-.43-13.31,.14-26.23,1.71-38.76,4.26-33.98,12.02-63.38,23.27-88.22,11.12-18.55,23.51-29.99,37.18-34.31,16.02-4.29,31.79-5.46,47.29-3.52Zm-37.39,123.85l-.88,6.98c-2.53,20.15,2.74,33.09,15.8,38.79,4.89,3.89,11.47,6.36,19.74,7.4l2.71,.34c9.3,1.17,17.63-1.46,25-7.89,5.51-9.41,9.22-21.74,11.14-36.99,3.14-25.06-.08-40.69-9.67-46.88-7.4-3.81-13.42-6.01-18.07-6.6l-6.59-.83c-16.54-2.07-27.64,5.39-33.32,22.39-3.06,8.67-5.01,16.43-5.87,23.28Z"/><path class="cls-1" d="M1085.25,401.37l2.53,.14c12.61,.7,30.95,6.23,55.02,16.57,5.21,2.51,9.72,9.28,13.54,20.32l5.04,18.28,1.17,.07c10.37-22.24,23.69-36.63,39.97-43.15,7.34-2.98,14.19-4.29,20.56-3.94l4.49,.25c16.64,.93,31.1,5.85,43.38,14.75,14.74,16.21,21.58,34,20.49,53.37-1.06,18.98-3.34,48.07-6.83,87.25l-3.01,60.86c-.54,9.75-4.42,16.05-11.62,18.91-6.51,2.11-16.07,2.82-28.68,2.11l-9.56-.53c-19.5-1.09-31.32-5.53-35.44-13.33l-.22-3.14,.75-13.46,4.87-62.72c1.49-26.65-2.99-45.68-13.44-57.09-3.4-2.15-6.6-3.3-9.59-3.47-13.78-.77-21.92,21.27-24.43,66.12l-1.1,54.71c-.54,9.62-3.07,15.15-7.58,16.59-25.2,7.59-45.21,10.97-60.03,10.14-12.48-.7-19.97-5.61-22.45-14.75-1.73-6.36-2.44-12.39-2.12-18.12l.37-6.63,5.44-62.29,5.48-122.54,.37-6.63c.35-6.24,4.55-9.14,12.61-8.69Z"/><path class="cls-1" d="M1330.01,403.76l18.73-.99,21.79-1.99c10.78-.79,18.52,3.27,23.22,12.2,6.35,15.33,20.15,56.55,41.41,123.66,.65-.05,2.35-15.12,5.09-45.22,5.03-46.98,8.78-75.91,11.24-86.8,1.39-5.98,6.04-9.26,13.96-9.84l28.63-2.11c19.35-1.42,29.18-.06,29.48,4.1l.03,.39c.36,4.94-3.27,25.7-10.89,62.29-8.22,51.52-15.14,91.46-20.76,119.81-10.1,43.7-20.75,74.7-31.93,93.02-20.99,30.66-48.69,47.25-83.1,49.78-21.38,.4-33.29-1.73-35.72-6.38-5.66-7.68-9.13-20.28-10.42-37.81l-1.35-18.31c-1.08-14.68,2.79-22.33,11.63-22.98l3.51-.26c10.13-.75,22.34,1.95,36.63,8.08l9.52,1.65c8.31-.61,13.38-8.03,15.2-22.27l-.1-6.65-.4-5.45c-1.18-16.1-9.87-36.61-26.07-61.54-33.3-64-52.22-109.16-56.77-135.46,.92-6.99,3.4-10.63,7.42-10.93Z"/><path class="cls-1" d="M1190.7,734.29h2.15c28.32,.85,42.48,3.68,42.48,8.5l2.44,62.01,.29,.29c.91,0,3.42-5.08,7.52-15.23,5.86-14,13.51-28.65,22.95-43.95,2.08-2.28,5.37-3.42,9.86-3.42,4.82-.78,18.81-1.89,41.99-3.32,4.43,0,6.64,1.21,6.64,3.61-.65,3-5.99,12.76-16.02,29.3-17.58,32.23-27.41,50.88-29.49,55.96l-.29,1.27c4.3,12.5,16.93,36.2,37.89,71.09,1.24,1.76,1.95,3.48,2.15,5.18,0,3-6.84,5.37-20.51,7.13-12.83,2.41-22.59,3.61-29.3,3.61-3.12,0-5.44-2.86-6.93-8.59-9.44-22.85-17.16-42.58-23.14-59.18l-.88-.98c-1.24,0-1.86,7.85-1.86,23.54l-.59,31.15v3.03c0,6.9-1.01,10.35-3.03,10.35-3.12,2.02-12.37,3.03-27.73,3.03l-12.01,.39-3.12,.29c-5.4,0-8.11-1.24-8.11-3.71-.85,0-2.05-51.99-3.61-155.96,0-12.17,.88-19.73,2.64-22.66,1.89-1.82,4.43-2.73,7.62-2.73Z"/><path class="cls-1" d="M1403.2,797.67c13.35,0,25.59,4.17,36.72,12.5,7.23,7.94,10.84,18.85,10.84,32.71v.29c0,7.1-1.86,11.59-5.57,13.48-17.97,6.84-38.22,10.25-60.74,10.25h-4.98l-.29,.2v.98c2.21,5.99,6.45,10.64,12.7,13.96,3.91,2.08,10.16,3.12,18.75,3.12,7.88,0,15.27-2.34,22.17-7.03,2.6-1.5,5.24-2.25,7.91-2.25h.59c5.4,0,9.02,1.3,10.84,3.91,1.56,1.82,2.34,6.9,2.34,15.23v1.46c0,5.4-.98,8.66-2.93,9.77-5.66,2.41-12.34,4.43-20.02,6.05-11.13,1.82-19.34,2.73-24.61,2.73h-1.27c-16.8,0-31.61-3.74-44.43-11.23-14.78-12.43-22.17-29.17-22.17-50.2,0-25.06,11.78-41.99,35.35-50.78,10.55-3.45,20.15-5.18,28.81-5.18Zm-4.3,26.56c-10.16,0-16.77,3.68-19.82,11.04l-.59,3.42c0,4.49,1.95,7.03,5.86,7.62h.49c6.9,0,17.12-1.95,30.66-5.86,1.63-.91,2.6-1.66,2.93-2.25v-1.66c0-5.47-3.19-9.21-9.57-11.23-1.76-.72-3.88-1.07-6.35-1.07h-1.27l-.29-.2-.2,.2h-1.86Z"/><path class="cls-1" d="M1473.12,797.18l9.38,.2,10.94-.2c5.4,0,9.11,2.31,11.13,6.93,2.6,7.88,7.97,28.94,16.11,63.18,.32,0,1.72-7.45,4.2-22.36,4.23-23.24,7.16-37.53,8.79-42.87,.91-2.93,3.35-4.39,7.32-4.39h14.36c9.7,0,14.55,1.04,14.55,3.12v.2c0,2.47-2.57,12.7-7.71,30.66-5.99,25.39-10.91,45.05-14.75,58.98-6.64,21.42-13.09,36.49-19.34,45.21-11.59,14.52-26.01,21.78-43.26,21.78-10.68-.59-16.54-2.08-17.58-4.49-2.54-4.04-3.81-10.45-3.81-19.24v-9.18c0-7.36,2.21-11.04,6.64-11.04h1.76c5.08,0,11.07,1.79,17.97,5.37l4.69,1.17c4.17,0,6.96-3.52,8.4-10.55l.2-3.32v-2.73c0-8.07-3.58-18.62-10.74-31.64-14.26-33.14-22.04-56.35-23.34-69.63,.71-3.45,2.08-5.18,4.1-5.18Z"/></svg>