<?xml version="1.0" encoding="UTF-8"?><svg id="a" xmlns="http://www.w3.org/2000/svg" xmlns:xlink="http://www.w3.org/1999/xlink" viewBox="0 0 1920.0 1080.0"><defs><style> .d { fill: #305098; } .e { fill: #b1d1ee; } .f { stroke: #569961; } .f, .g, .h { fill: none; stroke-miterlimit: 10; } .i { fill: #d5e68c; } .j { fill: #62ab70; } .k { fill: #569961; } .l { fill: #44799c; } .m { fill: #7b86b6; } .n { fill: #597fbf; } .o { fill: #57a666; } .p { fill: #928ebc; } .q { fill: #4da08e; } .r { fill: #357e6e; } .s { fill: #457b8c; } .t { fill: #477a8c; } .u { fill: #54909d; } .v { fill: #487b8d; } .w { fill: #a8a8ca; } .x { fill: #adcdea; } .y { fill: #aa9446; } .z { fill: #4568b2; } .aa { fill: #095e51; } .g { stroke: #5e9f5f; } .h { stroke: #a5bfbc; } .ab { fill: #83be58; } .ac { fill: #cff099; } .ad { fill: #5e618a; } .ae { fill: #75a9b6; } .af { fill: url(#b); } .ag { fill: #488295; } .ah { fill: #aeceeb; } .ai { fill: #8ebf6d; } .aj { fill: #5a91b4; } .ak { fill: url(#c); } .al { fill: #68a8b6; } .am { fill: #7a96cb; } .an { fill: #817fa6; } .ao { fill: #0d4e60; } .ap { fill: #79a85e; } .aq { fill: #41887a; } .ar { fill: #66aab6; } .as { fill: #d3eded; } .at { fill: #75a8b6; } </style><linearGradient id="b" x1="955" y1="0" x2="955" y2="1080" gradientTransform="translate(0 1080) scale(-1 -1)" gradientUnits="userSpaceOnUse"><stop offset="0" stop-color="#0098ff"/><stop offset=".06" stop-color="#17a2ff"/><stop offset=".2" stop-color="#4eb9ff"/><stop offset=".34" stop-color="#7dccff"/><stop offset=".48" stop-color="#a4ddff"/><stop offset=".61" stop-color="#c2e9ff"/><stop offset=".75" stop-color="#d7f2ff"/><stop offset=".88" stop-color="#e4f8ff"/><stop offset="1" stop-color="#e9faff"/></linearGradient><radialGradient id="c" cx="615" cy="280" fx="615" fy="280" r="255" gradientTransform="translate(1920 0) rotate(-180) scale(-1 -1)" gradientUnits="userSpaceOnUse"><stop offset="0" stop-color="#fff"/><stop offset=".16" stop-color="#fefff9"/><stop offset=".35" stop-color="#feffea"/><stop offset=".43" stop-color="#feffe3"/><stop offset=".48" stop-color="#feffe1" stop-opacity=".97"/><stop offset=".55" stop-color="#feffdc" stop-opacity=".89"/><stop offset=".64" stop-color="#feffd3" stop-opacity=".76"/><stop offset=".74" stop-color="#feffc8" stop-opacity=".58"/><stop offset=".85" stop-color="#feffb9" stop-opacity=".35"/><stop offset=".97" stop-color="#feffa8" stop-opacity=".07"/><stop offset="1" stop-color="#ffffa4" stop-opacity="0"/></radialGradient></defs><rect class="af" x="0" y="0" width="1920" height="1080.74" transform="translate(1920 1080.74) rotate(-180)"/><path class="ah" d="M921.38,838.02c-31.66-60.43-13.28-109.45-62.38-118.2-15.74-3.26-27.46,1.91-36.52,12.66-6.14,33.97,5.02,69.9,13.62,105.53h85.28Z"/><path class="e" d="M898.15,768.91c-1.07-25.59-14.28-43.05-42.98-50.13-14.26-1.4-24.44,4.42-32.68,13.7v34.72s30.38-15.49,30.38-15.49c.14,8.71,3.7,7.39,10.13-2.3,7.37,10.14,11.26,9.72,11.23-2.55,2.36,6.84,6.32,11.47,15.91,8.34,1.4,5.03,4.25,9.53,8,13.7Z"/><path class="x" d="M861.98,838.02c-3.42-113.77-15.48-217.26-98.38-236.43-100.7-12.35-140.94,145.37-188.23,283.29l286.61-46.87Z"/><path class="am" d="M800.79,844.36c1.44-8.53-.39-13.81-6.77-14.55-.02-7.32-.89-13.81-11.11-11.23,1-9-2.3-13.42-10.09-13.02-4.47-27.11-40.65-21.91-39.96,.89l1.53,45.45,66.38-7.53Z"/><path class="d" d="M790.19,842.19c9.02-7.59-3.85-17.6-10.47-13.28-.45-6.92-4.28-10.55-13.66-8.81,13.08-5.14,14.86-9.99,6-14.55-3.06-13.28-25.78-18.16-27.83-6.89-8.74-2.78-11.86,1.93-12.77,9.57-8.6,1.55-9.72,6.3-5.59,13.28-13.07,7.61-8.93,29.36,4.06,24.38l60.26-3.7Z"/><path class="n" d="M746.15,845.77c-.38-.13-9.7-8.43-9.7-8.43-2.04,14.94-11.3,16.79-12.38-1.02-6.14-6.52-4.24-11.19,7.28-13.66-3.21-6.61-3.32-11.21,3.77-11.11,.6-3.3,1.94-5.74,6.83-4.09-2.59-21.76,21.57-9.06,26.55,4.47,5.93,.81,6.95,3.26,5.23,6.64,26.68,6,11.43,32.49-8.68,14.81-5.01,5.73-9.8,9.68-13.28,3.57l-7.79,.13,8.43,9.45-6.26-.76Z"/><path class="z" d="M695.17,851.89c6.15-15.21,9.84-28.6,4.94-35.66-.5-2.33-.13-4.35,3.4-5.28,.67-13.45-1.82-17.02-6.04-15.22,10.97-25.38-6.65-40.69-4.86-13.04-4.04,.01-6.16,3.67-5.28,13.04-5.45,20.37,.86,38.33,7.83,56.16Z"/><path class="z" d="M681.89,850.28c-9.7-2.08-15.56-5.47-11.4-12.26-6.67-6.33-8.86-12.73-6.13-19.23-4.23-.29-6.39-2.15-3.06-8.17-6.66-7.79-7.42-13.8-2.89-18.23-7.05-21.77,.68-25.17,5.28-11.9,3.62,.45,5.59,3.74,4.77,11.9,5.31,.55,6.28,4.03,1.7,11.25,11.36,10.46,11.49,28.6,11.74,46.64Z"/><path class="d" d="M688.78,850.25c3.38-17.09,7.22-34.43-4.67-42.7v-3.57c8-6.62,4.59-7.45-1.7-6.81,2.89-20.94-10.89-16-1.7,9.36-10.04-2.52-10.32,6.22-4.09,22.47-8.3,.46,.96,10.34,12.16,21.25Z"/><path class="v" d="M1620.62,624.91c.85-161.87,50.17-256.65,164.17-269.36,75.33-2.21,93.32,39.45,135.19,159.45v201.93c-144.75,18.47-237.76,40.88-299.36-92.02Z"/><path class="at" d="M1631.85,517.68c12.77-83.74,57.35-158.54,157.28-163.91,72.07-5.5,96.28,59.08,131.57,146.38l-133.87,34.38c-8.59-5.55-19.02-2.29-30.38,5.47-5.86-7.05-10.25-19.34-10.21-47.34-15.85,36.75-28.7,50.92-33.83,6.77-11.35-6.61-12-31.85-9.57-62.43-17.27,56.62-30.14,89.28-30.08,51.57-12.75,39.54-26.64,40.51-40.89,29.11Z"/><path class="an" d="M1745.21,710.96c33.19-104.43,11.23-189.19,64.34-216.26,5.98-14.3,14.05-22.56,23.66-29.36,15.82-11.2,37.1-12.84,55.49-6.72,23.62,7.86,10.48-.1,31.3,14.38v235.49s-174.79,2.47-174.79,2.47Z"/><path class="p" d="M1919.98,515l-48.13,3.96c-24.27,43.94-36.8,48.21-35.23,4.85-19.36,46.66-35.74,46.47-21.7-2.04-3.7-6.3-3.79-15.25,0-27.06-22.95,38.63-28.51,33.66-19.66-7.4,8-14.75,20.15-25.04,35.99-31.35,17.46-6.96,36.9-7.18,54.7-1.16,14.91,5.05,19.21,6.22,34.06,16.58l-.02,43.63Z"/><path class="w" d="M1919.98,506.66c-35.42-7.13-67.5-17.42-102.77-41.32-5.58,3.4-10.21,8.15-12.77,15.83-5.21,19.1,4.31,14.74,17.11,5.17,2.17,39.89,12.38,39,15.83,7.09,7.25,24.12,18.34,24.72,31.28,13.91,1.68,12.96,6.65,18.8,15.7,15.83,10.16,32.67,20.15,32.58,30,6.38,6.89,56.81,4.65,42.93,5.49-4.6l.13-18.3Z"/><path class="al" d="M1044.11,863.04c6.76-14.96,14.65-24.72,27.4-12.26,5.42-16.29,12.53-22.6,22.98-9.19,1.34-18.85,9.18-23.98,27.23-7.49,4.11-5.81,8.88-9.87,17.36-4.09-2.72-17.61,4.59-22.27,22.21-13.62-3.26-15.06,1.1-18.45,9.94-14.98l6.66,40.51-128.34,35.4-5.45-14.3Z"/><path class="v" d="M1306.83,747.82c73.28-134.65,16.09-340.48,140.17-339.92,71.54-.86,105.22,70.72,135.67,165.96-105.69,89.92-213.17,184.01-275.84,173.97Z"/><path class="at" d="M1361.69,504.65c3.45-46.89,21.09-76.32,50.38-89.75,20.57-9.43,45.92-9.68,67.35-2.41,29.05,9.85,49.82,30.24,63.06,55.15l-114.02,72.36c-2.6-5.36-2.85-12.04-3.35-20.76-.04-.74-1.12-.81-1.24-.08-2.13,13.41-5.39,39.06-11.36,58.77l-13.02,13.53c-1.85-15.59-1.56-38.65,0-66.13-9.68,38.7-14.45,28.25-15.06-23.74-14.19,28.37-20.46,34.18-11.74-2.68l-11.01,5.74Z"/><path class="ad" d="M1161.3,849.09c9.52-154.66,21.16-221.29,75.17-237.01,7.33-2.13,14.97-3.03,22.6-2.96,73.53,.67,104.21,80.85,129.72,193.25l-227.49,46.72Z"/><path class="m" d="M1171.24,734.8c14.32-103.76,42.45-126.78,86.57-125.69,55.35-3.66,82.16,34.87,102.5,93.73-9.31,45.02-30.36,79.07-50.67-7.2-3.57,17.53-8.51,10.55-14.81-20.94,1.7,34.95-3.43,35.01-15.32,.51,6.68,96.67-1.64,94.6-22.21,12-.8,36.16-6.32,23.38-15.06-22.98,.52,115.91-7.29,118.47-18.89,69.19-13.63,62.69-20.51,61.79-22.3,13.02-9.08,54.85-11.49,11.36-13.19-42.64-1.2,53.36-8.63,62.8-16.61,30.99Z"/><path class="ap" d="M1202.88,864.43c143.01-12.53,181.31-393.21,326.07-418.49,136.34-26.04,174.7,119.22,255.83,281.11l-581.9,137.38Z"/><path class="ai" d="M1661.45,494.8c-26.99-33.84-58.12-62.08-117.9-51.61-4.98,.87-9.99,1.6-15.02,2.1-27.97,2.73-59.12,18.35-106.28,98.9-2.22,46.79,6.87,45.47,24.75,6.7,30.31,38.43,57.65,58.93,70.98-5.11,5.39,32.66,14.52,36.21,27.51,9.7,10.19,1.17,21-2.97,33.73-23.49,8.84,28.17,17.79,27.21,26.76,20.94,23.72,20.86,33.75,14.16,25.87-28.6,34.07,44.07,43.32,44.72,26.04-1.02,18.14,3.5,20.06-5.44,3.55-28.5Z"/><path class="s" d="M609.04,869.89c19.96-95.61-16.34-207.7-96-210.77-89.47,1.87-139.96,64.66-136.34,212,98.47,22.11,197.57,44.9,232.34-1.24Z"/><path class="at" d="M608.02,780.4c-4.46-66.09-28.94-100.16-65.3-114.85-19.07-7.71-40.06-9.06-60.23-5.04-59.23,11.8-84.91,57.52-97.55,112.74,1.87,5.84,9.77-2.9,19.08-15.06-.36,41.97,5.05,39.35,14.3,7.17,1.53,18.1,6.6,23.07,21.45-8.19,15.15,85.29,48.4,78.16,55.47,15.31,.34-3.06,4.69-3.33,5.39-.33,17.59,74.84,29.69,88.06,34.63,21.01,22.41,65.25,32.36,24.34,43.15-9.45,26.37,29.04,29.4,20.04,18.13-12.26l11.49,8.94Z"/><path class="u" d="M384.92,787.69c.8-114.42-18.8-198.8-83.72-216.39C276.73,259.77,156.59,190.68,0,188.49V799.42s384.92-11.72,384.92-11.72Z"/><path class="ag" d="M384.92,787.69c-15.75-126.94-42.61-205.08-88.24-200.82-14.56,3.59-19.27,18.19-18.82,38.55C257.88,191.67,121.92,232,0,188.49V799.42s384.92-11.72,384.92-11.72Z"/><path class="ae" d="M277.38,864.91c7.31-179.8-69.76-277.95-248.17-278.04v287.23s248.17-9.19,248.17-9.19Z"/><path class="r" d="M1076.28,864.43c-43.8-17.7-90.24-31.23-146.55-29.13-47.14-14.58-87.62-9.3-125.21,4.6l-77.13,5.37c-11.91,.83-23.77,2.3-35.51,4.43-89.85,16.28-166.24,27.44-233.73,35.2l94.21,94.66,523.91-115.13Z"/><path class="aq" d="M1071.51,859.81c-74.62-21.39-151.79-14.8-230.13,4.62-103.95-9.83-189.33,.13-259.76,26.02-7.01,2.58-8.49,11.87-2.56,16.4,31.99,24.45,84.64,33.23,167.85,18.83,45.23-18.42,108.02-31.61,184.34-40.79,38.7-7.9,65.15-9.96,66.38,0l73.87-25.08Z"/><path class="q" d="M820.83,888.28l28.85,2.04c15.83-8.97,13.02-15.99-14.43-20.43,5,3.8,6.65,7.06,6.26,9.97-.22,1.63-1.48,2.92-3.06,3.37l-17.63,5.04Z"/><path class="q" d="M720.19,901.34c3.03-.78,4.48-4.22,.45-16.98-.43-1.37,.14-2.85,1.36-3.61,4.51-2.77,5.29-5.63,1.2-8.59-.41-.3-.9-.47-1.4-.53-8.11-.93-15.56-.82-20.96,2.49-1.16,.71-1.71,2.08-1.41,3.4,.69,3.02,2.17,5.37,4.8,6.74,1.06,.55,1.7,1.72,1.64,2.91-.18,3.3-2.19,6.12-6.32,8.39-.3,.17-.56,.4-.8,.65-.08,.08-.16,.15-.24,.23-2.07,1.82-.84,5.24,1.92,5.38,5.78,.3,12.66-.03,19.77-.48Z"/><path class="aj" d="M583.26,958.01c-4.68-25.07-8.56-56.22-15.83-61.69-5.62-3.49-10.98-1.72-16.09,5.36,6.1-21.86-14.81-36.77-27.06-32.94-12.8-8.83-24.95-13.06-32.94,11.74-2.74-45.32-13.25-74.23-39.83-69.19-6.6-24.68-17.32-36.5-37.79-17.87-2.26-14.21-5.49-27.27-19.51-27.57-10.16-1.79-16.96,1.32-20.32,9.45-7.03-6.63-11.98-5.79-14.55,3.57-14.78-11.42-27.42-9.37-38.55,2.3-24.58-14-39.87-1.77-51.57,20.6l-31.57,131.4,345.62,24.84Z"/><path class="l" d="M532.96,944.32c2.73-2.83-9.42-18.16-14.3-16.6-4.49-.59-7.83,2.54-10.34,8.3-7.89-16.68-17.34-22.39-29.93-5.73-6-14.82-12.62-26.3-23.43-14.82,6.92-25.47,.68-34.04-14.94-30.58-6.32-25.28-17.52-29.77-32.43-18.44-6.49-23.03-15.98-36.46-33.7-23.49-9.53-11.38-20.9-12.5-33.79-5.11-12.22-19.73-28.95-12.21-45.19-7.66-27.27-9.41-42.61,.18-42.62,34.21l21.85,67.91,258.81,12Z"/><path class="ar" d="M729.17,933.47l-8.94-14.17c-2.15,.88-4.69,2.92-8.17,7.66-5.02-4.2-9.89-6.19-14.3-1.66-1.58-4.83-4.45-6.66-9.06-4.47,1.7-13.45-3.72-16.08-13.02-4.98-3.08-7.76-7.85-8.78-13.91-4.64-2.94-18.53-14.84-23.54-29.23-15.15-12.73-3.78-23.58-4.1-26.38,10.38-10.08-9.79-24.1-15.77-34.08-7.73-3.86,3.11-6.16,7.78-6.63,12.72-9.77,6.14-13.35,17.55-10.65,34.28l127.45,11.45,46.94-23.7Z"/><path class="aa" d="M810.57,926.36c.49-11.19,1.12-22.65-4.09-23.49-2.62,.39-4.82,1.58-6.13,4.43,.02-1.42-.09-2.74-.4-3.86-.55-2.05-2.59-3.37-4.69-3.06s-4.31-.15-6.47-.05c-.95,.04-1.89-.18-2.69-.71l-10.24-6.74c-1.35-.89-3.17-.58-4.14,.72l-4.4,5.86c-11.59-7.45-16.06-3.65-18.04,4.09-15.13-1.12-20.21,3.46-19.06,11.57-12.18-4.51-16.05-2.12-13.28,5.79-12.82-.02-3.87,14.67,0,26.55l93.62-21.11Z"/><path class="t" d="M286.83,922.11c7.64-101.78-8.08-149.33-40.85-157.28-9.5,.15-16.13,5.71-20.54,15.42-.84,1.85-3.07,2.63-4.86,1.67C65.1,699.46,92.11,559.78,0,520.74v429.12s286.83-27.75,286.83-27.75Z"/><path class="j" d="M1920,687.85c-192.54-37.77-672.15,143.36-1078.11,225.4C475.39,975.9,186.6,974.66,0,889.43v191.31s1920,6.31,1920,6.31v-399.19Z"/><path class="k" d="M767.34,991.55c-101.76,34.71-203.55,69.03-307.46,79.81-17.8,1.85-35.75,1.95-53.58,.47-138.07-11.5-227.11-25.67-150.86-48.81,.58-.18,.5-1.01-.1-1.06-126.71-10.39-263.79-40.57-169.93-70.27,.32-.1,.27-.57-.07-.6-88.41-7.26-131.14-16.45,1.58-33.06,238.91-16.66,464.81,10.93,680.43,73.53Z"/><path class="ab" d="M767.34,989.51c-101.76,34.71-203.55,69.03-307.46,79.81-17.8,1.85-35.75,1.95-53.58,.47-138.07-11.5-227.11-25.67-150.86-48.81,.58-.18,.5-1.01-.1-1.06-126.71-10.39-263.79-40.57-169.93-70.27,.32-.1,.27-.57-.07-.6-88.41-7.26-131.14-16.45,1.58-33.06,238.91-16.66,464.81,10.93,680.43,73.53Z"/><path class="f" d="M303.85,1032.91c-2.66-2.97-6.2-4.08-11.57-1.36-2.41-3.15-4.58-4.29-6.3-1.53"/><path class="f" d="M275.6,1033.77c-2.03-.22-4.05-.39-6.3,2.38-3.42-2.33-7.14-2.96-11.06-2.38"/><path class="f" d="M285.81,1023.13c-1.33,1.85-5.11,2.75-13.74,1.79-2.3,3.05-5.59,3.87-9.57,3.15"/><path class="f" d="M269.21,1008.79c-2.58-1.42-5.2-1.72-7.91,1.09-5.53-3.72-10.45-4.14-14.11,2.17-3.02-2.76-7.04-3.22-11.81-1.91"/><path class="f" d="M401.21,976.66c-5.79-4.34-22.55-5.28-23.66,.43-.72-1.43-2.04-2.19-3.66-2.64"/><path class="f" d="M367.43,962.7c-4.79-5.41-10.65-8.51-19.4-5.36-1.15-4.08-3.98-5.82-7.91-6.04"/><path class="f" d="M362.4,944.32c.02-2.45-8.63-2.41-8.64-.89-1.18-1.4-2.89-2.43-5.53-2.81"/><path class="f" d="M323.47,945.47c-3.35-.9-6.73-.91-10.21,2.94-5.49-12.89-14.81-9.7-13.4,2.04-5.44-2.44-8.17-.79-8.17,4.98-4.94-.61-8.4,.33-9.06,4.21"/><path class="f" d="M414.87,959c4.98-4.47,10.36,.75,11.49,5.23-.77-12.51,14.13-18.68,18.51-3.57,1.77-1.74,5.24-2.21,10.09-1.66"/><path class="f" d="M491.34,964.23c-3.61-1.68-6.74-1.27-9.45,1.02-1.11-1.79-3.23-2.38-6.38-1.79"/><path class="f" d="M475.51,980.19c2.97-3.06,6.46-2.16,10.21,.64"/><path class="f" d="M515.47,967.3c-5.15,.3-6.98,2.04-5.49,5.23-4.31-2.36-7.28-2.41-8.81,0"/><path class="f" d="M298.81,1030.07c.24-3.96,.77-9.79,1.26-12.36"/><path class="f" d="M279.94,1025.25c-.67-5.75-.64-11.04,.43-15.65"/><path class="k" d="M269.21,1014.87c.99,3.92,4.43,5.67,10.32,5.28l-4.08-3.29c-1.13-.91-2.49-1.49-3.93-1.68l-2.31-.31Z"/><path class="k" d="M288.63,1015.92c-1.16,2.37-5.34,4.27-9.1,4.23l2.6-3.09c.65-.77,1.54-1.28,2.53-1.45l3.3-.57c.5-.09,.89,.43,.67,.88Z"/><path class="f" d="M398.4,956.38c-.56,5.4-.68,11.75-.51,18.71"/><path class="k" d="M386.85,959.26l2.92,5.3c.77,1.39,2.19,2.3,3.78,2.4l4.28,.28c-3.26-3.81-6.91-6.47-10.97-7.98Z"/><path class="k" d="M397.82,967.23c1.48-3.5,4.89-5.1,9.77-5.26l-1.79,2.36c-.85,1.11-2.08,1.86-3.45,2.1l-4.53,.79Z"/><path class="ac" d="M405.57,948.63l-1.91,1.04c-.47,.25-1.04-.03-1.13-.55l-.7-4.17c-.04-.26-.37-.36-.55-.17l-2.7,2.83c-.34,.35-.93,.22-1.08-.25l-1.08-3.44c-.11-.34-.59-.32-.68,.02l-1.17,4.72c-.81,4.12-.27,6.96,1.98,8.16,.98,.52,2.14,.57,3.21,.31,3.42-.83,5.25-3.94,6.48-7.93,.13-.41-.31-.77-.68-.57Z"/><path class="ac" d="M286.15,998.87c.19-.18,.5-.04,.51,.22,.17,7.5-1.67,12.08-6.62,12.1-3.97-.35-4.74-4.87-4.33-10.92,.03-.42,.53-.63,.85-.35l1.99,1.74c.44,.38,1.13,.16,1.26-.41l.72-3.16c.08-.35,.57-.39,.71-.06l1.02,2.44c.3,.71,1.21,.91,1.78,.38l2.12-1.97Z"/><path class="i" d="M307.83,1015.94c.15,3.26-1.34,4.68-4.53,4.21l-.64-.23c-2.12-.77-4.07-1.94-5.76-3.44l-.17-.15c-4.54-.42-6.71-1.97-7.28-4.28,1.6-2.92,4.41-3.22,7.72-2.44-1.43-1.64-1.61-3.67-.57-6.05,3.22-3.46,6.4-.92,9.57,2.17,3.9-2.41,6.41-.89,8.74,1.15,.78,1.26,.45,2.55-2.43,3.89,2.57-.49,3.65,.51,3.13,3.13,.03,2.37-3.35,2.54-7.79,2.04Z"/><path class="y" d="M305.27,1012.78l-1.53,1.03c-.43,.29-.99,.32-1.45,.08l-1.21-.64c-.99-.52-1.01-1.93-.05-2.48l1.44-.83c.36-.2,.78-.25,1.17-.11l1.29,.44c1.11,.38,1.3,1.86,.33,2.52Z"/><path class="i" d="M308.81,973.1h-2.37c-.34,0-.66,.15-.88,.42l-1.64,1.99c-.43,.52-1.22,.56-1.69,.08l-2.22-2.24c-.16-.16-.36-.27-.58-.32l-1.84-.38c-.89-.18-1.22-1.28-.58-1.93l2.27-2.27c.09-.09,.17-.2,.23-.32l1.22-2.62c.3-.63,1.09-.85,1.67-.47l3.17,2.11c.21,.14,.47,.21,.72,.19l2.01-.16c1.04-.08,1.64,1.16,.92,1.92h0c-.4,.42-.42,1.07-.04,1.52l.5,.6c.62,.74,.09,1.87-.88,1.87Z"/><path class="y" d="M304.95,971.07l-1.16,.78c-.33,.22-.75,.24-1.1,.06l-.92-.48c-.75-.4-.77-1.46-.03-1.88l1.1-.63c.27-.16,.59-.19,.89-.09l.98,.34c.84,.29,.99,1.42,.25,1.91Z"/><path class="ac" d="M320.5,966.61c.11-.18,.38-.14,.44,.06,1.71,5.82,1.23,9.78-2.63,10.84-3.17,.56-4.72-2.81-5.67-7.62-.07-.33,.28-.6,.59-.45l1.92,.94c.43,.21,.92-.11,.9-.59l-.1-2.62c-.01-.29,.36-.43,.54-.19l1.3,1.69c.38,.49,1.14,.46,1.47-.07l1.24-1.98Z"/><path class="ac" d="M299.15,979.94c.13-.09,.3,.01,.29,.17-.42,4.53-1.84,7.16-4.82,6.83-2.37-.49-2.52-3.26-1.85-6.88,.05-.25,.36-.34,.54-.15l1.08,1.18c.24,.26,.67,.17,.79-.16l.65-1.85c.07-.21,.37-.2,.43,.01l.44,1.54c.13,.45,.67,.63,1.04,.35l1.41-1.04Z"/><path class="i" d="M360.05,977.13l.9-1.96c.65-1.41-.45-3.01-2-2.9l-2.87,.2c-.49,.03-.98-.11-1.38-.41l-2.73-2.06c-.91-.69-2.21-.5-2.88,.42l-2.11,2.87c-.26,.36-.64,.62-1.07,.75l-1.21,.36c-1.8,.54-1.99,3.01-.3,3.81l.13,.06c.81,.38,1.27,1.24,1.15,2.13h0c-.21,1.56,1.33,2.76,2.79,2.18l3.6-1.44c.5-.2,1.07-.19,1.57,.02l3.43,1.47c1.37,.59,2.89-.44,2.85-1.94l-.07-2.65c0-.31,.06-.63,.19-.91Z"/><path class="y" d="M352.9,977.86l-1.38-.21c-.39-.06-.72-.33-.85-.7l-.35-.98c-.28-.8,.42-1.6,1.25-1.41l1.23,.27c.3,.07,.56,.26,.71,.54l.49,.91c.42,.78-.23,1.71-1.11,1.58Z"/><path class="i" d="M340.46,952.24l-2.95,3.66c-.77,.95-2.16,1.11-3.13,.35l-3.11-2.45c-.16-.12-.33-.22-.51-.3l-1.06-.45c-1.86-.79-1.8-3.45,.09-4.16h0c.48-.18,.88-.51,1.14-.95l1.97-3.28c.63-1.04,1.97-1.4,3.03-.79l4.2,2.4c.31,.18,.67,.28,1.03,.29h.03c2.08,.08,2.94,2.71,1.3,4l-1.68,1.32c-.13,.1-.25,.22-.36,.35Z"/><path class="y" d="M336.39,950.68l-.88,.58c-.25,.16-.57,.18-.83,.04l-.69-.37c-.56-.3-.57-1.11-.01-1.42l.83-.47c.2-.12,.45-.14,.67-.06l.73,.26c.63,.22,.73,1.07,.17,1.44Z"/><path class="k" d="M1646.15,715.04c88,26.13,96.85,97.62-25.53,90.64,53.05,63.3-204.77,91.4-417.73,21.17,133.63-35.94,275.43-69.63,443.27-111.81Z"/><path class="ab" d="M1643.09,710.96c88,26.13,96.85,97.62-25.53,90.64,53.05,63.3-206.81,90.89-416.51,24.68,133.63-35.94,274.21-73.14,442.04-115.32Z"/><path class="g" d="M1484.79,789.68c-1.09-2.67,8.57-1.76,10.72,2.04,2.1-5.15,5.57-4.28,9.36-2.04"/><path class="g" d="M1483.6,773c3.89-.23,7.6,.45,11.19,1.7,1.84-3.12,5.61-3.36,10.09-2.55"/><path class="g" d="M1571.94,779.3c-3.77-1.15-7.3-1.14-10.38,1.02"/><path class="g" d="M1564.28,782.7c-1.92-2.63-4.2-2.48-6.64-1.02"/><path class="g" d="M1562.34,772.43c-2.55-.34-4.43,1-6,3.13"/><path class="g" d="M1545.49,765.91c-1.66-2.57-5.28-3.5-10.21-3.32"/><path class="g" d="M1596.3,750.66c-3.05-.88-5.86-.61-7.98,2.94-4.41-5.59-8.97-9.12-14.36-1.02-1.29-2.53-2.9-3.35-4.91-1.91"/><path class="ao" d="M1542.74,677.77c1.06,17.53-6.85,25.13-21.96,24.77-11.76,14.98-24.03,20.09-37.28,6.51-15.27,4.09-23.02,1.57-19.79-10.6-4.27-5.2-5.34-9.99,3.19-13.53,.59-4.56,2.22-8.66,4.98-12.26-19.21,10.97-30.84,7.56-31.02-17.62-3.2-12.93,4.65-18.51,12.26-24.26-2.88-6.58-4.97-13.08-1.19-18.98-2.59-10.15,.66-15.21,7.83-16.85,10.04-39.15,44.23-35.29,54.47-27.57,5.46-6.53,10.27-6.32,14.72-2.55,8.67-6.2,14.84-2.27,19.66,7.15,7.32,1.34,11.19,5.56,10.04,13.96,5.9,2.87,9.07,7.49,6.47,15.83,5.79,12.6,23.83-1.19,28.77,12.6,23.12,4.09,19.4,31.15,1.19,37.28-6.63,29.45-21.44,33-41.19,20.94l-11.15,5.19Z"/><path class="as" d="M1563.04,755.89c-3.43,.76-7.17,.77-11.23,0,3.23-33.47,.1-64.61-18.77-90-8.91-.17-17.36,5.09-25.66,12.13l-3.7,13.28c1.41,5.62,4.37,8.76,8.3,10.34-3.36-.29-6.68-1.08-9.57-6.64-1,3.69-1.04,8.17,0,13.53-.73-2.5-1.46-4.89-2.3-5.62-1.93,.64-2.36,3.02-2.94,5.23v-9.96s-11.23,3.83-11.23,3.83c12.31-5.3,17.59-12.87,18.13-21.96l-12.26,8.55,22.56-20.15c.37-.33,.07-.95-.42-.86l-20.99,3.77,41.74-8.68-4.72-9.57-52.15-5.08c-.93-.09-1.81,.42-2.2,1.27-5.31,5.26-9.2,10.59-9.29,17.15-.41,.9-.5,1.67-1.47,1.85l-.7-.13c-1.32,.24-1.19-.48-.69-1.72l5.42-13.38c.2-.49-.44-.88-.78-.48l-9.59,11.2c-.17,.19-.47-.02-.33-.24l4.81-7.9c.23-.37-.22-.79-.58-.54l-8.8,6.2,12.69-9.63c.44-.33,.09-1.02-.44-.87l-12.26,3.52,11.88-5.5c.44-.2,.28-.87-.21-.84l-13.37,.73,36.09-4.09-6.34-4.98c-.52-.41-1.17-.6-1.83-.54l-22.64,2.06c-.35,.03-.42-.47-.08-.55l19.27-4.22c.51-.11,.67-.76,.28-1.1l-6.01-5.13,13.68,7.77c.64,.36,1.44,0,1.59-.72l.71-3.55c.09-.43,.7-.4,.75,.03,.64,5.07,2.43,8.39,5.05,10.43,4.38,2.17,20.4,2.92,34.38,3.91-9.5-15.07-22.28-29.97-40.34-44.6,11.93,8.73,23.63,17.36,28.77,23.15,2.56-12.13,1.58-26.87-1.36-43.06,4.42,16.85,7.55,32.81,7.83,46.81l13.62,19.4c5.72-8.94,8.84-20.69,5.71-39.22-.15-.89-.63-1.68-1.29-2.3-3.34-3.13-5.07-9.17-6.41-15.92-.11-.55,.64-.82,.91-.33l5.75,10.37c.21,.39,.79,.3,.89-.13l.46-2.05c.13-.56,.91-.58,1.08-.03,5.83,19.65,1.88,45.42-2.24,54.88,7.67-13.33,12.26-35.06,12.17-56.34,2.97,3.93,3.27,10.63,2.72,18.21,4.63-5.23,5.88-3.66,8.6-5.34-8.15,16.5-12.87,26.62-14.05,38.24-.33,.87-.49,1.79-.47,2.71l-2.16,7.02c.01,.51,2.94-2.28,3.21-2.71l23.81-37.39c.13-.2,.43-.03,.33,.18l-16.54,33.71,27.82-10.33c.35-.13,.61,.34,.32,.57l-11.97,9.42,10.12,1.16c.31,.04,.32,.48,.02,.53l-14.33,2.63c-1.02,.19-1.4,1.45-.65,2.17l6.12,5.87c.13,.13,0,.34-.18,.28l-3.81-1.47c-.2-.08-.38,.15-.25,.33l3.09,4.16c.24,.32-.16,.73-.49,.49l-4.47-3.3c-.71-.52-1.72-.17-1.96,.68l-.61,2.23c-.08,.28-.48,.27-.55-.01-1.14-4.54-.43-8.59-1.93-9.94-.83-1.6-3.21-2.05-6.99-1.47-.87,.13-1.53,.9-1.54,1.78-.14,34.63,11.87,59.52,32.51,77.51,3.12,2.72,7.12,4.2,11.26,4.16,2.15-.02,4.37-.2,6.62-.46-4.45,8.43-26.64,3.53-31.15,7.5-5.95,1.21-9.83,3.94-11.79,8.08Z"/><path class="h" d="M1566.62,745.94c-.11-11.87-1.41-20.68-4.85-24,.94,3.56,.95,7-.77,10.21-2.31-2.85-4.02-9.47-5.31-18.77-.83-6.02-2.28-11.93-4.22-17.69-2.96-8.76-6.68-18.3-7.58-29.92,3.48,13.24,8.96,24.07,15.45,33.7"/><path class="h" d="M1575.04,742.87c-.13-11.62-4.34-23.62-11.87-23.11-2.8-10.67-7.75-23.58-13.27-37.09"/><path class="h" d="M1581.94,740.96c1.85-2.76,.11-6.33-6.13-13.91"/><path class="h" d="M1550.66,669.09c1.24,7.37,2.9,14.01,5.68,18.77-3.4-2.03-7.84-11.46-12.45-22.09"/><path class="o" d="M1558.15,1080.74c9.45-27.93,30.74-38.3,60.26-36.59,9.41-5.68,18.73-10.46,27.74-12.26-.29-15.69,9.86-20.67,22.47-23.15,2.03-15.31,14.89-15.12,29.96-11.74,15.12-9.01,32.14,2.07,49.02,11.74,4.31-5.52,9.76-8.86,18.38-6.13,2.87-8.97,11.81-10.06,22.13-9.36,2.14-5.4,7.66-6.25,14.3-5.62-1.9-14.22,9.45-15.71,24.17-13.96-2.21-13.89,20.25-8.01,42.38-2.38,3.33,2.84,3.22,7.9,2.89,13.11l25.36,3.23c7.4-12.56,10.21-21.34,7.66-25.7-108.27-10.43-195.4-28.74-232.68-65.62l-85.28-6.64c8,6.75,11.84,13.7,9.45,20.94-10.06-6.58-19.98-8.27-29.62-.26-20.87-21.09-41.42-16.09-61.87-4.34-22.1-1.12-44.16-2.27-61.96-5.87-25.16-10.67-52.06-16.84-81.02-17.7-12.17,3.23-42.21-4.34-58.81,5.28-19.97,1.29-36.17,.17-43.74-6.47,1.9,10.56,1.25,20.43-2.81,29.36,13.96-2.76,23.05-.87,27.06,5.87,11.43-11.01,24.75-15.19,42.13-4.85,3.39-8.64,12.25-9.49,25.53-4.09,3.13-9.5-1.92-13.89-14.55-13.53,9.59-7.53,17.71-8.76,20.43,13.02,38.71-2.64,54.13,2.34,50.55,13.53,16.69-3.45,29.47-1.32,33.19,13.79,19.64-5.67,33.91-4.77,38.55,7.91,31.44,1.9,41.14,4.36,9.45,7.91,1.47,11.65-2,15.52-9.19,13.53-23.89,9.29-45.67,23.76-64.6,45.19-24.49-1.83-46.7-1.4-64.85,3.06-18.43-24.25-31.67-30.92-38.04-14.3-20.05-8.47-34.67-10.29-31.66,9.45-13.71,1.39-17.2,6.61-16.85,13.28-10.04-1.45-10.89,12.34-62.64,4.85-10.38-30.13-53.28-35.74-46.38-8.68-8.49-1.6-14.37,.11-19.66,2.55-7.52-5.26-16.43-7.26-26.81-5.87-11.01-5.88-24.09-10.41-40.85-12.51-5.52-5.02-13.12-8.89-33.19-5.87-5.49-3.99-11.97-6.71-32.68,8.68-13.27-4.53-24.72-7-30.25-2.85-4.62,3.47-2.42,10.87,3.33,11.52,16.66,1.86,32.97,3.57,39.69,1.03,9.86-1.05,12.88-3.36,7.91-7.15,12.78-2.17,25.19-3.73,35.49-1.79,1.35,2.23,1.7,4.26,1.28,6.13,.57,2.59,8.79,2.37,16.6,2.3,18.63,5.37,25.23,10.53,24.77,15.57-.69,4.72-7.08,8.2-17.87,10.72-1.6-5.69-5.1-10.12-13.28-11.49l-17.87,5.62c-4.12,1.8-4.75,7.14-5.11,12.77-4.8-.88-8.05,1.06-7.91,9.19-14.99-.75-18.26,8.69-13.79,24.87l533.7,.74Z"/><path class="o" d="M1016.02,1080c-1.61-5.3-4.36-9.05-9.7-9.3-12.68-.94-22.66,.49-31.02,3.32-7.28-3.18-12.65-9.54-15.3-20.43-16.13-1.97-26.97-8.59-36.53-16.34-13.24-4.15-23.29-9.36-28.47-16.21l-13.91,1.53c2.19,6.18,2.23,12.31,0,18.38-25.67-8.24-35.17-5.27-38.81,1.79-30.8-12.54-40.72-9.06-37.02,19.02,40.61-10.47,52.76-.69,52.09,18.23h158.68Z"/><circle class="ak" cx="615" cy="280" r="255"/></svg>