<?xml version="1.0" encoding="utf-8"?>
<!-- Generator: Adobe Illustrator 27.0.0, SVG Export Plug-In . SVG Version: 6.00 Build 0)  -->
<svg version="1.2" baseProfile="tiny" xmlns="http://www.w3.org/2000/svg" x="0px"
     y="0px" viewBox="0 0 100 100" overflow="visible" xml:space="preserve">
<g id="Layer_1">
	<circle fill="#E27DE2" stroke="#FFFFFF" stroke-miterlimit="10" cx="50" cy="50" r="48"/>
</g>
<g id="Layer_3">
	<path fill="none" stroke="#FFFFFF" stroke-width="2" stroke-miterlimit="10" d="M62.8,75.9H37.2c0-2.3,1.1-3.8,4.8-3.5
		c0.6,0,1.1-0.4,1.3-1l1.6-5.1c0.1-0.5-0.2-1-0.6-1H24.7c-2.1,0-3.7-1.9-3.7-4.2v-33c0-2,1.4-3.6,3.2-3.6l51-0.3c2,0,3.6,1.8,3.6,4
		v33.2c0,2.2-1.6,4-3.6,4l-19.4,0.1c-0.5,0-0.8,0.5-0.6,1l1.3,4.7c0.2,0.6,0.7,1,1.3,1C61.1,72.1,62.6,73.4,62.8,75.9z"/>
	<line fill="none" stroke="#FFFFFF" stroke-width="3" stroke-miterlimit="10" x1="21" y1="57.5" x2="78.9" y2="57.5"/>
</g>
</svg>
