<?xml version="1.0" encoding="UTF-8"?><svg xmlns="http://www.w3.org/2000/svg" viewBox="0 0 96 96"><defs><style>.c{fill:#fff;}.d{fill:#e27de2;}</style></defs><g id="a"><circle class="d" cx="48" cy="48" r="48"/></g><g id="b"><path class="c" d="M48.16,10.38l.81,.04c4.92,.23,8.33,3.21,10.23,8.93l.28,2.74-.07,.95c-.19,4.2-2.48,7.44-6.89,9.74-1.48,.7-3.05,1.01-4.71,.91l-.77-.04c-4.94-.21-8.35-3.19-10.23-8.93l-.28-2.71,.04-.98c.21-4.17,2.52-7.41,6.93-9.7,1.48-.7,3.04-1.02,4.68-.95Zm-1.41,29.07l2.57,.32,2.64,.11c4.69,.21,7.01,.7,6.96,1.48,.26,2.84,.4,13.78,.42,32.84-.09,2.16-1.61,3.16-4.54,3.02l-4.25-.18-7.45-.14c-3.19-.14-4.73-1.17-4.64-3.09-.61-18.28-.83-29.03-.67-32.24,.07-1.55,2.12-2.23,6.15-2.04l2.81-.07Z"/></g></svg>