<?xml version="1.0" encoding="UTF-8"?><svg id="a" xmlns="http://www.w3.org/2000/svg" viewBox="0 0 100 100"><defs><style>.b{fill:#fff;}.c{fill:#4c4b40;}</style></defs><rect class="c" width="100" height="100" rx="30.29598" ry="30.29598"/><path class="b" d="M55.01758,18.39551h1.52344c.87891,0,1.40625,.29297,1.58203,.87891,6.25,14.14062,12.69531,29.93164,19.33594,47.37305,1.28906,2.75391,1.93359,4.35547,1.93359,4.80469v.29297c0,.27441-.55664,.43945-1.66992,.49805h-5.41992l-6.41602,.08789c-2.85156,0-4.43359-.78027-4.74609-2.34375l-5.36133-14.23828-.08789-.08789h-.08789c-2.20703,.64453-4.15039,.9668-5.83008,.9668h-.9668c-.99609,0-2.58838-.22363-4.77539-.67383-.13672,.05859-.9082,2.20801-2.31445,6.44531l-3.51562,10.3418c0,.48828-4.56055,1.24121-13.68164,2.25684-1.95312-.25391-2.92969-.87891-2.92969-1.87598,.37061-1.58203,2.67578-7.40137,6.91406-17.46094,7.81201-19.72656,12.37305-30.9668,13.68164-33.7207,1.17188-1.77686,2.59717-2.66602,4.27734-2.66602,3.55469-.58594,6.40625-.87891,8.55469-.87891Zm-12.33398,19.86328c0,2.59766,2.46094,6.22119,7.38281,10.86914,5.42969-3.96484,8.14453-7.5293,8.14453-10.69336v-.17578c0-2.55859-1.29883-3.83789-3.89648-3.83789h-.26367c-1.26953,0-2.48047,.51758-3.63281,1.55273-1.11328-1.11328-2.30469-1.66992-3.57422-1.66992-1.97314,0-3.35938,1.14258-4.16016,3.42773v.52734Z"/></svg>