<?xml version="1.0" encoding="UTF-8"?><svg id="a" xmlns="http://www.w3.org/2000/svg" viewBox="0 0 100 100"><defs><style>.b{fill:#fff;}.c{fill:#4c4b40;}</style></defs><rect class="c" width="100" height="100" rx="30.29598" ry="30.29598"/><path class="b" d="M55.12988,18.4541c6.17188,.19531,10.45898,1.81641,12.86133,4.86328,1.38672,1.25,2.32422,3.22266,2.8125,5.91797,.35156,2.51953,.51758,4.21875,.49805,5.09766-.09766,2.87109-1.54297,5.71289-4.33594,8.52539-2.55859,1.64062-4.14062,2.45117-4.74609,2.43164l.0293,.05859c2.08984,.64453,4.24805,2.01172,6.47461,4.10156,1.62109,1.79785,2.50977,3.65234,2.66602,5.56641,.41016,2.07031,.5957,3.73145,.55664,4.98047-.29297,3.71094-1.36719,6.65039-3.22266,8.81836s-5.02441,3.64258-9.50684,4.4248c-4.48242,.78125-9.16504,.94727-14.04736,.49805l-4.74609-.43945c-4.74609-.64551-7.36377-1.49512-7.85156-2.5498l-.17578-2.10938,.9375-24.25781,.52734-18.63281c.13623-4.1792,.70312-6.25,1.69922-6.21094,.56641-.68359,7.08984-1.04443,19.56982-1.08398Zm1.99219,11.98242c-.82031-.91797-1.69922-1.43555-2.63672-1.55273-1.75781-.37061-3.05664,.29297-3.896,1.99219-.83984,1.69922,1.27881,4.61914,6.35693,8.75977,1.93359-1.23047,3.45703-2.54883,4.57031-3.95508,1.13281-1.60107,1.74805-2.82227,1.8457-3.66211l.08789-.46875c.19531-1.40625-.50781-2.40234-2.10938-2.98828l-.43945-.0293c-1.58203-.21484-2.8125,.42041-3.69141,1.9043h-.08789Zm.35156,25.13672l-.17578-.0293c-.83984-.91797-1.74805-1.44531-2.72461-1.58203-2.20703,0-3.49609,1.09473-3.8667,3.28125-.27393,2.10938,1.89404,4.61035,6.50342,7.5,3.96484-2.83105,6.12305-5.50781,6.47461-8.02734,.19531-1.50391-.64453-2.51953-2.51953-3.04688-1.58203-.21484-2.80273,.3916-3.66211,1.81641l-.0293,.08789Z"/></svg>