<?xml version="1.0" encoding="UTF-8"?><svg id="a" xmlns="http://www.w3.org/2000/svg" viewBox="0 0 100 100"><defs><style>.b{fill:#fff;}.c{fill:#4c4b40;}</style></defs><rect class="c" width="100" height="100" rx="30.29598" ry="30.29598"/><g><path class="b" d="M18.30908,35.26562h1.26562c3.64844,0,5.47266,.16406,5.47266,.49219l.03516,.32812c0,.58594-.22656,1.96094-.67969,4.125-.20312,.48438-.58984,.72656-1.16016,.72656l-3.70312-.49219h-.07031c-1.11719,0-1.87891,.44922-2.28516,1.34766-.09375,.25781-.14062,.51953-.14062,.78516v.03516c0,.57031,.20703,.92188,.62109,1.05469,.5625,.32812,1.63281,.49219,3.21094,.49219,1.50781,0,2.92188,.49609,4.24219,1.48828,.89062,1.07031,1.33594,2.55469,1.33594,4.45312v.82031c0,2.71875-1.0625,4.51953-3.1875,5.40234-.78906,.39844-2.88672,.59766-6.29297,.59766-2.75781,0-4.13672-.13281-4.13672-.39844-.25-.14844-.43359-1.56641-.55078-4.25391,0-.88281,.34375-1.44141,1.03125-1.67578,.10156-.04688,.26172-.07031,.48047-.07031,.22656,0,1.16016,.26562,2.80078,.79688,.80469,.13281,1.5,.19922,2.08594,.19922,1.03906,0,1.67969-.40625,1.92188-1.21875l.07031-.5625v-.30469c0-.49219-.18359-.80859-.55078-.94922-.47656-.17188-.92188-.26172-1.33594-.26953l-2.90625,.03516c-1.96094,0-3.43359-1.07422-4.41797-3.22266-.27344-.69531-.41016-1.62109-.41016-2.77734,0-1.74219,.64062-3.45312,1.92188-5.13281,.75-.77344,1.91016-1.32422,3.48047-1.65234,.64844-.13281,1.26562-.19922,1.85156-.19922Z"/><path class="b" d="M30.36768,41.94531c.89062,0,2.01953,.41406,3.38672,1.24219,.36719,.42969,.55078,.99219,.55078,1.6875v.9375h.03516c.89844-1.67969,1.97266-2.51953,3.22266-2.51953h.29297c1.34375,0,2.87891,.875,4.60547,2.625,1.38281,1.63281,2.07422,3.24609,2.07422,4.83984v.19922c0,2.08594-.67969,3.86719-2.03906,5.34375-.82031,.78906-1.91797,1.18359-3.29297,1.18359-1.52344,0-3-.57031-4.42969-1.71094l.02344,1.33594v.23438l-.05859,1.92285,.09375,2.19141c0,.8125-.21875,1.33594-.65625,1.57031-1.1875,.42969-2.15234,.64453-2.89453,.64453h-.32812c-1.01562,0-1.61719-.49219-1.80469-1.47656-.20312-.82031-.30469-1.79688-.30469-2.92969v-.97266c.09375-2.7666,.14062-5.37988,.14062-7.84082l-.23438-5.01562v-.05859c0-1.75,.37109-2.87109,1.11328-3.36328l.50391-.07031Zm4.04297,6.83203c.07031,2.79688,.19922,4.19531,.38672,4.19531,.3125,.53125,1.02734,.94922,2.14453,1.25391,.29688,.0625,.60156,.09375,.91406,.09375h.30469c.89062,0,1.46875-.28906,1.73438-.86719,.24219-.60156,.36328-1.33203,.36328-2.19141,0-1.83594-.60156-2.99219-1.80469-3.46875-.47656-.13281-.89453-.19922-1.25391-.19922-.91406,0-1.84375,.39453-2.78906,1.18359Z"/><path class="b" d="M53.25391,42.73047c1.36719,.08594,2.83594,.53906,4.40625,1.35938,.42969,.24219,.89844,.66797,1.40625,1.27734,.22656,.34375,.42578,.87891,.59766,1.60547,.21094,.96875,.28906,1.92188,.23438,2.85938l-.03516,.64453c-.39062,4.57812-.64844,6.86328-.77344,6.85547-.16406,.40625-.41016,.59863-.73828,.5752l-.32812-.01172c-.89844-.05469-1.89062-.41504-2.97656-1.0791-.27344-.24219-.39453-.62891-.36328-1.16016l-.03516-.09375c-.75,.49219-1.42188,.81641-2.01562,.97266-.66406,.25-1.64014,.33594-2.9292,.25781-1.82031-.10938-3.00391-1.21094-3.55078-3.30469-.15625-.5625-.21484-1.16016-.17578-1.79297,.125-2.02344,1.14062-3.23828,3.04688-3.64453,.71094-.11719,1.32422-.16016,1.83984-.12891,1.14795,.07031,2.34326,.58594,3.58545,1.54688h.03516l.10547-.58594,.01172-.11719c.0625-1.09375-.64844-1.91797-2.13281-2.47266l-.99609-.16406-1.86279,.02344c-.58594-.07031-.87109-.23438-.85547-.49219,.03125-.50781,.53516-1.18359,1.51172-2.02734,.8042-.67188,1.80029-.97266,2.98779-.90234Zm-3.19873,9.55078c-.05469,.8125,.25781,1.35547,.9375,1.62891l.50342,.09375c.46094,.02344,1.23828-.18359,2.33203-.62109,.32031-.25781,.51562-1.01562,.58594-2.27344-.47656-.40625-1.14453-.63672-2.00391-.69141l-.25781-.01172c-.86719-.05469-1.46436,.21875-1.79248,.82031-.17969,.32031-.28125,.67188-.30469,1.05469Z"/><path class="b" d="M69.48438,42.58984h.375c2.86719,0,4.80469,.41797,5.8125,1.25391,.17188,.21094,.25781,.42188,.25781,.63281,0,.66406-.51172,1.77734-1.53516,3.33984-.22656,.28125-.41016,.42188-.55078,.42188h-.02344c-.09375,0-.54688-.26562-1.35938-.79688-.64844-.34375-1.35938-.51562-2.13281-.51562h-.33984c-1.17188,0-1.9375,.64453-2.29688,1.93359-.07031,.34375-.10547,.66016-.10547,.94922,0,1.40625,.38281,2.23828,1.14844,2.49609,.42188,.24219,.875,.36328,1.35938,.36328,.64844,0,1.67188-.35547,3.07031-1.06641,.36719-.125,.63672-.1875,.80859-.1875h.12891c.75,0,1.24609,.61328,1.48828,1.83984,.11719,.67188,.19531,1.19922,.23438,1.58203,0,.25781-.15625,.43359-.46875,.52734-.79688,.44531-1.76172,.8125-2.89453,1.10156-1.32031,.27344-2.46484,.41016-3.43359,.41016-1.69531,0-3.34766-.69922-4.95703-2.09766-1.21875-1.05469-1.82812-2.72656-1.82812-5.01562v-.19922c0-1.58594,.30469-2.80469,.91406-3.65625,.21094-.45312,.74219-1.08594,1.59375-1.89844,1.14062-.94531,2.71875-1.41797,4.73438-1.41797Z"/><path class="b" d="M85.28125,42.83594c1.60156,0,3.07031,.5,4.40625,1.5,.86719,.95312,1.30078,2.26172,1.30078,3.92578v.03516c0,.85156-.22266,1.39062-.66797,1.61719-2.15625,.82031-4.58594,1.23047-7.28906,1.23047h-.59766l-.03516,.02344v.11719c.26562,.71875,.77344,1.27734,1.52344,1.67578,.46875,.25,1.21875,.375,2.25,.375,.94531,0,1.83203-.28125,2.66016-.84375,.3125-.17969,.62891-.26953,.94922-.26953h.07031c.64844,0,1.08203,.15625,1.30078,.46875,.1875,.21875,.28125,.82812,.28125,1.82812v.17578c0,.64844-.11719,1.03906-.35156,1.17188-.67969,.28906-1.48047,.53125-2.40234,.72656-1.33594,.21875-2.32031,.32812-2.95312,.32812h-.15234c-2.01562,0-3.79297-.44922-5.33203-1.34766-1.77344-1.49219-2.66016-3.5-2.66016-6.02344,0-3.00781,1.41406-5.03906,4.24219-6.09375,1.26562-.41406,2.41797-.62109,3.45703-.62109Zm-.51562,3.1875c-1.21875,0-2.01172,.44141-2.37891,1.32422l-.07031,.41016c0,.53906,.23438,.84375,.70312,.91406h.05859c.82812,0,2.05469-.23438,3.67969-.70312,.19531-.10938,.3125-.19922,.35156-.26953v-.19922c0-.65625-.38281-1.10547-1.14844-1.34766-.21094-.08594-.46484-.12891-.76172-.12891h-.15234l-.03516-.02344-.02344,.02344h-.22266Z"/></g></svg>